DBRep_DrawableShape

CASCADE Topology V1, (c) Matra-Datavision
Locations 25
1
              1               0               0               0 
              0               1               0               0 
              0               0               1               0 
1
              1               0               0               0 
              0               1               0               0 
              0               0               1               0 
1
              1               0               0        -0.01143 
              0               1               0        -0.00508 
              0               0               1             0.1 
2  2 1 3 1 1 1 0
2  1 -1 3 -1 2 -1 0
2  1 -1 0
1
              1               0               0        -0.01143 
              0 2.22044604925031e-16              -1        -0.00508 
              0               1 2.22044604925031e-16           0.099 
2  7 -1 0
1
              1               0               0        -0.01143 
              0 2.22044604925031e-16              -1        -0.00508 
              0               1 2.22044604925031e-16               0 
2  9 -1 0
1
              1               0               0              -0 
              0               1               0              -0 
              0               0               1            -0.1 
2  2 1 3 1 11 1 1 1 0
2  1 -1 11 -1 3 -1 2 -1 0
1
              0               0               1         0.01143 
              1               0               0        -0.00508 
              0               1               0           0.099 
2  14 -1 0
1
              0               0               1         0.01143 
              1               0               0        -0.00508 
              0               1               0               0 
2  16 -1 0
1
             -1               0               0         0.01143 
              0 2.22044604925031e-16               1         0.00508 
              0               1 -2.22044604925031e-16           0.099 
2  18 -1 0
1
             -1               0               0         0.01143 
              0 2.22044604925031e-16               1         0.00508 
              0               1 -2.22044604925031e-16               0 
2  20 -1 0
1
              0               0               1        -0.01143 
              1               0               0        -0.00508 
              0               1               0           0.099 
2  22 -1 0
1
              0               0               1        -0.01143 
              1               0               0        -0.00508 
              0               1               0               0 
2  24 -1 0
Curve2ds 4
1 -0.011429999999999999 -0.0050799999999999899 1 0 
1 0.011429999999999999 -0.0050799999999999899 0 1 
1 0.011429999999999999 0.0050799999999999899 -1 0 
1 -0.011429999999999999 0.0050799999999999899 0 -1 
Curves 16
1 0 0 0 1 0 0 
1 0.011429999999999999 -0.0050799999999999804 0.10000000000000001 -0 -0 -1 
1 0 0 0 1 0 0 
1 -0.011429999999999999 -0.0050799999999999804 0.10000000000000001 -0 -0 -1 
1 0.022859999999999998 0.001 0 -1 0 0 
1 0.022859999999999998 0 0 0 1 0 
1 0.011429999999999999 0.0050800000000000003 0.10000000000000001 -0 -0 -1 
1 0 0 0 1 0 0 
1 0.010160000000000001 0.001 0 -1 0 0 
1 0.022859999999999998 0.01015999999999998 0 -1 0 0 
1 -0.011429999999999999 0.0050800000000000003 0.10000000000000001 -0 -0 -1 
1 0 0 0 1 0 0 
1 0.022859999999999998 0.001 0 -1 0 0 
1 0 0.01015999999999998 0 0 -1 0 
1 0 0 0 1 0 0 
1 0.010160000000000001 0.001 0 -1 0 0 
Polygon3D 0
PolygonOnTriangulations 0
Surfaces 5
1 -0.011429999999999999 -0.0050799999999999804 0.10000000000000001 0 -1 0 1 0 0 -0 0 1 
1 0.011429999999999999 0.0050799999999999899 0 0 0 1 1 0 -0 -0 1 0 
1 0.011429999999999999 -0.0050799999999999804 0.10000000000000001 1 0 0 -0 1 0 0 -0 1 
1 0.011429999999999999 0.0050800000000000003 0.10000000000000001 0 1 -0 -1 0 0 0 0 1 
1 -0.011429999999999999 0.0050800000000000003 0.10000000000000001 -1 0 0 0 -1 0 0 0 1 
Triangulations 0

TShapes 76
Ve
1.00000000033935e-07
-0.01143 -0.00508 0.1
0 0

0101101
*
Ve
1.00000000019949e-07
0.01143 -0.00508 0.1
0 0

0101101
*
Ed
 1.00000000001735e-07 1 1 0
1  1 0 0 0.02286
2  1 2 0 0 0.02286
0

0101000
+76 5 -75 5 *
Ve
1.00000000033935e-07
0.01143 -0.00508 0.099
0 0

0101101
*
Ed
 1.00000000019949e-07 1 1 0
1  2 0 0 0.001
0

0101000
+75 6 -73 6 *
Ve
1.00000000033935e-07
-0.01143 -0.00508 0.099
0 0

0101101
*
Ed
 1.00000000019949e-07 1 1 0
1  3 0 0 0.02286
0

0101000
+71 8 -73 8 *
Ed
 1.00000000019949e-07 1 1 0
1  4 0 0 0.001
0

0101000
+76 6 -71 6 *
Wi

0101100
-74 4 -72 1 +70 7 +69 1 *
Fa
0  1e-07 1 1

0101000
+68 0 *
Ve
1.00000000021703e-07
0.01143 -0.00508 0.001
0 0

0101101
*
Ve
1.00000000021703e-07
-0.01143 -0.00508 0.001
0 0

0101101
*
Ed
 1.00000000019949e-07 1 1 0
1  5 0 0 0.02286
0

0101000
+66 10 -65 10 *
Ve
1.00000000019949e-07
0.01143 -0.00508 0
0 0

0101101
*
Ed
 1.00000000019949e-07 1 1 0
1  2 0 0.099 0.1
0

0101000
+66 6 -63 6 *
Ve
1.00000000021684e-07
-0.01143 -0.00508 0
0 0

0101101
*
Ed
 1e-07 1 1 0
1  1 0 0 0.02286
2  1 2 0 0 0.02286
0

0101000
+61 13 -63 13 *
Ed
 1.00000000019949e-07 1 1 0
1  4 0 0.099 0.1
0

0101000
+65 6 -61 6 *
Wi

0101100
+64 9 -62 1 +60 12 +59 1 *
Fa
0  1e-07 1 1

0101000
+58 0 *
Ve
1.00000000020889e-07
0.01143 0.00508 0.1
0 0

0101101
*
Ed
 1.00000000000867e-07 1 1 0
1  6 0 0 0.01016
2  2 2 0 0 0.01016
0

0101000
+75 5 -56 5 *
Ve
1e-07
0.01143 0.00508 0.099
0 0

0101101
*
Ed
 1e-07 1 1 0
1  7 0 0 0.001
0

0101000
+56 6 -54 6 *
Ed
 1e-07 1 1 0
1  8 0 0 0.01016
0

0101000
+73 15 -54 15 *
Wi

0101100
-55 4 -53 1 +52 14 +72 1 *
Fa
0  1e-07 3 1

0101000
+51 0 *
Ve
1.00000000002602e-07
0.01143 0.00508 0.001
0 0

0101101
*
Ed
 1e-07 1 1 0
1  9 0 0 0.01016
0

0101000
+49 17 -66 17 *
Ve
1.00000000020817e-07
0.01143 0.00508 0
0 0

0101101
*
Ed
 1e-07 1 1 0
1  7 0 0.099 0.1
0

0101000
+49 6 -47 6 *
Ed
 1e-07 1 1 0
1  6 0 0 0.01016
2  2 2 0 0 0.01016
0

0101000
+63 13 -47 13 *
Wi

0101100
+48 16 -46 1 +45 12 +62 1 *
Fa
0  1e-07 3 1

0101000
+44 0 *
Ve
1.00000000034875e-07
-0.01143 0.00508 0.1
0 0

0101101
*
Ed
 1.00000000020889e-07 1 1 0
1  10 0 0 0.02286
2  3 2 0 0 0.02286
0

0101000
+56 5 -42 5 *
Ve
1e-07
-0.01143 0.00508 0.099
0 0

0101101
*
Ed
 1e-07 1 1 0
1  11 0 0 0.001
0

0101000
+42 6 -40 6 *
Ed
 1e-07 1 1 0
1  12 0 0 0.02286
0

0101000
+54 19 -40 19 *
Wi

0101100
-41 4 -39 1 +38 18 +53 1 *
Fa
0  1e-07 4 1

0101000
+37 0 *
Ve
1.00000000002602e-07
-0.01143 0.00508 0.001
0 0

0101101
*
Ed
 1e-07 1 1 0
1  13 0 0 0.02286
0

0101000
+35 21 -49 21 *
Ve
1.00000000022551e-07
-0.01143 0.00508 0
0 0

0101101
*
Ed
 1e-07 1 1 0
1  11 0 0.099 0.1
0

0101000
+35 6 -33 6 *
Ed
 1.00000000020817e-07 1 1 0
1  10 0 0 0.02286
2  3 2 0 0 0.02286
0

0101000
+47 13 -33 13 *
Wi

0101100
+34 20 -32 1 +31 12 +46 1 *
Fa
0  1e-07 4 1

0101000
+30 0 *
Ed
 1e-07 1 1 0
1  14 0 0 0.01016
2  4 2 0 0 0.01016
0

0101000
+42 5 -76 5 *
Ed
 1e-07 1 1 0
1  15 0 0 0.01016
0

0101000
+71 23 -40 23 *
Wi

0101100
-28 4 -69 1 -27 22 +39 1 *
Fa
0  1e-07 5 1

0101000
+26 0 *
Ed
 1e-07 1 1 0
1  16 0 0 0.01016
0

0101000
+35 25 -65 25 *
Ed
 1.00000000000867e-07 1 1 0
1  14 0 0 0.01016
2  4 2 0 0 0.01016
0

0101000
+33 13 -61 13 *
Wi

0101100
-24 24 -59 1 +23 12 +32 1 *
Fa
0  1e-07 5 1

0101000
+22 0 *
Ed
 1e-07 1 1 0
1  2 0 0.001 0.099
0

0101000
+73 6 -66 6 *
Ed
 1e-07 1 1 0
1  4 0 0.001 0.099
0

0101000
+71 6 -65 6 *
Wi

0101100
-70 7 -20 1 -64 9 +19 1 *
Fa
0  1e-07 1 1

0101000
+18 0 *
Ed
 1e-07 1 1 0
1  7 0 0.001 0.099
0

0101000
+54 6 -49 6 *
Wi

0101100
-52 14 -16 1 -48 16 +20 1 *
Fa
0  1e-07 3 1

0101000
+15 0 *
Ed
 1e-07 1 1 0
1  11 0 0.001 0.099
0

0101000
+40 6 -35 6 *
Wi

0101100
-38 18 -13 1 -34 20 +16 1 *
Fa
0  1e-07 4 1

0101000
+12 0 *
Wi

0101100
+27 22 -19 1 +24 24 +13 1 *
Fa
0  1e-07 5 1

0101000
+10 0 *
Wi

0101100
+74 4 +55 4 +41 4 +28 4 *
Fa
0  1e-07 2 4

0101000
+8 0 *
Wi

0101100
+60 12 +45 12 +31 12 +23 12 *
Fa
0  1e-07 2 12

0101000
+6 0 *
Sh

0101100
+67 0 +17 0 +57 0 +50 0 +14 0 +43 0 +36 0 +11 0 +29 0 +25 0 
+9 0 +21 0 +7 0 -5 0 *
So

0100000
+4 0 *
Co

0100000
+67 0 +57 0 +50 0 +43 0 +36 0 +29 0 +25 0 +21 0 +3 0 *
Co

1100000
+2 0 *

+1 0 