DBRep_DrawableShape

CASCADE Topology V1, (c) Matra-Datavision
Locations 34
1
              1               0               0               0 
              0               1               0               0 
              0               0               1               0 
1
              1               0               0               0 
              0               1               0               0 
              0               0               1           19.05 
2  2 -1 0
1
              1               0               0               0 
              0               1               0               0 
              0               0               1               0 
2  4 -1 2 -1 0
1
              1               0               0               0 
              0               1               0               0 
              0               0               1               0 
1
              1 -3.06161699786838e-17               0           5.296 
3.06161699786838e-17               1               0               0 
              0               0               1               0 
2  6 1 7 1 2 1 0
2  2 -1 7 -1 6 -1 0
2  4 -1 2 -1 7 -1 6 -1 0
1
              1               0               0               0 
              0               1               0               0 
              0               0               1            7.62 
2  6 1 7 1 11 1 2 1 0
2  2 -1 11 -1 7 -1 6 -1 0
2  4 -1 2 -1 11 -1 7 -1 6 -1 0
2  6 1 7 1 0
2  7 -1 6 -1 0
2  6 1 7 1 11 1 0
2  11 -1 7 -1 6 -1 0
1
              1               0               0               0 
              0               1               0               0 
              0               0               1               0 
2  19 -1 0
2  4 -1 19 -1 0
1
              1               0               0               0 
              0               1               0               0 
              0               0               1               0 
1
              1               0               0               0 
              0               1               0               0 
              0               0               1               0 
2  22 1 23 1 19 1 0
2  19 -1 23 -1 22 -1 0
2  4 -1 19 -1 23 -1 22 -1 0
1
              1               0               0               0 
              0               1               0               0 
              0               0               1           45.72 
2  22 1 23 1 27 1 19 1 0
2  19 -1 27 -1 23 -1 22 -1 0
2  4 -1 19 -1 27 -1 23 -1 22 -1 0
2  22 1 23 1 0
2  23 -1 22 -1 0
2  22 1 23 1 27 1 0
2  27 -1 23 -1 22 -1 0
Curve2ds 0
Curves 24
1 0.005296000000000003 0 -19.030950000000001 0 0 1 
1 0.013754000000000008 2.5895156567970796e-19 -19.030950000000001 0 0 1 
1 -5.2907039999999999 1.6198109297090248e-16 -19.030950000000001 1 0 0 
1 -5.2907039999999999 1.6198109297090248e-16 -26.643330000000002 1 0 0 
1 0.013754000000000008 0.0038000000000000022 -19.030950000000001 0 0 1 
1 -5.2822459999999998 1.6198109297090248e-16 -19.030950000000001 0 1 0 
1 -5.2822459999999998 1.6198109297090248e-16 -26.643330000000002 0 1 0 
1 0.005296000000000003 0.0038000000000000017 -19.030950000000001 0 0 1 
1 -5.2822459999999998 0.0038000000000001639 -19.030950000000001 -1 0 0 
1 -5.2822459999999998 0.0038000000000001639 -26.643330000000002 -1 0 0 
1 -5.2907039999999999 0.0038000000000001639 -19.030950000000001 0 -1 0 
1 -5.2907039999999999 0.0038000000000001639 -26.643330000000002 0 -1 0 
1 0 0 0 0 0 1 
1 0 0 0 1 0 0 
1 0 0 -45.674279999999996 1 0 0 
1 0.019050000000000008 0 0 0 0 1 
1 0 0.0095250000000000039 0 0 0 1 
1 0 0.0095250000000000039 0 0 -1 0 
1 0 0.0095250000000000039 -45.674279999999996 0 -1 0 
1 0.019050000000000008 0 0 0 1 0 
1 0.019050000000000008 0.0095250000000000039 0 -1 0 0 
1 0.019050000000000008 0 -45.674279999999996 0 1 0 
1 0.019050000000000008 0.0095250000000000039 -45.674279999999996 -1 0 0 
1 0.019050000000000008 0.0095250000000000039 0 0 0 1 
Polygon3D 0
PolygonOnTriangulations 52
2 1 2 
p 0.000123825000000005 1 0 0.00762 
2 4 3 
p 0.000123825000000005 1 0 0.00762 
2 5 6 
p 0.000123825000000005 1 0 0.00762 
2 4 3 
p 0.000123825000000005 1 0 0.00762 
2 1 2 
p 0.000123825000000005 1 0 0.00762 
2 7 8 
p 0.000123825000000005 1 0 0.00762 
2 1 4 
p 0.000123825000000005 1 0 0.008458 
2 1 2 
p 0.000123825000000005 1 0 0.008458 
2 5 7 
p 0.000123825000000005 1 0 0.008458 
2 2 3 
p 0.000123825000000005 1 0 0.008458 
2 1 2 
p 0.000123825000000005 1 0 0.008458 
2 6 8 
p 0.000123825000000005 1 0 0.008458 
2 4 3 
p 0.000123825000000005 1 0 0.00762 
2 1 2 
p 0.000123825000000005 1 0 0.00762 
2 1 4 
p 0.000123825000000005 1 0 0.0038 
2 2 3 
p 0.000123825000000005 1 0 0.0038 
2 2 3 
p 0.000123825000000005 1 0 0.0038 
2 2 3 
p 0.000123825000000005 1 0 0.0038 
2 4 3 
p 0.000123825000000005 1 0 0.00762 
2 1 2 
p 0.000123825000000005 1 0 0.00762 
2 1 4 
p 0.000123825000000005 1 0 0.008458 
2 3 4 
p 0.000123825000000005 1 0 0.008458 
2 2 3 
p 0.000123825000000005 1 0 0.008458 
2 3 4 
p 0.000123825000000005 1 0 0.008458 
2 1 4 
p 0.000123825000000005 1 0 0.0038 
2 4 1 
p 0.000123825000000005 1 0 0.0038 
2 2 3 
p 0.000123825000000005 1 0 0.0038 
2 4 1 
p 0.000123825000000005 1 0 0.0038 
2 1 2 
p 0.000123825000000005 1 0 0.04572 
2 4 3 
p 0.000123825000000005 1 0 0.04572 
2 1 4 
p 0.000123825000000005 1 0 0.01905 
2 1 2 
p 0.000123825000000005 1 0 0.01905 
2 2 3 
p 0.000123825000000005 1 0 0.01905 
2 1 2 
p 0.000123825000000005 1 0 0.01905 
2 4 3 
p 0.000123825000000005 1 0 0.04572 
2 1 2 
p 0.000123825000000005 1 0 0.04572 
2 1 2 
p 0.000123825000000005 1 0 0.04572 
2 4 3 
p 0.000123825000000005 1 0 0.04572 
2 1 4 
p 0.000123825000000005 1 0 0.009525 
2 4 1 
p 0.000123825000000005 1 0 0.009525 
2 2 3 
p 0.000123825000000005 1 0 0.009525 
2 4 1 
p 0.000123825000000005 1 0 0.009525 
2 2 3 
p 0.000123825000000005 1 0 0.009525 
2 1 4 
p 0.000123825000000005 1 0 0.009525 
2 3 4 
p 0.000123825000000005 1 0 0.01905 
2 1 4 
p 0.000123825000000005 1 0 0.01905 
2 2 3 
p 0.000123825000000005 1 0 0.009525 
2 2 3 
p 0.000123825000000005 1 0 0.009525 
2 3 4 
p 0.000123825000000005 1 0 0.01905 
2 2 3 
p 0.000123825000000005 1 0 0.01905 
2 4 3 
p 0.000123825000000005 1 0 0.04572 
2 1 2 
p 0.000123825000000005 1 0 0.04572 
Surfaces 12
1 0.005296000000000003 0 -19.030950000000001 -3.061616997868383e-17 1 0 1 3.061616997868383e-17 0 0 0 -1 
1 0.013754000000000008 2.5895156567970796e-19 -19.030950000000001 -1 -3.061616997868383e-17 0 -3.061616997868383e-17 1 0 0 0 -1 
1 0.013754000000000008 0.0038000000000000022 -19.030950000000001 3.061616997868383e-17 -1 0 -1 -3.061616997868383e-17 0 0 0 -1 
1 0.005296000000000003 0.0038000000000000017 -19.030950000000001 1 3.061616997868383e-17 0 3.061616997868383e-17 -1 0 0 0 -1 
1 -5.2864750000000003 0.0019000000000001631 -19.030950000000001 0 0 1 1 0 0 0 1 0 
1 -5.2864750000000003 0.0019000000000001631 -26.643330000000002 0 0 1 1 0 0 0 1 0 
1 0 0 0 0 1 0 1 0 0 0 0 -1 
1 0 0.0095250000000000039 0 1 0 0 0 -1 0 0 0 -1 
1 0.0095250000000000022 0.0047625000000000011 0 0 0 1 1 0 0 0 1 0 
1 0.0095250000000000022 0.0047625000000000011 -45.674279999999996 0 0 1 1 0 0 0 1 0 
1 0.019050000000000008 0 0 -1 0 0 0 1 0 0 0 -1 
1 0.019050000000000008 0.0095250000000000039 0 0 -1 0 -1 0 0 -0 -0 -1 
Triangulations 12
4 2 1 0.000123825000000005
0.005296 0 0.01905 0.005296 0 0.02667 0.013754 2.58951565679708e-19 0.02667 0.013754 2.58951565679708e-19 0.01905 4.08527378592538e-16 0 4.08527378592538e-16 -0.00761999999999929 0.008458 -0.00762 0.00845800000000041 0 4 1 2 4 2 3 
4 2 1 0.000123825000000005
0.005296 0.0038 0.01905 0.005296 0.0038 0.02667 0.005296 0 0.02667 0.005296 0 0.01905 0 0 0 -0.00761999999999929 0.0038 -0.00762 0.0038 0 4 1 2 4 2 3 
8 8 1 0.000123825000000005
0 0 0 0 0 0.04572 0.01905 0 0.04572 0.01905 0 0 0.005296 0 0.01905 0.005296 0 0.02667 0.013754 2.58951565679708e-19 0.01905 0.013754 2.58951565679708e-19 0.02667 0 0 0 -0.0457200000000029 0.01905 -0.04572 0.01905 0 0.00529600000000041 -0.01905 0.00529600000000041 -0.0266699999999993 0.013754 -0.01905 0.0137540000000004 -0.0266699999999993 6 2 3 8 6 3 4 5 7 4 1 5 1 2 6 1 6 5 3 4 8 8 4 7 
4 2 1 0.000123825000000005
0.013754 2.58951565679708e-19 0.01905 0.013754 2.58951565679708e-19 0.02667 0.013754 0.0038 0.02667 0.013754 0.0038 0.01905 2.2485232100721e-32 0 2.2485232100721e-32 -0.00761999999999929 0.0038 -0.00762 0.0038 0 4 1 2 4 2 3 
4 2 1 0.000123825000000005
0.005296 0 0.01905 0.013754 2.58951565679708e-19 0.01905 0.013754 0.0038 0.01905 0.005296 0.0038 0.01905 -0.00422899999999959 -0.0019 0.00422900000000048 -0.0019 0.00422900000000048 0.0019 -0.00422899999999959 0.0019 3 1 2 3 4 1 
4 2 1 0.000123825000000005
0.005296 0 0.02667 0.013754 2.58951565679708e-19 0.02667 0.013754 0.0038 0.02667 0.005296 0.0038 0.02667 -0.00422899999999959 -0.0019 0.00422900000000048 -0.0019 0.00422900000000048 0.0019 -0.00422899999999959 0.0019 3 1 2 3 4 1 
4 2 1 0.000123825000000005
0.013754 0.0038 -19.03095 0.013754 0.0038 -19.02333 0.005296 0.0038 -19.02333 0.005296 0.0038 -19.03095 -4.80518402845576e-16 0 -4.80518402845576e-16 -0.00761999999999929 0.008458 -0.00762 0.00845799999999952 0 4 1 2 4 2 3 
4 2 1 0.000123825000000005
0 0.009525 0 0 0.009525 0.04572 0 0 0.04572 0 0 0 0 0 0 -0.0457200000000029 0.009525 -0.04572 0.009525 0 1 2 3 4 1 3 
4 2 1 0.000123825000000005
0 0 0 0.01905 0 0 0.01905 0.009525 0 0 0.009525 0 -0.009525 -0.0047625 0.00952500000000001 -0.0047625 0.00952500000000001 0.0047625 -0.009525 0.0047625 3 1 2 3 4 1 
4 2 1 0.000123825000000005
0 0 -45.67428 0.01905 0 -45.67428 0.01905 0.009525 -45.67428 0 0.009525 -45.67428 -0.009525 -0.0047625 0.00952500000000001 -0.0047625 0.00952500000000001 0.0047625 -0.009525 0.0047625 3 1 2 3 4 1 
4 2 1 0.000123825000000005
0.01905 0 0 0.01905 0 0.04572 0.01905 0.009525 0.04572 0.01905 0.009525 0 0 0 0 -0.0457200000000029 0.009525 -0.04572 0.009525 0 1 2 3 4 1 3 
4 2 1 0.000123825000000005
0.01905 0.009525 0 0.01905 0.009525 0.04572 0 0.009525 0.04572 0 0.009525 0 0 0 0 -0.0457200000000029 0.01905 -0.04572 0.01905 0 1 2 3 4 1 3 

TShapes 71
Ve
1e-07
0.005296 0 0.01905
0 0

0101101
*
Ve
1e-07
0.005296 0 0.02667
0 0

0101101
*
Ed
 1e-10 1 1 0
1  1 0 0 0.00762
6  1 1 3
6  2 2 3
6  3 3 3
0

0101000
+71 5 -70 5 *
Ve
1e-07
0.013754 2.58951565679708e-19 0.01905
0 0

0101101
*
Ve
1e-07
0.013754 2.58951565679708e-19 0.02667
0 0

0101101
*
Ed
 1.00000000258952e-10 1 1 0
1  2 0 0 0.00762
6  4 1 3
6  5 4 3
6  6 3 3
0

0101000
+68 5 -67 5 *
Ed
 1.00000000237372e-10 1 1 0
1  3 0 0 0.008458
6  7 1 9
6  8 5 9
6  9 3 9
0

0101000
+71 10 -68 10 *
Ed
 1.00000000237372e-10 1 1 0
1  4 0 0 0.008458
6  10 1 13
6  11 6 13
6  12 3 13
0

0101000
+70 14 -67 14 *
Wi

0101100
+69 2 -66 2 -65 8 +64 12 *
Fa
0  1e-10 1 2
2  1
0101000
+63 0 *
Ve
1e-07
0.013754 0.0038 0.01905
0 0

0101101
*
Ve
1e-07
0.013754 0.0038 0.02667
0 0

0101101
*
Ed
 1e-10 1 1 0
1  5 0 0 0.00762
6  13 4 3
6  14 7 0
0

0101000
+61 5 -60 5 *
Ed
 1e-10 1 1 0
1  6 0 0 0.0038
6  15 4 9
6  16 5 9
0

0101000
+68 10 -61 10 *
Ed
 1e-10 1 1 0
1  7 0 0 0.0038
6  17 4 13
6  18 6 13
0

0101000
+67 14 -60 14 *
Wi

0101100
+66 2 -59 2 -58 8 +57 12 *
Fa
0  1e-10 2 2
2  4
0101000
+56 0 *
Ve
1e-07
0.005296 0.0038 0.01905
0 0

0101101
*
Ve
1e-07
0.005296 0.0038 0.02667
0 0

0101101
*
Ed
 1e-10 1 1 0
1  8 0 0 0.00762
6  19 7 0
6  20 2 3
0

0101000
+54 5 -53 5 *
Ed
 1e-10 1 1 0
1  9 0 0 0.008458
6  21 7 16
6  22 5 9
0

0101000
+61 10 -54 10 *
Ed
 1e-10 1 1 0
1  10 0 0 0.008458
6  23 7 18
6  24 6 13
0

0101000
+60 14 -53 14 *
Wi

0101100
+59 0 -52 0 -51 15 +50 17 *
Fa
0  1e-10 3 0
2  7
0101000
+49 0 *
Ed
 1e-10 1 1 0
1  11 0 0 0.0038
6  25 2 9
6  26 5 9
0

0101000
+54 10 -71 10 *
Ed
 1e-10 1 1 0
1  12 0 0 0.0038
6  27 2 13
6  28 6 13
0

0101000
+53 14 -70 14 *
Wi

0101100
+52 2 -69 2 -47 8 +46 12 *
Fa
0  1e-10 4 2
2  2
0101000
+45 0 *
Wi

0101100
+65 8 +58 8 +51 8 +47 8 *
Fa
0  1e-10 5 8
2  5
0101000
+43 0 *
Wi

0101100
+64 12 +57 12 +50 12 +46 12 *
Fa
0  1e-10 6 12
2  6
0101000
+41 0 *
Sh

0101100
+62 0 +55 0 +48 2 +44 0 +42 0 -40 0 *
So

0100000
-39 0 *
Ve
1e-07
0 0 0
0 0

0101101
*
Ve
1e-07
0 0 0.04572
0 0

0101101
*
Ed
 1e-10 1 1 0
1  13 0 0 0.04572
6  29 3 20
6  30 8 0
0

0101000
+37 21 -36 21 *
Ve
1e-07
0.01905 0 0
0 0

0101101
*
Ed
 1e-10 1 1 0
1  14 0 0 0.01905
6  31 3 25
6  32 9 0
0

0101000
+37 26 -34 26 *
Ve
1e-07
0.01905 0 0.04572
0 0

0101101
*
Ed
 1e-10 1 1 0
1  15 0 0 0.01905
6  33 3 29
6  34 10 0
0

0101000
+36 30 -32 30 *
Ed
 1e-10 1 1 0
1  16 0 0 0.04572
6  35 3 20
6  36 11 0
0

0101000
+34 21 -32 21 *
Wi

0101100
+35 19 -33 24 +31 28 -30 19 *
Wi

0101100
-69 2 -64 12 +66 2 +65 8 *
Fa
0  1e-10 7 19
2  3
0101000
+29 0 +28 0 *
Ve
1e-07
0 0.009525 0
0 0

0101101
*
Ve
1e-07
0 0.009525 0.04572
0 0

0101101
*
Ed
 1e-10 1 1 0
1  17 0 0 0.04572
6  37 8 0
6  38 12 0
0

0101000
+26 21 -25 21 *
Ed
 1e-10 1 1 0
1  18 0 0 0.009525
6  39 8 32
6  40 9 0
0

0101000
+26 26 -37 26 *
Ed
 1e-10 1 1 0
1  19 0 0 0.009525
6  41 8 34
6  42 10 0
0

0101000
+25 30 -36 30 *
Wi

0101100
+24 0 -35 0 -23 31 +22 33 *
Fa
0  1e-10 8 0
2  8
0101000
+21 0 *
Ve
1e-07
0.01905 0.009525 0
0 0

0101101
*
Ed
 1e-10 1 1 0
1  20 0 0 0.009525
6  43 9 0
6  44 11 32
0

0101000
+34 26 -19 26 *
Ed
 1e-10 1 1 0
1  21 0 0 0.01905
6  45 9 0
6  46 12 32
0

0101000
+19 26 -26 26 *
Wi

0101100
+33 0 +18 0 +17 0 +23 0 *
Fa
0  1e-10 9 0
2  9
0101000
+16 0 *
Ve
1e-07
0.01905 0.009525 0.04572
0 0

0101101
*
Ed
 1e-10 1 1 0
1  22 0 0 0.009525
6  47 10 0
6  48 11 34
0

0101000
+32 30 -14 30 *
Ed
 1e-10 1 1 0
1  23 0 0 0.01905
6  49 10 0
6  50 12 34
0

0101000
+14 30 -25 30 *
Wi

0101100
+31 0 +13 0 +12 0 +22 0 *
Fa
0  1e-10 10 0
2  10
0101000
+11 0 *
Ed
 1e-10 1 1 0
1  24 0 0 0.04572
6  51 11 0
6  52 12 0
0

0101000
+19 21 -14 21 *
Wi

0101100
+30 0 -9 0 -18 31 +13 33 *
Fa
0  1e-10 11 0
2  11
0101000
+8 0 *
Wi

0101100
+9 0 -24 0 -17 31 +12 33 *
Fa
0  1e-10 12 0
2  12
0101000
+6 0 *
Sh

0101100
-27 0 -20 19 -15 24 +10 28 -7 19 +44 0 -40 0 +55 0 +42 0 -5 19 
+48 2 *
So

0100000
+4 0 *
Co

0100000
+38 0 +3 0 *
Co

1100000
+2 1 *

+1 0 