DBRep_DrawableShape

CASCADE Topology V1, (c) Matra-Datavision
Locations 36
1
              1               0               0               0 
              0               1               0               0 
              0               0               1               0 
1
              1               0               0               0 
              0               1               0               0 
              0               0               1               0 
1
              1               0               0               0 
              0               1               0               0 
              0               0               1              30 
2  2 1 3 1 0
2  3 -1 2 -1 0
1
              1               0               0               0 
              0               1               0               0 
              0               0               1               0 
2  6 -1 3 -1 2 -1 0
1
              1               0               0               0 
              0               1               0               0 
              0               0               1               0 
1
              1               0               0          -9.525 
              0               1               0               0 
              0               0               1               0 
2  8 1 9 1 0
2  9 -1 8 -1 0
2  6 -1 3 -1 2 -1 9 -1 8 -1 0
1
              1               0               0               0 
              0               1               0               0 
              0               0               1              60 
2  8 1 9 1 13 1 0
2  13 -1 9 -1 8 -1 0
2  6 -1 3 -1 2 -1 13 -1 9 -1 8 -1 0
1
              1               0               0               0 
              0               1               0               0 
              0               0               1               0 
1
              1               0               0          -9.525 
              0               1               0               0 
              0               0               1               0 
1
              1               0               0               0 
              0               1               0               0 
              0               0               1              30 
1
              1               0               0               0 
              0               1               0               0 
              0               0               1               0 
1
              1               0               0               0 
              0 2.22044604925031e-16              -1           34.76 
              0               1 2.22044604925031e-16           55.24 
2  17 1 18 1 19 1 20 1 21 1 0
2  21 -1 20 -1 19 -1 18 -1 17 -1 0
2  19 -1 18 -1 17 -1 0
2  6 -1 21 -1 20 -1 19 -1 18 -1 17 -1 0
2  8 1 9 1 2 1 3 1 0
2  3 -1 2 -1 9 -1 8 -1 0
2  8 1 9 1 13 1 2 1 3 1 0
2  3 -1 2 -1 13 -1 9 -1 8 -1 0
2  20 1 21 1 0
2  6 -1 21 -1 20 -1 0
2  17 1 18 1 0
2  18 -1 17 -1 0
2  6 -1 21 -1 20 -1 18 -1 17 -1 0
2  17 1 18 1 19 1 0
2  17 1 18 1 20 1 21 1 0
Curve2ds 0
Curves 26
1 -0.0095250000000000039 0 -29.969999999999999 0 0 1 
1 0.0095250000000000039 0 -29.969999999999999 0 0 1 
1 9.5154750000000003 0 -29.969999999999999 1 0 0 
1 9.5154750000000003 0 -89.909999999999997 1 0 0 
1 -0.0095250000000000039 0.0047600000000000021 -29.969999999999999 0 0 1 
1 9.5154750000000003 -55.175240000000002 4.7552399999999855 0 -1 0 
1 -0.0095250000000000039 0.0047600000000000021 -29.969999999999999 0 0 1 
1 9.5154750000000003 0.0047600000000000021 -29.969999999999999 0 -1 0 
1 9.5154750000000003 0.0047600000000000021 -89.909999999999997 0 -1 0 
1 0.0095250000000000039 0.0047600000000000021 -29.969999999999999 0 0 1 
1 9.5345250000000004 -55.184760000000004 4.7552399999999855 0 1 0 
1 0.0095250000000000039 0.0047600000000000021 -29.969999999999999 0 0 1 
1 9.5345250000000004 0 -29.969999999999999 0 1 0 
1 9.5345250000000004 0 -89.909999999999997 0 1 0 
1 9.5345250000000004 0.0047600000000000021 -29.969999999999999 -1 0 0 
1 9.5345250000000004 0.0047600000000000021 -89.909999999999997 -1 0 0 
1 9.5154750000000003 -55.184760000000004 4.7552399999999855 1 0 0 
1 -0.0095250000000000039 -55.175240000000002 34.725239999999985 0 0 1 
1 -0.0095250000000000039 -55.184760000000004 34.725239999999985 0 0 1 
1 9.5154750000000003 -55.175240000000002 34.725239999999985 0 -1 0 
1 9.5345250000000004 -55.175240000000002 4.7552399999999855 -1 0 0 
1 0.0095250000000000039 -55.184760000000004 34.725239999999985 0 0 1 
1 0.0095250000000000039 -55.175240000000002 34.725239999999985 0 0 1 
1 9.5345250000000004 -55.184760000000004 34.725239999999985 0 1 0 
1 9.5154750000000003 -55.184760000000004 34.725239999999985 1 0 0 
1 9.5345250000000004 -55.175240000000002 34.725239999999985 -1 0 0 
Polygon3D 0
PolygonOnTriangulations 52
2 1 2 
p 0.000189683333333335 1 0 0.06 
2 6 5 
p 0.000189683333333335 1 0 0.06 
2 4 3 
p 0.000189683333333335 1 0 0.06 
2 1 2 
p 0.000189683333333335 1 0 0.06 
2 1 4 
p 0.000189683333333335 1 0 0.01905 
2 1 2 
p 0.000189683333333335 1 0 0.01905 
2 2 3 
p 0.000189683333333335 1 0 0.01905 
2 1 2 
p 0.000189683333333335 1 0 0.01905 
2 1 2 
p 0.000189683333333335 1 0 0.02524 
2 2 4 
p 0.000189683333333335 1 0 0.02524 
2 3 2 
p 0.000189683333333335 1 0 0.00952 
2 2 3 
p 0.000189683333333335 1 0 0.00952 
2 3 4 
p 0.000189683333333335 1 0.03476 0.06 
2 2 4 
p 0.000189683333333335 1 0.03476 0.06 
2 1 6 
p 0.000189683333333335 1 0 0.00476 
2 4 1 
p 0.000189683333333335 1 0 0.00476 
2 4 5 
p 0.000189683333333335 1 0 0.00476 
2 4 1 
p 0.000189683333333335 1 0 0.00476 
2 6 5 
p 0.000189683333333335 1 0 0.02524 
2 1 3 
p 0.000189683333333335 1 0 0.02524 
2 5 4 
p 0.000189683333333335 1 0 0.00952 
2 2 3 
p 0.000189683333333335 1 0 0.00952 
2 4 3 
p 0.000189683333333335 1 0.03476 0.06 
2 1 3 
p 0.000189683333333335 1 0.03476 0.06 
2 1 6 
p 0.000189683333333335 1 0 0.00476 
2 2 3 
p 0.000189683333333335 1 0 0.00476 
2 2 3 
p 0.000189683333333335 1 0 0.00476 
2 2 3 
p 0.000189683333333335 1 0 0.00476 
2 3 4 
p 0.000189683333333335 1 0 0.01905 
2 1 2 
p 0.000189683333333335 1 0 0.01905 
2 3 4 
p 0.000189683333333335 1 0 0.01905 
2 3 4 
p 0.000189683333333335 1 0 0.01905 
2 4 3 
p 0.000189683333333335 1 0 0.01905 
2 2 3 
p 0.000189683333333335 1 0 0.01905 
2 1 2 
p 0.000189683333333335 1 0 0.03 
2 4 3 
p 0.000189683333333335 1 0 0.03 
2 4 3 
p 0.000189683333333335 1 0 0.03 
2 1 2 
p 0.000189683333333335 1 0 0.03 
2 1 4 
p 0.000189683333333335 1 0 0.00952 
2 4 1 
p 0.000189683333333335 1 0 0.00952 
2 1 2 
p 0.000189683333333335 1 0 0.01905 
2 2 3 
p 0.000189683333333335 1 0 0.01905 
2 1 2 
p 0.000189683333333335 1 0 0.03 
2 4 3 
p 0.000189683333333335 1 0 0.03 
2 4 3 
p 0.000189683333333335 1 0 0.03 
2 1 2 
p 0.000189683333333335 1 0 0.03 
2 1 4 
p 0.000189683333333335 1 0 0.00952 
2 2 3 
p 0.000189683333333335 1 0 0.00952 
2 1 4 
p 0.000189683333333335 1 0 0.01905 
2 1 2 
p 0.000189683333333335 1 0 0.01905 
2 1 4 
p 0.000189683333333335 1 0 0.01905 
2 3 4 
p 0.000189683333333335 1 0 0.01905 
Surfaces 12
1 -0.0095250000000000039 0 -29.969999999999999 0 1 0 1 0 0 0 0 -1 
1 -0.0095250000000000039 0.0047600000000000021 -29.969999999999999 1 0 0 0 -1 0 0 0 -1 
1 0.0095250000000000039 0 -29.969999999999999 -1 0 0 0 1 0 0 0 -1 
1 9.5250000000000004 0.002380000000000001 -29.969999999999999 0 0 1 1 0 0 0 1 0 
1 9.5250000000000004 0.002380000000000001 -89.909999999999997 0 0 1 1 0 0 0 1 0 
1 0.0095250000000000039 0.0047600000000000021 -29.969999999999999 0 -1 0 -1 0 0 -0 -0 -1 
1 -0.0095250000000000039 -55.175240000000002 34.725239999999985 1 0 0 0 -1 0 0 0 -1 
1 0.0095250000000000039 0.0047600000000000021 -29.969999999999999 0 -1 0 -1 0 0 -0 -0 -1 
1 0.0095250000000000039 -55.184760000000004 34.725239999999985 -1 0 0 0 1 0 0 0 -1 
1 -0.0095250000000000039 -55.184760000000004 34.725239999999985 0 1 0 1 0 0 0 0 -1 
1 0.0095250000000000039 -55.175240000000002 34.725239999999985 0 -1 0 -1 0 0 -0 -0 -1 
1 9.5250000000000004 -55.180000000000007 34.725239999999985 0 0 1 1 0 0 0 1 0 
Triangulations 12
4 2 1 0.000189683333333335
-0.009525 0 -29.97 -0.009525 0 -29.91 0.009525 0 -29.91 0.009525 0 -29.97 -1.73472347597681e-18 0 -1.73472347597681e-18 -0.0600000000000023 0.01905 -0.06 0.01905 0 1 2 3 4 1 3 
6 4 1 0.000189683333333335
-0.009525 0.00476 0.03 -0.009525 0.00476 0.05524 -0.009525 0.00476 0.06476 -0.009525 0.00476 0.09 -0.009525 0 0.09 -0.009525 0 0.03 0 0 -9.32959265398381e-17 -0.0252399999999986 0 -0.03476 0 -0.0600000000000023 0.00476 -0.06 0.00476 0 3 4 5 6 1 2 5 6 3 3 6 2 
6 4 1 0.000189683333333335
0.009525 0 0.03 0.009525 0 0.09 0.009525 0.00476 0.09 0.009525 0.00476 0.06476 0.009525 0.00476 0.05524 0.009525 0.00476 0.03 0 0 0 -0.0600000000000023 0.00476 -0.06 0.0047600000000001 -0.0347599999999966 0.00476 -0.02524 0.00476 0 4 2 3 6 1 5 1 2 5 5 2 4 
4 2 1 0.000189683333333335
9.515475 0 -29.97 9.534525 0 -29.97 9.534525 0.00476 -29.97 9.515475 0.00476 -29.97 -0.00952500000000001 -0.00238 0.00952500000000001 -0.00238 0.00952500000000001 0.00238 -0.00952500000000001 0.00238 3 1 2 3 4 1 
4 2 1 0.000189683333333335
9.515475 0 -89.91 9.534525 0 -89.91 9.534525 0.00476 -89.91 9.515475 0.00476 -89.91 -0.00952500000000001 -0.00238 0.00952500000000001 -0.00238 0.00952500000000001 0.00238 -0.00952500000000001 0.00238 3 1 2 3 4 1 
4 2 1 0.000189683333333335
0.009525 0.00476 0.03 -0.009525 0.00476 0.03 0.009525 0.00476 0.05524 -0.009525 0.00476 0.05524 0 0 0.01905 0 3.46944695195361e-18 -0.0252399999999966 0.01905 -0.02524 2 1 3 2 3 4 
4 2 1 0.000189683333333335
-0.009525 -55.17524 34.72524 -0.009525 -55.17524 34.75524 -0.009525 -55.18476 34.75524 -0.009525 -55.18476 34.72524 0 0 0 -0.0300000000000011 0.00952000000000197 -0.03 0.00952 0 1 2 3 4 1 3 
4 2 1 0.000189683333333335
0.009525 0.00476 0.06476 -0.009525 0.00476 0.06476 0.009525 0.00476 0.09 -0.009525 0.00476 0.09 0 -0.03476 0.01905 -0.03476 -1.73472347597681e-18 -0.0600000000000023 0.01905 -0.06 1 3 4 2 1 4 
4 2 1 0.000189683333333335
0.009525 -55.18476 34.72524 0.009525 -55.18476 34.75524 0.009525 -55.17524 34.75524 0.009525 -55.17524 34.72524 0 0 0 -0.0300000000000011 0.00952000000000197 -0.03 0.00952 0 1 2 3 4 1 3 
4 2 1 0.000189683333333335
-0.009525 -55.18476 34.72524 -0.009525 -55.18476 34.75524 0.009525 -55.18476 34.75524 0.009525 -55.18476 34.72524 -1.73472347597681e-18 0 -1.73472347597681e-18 -0.0300000000000011 0.01905 -0.03 0.01905 0 1 2 3 4 1 3 
4 2 1 0.000189683333333335
0.009525 -55.17524 34.72524 0.009525 -55.17524 34.75524 -0.009525 -55.17524 34.75524 -0.009525 -55.17524 34.72524 -1.73472347597681e-18 0 -1.73472347597681e-18 -0.0300000000000011 0.01905 -0.03 0.01905 0 1 2 3 4 1 3 
4 2 1 0.000189683333333335
9.515475 -55.18476 34.72524 9.534525 -55.18476 34.72524 9.534525 -55.17524 34.72524 9.515475 -55.17524 34.72524 -0.00952500000000001 -0.00475999999999547 0.00952500000000001 -0.00475999999999743 0.00952500000000001 0.00476000000000454 -0.00952500000000001 0.00476000000000454 3 1 2 3 4 1 

TShapes 70
Ve
1e-07
-0.009525 0 0.03
0 0

0101101
*
Ve
1e-07
-0.009525 0 0.09
0 0

0101101
*
Ed
 1e-10 1 1 0
1  1 0 0 0.06
6  1 1 0
6  2 2 5
0

0101000
+70 7 -69 7 *
Ve
1e-07
0.009525 0 0.03
0 0

0101101
*
Ve
1e-07
0.009525 0 0.09
0 0

0101101
*
Ed
 1e-10 1 1 0
1  2 0 0 0.06
6  3 1 0
6  4 3 5
0

0101000
+67 7 -66 7 *
Ed
 1e-10 1 1 0
1  3 0 0 0.01905
6  5 1 11
6  6 4 0
0

0101000
+70 12 -67 12 *
Ed
 1e-10 1 1 0
1  4 0 0 0.01905
6  7 1 15
6  8 5 0
0

0101000
+69 16 -66 16 *
Wi

0101100
+68 0 -65 0 -64 10 +63 14 *
Fa
0  1e-10 1 0
2  1
0101000
+62 0 *
Ve
1e-07
-0.009525 0.00476 0.03
0 0

0101101
*
Ve
1e-07
-0.009525 0.00476 0.05524
0 0

0101101
*
Ed
 1e-10 1 1 0
1  5 0 0 0.02524
6  9 2 5
6  10 6 5
0

0101000
+60 7 -59 7 *
Ve
1e-07
-0.009525 0.00476 0.06476
0 0

0101101
*
Ed
 1.00000001776357e-10 1 1 0
1  6 0 0 0.00952
6  11 2 23
6  12 7 24
0

0101000
+57 25 -59 25 *
Ve
1e-07
-0.009525 0.00476 0.09
0 0

0101101
*
Ed
 1e-10 1 1 0
1  7 0 0.03476 0.06
6  13 2 5
6  14 8 5
0

0101000
+57 7 -55 7 *
Ed
 1e-10 1 1 0
1  8 0 0 0.00476
6  15 2 27
6  16 4 0
0

0101000
+60 12 -70 12 *
Ed
 1e-10 1 1 0
1  9 0 0 0.00476
6  17 2 29
6  18 5 0
0

0101000
+55 16 -69 16 *
Wi

0101100
+58 4 -56 22 +54 4 -68 4 -53 26 +52 28 *
Fa
0  1e-10 2 4
2  2
0101000
+51 0 *
Ve
1e-07
0.009525 0.00476 0.03
0 0

0101101
*
Ve
1e-07
0.009525 0.00476 0.05524
0 0

0101101
*
Ed
 1e-10 1 1 0
1  10 0 0 0.02524
6  19 3 5
6  20 6 5
0

0101000
+49 7 -48 7 *
Ve
1e-07
0.009525 0.00476 0.06476
0 0

0101101
*
Ed
 1.00000001776357e-10 1 1 0
1  11 0 0 0.00952
6  21 3 23
6  22 9 24
0

0101000
+48 25 -46 25 *
Ve
1e-07
0.009525 0.00476 0.09
0 0

0101101
*
Ed
 1e-10 1 1 0
1  12 0 0.03476 0.06
6  23 3 5
6  24 8 5
0

0101000
+46 7 -44 7 *
Ed
 1e-10 1 1 0
1  13 0 0 0.00476
6  25 3 27
6  26 4 0
0

0101000
+67 12 -49 12 *
Ed
 1e-10 1 1 0
1  14 0 0 0.00476
6  27 3 29
6  28 5 0
0

0101000
+66 16 -44 16 *
Wi

0101100
+65 4 -47 4 -45 22 -43 4 -42 26 +41 28 *
Fa
0  1e-10 3 4
2  3
0101000
+40 0 *
Ed
 1e-10 1 1 0
1  15 0 0 0.01905
6  29 4 0
6  30 6 27
0

0101000
+49 12 -60 12 *
Wi

0101100
+64 0 +42 0 +38 0 +53 0 *
Fa
0  1e-10 4 0
2  4
0101000
+37 0 *
Ed
 1e-10 1 1 0
1  16 0 0 0.01905
6  31 5 0
6  32 8 29
0

0101000
+44 16 -55 16 *
Wi

0101100
+63 0 +41 0 +35 0 +52 0 *
Fa
0  1e-10 5 0
2  5
0101000
+34 0 *
Ed
 1.00000001776357e-10 1 1 0
1  17 0 0 0.01905
6  33 6 23
6  34 10 24
0

0101000
+59 25 -48 25 *
Wi

0101100
-38 26 -58 4 -32 22 +47 4 *
Fa
0  1e-10 6 4
2  6
0101000
+31 0 *
Ve
1e-07
-0.009525 0.03476 0.06476
0 0

0101101
*
Ed
 1e-10 1 1 0
1  18 0 0 0.03
6  35 7 0
6  36 11 0
0

0101000
+29 31 -57 31 *
Ve
1e-07
-0.009525 0.03476 0.05524
0 0

0101101
*
Ed
 1e-10 1 1 0
1  19 0 0 0.03
6  37 7 0
6  38 10 0
0

0101000
+27 31 -59 31 *
Ed
 1.00000001776357e-10 1 1 0
1  20 0 0 0.00952
6  39 7 33
6  40 12 0
0

0101000
+29 34 -27 34 *
Wi

0101100
+28 0 -26 0 -25 32 +56 35 *
Fa
0  1e-10 7 0
2  7
0101000
+24 0 *
Ed
 1e-10 1 1 0
1  21 0 0 0.01905
6  41 8 23
6  42 11 24
0

0101000
+46 25 -57 25 *
Wi

0101100
-22 22 -54 4 +35 28 +43 4 *
Fa
0  1e-10 8 4
2  8
0101000
+21 0 *
Ve
1e-07
0.009525 0.03476 0.05524
0 0

0101101
*
Ed
 1e-10 1 1 0
1  22 0 0 0.03
6  43 9 0
6  44 10 0
0

0101000
+19 31 -48 31 *
Ve
1e-07
0.009525 0.03476 0.06476
0 0

0101101
*
Ed
 1e-10 1 1 0
1  23 0 0 0.03
6  45 9 0
6  46 11 0
0

0101000
+17 31 -46 31 *
Ed
 1.00000001776357e-10 1 1 0
1  24 0 0 0.00952
6  47 9 33
6  48 12 0
0

0101000
+19 34 -17 34 *
Wi

0101100
+18 0 -16 0 -15 32 +45 35 *
Fa
0  1e-10 9 0
2  9
0101000
+14 0 *
Ed
 1.00000001776357e-10 1 1 0
1  25 0 0 0.01905
6  49 10 33
6  50 12 0
0

0101000
+27 34 -19 34 *
Wi

0101100
+26 0 -18 0 -12 32 +32 35 *
Fa
0  1e-10 10 0
2  10
0101000
+11 0 *
Ed
 1e-10 1 1 0
1  26 0 0 0.01905
6  51 11 33
6  52 12 0
0

0101000
+17 34 -29 34 *
Wi

0101100
+16 0 -28 0 -9 32 +22 35 *
Fa
0  1e-10 11 0
2  11
0101000
+8 0 *
Wi

0101100
+12 0 +15 0 +9 0 +25 0 *
Fa
0  1e-10 12 0
2  12
0101000
+6 0 *
Sh

0101100
-61 4 -50 0 -39 0 -36 26 +33 28 -30 0 -23 30 -20 0 -13 30 -10 30 
-7 30 -5 36 *
So

0100000
+4 0 *
Co

0100000
+3 0 *
Co

1100000
+2 1 *

+1 0 