DBRep_DrawableShape

CASCADE Topology V1, (c) Matra-Datavision
Locations 67
1
              1               0               0               0 
              0               1               0               0 
              0               0               1               0 
1
              1               0               0               0 
              0               1               0               0 
              0               0               1            0.01 
1
              1               0               0               0 
              0               1               0               0 
              0               0               1               0 
1
              1               0               0               0 
              0               1               0               0 
              0               0               1               0 
2  3 1 4 1 0
2  4 -1 3 -1 0
2  3 1 4 1 2 1 0
2  1 -1 0
2  3 1 4 1 1 1 0
2  1 -1 4 -1 3 -1 0
2  3 1 4 1 2 1 1 1 0
2  1 -1 2 -1 4 -1 3 -1 0
1
              1               0               0               0 
              0               1               0               0 
              0               0               1               0 
1
              1               0               0               0 
              0               1               0               0 
              0               0               1               0 
1
              1               0               0               0 
              0               1               0               0 
              0               0               1               0 
1
              1               0               0               0 
              0               1               0               0 
              0               0               1               0 
1
              1               0               0               0 
              0               1               0               0 
              0               0               1               0 
2  13 1 14 1 15 1 16 1 17 1 0
1
              1               0               0               0 
              0               1               0               0 
              0               0               1               0 
1
              1               0               0               0 
              0               1               0               0 
              0               0               1               0 
2  19 1 20 1 14 -1 13 -1 0
2  17 -1 16 -1 15 -1 14 -1 13 -1 0
1
              1               0               0               0 
              0               1               0               0 
              0               0               1               0 
1
              1               0               0        0.001016 
              0               1               0        0.000254 
              0               0               1               0 
1
              1               0               0               0 
              0               1               0               0 
              0               0               1               0 
1
              1               0               0               0 
              0               1               0               0 
              0               0               1           0.005 
2  23 1 24 1 25 1 26 1 17 1 0
2  24 -1 23 -1 0
1
              1               0               0               0 
              0               1               0               0 
              0               0               1           0.005 
2  29 -1 24 -1 23 -1 0
2  19 1 20 1 15 1 16 1 26 -1 25 -1 24 -1 23 -1 0
2  17 -1 26 -1 25 -1 24 -1 23 -1 0
2  25 1 26 1 17 1 0
2  19 1 20 1 15 1 16 1 26 -1 25 -1 0
2  17 -1 26 -1 25 -1 0
1
              1               0               0               0 
              0               1               0               0 
              0               0               1               0 
1
              1               0               0               0 
              0               1               0        0.000254 
              0               0               1               0 
2  36 1 37 1 19 1 20 1 15 1 16 1 17 1 0
2  37 -1 36 -1 0
2  17 -1 16 -1 15 -1 20 -1 19 -1 37 -1 36 -1 0
1
              1               0               0               0 
              0               1               0               0 
              0               0               1               0 
1
              1               0               0        0.001143 
              0               1               0        0.000254 
              0               0               1               0 
2  41 1 42 1 13 1 14 1 15 1 16 1 17 1 0
2  42 -1 41 -1 0
1
              1               0               0               0 
              0               1               0               0 
              0               0               1           0.005 
2  45 -1 42 -1 41 -1 0
2  36 1 37 1 19 1 20 1 14 -1 13 -1 42 -1 41 -1 0
2  23 1 24 1 25 1 26 1 16 -1 15 -1 14 -1 13 -1 45 -1 42 -1 41 -1 0
2  17 -1 16 -1 15 -1 14 -1 13 -1 42 -1 41 -1 0
2  41 1 42 1 45 1 13 1 14 1 15 1 16 1 17 1 0
2  17 -1 16 -1 15 -1 14 -1 13 -1 45 -1 42 -1 41 -1 0
1
              1               0               0               0 
              0               1               0               0 
              0               0               1            0.01 
2  36 1 37 1 52 1 19 1 20 1 15 1 16 1 26 -1 25 -1 29 -1 24 -1 23 -1 0
2  45 1 13 1 14 1 15 1 16 1 26 -1 25 -1 24 -1 23 -1 0
2  23 1 24 1 29 1 25 1 26 1 17 1 0
2  17 -1 26 -1 25 -1 29 -1 24 -1 23 -1 0
2  36 1 37 1 52 1 19 1 20 1 15 1 16 1 17 1 0
2  17 -1 16 -1 15 -1 20 -1 19 -1 52 -1 37 -1 36 -1 0
2  19 1 20 1 15 1 16 1 17 1 0
2  36 1 37 1 0
2  36 1 37 1 52 1 0
2  41 1 42 1 0
2  41 1 42 1 45 1 0
2  25 1 26 1 0
2  23 1 24 1 25 1 26 1 0
2  41 1 42 1 45 1 13 1 14 1 15 1 16 1 0
2  23 1 24 1 29 1 25 1 26 1 0
Curve2ds 59
1 -0.0012700000000000001 -0.000127 1 0 
1 0.0012700000000000001 -0.000127 0 1 
1 0.0012700000000000001 0.000127 -1 0 
1 0.00025399999999999999 0 0 -1 
1 0 0 0 -1 
1 0.001397 0 0 -1 
1 -0.00025399999999999999 -1.2500000000000001e-05 1 0 
1 0 0 1 0 
1 0 -0.0050000000000000001 1 0 
1 0.001016 -0.0050000000000000001 1 0 
1 0.00050799999999999999 0 0 -1 
1 0 0 0 -1 
1 0.001524 -0.0050000000000000001 0 -1 
1 0 0 0 -1 
1 2.5000000000000001e-05 0 0 -1 
1 0.0011429999999999999 0 0 -1 
1 0.001016 -0.0050000000000000001 1 0 
1 0 0 0 -1 
1 2.5000000000000001e-05 0 0 -1 
1 0.001016 -0.0050000000000000001 0 -1 
1 -0.0012700000000000001 0.000127 0 -1 
1 -0.0012700000000000001 0.00063500000000000004 0 -1 
1 0.0012700000000000001 0.00063500000000000004 -1 0 
1 0.0012700000000000001 -0.00063500000000000004 0 1 
1 0.000127 -1.2500000000000001e-05 0 1 
1 0 0 1 0 
1 0 -0.0050000000000000001 1 0 
1 0.000127 -0.00063500000000000004 0 1 
1 0.000127 -1.2500000000000001e-05 0 1 
1 0.000127 1.2500000000000001e-05 -1 0 
1 0 -0 1 0 
1 0 -0.0050000000000000001 1 0 
1 0.000127 -0.00060999999999999997 -1 0 
1 0.000127 1.2500000000000001e-05 -1 0 
1 -0.000127 1.2500000000000001e-05 0 -1 
1 0 0 1 0 
1 0 -0.0050000000000000001 1 0 
1 -0.000127 -0.00060999999999999997 0 -1 
1 -0.000127 1.2500000000000001e-05 0 -1 
1 0.00025399999999999999 0 0 -1 
1 0 0 0 -1 
1 -0.00025399999999999999 1.2500000000000001e-05 0 -1 
1 0 0 1 0 
1 0 -0.0050000000000000001 1 0 
1 -0.00025399999999999999 -0.00060999999999999997 0 -1 
1 0.00025399999999999999 1.2500000000000001e-05 -1 0 
1 0 -0 1 0 
1 0 -0.0050000000000000001 1 0 
1 0.00050799999999999999 0 0 -1 
1 0 0 0 -1 
1 0.00025399999999999999 -1.2500000000000001e-05 0 1 
1 0 0 1 0 
1 0 -0.0050000000000000001 1 0 
1 0.00025399999999999999 -0.00063500000000000004 0 1 
1 0.00025399999999999999 -0.00060999999999999997 -1 0 
1 2.5000000000000001e-05 0 0 -1 
1 0 -0 0 -1 
1 0 -0 0 -1 
1 2.5000000000000001e-05 0 0 -1 
Curves 28
1 0 0 0 0 0 1 
1 0.0025400000000000002 0 0 0 0 1 
1 0 0 0 1 0 0 
1 0.0025400000000000002 0.00025399999999999999 0 0 0 1 
1 0.0025400000000000002 0 0 0 1 0 
1 0.0025400000000000002 0.00025399999999999999 0 -1 0 0 
1 0.001397 0.00025399999999999999 0 0 0 1 
1 0 0 0 1 0 0 
1 0.001524 0.00025399999999999999 0 0 0 1 
1 0.0011429999999999999 0.00025399999999999999 0 0 0 1 
1 0.001016 0.00025399999999999999 0 0 0 1 
1 0 0.00025399999999999999 0 0 0 1 
1 0 0.00025399999999999999 0 0 -1 0 
1 0 0.0012700000000000001 0 0 -1 0 
1 0.0025400000000000002 0.0012700000000000001 0 -1 0 0 
1 0.0025400000000000002 0 0 0 1 0 
1 0.00025399999999999999 0 0 0 1 0 
1 0.00025399999999999999 2.5000000000000001e-05 0 -1 0 0 
1 0 2.5000000000000001e-05 0 0 -1 0 
1 0.0011429999999999999 0.00027900000000000001 0 0 0 1 
1 0 2.5000000000000001e-05 0 0 -1 0 
1 0.00050799999999999999 2.5000000000000001e-05 0 -1 0 0 
1 0.001016 0.00027900000000000001 0 0 0 1 
1 0.00050799999999999999 0 0 0 1 0 
1 0 0.001524 0 0 0 1 
1 0.0025400000000000002 0.001524 0 0 0 1 
1 0.001397 0.00027900000000000001 0 0 0 1 
1 0.001524 0.00027900000000000001 0 0 0 1 
Polygon3D 0
PolygonOnTriangulations 0
Surfaces 20
1 0 0 0 0 1 0 1 0 0 0 0 -1 
1 0.0012700000000000001 0.000127 0 0 0 1 1 0 -0 -0 1 0 
1 0.0025400000000000002 0 0 -1 0 0 0 1 0 0 0 -1 
1 0.0025400000000000002 0.00025399999999999999 0 0 -1 0 -1 0 0 -0 -0 -1 
1 0.0011429999999999999 0.00025399999999999999 0 0 1 0 1 0 0 0 0 -1 
1 0.001397 0.00025399999999999999 0 -1 0 0 0 1 0 0 0 -1 
1 0 0.00025399999999999999 0 0 1 0 1 0 0 0 0 -1 
1 0.00025399999999999999 1.2500000000000001e-05 0 0 0 1 1 0 -0 -0 1 0 
1 0.001016 0.00025399999999999999 0 0 1 0 1 0 0 0 0 -1 
1 0.001524 0.00025399999999999999 0 -1 0 0 0 1 0 0 0 -1 
1 0.0011429999999999999 0.00027900000000000001 0 1 0 -0 0 -1 0 0 -0 -1 
1 0.001016 0.00027900000000000001 0 1 0 -0 0 -1 0 0 -0 -1 
1 0 0.00025399999999999999 0 1 0 -0 0 -1 0 0 -0 -1 
1 0.0012700000000000001 0.00063500000000000004 0 0 0 1 1 0 -0 -0 1 0 
1 0.000127 1.2500000000000001e-05 0 0 0 1 1 0 -0 -0 1 0 
1 0.001397 0.00027900000000000001 0 0 -1 0 -1 0 0 -0 -0 -1 
1 0.001524 0.00027900000000000001 0 0 -1 0 -1 0 0 -0 -0 -1 
1 0 0.001524 0 1 0 -0 0 -1 0 0 -0 -1 
1 0.0025400000000000002 0.001524 0 0 -1 0 -1 0 0 -0 -0 -1 
1 0.0025400000000000002 0.00025399999999999999 0 -1 0 0 0 1 0 0 0 -1 
Triangulations 0

TShapes 113
Ve
1e-07
0 0 0
0 0

0101101
*
Ed
 1e-07 1 1 0
1  1 0 0 0.01
0

0101000
+113 0 -113 2 *
Ve
1e-07
0.00254 0 0
0 0

0101101
*
Ed
 1e-07 1 1 0
1  2 0 0 0.01
0

0101000
+111 0 -111 2 *
Ed
 1e-07 1 1 0
1  3 0 0 0.00254
2  1 2 0 0 0.00254
0

0101000
+113 6 -111 6 *
Wi

0101100
+112 0 -110 0 -109 5 +109 7 *
Fa
0  1e-07 1 0

0111000
+108 0 *
Ve
1e-07
0.00254 0.000254 0
0 0

0101101
*
Ve
1e-07
0.00254 0.000254 0.01
0 0

0101101
*
Ed
 1e-07 1 1 0
1  4 0 0 0.01
0

0101000
+106 8 -105 8 *
Ed
 1e-07 1 1 0
1  5 0 0 0.000254
2  2 2 0 0 0.000254
0

0101000
+111 6 -106 10 *
Ed
 1e-07 1 1 0
1  5 0 0 0.000254
2  2 2 0 0 0.000254
0

0101000
+111 6 -105 12 *
Wi

0101100
+110 1 -104 1 -103 9 +102 11 *
Fa
0  1e-07 3 1

0101000
+101 0 *
Ve
1e-07
0.001397 0.000254 0
0 0

0101101
*
Ed
 1e-07 1 1 0
1  6 0 0 0.001143
2  3 2 0 0 0.001143
0

0101000
+106 10 -99 10 *
Ve
1e-07
0.001397 0.000254 0.005
0 0

0101101
*
Ed
 1e-07 1 1 0
1  7 0 0 0.005
2  4 5 0 0 0.005
2  5 6 0 0 0.005
2  6 7 21 0 0.005
0

0101000
+99 22 -97 22 *
Ve
1e-07
0.001524 0.000254 0.005
0 0

0101101
*
Ed
 1e-07 1 1 0
1  8 0 0.000381 0.000508
2  7 8 0 0.000381 0.000508
2  8 9 28 0.000381 0.000508
2  9 9 30 0.000381 0.000508
2  10 7 31 0.000381 0.000508
0

0101000
+97 32 -95 32 *
Ve
1e-07
0.001524 0.000254 0.01
0 0

0101101
*
Ed
 1e-07 1 1 0
1  9 0 0 0.005
2  11 9 0 0 0.005
2  12 10 0 0 0.005
2  13 7 34 0 0.005
0

0101000
+95 35 -93 35 *
Ed
 1e-07 1 1 0
1  6 0 0 0.001016
2  3 2 0 0 0.001016
0

0101000
+105 12 -93 12 *
Wi

0101100
-98 9 -96 18 -94 27 -92 33 +91 11 +104 1 *
Fa
0  1e-07 4 1

0101000
+90 0 *
Ve
1e-07
0.001143 0.000254 0
0 0

0101101
*
Ed
 1e-07 1 1 0
1  6 0 0.001143 0.001397
2  3 2 0 0.001143 0.001397
0

0101000
+99 10 -88 10 *
Ve
1e-07
0.001143 0.000254 0.005
0 0

0101101
*
Ed
 1e-07 1 1 0
1  10 0 0 0.005
2  14 5 0 0 0.005
2  15 11 0 0 0.005
2  16 7 21 0 0.005
0

0101000
+88 22 -86 22 *
Ve
1e-07
0.001016 0.000254 0.005
0 0

0101101
*
Ed
 1e-07 1 1 0
1  8 0 0 0.000127
2  7 8 0 0 0.000127
2  8 9 28 0 0.000127
2  9 9 30 0 0.000127
2  17 7 31 0 0.000127
0

0101000
+84 32 -86 32 *
Ve
1e-07
0.001016 0.000254 0.01
0 0

0101101
*
Ed
 1e-07 1 1 0
1  11 0 0 0.005
2  18 9 0 0 0.005
2  19 12 0 0 0.005
2  20 7 34 0 0.005
0

0101000
+84 35 -82 35 *
Ed
 1e-07 1 1 0
1  6 0 0.001016 0.001524
2  3 2 0 0.001016 0.001524
0

0101000
+93 12 -82 12 *
Wi

0101100
-87 9 -85 18 +83 27 -81 33 +80 11 +92 33 +94 27 +96 18 *
Fa
0  1e-07 4 1

0101000
+79 0 *
Ve
1e-07
0 0.000254 0
0 0

0101101
*
Ed
 1e-07 1 1 0
1  6 0 0.001397 0.00254
2  3 2 0 0.001397 0.00254
0

0101000
+88 10 -77 10 *
Ve
1e-07
0 0.000254 0.01
0 0

0101101
*
Ed
 1e-07 1 1 0
1  12 0 0 0.01
0

0101000
+77 8 -75 8 *
Ed
 1e-07 1 1 0
1  6 0 0.001524 0.00254
2  3 2 0 0.001524 0.00254
0

0101000
+82 12 -75 12 *
Wi

0101100
-76 9 -74 1 +73 11 +81 33 -83 27 +85 18 *
Fa
0  1e-07 4 1

0101000
+72 0 *
Ed
 1e-07 1 1 0
1  13 0 0 0.000254
2  21 2 0 0 0.000254
0

0101000
+77 10 -113 6 *
Ed
 1e-07 1 1 0
1  13 0 0 0.000254
2  21 2 0 0 0.000254
0

0101000
+75 12 -113 6 *
Wi

0101100
+74 1 -112 1 -70 9 +69 11 *
Fa
0  1e-07 13 1

0101000
+68 0 *
Wi

0101100
+109 9 +103 9 +98 9 +87 9 +76 9 +70 9 *
Fa
0  1e-07 2 9

0101000
+66 0 *
Wi

0101100
+109 11 +102 11 +91 11 +80 11 +73 11 +69 11 *
Fa
0  1e-07 2 11

0101000
+64 0 *
Sh

0101100
+107 1 +100 0 +89 0 +78 0 +71 0 +67 0 +65 0 -63 0 *
So

0100000
-62 0 *
Ve
1e-07
0 0.001524 0
0 0

0101101
*
Ed
 1e-07 1 1 0
1  14 0 0 0.00127
2  22 14 0 0 0.00127
0

0101000
+60 39 -77 40 *
Ve
1e-07
0.00254 0.001524 0
0 0

0101101
*
Ed
 1e-07 1 1 0
1  15 0 0 0.00254
2  23 14 0 0 0.00254
0

0101000
+58 39 -60 39 *
Ed
 1e-07 1 1 0
1  16 0 0 0.00127
2  24 14 0 0 0.00127
0

0101000
+106 40 -58 39 *
Ve
1e-07
0.001397 0.000279 0
0 0

0101101
*
Ed
 1e-07 1 1 0
1  17 0 0 2.5e-05
2  25 15 0 0 2.5e-05
2  26 6 44 0 2.5e-05
2  27 6 46 0 2.5e-05
2  28 14 47 0 2.5e-05
2  29 8 48 0 2.5e-05
0

0101000
+99 49 -55 44 *
Ve
1e-07
0.001143 0.000279 0
0 0

0101101
*
Ed
 1e-07 1 1 0
1  18 0 0 0.000254
2  30 15 0 0 0.000254
2  31 16 44 0 0.000254
2  32 16 46 0 0.000254
2  33 14 47 0 0.000254
2  34 8 48 0 0.000254
0

0101000
+55 44 -53 44 *
Ed
 1e-07 1 1 0
1  19 0 0 2.5e-05
2  35 15 0 0 2.5e-05
2  36 11 44 0 2.5e-05
2  37 11 46 0 2.5e-05
2  38 14 47 0 2.5e-05
2  39 8 48 0 2.5e-05
0

0101000
+53 44 -88 49 *
Wi

0101100
+59 38 +57 38 +56 38 -98 9 -54 43 -52 43 -51 43 -76 9 *
Fa
0  1e-07 14 38

0101000
+50 0 *
Ed
 1e-07 1 1 0
1  20 0 0 0.005
2  40 16 0 0 0.005
2  41 11 0 0 0.005
0

0101000
+53 0 -53 45 *
Ed
 1e-07 1 1 0
1  19 0 0 2.5e-05
2  35 15 0 0 2.5e-05
2  36 11 44 0 2.5e-05
2  37 11 46 0 2.5e-05
2  38 14 47 0 2.5e-05
2  39 8 48 0 2.5e-05
0

0101000
+53 44 -86 51 *
Wi

0101100
+48 18 -85 18 -51 43 +47 50 *
Fa
0  1e-07 11 18

0101000
+46 0 *
Ve
1e-07
0.001016 0.000279 0
0 0

0101101
*
Ed
 1e-07 1 1 0
1  21 0 0 2.5e-05
2  42 8 0 0 2.5e-05
2  43 12 28 0 2.5e-05
2  44 12 30 0 2.5e-05
2  45 14 53 0 2.5e-05
0

0101000
+44 28 -84 32 *
Ed
 1e-07 1 1 0
1  22 0 0.000381 0.000508
2  46 8 0 0.000381 0.000508
2  47 17 28 0.000381 0.000508
2  48 17 30 0.000381 0.000508
0

0101000
+53 54 -44 28 *
Wi

0101100
+43 27 +42 27 -47 50 +83 27 *
Fa
0  1e-07 8 27

0101000
+41 0 *
Ed
 1e-07 1 1 0
1  23 0 0 0.005
2  49 17 0 0 0.005
2  50 12 0 0 0.005
0

0101000
+44 0 -44 29 *
Ed
 1e-07 1 1 0
1  21 0 0 2.5e-05
2  42 8 0 0 2.5e-05
2  43 12 28 0 2.5e-05
2  44 12 30 0 2.5e-05
2  45 14 53 0 2.5e-05
0

0101000
+44 28 -82 56 *
Wi

0101100
+39 33 -81 33 -43 27 +38 55 *
Fa
0  1e-07 12 33

0101000
+37 0 *
Ed
 1e-07 1 1 0
1  14 0 0 0.00127
2  22 14 0 0 0.00127
0

0101000
+60 39 -75 58 *
Ed
 1e-07 1 1 0
1  16 0 0 0.00127
2  24 14 0 0 0.00127
0

0101000
+105 58 -58 39 *
Ve
1e-07
0.001524 0.000279 0
0 0

0101101
*
Ed
 1e-07 1 1 0
1  24 0 0 2.5e-05
2  51 8 0 0 2.5e-05
2  52 10 28 0 2.5e-05
2  53 10 30 0 2.5e-05
2  54 14 53 0 2.5e-05
0

0101000
+93 56 -33 28 *
Ed
 1e-07 1 1 0
1  22 0 0 0.000508
2  46 8 0 0 0.000508
2  47 17 28 0 0.000508
2  48 17 30 0 0.000508
2  55 14 53 0 0.000508
0

0101000
+33 28 -44 28 *
Wi

0101100
+35 57 +57 57 +34 57 -91 11 -32 55 -31 55 -38 55 -73 11 *
Fa
0  1e-07 14 57

0101000
+30 0 *
Ed
 1e-07 1 1 0
1  25 0 0 0.01
0

0101000
+60 0 -60 52 *
Wi

0101100
+28 59 -74 1 -59 38 +35 57 *
Fa
0  1e-07 18 59

0101000
+27 0 *
Ed
 1e-07 1 1 0
1  26 0 0 0.01
0

0101000
+58 0 -58 52 *
Wi

0101100
+25 0 -28 0 -57 60 +57 61 *
Fa
0  1e-07 19 0

0111000
+24 0 *
Wi

0101100
+104 1 -25 59 -56 38 +34 57 *
Fa
0  1e-07 20 59

0101000
+22 0 *
Ed
 1e-07 1 1 0
1  27 0 0 0.005
2  56 6 0 0 0.005
2  57 16 0 0 0.005
0

0101000
+55 0 -55 45 *
Ed
 1e-07 1 1 0
1  17 0 0 2.5e-05
2  25 15 0 0 2.5e-05
2  26 6 44 0 2.5e-05
2  27 6 46 0 2.5e-05
2  28 14 47 0 2.5e-05
2  29 8 48 0 2.5e-05
0

0101000
+97 51 -55 44 *
Wi

0101100
+96 18 -20 18 -54 43 +19 50 *
Fa
0  1e-07 6 18

0101000
+18 0 *
Wi

0101100
+20 0 -48 0 -52 62 +52 63 *
Fa
0  1e-07 16 0

0111000
+16 0 *
Ed
 1e-07 1 1 0
1  28 0 0 0.005
2  58 17 0 0 0.005
2  59 10 0 0 0.005
0

0101000
+33 0 -33 29 *
Ed
 1e-07 1 1 0
1  22 0 0 0.000127
2  46 8 0 0 0.000127
2  47 17 28 0 0.000127
2  48 17 30 0 0.000127
0

0101000
+33 28 -55 54 *
Wi

0101100
+14 64 -39 64 -13 65 -52 66 -42 65 +31 67 *
Fa
0  1e-07 17 64

0111000
+12 0 *
Ed
 1e-07 1 1 0
1  24 0 0 2.5e-05
2  51 8 0 0 2.5e-05
2  52 10 28 0 2.5e-05
2  53 10 30 0 2.5e-05
2  54 14 53 0 2.5e-05
0

0101000
+95 32 -33 28 *
Wi

0101100
+92 33 -14 33 -10 27 +32 55 *
Fa
0  1e-07 10 33

0101000
+9 0 *
Wi

0101100
-19 50 +13 27 +10 27 +94 27 *
Fa
0  1e-07 8 27

0101000
+7 0 *
Sh

0101100
+71 0 -49 0 +45 0 +40 0 +36 0 +29 0 -26 0 -23 59 -21 0 +89 0 
+17 0 +15 18 +11 17 +8 0 +6 0 *
So

0100000
+5 0 *
Co

0100000
+4 0 *
Co

0100000
+61 0 +3 0 *
Co

1100000
+2 0 *

+1 0 