DBRep_DrawableShape

CASCADE Topology V1, (c) Matra-Datavision
Locations 54
1
              1               0               0               0 
              0               1               0               0 
              0               0               1               0 
1
              1               0               0               0 
              0               1               0               0 
              0               0               1               0 
1
              1               0               0               0 
              0               1               0               0 
              0               0               1               0 
1
              1               0               0               0 
              0               1               0               0 
              0               0               1               0 
1
              1               0               0               0 
              0               1               0               0 
              0               0               1               0 
2  2 1 3 1 4 1 5 1 0
1
              1               0               0               0 
              0               1               0               0 
              0               0               1               0 
1
              1               0               0          -11.43 
              0               1               0           -5.08 
              0               0               1               0 
2  7 1 8 1 2 1 3 1 4 1 5 1 0
2  5 -1 4 -1 3 -1 2 -1 8 -1 7 -1 0
1
              1               0               0               0 
              0               1               0               0 
              0               0               1               0 
2  11 -1 5 -1 4 -1 3 -1 2 -1 8 -1 7 -1 0
2  5 -1 4 -1 3 -1 2 -1 0
2  3 -1 2 -1 0
2  11 -1 5 -1 4 -1 3 -1 2 -1 0
1
              1               0               0               0 
              0               1               0               0 
              0               0               1               0 
1
              1               0               0 -0.00999999999999979 
              0               1               0               0 
              0               0               1               0 
2  16 1 17 1 4 1 5 1 0
2  5 -1 4 -1 17 -1 16 -1 0
2  11 -1 5 -1 4 -1 17 -1 16 -1 0
1
              1               0               0               0 
              0               1               0               0 
              0               0               1               0 
1
              0               0               1           11.43 
              1               0               0           -5.08 
              0               1               0              40 
2  21 1 22 1 16 1 17 1 4 1 5 1 0
2  5 -1 4 -1 17 -1 16 -1 22 -1 21 -1 0
2  11 -1 5 -1 4 -1 17 -1 16 -1 22 -1 21 -1 0
1
              1               0               0               0 
              0               1               0               0 
              0               0               1             100 
2  7 1 8 1 26 1 2 1 3 1 4 1 5 1 0
2  5 -1 4 -1 3 -1 2 -1 26 -1 8 -1 7 -1 0
2  11 -1 5 -1 4 -1 3 -1 2 -1 26 -1 8 -1 7 -1 0
1
              1               0               0               0 
              0               1               0               0 
              0               0               1               0 
1
              1               0               0          -22.86 
              0               1               0 -1.77635683940025e-15 
              0               0               1               0 
2  30 1 31 1 0
2  31 -1 30 -1 0
2  11 -1 31 -1 30 -1 0
1
              1               0               0            0.01 
              0               1               0               0 
              0               0               1               0 
2  21 1 22 1 35 1 30 1 31 1 0
2  31 -1 30 -1 35 -1 22 -1 21 -1 0
2  11 -1 31 -1 30 -1 35 -1 22 -1 21 -1 0
2  3 -1 2 -1 8 -1 7 -1 0
2  4 1 5 1 0
2  2 1 3 1 0
2  7 1 8 1 2 1 3 1 0
2  21 1 22 1 35 1 16 1 17 1 0
2  17 -1 16 -1 35 -1 22 -1 21 -1 0
2  35 -1 22 -1 21 -1 0
2  11 -1 5 -1 4 -1 17 -1 16 -1 35 -1 22 -1 21 -1 0
2  21 1 22 1 0
2  22 -1 21 -1 0
2  21 1 22 1 35 1 0
2  7 1 8 1 26 1 2 1 3 1 0
2  3 -1 2 -1 26 -1 8 -1 7 -1 0
2  21 1 22 1 30 1 31 1 0
2  31 -1 30 -1 22 -1 21 -1 0
2  11 -1 31 -1 30 -1 22 -1 21 -1 0
Curve2ds 0
Curves 36
1 11.418569999999999 5.0749199999999997 0 1 0 0 
1 0.011430000000000004 -0.005080000000000002 0 0 0 1 
1 0.021419999999999793 -0.0050800000000000003 0.040000000000000022 1 0 0 
1 5.0749199999999979 -39.939999999999998 -11.408580000000001 0 -1 0 
1 0.021419999999999793 -0.0050800000000000003 0.060000000000000026 1 0 0 
1 0.011430000000000004 -0.005080000000000002 0 0 0 1 
1 11.418569999999999 5.0749199999999997 -99.900000000000006 1 0 0 
1 -0.011430000000000004 -0.005080000000000002 0 0 0 1 
1 22.848569999999995 -0.0050799999999982257 0.060000000000000026 1 0 0 
1 5.0749199999999997 -39.939999999999998 11.408579999999995 0 -1 0 
1 22.848569999999995 -0.0050799999999982257 0.040000000000000022 1 0 0 
1 -0.011430000000000004 -0.005080000000000002 0 0 0 1 
1 11.441429999999999 5.0749199999999997 0 0 1 0 
1 11.441429999999999 5.0850799999999996 0 -1 0 0 
1 11.418569999999999 5.0850799999999996 0 0 -1 0 
1 0.011430000000000004 0.005080000000000002 0 0 0 1 
1 5.0749199999999979 -39.960000000000001 -11.418569999999999 1 0 0 
1 0.021419999999999793 0.0050800000000000038 0.040000000000000022 1 0 0 
1 5.0749199999999979 -39.960000000000001 -11.408580000000001 1 0 0 
1 5.0850799999999978 -39.960000000000001 -11.408580000000001 0 1 0 
1 5.0850799999999978 -39.939999999999998 -11.408580000000001 -1 0 0 
1 0.021419999999999793 0.0050800000000000038 0.060000000000000026 1 0 0 
1 5.0850799999999978 -39.939999999999998 -11.418569999999999 -1 0 0 
1 0.011430000000000004 0.005080000000000002 0 0 0 1 
1 11.441429999999999 5.0749199999999997 -99.900000000000006 0 1 0 
1 11.441429999999999 5.0850799999999996 -99.900000000000006 -1 0 0 
1 11.418569999999999 5.0850799999999996 -99.900000000000006 0 -1 0 
1 5.0850799999999996 -39.939999999999998 11.418569999999995 -1 0 0 
1 -0.011430000000000004 0.005080000000000002 0 0 0 1 
1 22.848569999999995 0.0050800000000017784 0.060000000000000026 1 0 0 
1 5.0850799999999996 -39.939999999999998 11.408579999999995 -1 0 0 
1 5.0749199999999997 -39.960000000000001 11.408579999999995 1 0 0 
1 5.0850799999999996 -39.960000000000001 11.408579999999995 0 1 0 
1 22.848569999999995 0.0050800000000017784 0.040000000000000022 1 0 0 
1 5.0749199999999997 -39.960000000000001 11.418569999999995 1 0 0 
1 -0.011430000000000004 0.005080000000000002 0 0 0 1 
Polygon3D 0
PolygonOnTriangulations 72
2 1 2 
p 0.000221700000000004 1 0 0.02286 
2 1 2 
p 0.000221700000000004 1 0 0.02286 
2 2 12 
p 0.000221700000000004 1 0 0.04 
2 1 3 
p 0.000221700000000004 1 0 0.04 
2 11 12 
p 0.000221700000000004 1 0 1e-05 
2 1 2 
p 0.000221700000000004 1 0 1e-05 
2 10 11 
p 0.000221700000000004 1 0 0.02 
2 4 1 
p 0.000221700000000004 1 0 0.02 
2 10 9 
p 0.000221700000000004 1 0 1e-05 
2 4 3 
p 0.000221700000000004 1 0 1e-05 
2 9 8 
p 0.000221700000000004 1 0.06 0.1 
2 2 3 
p 0.000221700000000004 1 0.06 0.1 
2 7 8 
p 0.000221700000000004 1 0 0.02286 
2 1 2 
p 0.000221700000000004 1 0 0.02286 
2 6 7 
p 0.000221700000000004 1 0.06 0.1 
2 2 4 
p 0.000221700000000004 1 0.06 0.1 
2 6 5 
p 0.000221700000000004 1 0 1e-05 
2 4 3 
p 0.000221700000000004 1 0 1e-05 
2 5 4 
p 0.000221700000000004 1 0 0.02 
2 4 1 
p 0.000221700000000004 1 0 0.02 
2 3 4 
p 0.000221700000000004 1 0 1e-05 
2 1 2 
p 0.000221700000000004 1 0 1e-05 
2 1 3 
p 0.000221700000000004 1 0 0.04 
2 2 4 
p 0.000221700000000004 1 0 0.04 
2 2 3 
p 0.000221700000000004 1 0 0.01016 
2 1 2 
p 0.000221700000000004 1 0 0.01016 
2 3 4 
p 0.000221700000000004 1 0 0.02286 
2 1 2 
p 0.000221700000000004 1 0 0.02286 
2 4 1 
p 0.000221700000000004 1 0 0.01016 
2 1 2 
p 0.000221700000000004 1 0 0.01016 
2 2 4 
p 0.000221700000000004 1 0 0.04 
2 1 3 
p 0.000221700000000004 1 0 0.04 
2 3 4 
p 0.000221700000000004 1 0 0.01016 
2 2 3 
p 0.000221700000000004 1 0 0.01016 
2 4 3 
p 0.000221700000000004 1 0 1e-05 
2 4 3 
p 0.000221700000000004 1 0 1e-05 
2 1 4 
p 0.000221700000000004 1 0 0.01016 
2 1 2 
p 0.000221700000000004 1 0 0.01016 
2 2 3 
p 0.000221700000000004 1 0 0.02 
2 4 5 
p 0.000221700000000004 1 0 0.02 
2 3 4 
p 0.000221700000000004 1 0 0.01016 
2 1 4 
p 0.000221700000000004 1 0 0.01016 
2 1 2 
p 0.000221700000000004 1 0 1e-05 
2 5 6 
p 0.000221700000000004 1 0 1e-05 
2 2 3 
p 0.000221700000000004 1 0 0.01016 
2 1 2 
p 0.000221700000000004 1 0 0.01016 
2 1 4 
p 0.000221700000000004 1 0.06 0.1 
2 6 7 
p 0.000221700000000004 1 0.06 0.1 
2 3 4 
p 0.000221700000000004 1 0 0.01016 
2 2 3 
p 0.000221700000000004 1 0 0.01016 
2 3 4 
p 0.000221700000000004 1 0 0.02286 
2 7 8 
p 0.000221700000000004 1 0 0.02286 
2 4 1 
p 0.000221700000000004 1 0 0.01016 
2 3 4 
p 0.000221700000000004 1 0 0.01016 
2 1 2 
p 0.000221700000000004 1 0 0.01016 
2 1 4 
p 0.000221700000000004 1 0 0.01016 
2 1 3 
p 0.000221700000000004 1 0.06 0.1 
2 9 8 
p 0.000221700000000004 1 0.06 0.1 
2 1 2 
p 0.000221700000000004 1 0 1e-05 
2 9 10 
p 0.000221700000000004 1 0 1e-05 
2 2 3 
p 0.000221700000000004 1 0 0.01016 
2 3 4 
p 0.000221700000000004 1 0 0.01016 
2 1 2 
p 0.000221700000000004 1 0 0.01016 
2 2 3 
p 0.000221700000000004 1 0 0.01016 
2 2 3 
p 0.000221700000000004 1 0 0.02 
2 11 10 
p 0.000221700000000004 1 0 0.02 
2 4 3 
p 0.000221700000000004 1 0 1e-05 
2 12 11 
p 0.000221700000000004 1 0 1e-05 
2 1 4 
p 0.000221700000000004 1 0 0.01016 
2 4 3 
p 0.000221700000000004 1 0 0.01016 
2 1 3 
p 0.000221700000000004 1 0 0.04 
2 2 12 
p 0.000221700000000004 1 0 0.04 
Surfaces 14
1 -0.011430000000000004 -0.005080000000000002 0 0 1 0 1 0 0 0 0 -1 
1 11.43 5.0800000000000001 0 0 0 1 1 0 0 0 1 0 
1 0.011430000000000004 -0.005080000000000002 0 -1 0 0 0 1 0 0 0 -1 
1 0.021419999999999793 -0.0050800000000000003 0.040000000000000022 0 0 1 0 1 0 -1 0 0 
1 5.0799999999999983 -39.950000000000003 -11.408580000000001 0 0 1 1 0 0 0 1 0 
1 0.021419999999999793 0.0050800000000000038 0.060000000000000026 0 0 -1 0 -1 0 -1 -0 -0 
1 0.011430000000000004 -0.005080000000000002 0 -1 0 0 0 1 0 0 0 -1 
1 11.43 5.0800000000000001 -99.900000000000006 0 0 1 1 0 0 0 1 0 
1 -0.011430000000000004 0.005080000000000002 0 1 0 0 0 -1 0 0 0 -1 
1 22.848569999999995 0.0050800000000017784 0.060000000000000026 0 0 -1 0 -1 0 -1 -0 -0 
1 5.0800000000000001 -39.950000000000003 11.408579999999995 0 0 1 1 0 0 0 1 0 
1 22.848569999999995 -0.0050799999999982257 0.040000000000000022 0 0 1 0 1 0 -1 0 0 
1 -0.011430000000000004 0.005080000000000002 0 1 0 0 0 -1 0 0 0 -1 
1 0.011430000000000004 0.005080000000000002 0 0 -1 0 -1 0 0 -0 -0 -1 
Triangulations 14
12 10 1 0.000221700000000004
-0.01143 -0.00508 0 0.01143 -0.00508 0 -0.01143 -0.00508 0.04 -0.01142 -0.00508 0.04 -0.01142 -0.00508 0.06 -0.01143 -0.00508 0.06 -0.01143 -0.00508 0.1 0.01143 -0.00508 0.1 0.01143 -0.00508 0.06 0.01142 -0.00508 0.06 0.01142 -0.00508 0.04 0.01143 -0.00508 0.04 0 0 0.02286 0 -7.12971348626468e-16 -0.04 1.00000000006848e-05 -0.0400000000000023 9.99999999928703e-06 -0.06 0 -0.06 -7.12971348626468e-16 -0.0999999999999943 0.02286 -0.1 0.02286 -0.06 0.0228499999999993 -0.0600000000000023 0.02285 -0.04 0.02286 -0.04 5 6 7 10 4 5 10 7 8 10 5 7 9 10 8 11 4 10 1 3 4 1 4 11 2 11 12 2 1 11 
4 2 1 0.000221700000000004
11.41857 5.07492 0 11.44143 5.07492 0 11.44143 5.08508 0 11.41857 5.08508 0 -0.0114300000000007 -0.00508000000000047 0.0114299999999989 -0.00508000000000042 0.0114299999999989 0.00507999999999953 -0.0114300000000007 0.00507999999999953 3 1 2 3 4 1 
4 2 1 0.000221700000000004
0.01143 -0.00508 0 0.01143 0.00508 0 0.01143 -0.00508 0.04 0.01143 0.00508 0.04 0 0 0.01016 0 -4.15466272496445e-16 -0.0399999999999991 0.01016 -0.04 2 1 3 2 3 4 
4 2 1 0.000221700000000004
0.0214199999999998 -0.00508 0.04 0.0214299999999998 -0.00508 0.04 0.0214299999999998 0.00508 0.04 0.0214199999999998 0.00508 0.04 -4.17200995972422e-16 6.86950496486816e-16 -4.17200995972422e-16 -1.00000000007108e-05 0.01016 -1e-05 0.0101599999999996 6.86950496486816e-16 4 1 2 4 2 3 
4 2 1 0.000221700000000004
5.07492 -39.96 -11.40858 5.08508 -39.96 -11.40858 5.08508 -39.94 -11.40858 5.07492 -39.94 -11.40858 -0.00508000000000042 -0.00999999999999489 0.00507999999999953 -0.00999999999999801 0.00507999999999953 0.0100000000000051 -0.00508000000000042 0.0100000000000051 3 1 2 3 4 1 
4 2 1 0.000221700000000004
0.0214199999999998 0.00508 0.06 0.0214299999999998 0.00508 0.06 0.0214299999999998 -0.00508 0.06 0.0214199999999998 -0.00508 0.06 4.74446870679657e-16 6.86950496486816e-16 4.74446870679657e-16 -1.00000000007108e-05 0.01016 -1e-05 0.0101600000000005 6.86950496486816e-16 4 1 2 4 2 3 
4 2 1 0.000221700000000004
0.01143 0.00508 0.06 0.01143 -0.00508 0.06 0.01143 -0.00508 0.1 0.01143 0.00508 0.1 0.01016 -0.06 0 -0.06 -4.15466272496445e-16 -0.0999999999999943 0.01016 -0.1 1 2 3 1 3 4 
4 2 1 0.000221700000000004
11.41857 5.07492 -99.9 11.44143 5.07492 -99.9 11.44143 5.08508 -99.9 11.41857 5.08508 -99.9 -0.0114300000000007 -0.00508000000000047 0.0114299999999989 -0.00508000000000042 0.0114299999999989 0.00507999999999953 -0.0114300000000007 0.00507999999999953 3 1 2 3 4 1 
4 2 1 0.000221700000000004
-0.01143 0.00508 0.06 -0.01143 -0.00508 0.06 -0.01143 0.00508 0.1 -0.01143 -0.00508 0.1 0 -0.06 0.01016 -0.06 4.7271214720368e-16 -0.0999999999999943 0.01016 -0.1 2 1 3 2 3 4 
4 2 1 0.000221700000000004
22.84857 0.00508000000000178 0.06 22.84858 0.00508000000000178 0.06 22.84858 -0.00507999999999823 0.06 22.84857 -0.00507999999999823 0.06 4.7271214720368e-16 0 4.7271214720368e-16 -9.99999999962142e-06 0.01016 -1e-05 0.0101600000000005 0 4 1 2 4 2 3 
4 2 1 0.000221700000000004
5.07492 -39.96 11.40858 5.08508 -39.96 11.40858 5.08508 -39.94 11.40858 5.07492 -39.94 11.40858 -0.00508000000000042 -0.00999999999999489 0.00507999999999953 -0.00999999999999801 0.00507999999999953 0.0100000000000051 -0.00508000000000042 0.0100000000000051 3 1 2 3 4 1 
4 2 1 0.000221700000000004
22.84857 -0.00507999999999823 0.04 22.84858 -0.00507999999999823 0.04 22.84858 0.00508000000000178 0.04 22.84857 0.00508000000000178 0.04 -4.15466272496445e-16 0 -4.15466272496445e-16 -9.99999999962142e-06 0.01016 -1e-05 0.0101599999999996 0 4 1 2 4 2 3 
4 2 1 0.000221700000000004
-0.01143 0.00508 0 -0.01143 -0.00508 0 -0.01143 0.00508 0.04 -0.01143 -0.00508 0.04 0 0 0.01016 0 4.14598910758457e-16 -0.0399999999999991 0.01016 -0.04 2 1 3 2 3 4 
12 10 1 0.000221700000000004
0.01143 0.00508 0 -0.01143 0.00508 0 0.01143 0.00508 0.04 0.01142 0.00508 0.04 0.01142 0.00508 0.06 0.01143 0.00508 0.06 0.01143 0.00508 0.1 -0.01143 0.00508 0.1 -0.01143 0.00508 0.06 -0.01142 0.00508 0.06 -0.01142 0.00508 0.04 -0.01143 0.00508 0.04 0 0 0.02286 0 -2.1463814883424e-18 -0.04 1.00000000006848e-05 -0.0399999999999991 9.99999999999786e-06 -0.06 0 -0.06 1.06338549077378e-15 -0.0999999999999943 0.02286 -0.1 0.0228600000000007 -0.06 0.0228499999999993 -0.0599999999999992 0.0228500000000007 -0.04 0.02286 -0.04 5 6 7 10 4 5 10 7 8 10 5 7 9 10 8 11 4 10 1 3 4 2 11 12 2 1 4 2 4 11 

TShapes 92
Ve
1e-07
-0.01143 -0.00508 0
0 0

0101101
*
Ve
1e-07
0.01143 -0.00508 0
0 0

0101101
*
Ed
 1e-10 1 1 0
1  1 0 0 0.02286
6  1 1 10
6  2 2 0
0

0101000
+92 12 -91 12 *
Ve
1e-07
0.01143 -0.00508 0.04
0 0

0101101
*
Ed
 1e-10 1 1 0
1  2 0 0 0.04
6  3 1 13
6  4 3 14
0

0101000
+91 15 -89 15 *
Ve
1e-07
0.01142 -0.00508 0.04
0 0

0101101
*
Ed
 1.00000001776357e-10 1 1 0
1  3 0 0 1e-05
6  5 1 19
6  6 4 0
0

0101000
+87 20 -89 20 *
Ve
1e-07
0.01142 -0.00508 0.06
0 0

0101101
*
Ed
 1.00000003552714e-10 1 1 0
1  4 0 0 0.02
6  7 1 24
6  8 5 0
0

0101000
+85 25 -87 25 *
Ve
1e-07
0.01143 -0.00508 0.06
0 0

0101101
*
Ed
 1.00000001776357e-10 1 1 0
1  5 0 0 1e-05
6  9 1 19
6  10 6 0
0

0101000
+85 20 -83 20 *
Ve
1e-07
0.01143 -0.00508 0.1
0 0

0101101
*
Ed
 1e-10 1 1 0
1  6 0 0.06 0.1
6  11 1 13
6  12 7 14
0

0101000
+83 15 -81 15 *
Ve
1e-07
-0.01143 -0.00508 0.1
0 0

0101101
*
Ed
 1e-10 1 1 0
1  7 0 0 0.02286
6  13 1 28
6  14 8 0
0

0101000
+79 29 -81 29 *
Ve
1e-07
-0.01143 -0.00508 0.06
0 0

0101101
*
Ed
 1e-10 1 1 0
1  8 0 0.06 0.1
6  15 1 13
6  16 9 13
0

0101000
+77 15 -79 15 *
Ve
1e-07
-0.01142 -0.00508 0.06
0 0

0101101
*
Ed
 1.00000001776357e-10 1 1 0
1  9 0 0 1e-05
6  17 1 33
6  18 10 0
0

0101000
+77 34 -75 34 *
Ve
1e-07
-0.01142 -0.00508 0.04
0 0

0101101
*
Ed
 1.00000003552714e-10 1 1 0
1  10 0 0 0.02
6  19 1 37
6  20 11 0
0

0101000
+75 38 -73 38 *
Ve
1e-07
-0.01143 -0.00508 0.04
0 0

0101101
*
Ed
 1.00000001776357e-10 1 1 0
1  11 0 0 1e-05
6  21 1 33
6  22 12 0
0

0101000
+71 34 -73 34 *
Ed
 1e-10 1 1 0
1  12 0 0 0.04
6  23 1 13
6  24 13 13
0

0101000
+92 15 -71 15 *
Wi

0101100
-90 9 -88 6 +86 18 +84 23 -82 18 -80 6 +78 27 +76 6 -74 32 -72 36 
+70 32 +69 6 *
Fa
0  1e-10 1 6
2  1
0101000
+68 0 *
Ve
1e-07
0.01143 0.00508 0
0 0

0101101
*
Ed
 1e-10 1 1 0
1  13 0 0 0.01016
6  25 2 0
6  26 3 39
0

0101000
+91 12 -66 12 *
Ve
1e-07
-0.01143 0.00508 0
0 0

0101101
*
Ed
 1e-10 1 1 0
1  14 0 0 0.02286
6  27 2 0
6  28 14 10
0

0101000
+66 12 -64 12 *
Ed
 1e-10 1 1 0
1  15 0 0 0.01016
6  29 2 0
6  30 13 10
0

0101000
+64 12 -92 12 *
Wi

0101100
+90 0 +65 0 +63 0 +62 0 *
Fa
0  1e-10 2 0
2  2
0101000
+61 0 *
Ve
1e-07
0.01143 0.00508 0.04
0 0

0101101
*
Ed
 1e-10 1 1 0
1  16 0 0 0.04
6  31 3 14
6  32 14 13
0

0101000
+66 15 -59 15 *
Ed
 1.00000003552714e-10 1 1 0
1  17 0 0 0.01016
6  33 3 44
6  34 4 45
0

0101000
+89 46 -59 46 *
Wi

0101100
-65 42 -58 41 +57 43 +88 41 *
Fa
0  1e-10 3 41
2  3
0101000
+56 0 *
Ve
1e-07
0.01142 0.00508 0.04
0 0

0101101
*
Ed
 1.00000001776357e-10 1 1 0
1  18 0 0 1e-05
6  35 4 0
6  36 14 19
0

0101000
+54 20 -59 20 *
Ed
 1.00000003552714e-10 1 1 0
1  19 0 0 0.01016
6  37 4 48
6  38 5 0
0

0101000
+87 25 -54 25 *
Wi

0101100
+86 0 -53 0 -52 47 +57 49 *
Fa
0  1e-10 4 0
2  4
0101000
+51 0 *
Ve
1e-07
0.01142 0.00508 0.06
0 0

0101101
*
Ed
 1.00000003552714e-10 1 1 0
1  20 0 0 0.02
6  39 5 0
6  40 14 24
0

0101000
+54 25 -49 25 *
Ed
 1.00000003552714e-10 1 1 0
1  21 0 0 0.01016
6  41 5 0
6  42 6 48
0

0101000
+49 25 -85 25 *
Wi

0101100
+52 0 +48 0 +47 0 +84 0 *
Fa
0  1e-10 5 0
2  5
0101000
+46 0 *
Ve
1e-07
0.01143 0.00508 0.06
0 0

0101101
*
Ed
 1.00000001776357e-10 1 1 0
1  22 0 0 1e-05
6  43 6 0
6  44 14 19
0

0101000
+49 20 -44 20 *
Ed
 1.00000003552714e-10 1 1 0
1  23 0 0 0.01016
6  45 6 45
6  46 7 44
0

0101000
+44 46 -83 46 *
Wi

0101100
+43 0 -82 0 -47 47 +42 49 *
Fa
0  1e-10 6 0
2  6
0101000
+41 0 *
Ve
1e-07
0.01143 0.00508 0.1
0 0

0101101
*
Ed
 1e-10 1 1 0
1  24 0 0.06 0.1
6  47 7 14
6  48 14 13
0

0101000
+44 15 -39 15 *
Ed
 1e-10 1 1 0
1  25 0 0 0.01016
6  49 7 51
6  50 8 0
0

0101000
+81 29 -39 29 *
Wi

0101100
+42 43 -38 41 +37 50 +80 41 *
Fa
0  1e-10 7 41
2  7
0101000
+36 0 *
Ve
1e-07
-0.01143 0.00508 0.1
0 0

0101101
*
Ed
 1e-10 1 1 0
1  26 0 0 0.02286
6  51 8 0
6  52 14 28
0

0101000
+39 29 -34 29 *
Ed
 1e-10 1 1 0
1  27 0 0 0.01016
6  53 8 0
6  54 9 28
0

0101000
+34 29 -79 29 *
Wi

0101100
+78 0 +37 0 +33 0 +32 0 *
Fa
0  1e-10 8 0
2  8
0101000
+31 0 *
Ve
1e-07
-0.01143 0.00508 0.06
0 0

0101101
*
Ed
 1.00000003552714e-10 1 1 0
1  28 0 0 0.01016
6  55 9 53
6  56 10 48
0

0101000
+29 54 -77 54 *
Ed
 1e-10 1 1 0
1  29 0 0.06 0.1
6  57 9 13
6  58 14 13
0

0101000
+29 15 -34 15 *
Wi

0101100
-28 52 -76 6 +32 27 +27 6 *
Fa
0  1e-10 9 6
2  9
0101000
+26 0 *
Ve
1e-07
-0.01142 0.00508 0.06
0 0

0101101
*
Ed
 1.00000001776357e-10 1 1 0
1  30 0 0 1e-05
6  59 10 0
6  60 14 33
0

0101000
+29 34 -24 34 *
Ed
 1.00000003552714e-10 1 1 0
1  31 0 0 0.01016
6  61 10 45
6  62 11 0
0

0101000
+24 38 -75 38 *
Wi

0101100
+23 0 -74 0 -28 47 +22 49 *
Fa
0  1e-10 10 0
2  10
0101000
+21 0 *
Ve
1e-07
-0.01142 0.00508 0.04
0 0

0101101
*
Ed
 1.00000003552714e-10 1 1 0
1  32 0 0 0.01016
6  63 11 0
6  64 12 45
0

0101000
+73 38 -19 38 *
Ed
 1.00000003552714e-10 1 1 0
1  33 0 0 0.02
6  65 11 0
6  66 14 37
0

0101000
+19 38 -24 38 *
Wi

0101100
+18 0 +17 0 +22 0 +72 0 *
Fa
0  1e-10 11 0
2  11
0101000
+16 0 *
Ve
1e-07
-0.01143 0.00508 0.04
0 0

0101101
*
Ed
 1.00000001776357e-10 1 1 0
1  34 0 0 1e-05
6  67 12 0
6  68 14 33
0

0101000
+14 34 -19 34 *
Ed
 1.00000003552714e-10 1 1 0
1  35 0 0 0.01016
6  69 12 48
6  70 13 53
0

0101000
+71 54 -14 54 *
Wi

0101100
+70 0 -13 0 -12 47 +18 49 *
Fa
0  1e-10 12 0
2  12
0101000
+11 0 *
Ed
 1e-10 1 1 0
1  36 0 0 0.04
6  71 13 13
6  72 14 13
0

0101000
+64 15 -14 15 *
Wi

0101100
-62 9 -69 6 -12 52 +9 6 *
Fa
0  1e-10 13 6
2  13
0101000
+8 0 *
Wi

0101100
-63 9 -9 6 -13 32 -17 36 +23 32 -27 6 +33 27 +38 6 +43 18 +48 23 
-53 18 +58 6 *
Fa
0  1e-10 14 6
2  14
0101000
+6 0 *
Sh

0101100
-67 0 -60 9 -55 40 +50 18 +45 23 +40 18 -35 40 +30 27 -25 0 +20 32 
-15 36 +10 32 -7 0 -5 0 *
So

0100000
+4 0 *
Co

0100000
+3 0 *
Co

1100000
+2 1 *

+1 0 