DBRep_DrawableShape

CASCADE Topology V1, (c) Matra-Datavision
Locations 7
1
              1               0               0               0 
              0               1               0               0 
              0               0               1               0 
1
              1               0               0               0 
              0               1               0               0 
              0               0               1            0.09 
1
              1               0               0               0 
              0               1               0               0 
              0               0               1               0 
1
              1 -6.12323399573677e-17               0 -11.6548274422931 
6.12323399573677e-17               1               0 -30.0140481191421 
              0               0               1               0 
2  3 1 4 1 0
2  4 -1 3 -1 0
2  3 1 4 1 2 1 0
Curve2ds 4
1 -0.011429999999999997 -0.0050799999999999994 1 0 
1 0.011430000000000001 -0.0050799999999999994 0 1 
1 0.011430000000000001 0.0050800000000000012 -1 0 
1 -0.011429999999999997 0.0050800000000000012 0 -1 
Curves 8
1 -11.654827442293138 -30.014048119142085 0 0 0 1 
1 -11.631967442293139 -30.014048119142085 0 0 0 1 
1 0 0 0 1 0 0 
1 -11.631967442293139 -30.003888119142086 0 0 0 1 
1 0.022859999999999998 0 0 0 1 0 
1 -11.654827442293138 -30.003888119142086 0 0 0 1 
1 0.022859999999999998 0.010160000000000001 0 -1 0 0 
1 0 0.010160000000000001 0 0 -1 0 
Polygon3D 0
PolygonOnTriangulations 0
Surfaces 5
1 -11.654827442293138 -30.014048119142085 0 -6.123233995736766e-17 1 0 1 6.123233995736766e-17 0 0 0 -1 
1 0.011429999999999997 0.0050799999999999994 0 0 0 1 1 0 -0 -0 1 0 
1 -11.631967442293139 -30.014048119142085 0 -1 -6.123233995736766e-17 0 -6.123233995736766e-17 1 0 -0 0 -1 
1 -11.631967442293139 -30.003888119142086 0 6.123233995736766e-17 -1 0 -1 -6.123233995736766e-17 0 0 -0 -1 
1 -11.654827442293138 -30.003888119142086 0 1 6.123233995736766e-17 -0 6.123233995736766e-17 -1 0 0 -0 -1 
Triangulations 0

TShapes 25
Ve
1e-07
-11.6548274422931 -30.0140481191421 0
0 0

0101101
*
Ed
 1e-07 1 1 0
1  1 0 0 0.09
0

0101000
+25 0 -25 2 *
Ve
1e-07
-11.6319674422931 -30.0140481191421 0
0 0

0101101
*
Ed
 1e-07 1 1 0
1  2 0 0 0.09
0

0101000
+23 0 -23 2 *
Ed
 1e-07 1 1 0
1  3 0 0 0.02286
2  1 2 0 0 0.02286
0

0101000
+25 6 -23 6 *
Wi

0101100
+24 0 -22 0 -21 5 +21 7 *
Fa
0  1e-07 1 0

0101000
+20 0 *
Ve
1e-07
-11.6319674422931 -30.0038881191421 0
0 0

0101101
*
Ed
 1e-07 1 1 0
1  4 0 0 0.09
0

0101000
+18 0 -18 2 *
Ed
 1e-07 1 1 0
1  5 0 0 0.01016
2  2 2 0 0 0.01016
0

0101000
+23 6 -18 6 *
Wi

0101100
+22 0 -17 0 -16 5 +16 7 *
Fa
0  1e-07 3 0

0101000
+15 0 *
Ve
1e-07
-11.6548274422931 -30.0038881191421 0
0 0

0101101
*
Ed
 1e-07 1 1 0
1  6 0 0 0.09
0

0101000
+13 0 -13 2 *
Ed
 1e-07 1 1 0
1  7 0 0 0.02286
2  3 2 0 0 0.02286
0

0101000
+18 6 -13 6 *
Wi

0101100
+17 0 -12 0 -11 5 +11 7 *
Fa
0  1e-07 4 0

0101000
+10 0 *
Ed
 1e-07 1 1 0
1  8 0 0 0.01016
2  4 2 0 0 0.01016
0

0101000
+13 6 -25 6 *
Wi

0101100
+12 0 -24 0 -8 5 +8 7 *
Fa
0  1e-07 5 0

0101000
+7 0 *
Wi

0101100
+21 0 +16 0 +11 0 +8 0 *
Fa
0  1e-07 2 0

0101000
+5 0 *
Sh

0101100
+19 0 +14 0 +9 0 +6 0 +4 5 -4 7 *
So

0100000
-3 0 *
Co

1100000
+2 1 *

+1 0 