DBRep_DrawableShape

CASCADE Topology V1, (c) Matra-Datavision
Locations 44
1
              1               0               0               0 
              0               1               0               0 
              0               0               1               0 
1
              1               0               0               0 
              0               1               0               0 
              0               0               1           0.003 
1
              1               0               0               0 
              0               1               0               0 
              0               0               1               0 
1
              1               0               0          -0.009 
              0               1               0               0 
              0               0               1               0 
2  3 1 4 1 0
2  4 -1 3 -1 0
2  3 1 4 1 2 1 0
2  1 -1 0
2  3 1 4 1 1 1 0
2  1 -1 4 -1 3 -1 0
2  3 1 4 1 2 1 1 1 0
2  1 -1 2 -1 4 -1 3 -1 0
1
              1               0               0               0 
              0               1               0               0 
              0               0               1               0 
1
              1               0               0               0 
              0               1               0               0 
              0               0               1               0 
1
              1               0               0               0 
              0               1               0               0 
              0               0               1               0 
2  13 1 14 1 15 1 0
1
              1               0               0               0 
              0               1               0               0 
              0               0               1               0 
1
              1               0               0               0 
              0               1               0               0 
              0               0               1               0 
2  17 1 18 1 14 -1 13 -1 0
2  15 -1 14 -1 13 -1 0
1
              1               0               0               0 
              0               1               0               0 
              0               0               1               0 
1
              1               0               0          -0.009 
              0               1               0        0.000635 
              0               0               1               0 
2  21 1 22 1 17 1 18 1 15 1 0
2  22 -1 21 -1 0
2  15 -1 18 -1 17 -1 22 -1 21 -1 0
1
              1               0               0               0 
              0               1               0               0 
              0               0               1               0 
1
              1               0               0         -0.0005 
              0               1               0        0.000635 
              0               0               1               0 
2  26 1 27 1 13 1 14 1 15 1 0
2  27 -1 26 -1 0
1
              1               0               0               0 
              0               1               0               0 
              0               0               1           0.003 
2  30 -1 27 -1 26 -1 0
2  21 1 22 1 17 1 18 1 14 -1 13 -1 27 -1 26 -1 0
1
              1               0               0               0 
              0               1               0               0 
              0               0               1           0.003 
2  21 1 22 1 33 1 17 1 18 1 14 -1 13 -1 30 -1 27 -1 26 -1 0
2  15 -1 14 -1 13 -1 27 -1 26 -1 0
2  26 1 27 1 30 1 13 1 14 1 15 1 0
2  15 -1 14 -1 13 -1 30 -1 27 -1 26 -1 0
2  21 1 22 1 33 1 17 1 18 1 15 1 0
2  15 -1 18 -1 17 -1 33 -1 22 -1 21 -1 0
2  17 1 18 1 15 1 0
2  21 1 22 1 0
2  21 1 22 1 33 1 0
2  26 1 27 1 0
2  26 1 27 1 30 1 0
Curve2ds 32
1 -0.0089999999999999993 -0.00031750000000000002 1 0 
1 0.0089999999999999993 -0.00031750000000000002 0 1 
1 0.0089999999999999993 0.00031750000000000002 -1 0 
1 0.001 0 0 -1 
1 0 0 0 -1 
1 0.0094999999999999998 0 0 -1 
1 0 0 0 -1 
1 0.00030000000000000003 0 0 -1 
1 0.0084999999999999989 0 0 -1 
1 -0.0089999999999999993 0.00031750000000000002 0 -1 
1 -0.0089999999999999993 0.0030000000000000001 0 -1 
1 0.0089999999999999993 0.0030000000000000001 -1 0 
1 0.0089999999999999993 -0.0030000000000000001 0 1 
1 0.00050000000000000001 -0.00014999999999999999 0 1 
1 0 0 1 0 
1 0 -0.0030000000000000001 1 0 
1 0.00049999999999999871 -0.0030000000000000001 0 1 
1 0.00049999999999999871 -0.0030000000000000001 0 1 
1 0.00050000000000000001 0.00014999999999999999 -1 0 
1 0 -0 1 0 
1 0 -0.0030000000000000001 1 0 
1 0.00049999999999999871 -0.0027000000000000001 -1 0 
1 0.00049999999999999871 -0.0027000000000000001 -1 0 
1 -0.00050000000000000001 0.00014999999999999999 0 -1 
1 0 0 1 0 
1 0 -0.0030000000000000001 1 0 
1 -0.00050000000000000044 -0.0027000000000000001 0 -1 
1 -0.00050000000000000044 -0.0027000000000000001 0 -1 
1 0 0 0 -1 
1 0.001 0 0 -1 
1 0.00030000000000000003 0 0 -1 
1 0 -0 0 -1 
Curves 20
1 -0.0089999999999999993 0 0 0 0 1 
1 0.0089999999999999993 0 0 0 0 1 
1 0 0 0 1 0 0 
1 0.0089999999999999993 0.00063500000000000004 0 0 0 1 
1 0.017999999999999999 0 0 0 1 0 
1 0.017999999999999999 0.00063500000000000004 0 -1 0 0 
1 0.00050000000000000001 0.00063500000000000004 0 0 0 1 
1 -0.00050000000000000001 0.00063500000000000004 0 0 0 1 
1 -0.0089999999999999993 0.00063500000000000004 0 0 0 1 
1 0 0.00063500000000000004 0 0 -1 0 
1 0 0.0060000000000000001 0 0 -1 0 
1 0.017999999999999999 0.0060000000000000001 0 -1 0 0 
1 0.017999999999999999 0 0 0 1 0 
1 0.001 0 0 0 1 0 
1 0.001 0.00029999999999999997 0 -1 0 0 
1 0 0.00029999999999999997 0 0 -1 0 
1 -0.00050000000000000001 0.00093500000000000007 0 0 0 1 
1 -0.0089999999999999993 0.0066350000000000003 0 0 0 1 
1 0.0089999999999999993 0.0066350000000000003 0 0 0 1 
1 0.00050000000000000001 0.00093500000000000007 0 0 0 1 
Polygon3D 0
PolygonOnTriangulations 0
Surfaces 15
1 -0.0089999999999999993 0 0 0 1 0 1 0 0 0 0 -1 
1 0.0089999999999999993 0.00031750000000000002 0 0 0 1 1 0 -0 -0 1 0 
1 0.0089999999999999993 0 0 -1 0 0 0 1 0 0 0 -1 
1 0.0089999999999999993 0.00063500000000000004 0 0 -1 0 -1 0 0 -0 -0 -1 
1 -0.00050000000000000001 0.00063500000000000004 0 0 1 0 1 0 0 0 0 -1 
1 0.00050000000000000001 0.00063500000000000004 0 -1 0 0 0 1 0 0 0 -1 
1 -0.0089999999999999993 0.00063500000000000004 0 0 1 0 1 0 0 0 0 -1 
1 -0.00050000000000000001 0.00093500000000000007 0 1 0 -0 0 -1 0 0 -0 -1 
1 -0.0089999999999999993 0.00063500000000000004 0 1 0 -0 0 -1 0 0 -0 -1 
1 0.0089999999999999993 0.0030000000000000001 0 0 0 1 1 0 -0 -0 1 0 
1 0.00050000000000000001 0.00014999999999999999 0 0 0 1 1 0 -0 -0 1 0 
1 0.00050000000000000001 0.00093500000000000007 0 0 -1 0 -1 0 0 -0 -0 -1 
1 -0.0089999999999999993 0.0066350000000000003 0 1 0 -0 0 -1 0 0 -0 -1 
1 0.0089999999999999993 0.0066350000000000003 0 0 -1 0 -1 0 0 -0 -0 -1 
1 0.0089999999999999993 0.00063500000000000004 0 -1 0 0 0 1 0 0 0 -1 
Triangulations 0

TShapes 84
Ve
1e-07
-0.009 0 0
0 0

0101101
*
Ed
 1e-07 1 1 0
1  1 0 0 0.003
0

0101000
+84 0 -84 2 *
Ve
1e-07
0.009 0 0
0 0

0101101
*
Ed
 1e-07 1 1 0
1  2 0 0 0.003
0

0101000
+82 0 -82 2 *
Ed
 1e-07 1 1 0
1  3 0 0 0.018
2  1 2 0 0 0.018
0

0101000
+84 6 -82 6 *
Wi

0101100
+83 0 -81 0 -80 5 +80 7 *
Fa
0  1e-07 1 0

0111000
+79 0 *
Ve
1.00000000001735e-07
0.009 0.000635 0
0 0

0101101
*
Ve
1.00000000002168e-07
0.009 0.000635 0.003
0 0

0101101
*
Ed
 1e-07 1 1 0
1  4 0 0 0.003
0

0101000
+77 8 -76 8 *
Ed
 1e-07 1 1 0
1  5 0 0 0.000635
2  2 2 0 0 0.000635
0

0101000
+82 6 -77 10 *
Ed
 1e-07 1 1 0
1  5 0 0 0.000635
2  2 2 0 0 0.000635
0

0101000
+82 6 -76 12 *
Wi

0101100
+81 1 -75 1 -74 9 +73 11 *
Fa
0  1e-07 3 1

0101000
+72 0 *
Ve
1.00000000001735e-07
0.0005 0.000635 0
0 0

0101101
*
Ed
 1.00000000001735e-07 1 1 0
1  6 0 0 0.0085
2  3 2 0 0 0.0085
0

0101000
+77 10 -70 10 *
Ve
1.00000000001735e-07
0.0005 0.000635 0.003
0 0

0101101
*
Ed
 1e-07 1 1 0
1  7 0 0 0.003
2  4 5 0 0 0.003
2  5 6 0 0 0.003
2  6 7 19 0 0.003
0

0101000
+70 20 -68 20 *
Ed
 1.00000000001735e-07 1 1 0
1  6 0 0 0.0085
2  3 2 0 0 0.0085
0

0101000
+76 12 -68 12 *
Wi

0101100
-69 9 -67 16 +66 11 +75 1 *
Fa
0  1e-07 4 1

0101000
+65 0 *
Ve
1.00000000000813e-07
-0.0005 0.000635 0
0 0

0101101
*
Ed
 1e-07 1 1 0
1  6 0 0.0085 0.0095
2  3 2 0 0.0085 0.0095
0

0101000
+70 10 -63 10 *
Ve
1.00000000000813e-07
-0.0005 0.000635 0.003
0 0

0101101
*
Ed
 1e-07 1 1 0
1  8 0 0 0.003
2  7 5 0 0 0.003
2  8 8 0 0 0.003
2  9 7 19 0 0.003
0

0101000
+63 20 -61 20 *
Ed
 1e-07 1 1 0
1  6 0 0.0085 0.0095
2  3 2 0 0.0085 0.0095
0

0101000
+68 12 -61 12 *
Wi

0101100
-62 9 -60 16 +59 11 +67 16 *
Fa
0  1e-07 4 1

0101000
+58 0 *
Ve
1e-07
-0.009 0.000635 0
0 0

0101101
*
Ed
 1e-07 1 1 0
1  6 0 0.0095 0.018
2  3 2 0 0.0095 0.018
0

0101000
+63 10 -56 10 *
Ve
1e-07
-0.009 0.000635 0.003
0 0

0101101
*
Ed
 1e-07 1 1 0
1  9 0 0 0.003
0

0101000
+56 8 -54 8 *
Ed
 1e-07 1 1 0
1  6 0 0.0095 0.018
2  3 2 0 0.0095 0.018
0

0101000
+61 12 -54 12 *
Wi

0101100
-55 9 -53 1 +52 11 +60 16 *
Fa
0  1e-07 4 1

0101000
+51 0 *
Ed
 1e-07 1 1 0
1  10 0 0 0.000635
2  10 2 0 0 0.000635
0

0101000
+56 10 -84 6 *
Ed
 1e-07 1 1 0
1  10 0 0 0.000635
2  10 2 0 0 0.000635
0

0101000
+54 12 -84 6 *
Wi

0101100
+53 1 -83 1 -49 9 +48 11 *
Fa
0  1e-07 9 1

0101000
+47 0 *
Wi

0101100
+80 9 +74 9 +69 9 +62 9 +55 9 +49 9 *
Fa
0  1e-07 2 9

0101000
+45 0 *
Wi

0101100
+80 11 +73 11 +66 11 +59 11 +52 11 +48 11 *
Fa
0  1e-07 2 11

0101000
+43 0 *
Sh

0101100
+78 1 +71 0 +64 0 +57 0 +50 0 +46 0 +44 0 -42 0 *
So

0100000
-41 0 *
Ve
1e-07
-0.009 0.006635 0
0 0

0101101
*
Ed
 1e-07 1 1 0
1  11 0 0 0.006
2  11 10 0 0 0.006
0

0101000
+39 24 -56 25 *
Ve
1e-07
0.009 0.006635 0
0 0

0101101
*
Ed
 1e-07 1 1 0
1  12 0 0 0.018
2  12 10 0 0 0.018
0

0101000
+37 24 -39 24 *
Ed
 1e-07 1 1 0
1  13 0 0 0.006
2  13 10 0 0 0.006
0

0101000
+77 25 -37 24 *
Ve
1e-07
0.0005 0.000935 0
0 0

0101101
*
Ed
 1e-07 1 1 0
1  14 0 0 0.0003
2  14 11 0 0 0.0003
2  15 6 29 0 0.0003
2  16 6 31 0 0.0003
2  17 10 32 0 0.0003
2  18 10 34 0 0.0003
0

0101000
+70 35 -34 29 *
Ve
1e-07
-0.0005 0.000935 0
0 0

0101101
*
Ed
 1e-07 1 1 0
1  15 0 0 0.001
2  19 11 0 0 0.001
2  20 12 29 0 0.001
2  21 12 31 0 0.001
2  22 10 32 0 0.001
2  23 10 34 0 0.001
0

0101000
+34 29 -32 29 *
Ed
 1e-07 1 1 0
1  16 0 0 0.0003
2  24 11 0 0 0.0003
2  25 8 29 0 0.0003
2  26 8 31 0 0.0003
2  27 10 32 0 0.0003
2  28 10 34 0 0.0003
0

0101000
+32 29 -63 35 *
Wi

0101100
+38 23 +36 23 +35 23 -69 9 -33 28 -31 28 -30 28 -55 9 *
Fa
0  1e-07 10 23

0101000
+29 0 *
Ed
 1e-07 1 1 0
1  17 0 0 0.003
2  29 8 0 0 0.003
2  30 12 0 0 0.003
0

0101000
+32 0 -32 30 *
Ed
 1e-07 1 1 0
1  16 0 0 0.0003
2  24 11 0 0 0.0003
2  25 8 29 0 0.0003
2  26 8 31 0 0.0003
2  27 10 32 0 0.0003
2  28 10 34 0 0.0003
0

0101000
+32 29 -61 37 *
Wi

0101100
+27 16 -60 16 -30 28 +26 36 *
Fa
0  1e-07 8 16

0101000
+25 0 *
Ed
 1e-07 1 1 0
1  11 0 0 0.006
2  11 10 0 0 0.006
0

0101000
+39 24 -54 39 *
Ed
 1e-07 1 1 0
1  13 0 0 0.006
2  13 10 0 0 0.006
0

0101000
+76 39 -37 24 *
Ed
 1e-07 1 1 0
1  14 0 0 0.0003
2  14 11 0 0 0.0003
2  15 6 29 0 0.0003
2  16 6 31 0 0.0003
2  17 10 32 0 0.0003
2  18 10 34 0 0.0003
0

0101000
+68 37 -34 29 *
Wi

0101100
+23 38 +36 38 +22 38 -66 11 -21 36 -31 36 -26 36 -52 11 *
Fa
0  1e-07 10 38

0101000
+20 0 *
Ed
 1e-07 1 1 0
1  18 0 0 0.003
0

0101000
+39 0 -39 33 *
Wi

0101100
+18 40 -53 1 -38 23 +23 38 *
Fa
0  1e-07 13 40

0101000
+17 0 *
Ed
 1e-07 1 1 0
1  19 0 0 0.003
0

0101000
+37 0 -37 33 *
Wi

0101100
+15 0 -18 0 -36 41 +36 42 *
Fa
0  1e-07 14 0

0111000
+14 0 *
Wi

0101100
+75 1 -15 40 -35 23 +22 38 *
Fa
0  1e-07 15 40

0101000
+12 0 *
Ed
 1e-07 1 1 0
1  20 0 0 0.003
2  31 6 0 0 0.003
2  32 12 0 0 0.003
0

0101000
+34 0 -34 30 *
Wi

0101100
+67 16 -10 16 -33 28 +21 36 *
Fa
0  1e-07 6 16

0101000
+9 0 *
Wi

0101100
+10 0 -27 0 -31 43 +31 44 *
Fa
0  1e-07 12 0

0111000
+7 0 *
Sh

0101100
+50 0 -28 0 +24 0 +19 0 -16 0 -13 40 -11 0 +64 0 +8 0 +6 16 
*
So

0100000
+5 0 *
Co

0100000
+4 0 *
Co

0100000
+40 0 +3 0 *
Co

1100000
+2 0 *

+1 0 