DBRep_DrawableShape

CASCADE Topology V1, (c) Matra-Datavision
Locations 71
1
              1               0               0               0 
              0               1               0         -0.0999 
              0               0               1           4.995 
1
              1               0               0               0 
              0               1               0               0 
              0               0               1               0 
1
              1               0               0               0 
              0               1               0               0 
              0               0               1               0 
1
              1               0               0               0 
              0               1               0               0 
              0               0               1               0 
1
              1               0               0               0 
              0               1               0               0 
              0               0               1               0 
1
              1               0               0               0 
              0               1               0               0 
              0               0               1               0 
2  2 1 3 1 4 1 5 1 6 1 0
1
              1               0               0               0 
              0               1               0               0 
              0               0               1               0 
1
              1               0               0           -0.65 
              0               1               0               0 
              0               0               1               0 
2  8 1 9 1 2 1 3 1 4 1 5 1 6 1 0
1
              1               0               0               0 
              0               1               0               0 
              0               0               1               0 
2  11 -1 6 -1 5 -1 4 -1 3 -1 2 -1 9 -1 8 -1 0
1
              1               0               0               0 
              0               1               0               0 
              0               0               1               0 
1
              1               0               0               0 
              0               1               0               0 
              0               0               1               0 
2  13 1 14 1 4 1 5 1 6 1 0
2  11 -1 6 -1 5 -1 4 -1 14 -1 13 -1 0
1
              1               0               0               0 
              0               1               0               0 
              0               0               1               2 
2  8 1 9 1 17 1 2 1 3 1 4 1 5 1 6 1 0
2  11 -1 6 -1 5 -1 4 -1 3 -1 2 -1 17 -1 9 -1 8 -1 0
2  11 -1 6 -1 5 -1 4 -1 3 -1 2 -1 0
1
              1               0               0               0 
              0               1               0               0 
              0               0               1               0 
1
              1               0               0            0.05 
              0               1               0               0 
              0               0               1               0 
1
              1               0               0               0 
              0               1               0               0 
              0               0               1               0 
1
              1               0               0               0 
              0               1               0               0 
              0               0               1               0 
2  21 1 22 1 23 1 24 1 6 1 0
2  11 -1 6 -1 24 -1 23 -1 22 -1 21 -1 0
1
              1               0               0               0 
              0               1               0               0 
              0               0               1               0 
1
              1               0               0           -0.15 
              0               1               0               0 
              0               0               1               0 
2  27 1 28 1 13 1 14 1 4 1 5 1 6 1 0
2  11 -1 6 -1 5 -1 4 -1 14 -1 13 -1 28 -1 27 -1 0
1
              1               0               0               0 
              0               1               0               0 
              0               0               1               2 
2  27 1 28 1 31 1 13 1 14 1 4 1 5 1 6 1 0
2  11 -1 6 -1 5 -1 4 -1 14 -1 13 -1 31 -1 28 -1 27 -1 0
1
              1               0               0               0 
              0               1               0               0 
              0               0               1               2 
2  21 1 22 1 34 1 23 1 24 1 6 1 0
2  11 -1 6 -1 24 -1 23 -1 34 -1 22 -1 21 -1 0
2  8 1 9 1 0
2  8 1 9 1 17 1 0
2  23 1 24 1 6 1 0
2  11 -1 6 -1 24 -1 23 -1 0
2  21 1 22 1 0
2  21 1 22 1 34 1 0
2  27 1 28 1 0
2  27 1 28 1 31 1 0
1
              1               0               0               0 
              0               1               0               0 
              0               0               1               0 
1
              1               0               0               0 
              0               1               0               0 
              0               0               1               0 
1
              1               0               0               0 
              0               1               0               0 
              0               0               1               0 
2  46 1 47 1 0
2  11 -1 45 -1 47 -1 46 -1 0
1
              1               0               0               0 
              0               1               0               0 
              0               0               1               0 
1
              1               0               0           -0.65 
              0               1               0            -0.1 
              0               0               1               0 
2  50 1 51 1 46 1 47 1 0
2  11 -1 45 -1 47 -1 46 -1 51 -1 50 -1 0
1
              1               0               0               0 
              0               1               0               0 
              0               0               1               2 
2  50 1 51 1 54 1 46 1 47 1 0
2  11 -1 45 -1 47 -1 46 -1 54 -1 51 -1 50 -1 0
1
              1               0               0               0 
              0               1               0               0 
              0               0               1               0 
1
              1               0               0           -0.15 
              0 2.22044604925031e-16              -1 -1.11022302462515e-17 
              0               1 2.22044604925031e-16            2.45 
1
              1               0               0               0 
              0               1               0            -0.1 
              0               0               1 2.22044604925031e-17 
1
              1               0               0               0 
              0               1               0               0 
              0               0               1               0 
1
              1               0               0               0 
              0               1               0               0 
              0               0               1            -1.5 
2  57 1 58 1 59 1 60 1 61 1 0
2  11 -1 45 -1 61 -1 60 -1 59 -1 58 -1 57 -1 0
2  46 1 47 1 45 1 0
2  50 1 51 1 46 1 47 1 45 1 0
2  50 1 51 1 54 1 46 1 47 1 45 1 0
2  60 1 61 1 45 1 0
2  11 -1 45 -1 61 -1 60 -1 0
2  57 1 58 1 59 1 60 1 61 1 45 1 0
2  57 1 58 1 60 1 61 1 45 1 0
2  11 -1 45 -1 61 -1 60 -1 58 -1 57 -1 0
Curve2ds 0
Curves 62
1 0.64934999999999998 0 0 1 0 0 
1 -0.00015000000000000007 0 0 0 0 1 
1 -0.00015000000000000007 0 0 0 0 1 
1 -0.00015000000000000007 0 0 0 0 1 
1 0.64934999999999998 0 -1.998 1 0 0 
1 -0.0006500000000000003 0 0 0 0 1 
1 0.65064999999999995 0.00010000000000000005 0 -1 0 0 
1 0.65064999999999995 0 0 0 1 0 
1 0.64934999999999998 0 0 1 0 0 
1 -0.049855459831449518 1.4999999999999997e-05 0 0.34203551801558418 -0.93968702471397947 0 
1 -0.04994454044648601 1.5000000000000005e-05 0 1 -9.9999999999999998e-17 0 
1 -0.049950000000000001 0 0 0.34202014332566949 0.93969262078590821 0 
1 0.64934999999999998 0 0 1 0 0 
1 0.14994454016855047 1.4999999999999997e-05 0 0.34203551801558418 -0.93968702471397947 0 
1 0.14985545955351398 1.5000000000000005e-05 0 1 -9.9999999999999998e-17 0 
1 0.14984999999999998 0 0 0.34202014332566949 0.93969262078590821 0 
1 0.64934999999999998 0.00010000000000000005 0 0 -1 0 
1 -0.00014454044648600707 1.5000000000000005e-05 0 0 0 1 
1 0.14984999999999998 0 -1.998 0.34202014332566949 0.93969262078590821 0 
1 0.65064999999999995 0.00010000000000000005 -1.998 -1 0 0 
1 0.65064999999999995 0 -1.998 0 1 0 
1 0.64934999999999998 0 -1.998 1 0 0 
1 -0.049855459831449518 1.4999999999999997e-05 -1.998 0.34203551801558418 -0.93968702471397947 0 
1 -0.04994454044648601 1.5000000000000005e-05 -1.998 1 -9.9999999999999998e-17 0 
1 -0.049950000000000001 0 -1.998 0.34202014332566949 0.93969262078590821 0 
1 0.64934999999999998 0 -1.998 1 0 0 
1 0.14994454016855047 1.4999999999999997e-05 -1.998 0.34203551801558418 -0.93968702471397947 0 
1 0.14985545955351398 1.5000000000000005e-05 -1.998 1 -9.9999999999999998e-17 0 
1 0.64934999999999998 0.00010000000000000005 -1.998 0 -1 0 
1 -0.0006500000000000003 0.00010000000000000005 0 0 0 1 
1 0.0006500000000000003 0.00010000000000000005 0 0 0 1 
1 0.0006500000000000003 0 0 0 0 1 
1 0.0001500000000000001 0 0 0 0 1 
1 0.00014454016855048609 1.5000000000000005e-05 0 0 0 1 
1 5.5459553513993028e-05 1.5000000000000005e-05 0 0 0 1 
1 5.0000000000000023e-05 0 0 0 0 1 
1 -5.0000000000000009e-05 0 0 0 0 1 
1 -5.0000000000000009e-05 0 0 0 0 1 
1 -5.0000000000000009e-05 0 0 0 0 1 
1 -5.5459831449514021e-05 1.5000000000000005e-05 0 0 0 1 
1 -0.0006500000000000003 -0.00010000000000000005 0 0 0 1 
1 0.64934999999999998 0.099900000000000003 0 1 0 0 
1 0.64934999999999998 0.099900000000000003 -1.998 1 0 0 
1 0.0006500000000000003 -0.00010000000000000005 0 0 0 1 
1 0.14984999999999998 -0.94895000000000018 -0.099900000000000225 0 -1 0 
1 0.14994999999999997 -0.94895000000000018 -0.099900000000000225 -1 0 0 
1 0.14994999999999997 -0.94905000000000017 -0.099900000000000225 0 1 0 
1 0.14984999999999998 -0.94905000000000017 -0.099900000000000225 1 0 0 
1 0.64934999999999998 0.10000000000000001 0 0 -1 0 
1 0.64934999999999998 0.10000000000000001 -1.998 0 -1 0 
1 0.65064999999999995 0.099900000000000003 0 0 1 0 
1 0.65064999999999995 0.10000000000000001 0 -1 0 0 
1 0.65064999999999995 0.10000000000000001 0 -1 0 0 
1 0.65064999999999995 0.099900000000000003 -1.998 0 1 0 
1 0.65064999999999995 0.10000000000000001 -1.998 -1 0 0 
1 0.65064999999999995 0.10000000000000001 -1.998 -1 0 0 
1 -0.00015000000000000007 1.1102230246251611e-20 1.50105 0 -1 2.2204460492503131e-16 
1 -0.00015000000000000007 -1.1102230246251531e-20 1.50095 0 -1 2.2204460492503131e-16 
1 -5.0000000000000009e-05 1.1102230246251611e-20 1.50105 0 -1 2.2204460492503131e-16 
1 0.14994999999999997 -0.94895000000000018 -2.2182256032010628e-16 -1 0 0 
1 -5.0000000000000009e-05 -1.1102230246251531e-20 1.50095 0 -1 2.2204460492503131e-16 
1 0.14984999999999998 -0.94905000000000017 -2.2182256032010628e-16 1 0 0 
Polygon3D 0
PolygonOnTriangulations 0
Surfaces 26
1 -0.0006500000000000003 0 0 0 1 0 1 0 0 0 0 -1 
1 0.65000000000000002 5.000000000000003e-05 0 0 0 1 1 0 0 0 1 0 
1 -0.00015000000000000007 0 0 -0.93969262078590821 0.34202014332566949 0 0.34202014332566949 0.93969262078590821 0 0 0 -1 
1 0.65000000000000002 5.000000000000003e-05 -1.998 0 0 1 1 0 0 0 1 0 
1 -0.0006500000000000003 0.00010000000000000005 0 1 0 0 0 -1 0 0 0 -1 
1 0.0006500000000000003 0.00010000000000000005 0 0 -1 0 -1 0 0 -0 -0 -1 
1 0.0006500000000000003 0 0 -1 0 0 0 1 0 0 0 -1 
1 -0.0006500000000000003 0 0 0 1 0 1 0 0 0 0 -1 
1 0.0001445401685504859 1.4999999999999997e-05 0 0.93968702471397947 0.34203551801558418 0 0.34203551801558418 -0.93968702471397947 0 0 0 -1 
1 5.5459553513993075e-05 1.5000000000000005e-05 0 9.9999999999999998e-17 1 0 1 -9.9999999999999998e-17 0 0 0 -1 
1 5.0000000000000023e-05 0 0 -0.93969262078590821 0.34202014332566949 0 0.34202014332566949 0.93969262078590821 0 0 0 -1 
1 -0.0006500000000000003 0 0 0 1 0 1 0 0 0 0 -1 
1 -5.5459831449514163e-05 1.4999999999999997e-05 0 0.93968702471397947 0.34203551801558418 0 0.34203551801558418 -0.93968702471397947 0 0 0 -1 
1 -0.00014454044648600702 1.5000000000000005e-05 0 9.9999999999999998e-17 1 0 1 -9.9999999999999998e-17 0 0 0 -1 
1 -0.0006500000000000003 -0.00010000000000000005 0 0 1 0 1 0 0 0 0 -1 
1 -0.0006500000000000003 0 0 1 0 0 0 -1 0 0 0 -1 
1 0.65000000000000002 0.099949999999999997 0 0 0 1 1 0 0 0 1 0 
1 0.65000000000000002 0.099949999999999997 -1.998 0 0 1 1 0 0 0 1 0 
1 0.0006500000000000003 -0.00010000000000000005 0 -1 0 0 0 1 0 0 0 -1 
1 -0.00015000000000000007 1.1102230246251611e-20 1.50105 1 0 0 0 -2.2204460492503131e-16 -1 0 1 -2.2204460492503131e-16 
1 -5.0000000000000009e-05 1.1102230246251611e-20 1.50105 -0 -2.2204460492503131e-16 -1 -1 0 0 0 1 -2.2204460492503131e-16 
1 -5.0000000000000009e-05 -1.1102230246251531e-20 1.50095 -1 0 0 0 2.2204460492503131e-16 1 0 1 -2.2204460492503131e-16 
1 -0.00015000000000000007 -1.1102230246251531e-20 1.50095 0 2.2204460492503131e-16 1 1 0 0 0 1 -2.2204460492503131e-16 
1 0.0006500000000000003 0 0 0 -1 0 -1 0 0 -0 -0 -1 
1 0.0006500000000000003 0 0 0 -1 0 -1 0 0 -0 -0 -1 
1 0.0006500000000000003 0 0 0 -1 0 -1 0 0 -0 -0 -1 
Triangulations 0

TShapes 159
Ve
1e-07
-0.00065 0 0
0 0

0101101
*
Ve
1e-07
-0.00015 0 0
0 0

0101101
*
Ed
 1.00000000111022e-10 1 1 0
1  1 0 0 0.0005
0

0101000
+159 12 -158 12 *
Ve
1e-07
-0.00015 -1.11022302462515e-20 0.000950000000000001
0 0

0101101
*
Ed
 1e-10 1 1 0
1  2 0 0 0.000950000000000001
0

0101000
+158 16 -156 16 *
Ve
1e-07
-0.00015 1.11022302462516e-20 0.00105
0 0

0101101
*
Ed
 1.0000000002313e-10 1 1 0
1  3 0 0.000950000000000001 0.00105
0

0101000
+156 16 -154 16 *
Ve
1e-07
-0.00015 0 0.002
0 0

0101101
*
Ed
 1e-10 1 1 0
1  4 0 0.00105 0.002
0

0101000
+154 16 -152 16 *
Ve
1e-07
-0.00065 0 0.002
0 0

0101101
*
Ed
 1.00000000111022e-10 1 1 0
1  5 0 0 0.0005
0

0101000
+150 19 -152 19 *
Ed
 1e-10 1 1 0
1  6 0 0 0.002
0

0101000
+159 20 -150 20 *
Wi

0101100
-157 10 -155 15 -153 15 -151 15 +149 18 +148 7 *
Fa
0  1e-10 1 7

0101000
+147 0 *
Ve
1e-07
0.00065 0.0001 0
0 0

0101101
*
Ve
1e-07
-0.00065 0.0001 0
0 0

0101101
*
Ed
 1e-10 1 1 0
1  7 0 0 0.0013
0

0101000
+145 12 -144 12 *
Ve
1e-07
0.00065 0 0
0 0

0101101
*
Ed
 1e-10 1 1 0
1  8 0 0 0.0001
0

0101000
+142 12 -145 12 *
Ve
1e-07
0.00015 0 0
0 0

0101101
*
Ed
 1e-10 1 1 0
1  9 0 0.0008 0.0013
0

0101000
+140 12 -142 12 *
Ve
1e-07
0.000144540168550486 1.5e-05 0
0 0

0101101
*
Ed
 1e-10 1 1 0
1  10 0 0 1.5962761648822e-05
0

0101000
+138 26 -140 26 *
Ve
1e-07
5.5459553513993e-05 1.5e-05 0
0 0

0101101
*
Ed
 1e-10 1 1 0
1  11 0 0 8.9080615036493e-05
0

0101000
+136 26 -138 26 *
Ve
1e-07
5e-05 0 0
0 0

0101101
*
Ed
 1e-10 1 1 0
1  12 0 0 1.5962666587139e-05
0

0101000
+134 26 -136 26 *
Ve
1e-07
-5e-05 0 0
0 0

0101101
*
Ed
 1e-10 1 1 0
1  13 0 0.0006 0.0007
0

0101000
+132 12 -134 12 *
Ve
1e-07
-5.5459831449514e-05 1.5e-05 0
0 0

0101101
*
Ed
 1e-10 1 1 0
1  14 0 0 1.5962761648822e-05
0

0101000
+130 30 -132 30 *
Ve
1e-07
-0.000144540446486007 1.5e-05 0
0 0

0101101
*
Ed
 1e-10 1 1 0
1  15 0 0 8.9080615036493e-05
0

0101000
+128 30 -130 30 *
Ed
 1e-10 1 1 0
1  16 0 0 1.5962666587139e-05
0

0101000
+158 30 -128 30 *
Ed
 1e-10 1 1 0
1  17 0 0 0.0001
0

0101000
+144 12 -159 12 *
Wi

0101100
+143 10 +141 10 +139 10 +137 25 +135 25 +133 25 +131 10 +129 29 +127 29 +126 29 
+157 10 +125 10 *
Fa
0  1e-10 2 10

0101000
+124 0 *
Ve
1e-07
-0.000144540446486007 1.5e-05 0.002
0 0

0101101
*
Ed
 1e-10 1 1 0
1  18 0 0 0.002
0

0101000
+128 16 -122 16 *
Ed
 1e-10 1 1 0
1  19 0 0 1.5962666587139e-05
0

0101000
+152 33 -122 33 *
Wi

0101100
+155 15 +153 15 +151 15 -121 15 -126 29 +120 32 *
Fa
0  1e-10 3 15

0101000
+119 0 *
Ve
1e-07
0.00065 0.0001 0.002
0 0

0101101
*
Ve
1e-07
-0.00065 0.0001 0.002
0 0

0101101
*
Ed
 1e-10 1 1 0
1  20 0 0 0.0013
0

0101000
+117 19 -116 19 *
Ve
1e-07
0.00065 0 0.002
0 0

0101101
*
Ed
 1e-10 1 1 0
1  21 0 0 0.0001
0

0101000
+114 19 -117 19 *
Ve
1e-07
0.00015 0 0.002
0 0

0101101
*
Ed
 1e-10 1 1 0
1  22 0 0.0008 0.0013
0

0101000
+112 19 -114 19 *
Ve
1e-07
0.000144540168550486 1.5e-05 0.002
0 0

0101101
*
Ed
 1e-10 1 1 0
1  23 0 0 1.5962761648822e-05
0

0101000
+110 36 -112 36 *
Ve
1e-07
5.5459553513993e-05 1.5e-05 0.002
0 0

0101101
*
Ed
 1e-10 1 1 0
1  24 0 0 8.9080615036493e-05
0

0101000
+108 36 -110 36 *
Ve
1e-07
5e-05 0 0.002
0 0

0101101
*
Ed
 1e-10 1 1 0
1  25 0 0 1.5962666587139e-05
0

0101000
+106 36 -108 36 *
Ve
1e-07
-5e-05 0 0.002
0 0

0101101
*
Ed
 1e-10 1 1 0
1  26 0 0.0006 0.0007
0

0101000
+104 19 -106 19 *
Ve
1e-07
-5.5459831449514e-05 1.5e-05 0.002
0 0

0101101
*
Ed
 1e-10 1 1 0
1  27 0 0 1.5962761648822e-05
0

0101000
+102 33 -104 33 *
Ed
 1e-10 1 1 0
1  28 0 0 8.9080615036493e-05
0

0101000
+122 33 -102 33 *
Ed
 1e-10 1 1 0
1  29 0 0 0.0001
0

0101000
+116 19 -150 19 *
Wi

0101100
+115 18 +113 18 +111 18 +109 35 +107 35 +105 35 +103 18 +101 32 +100 32 +120 32 
+149 18 +99 18 *
Fa
0  1e-10 4 18

0101000
+98 0 *
Ed
 1e-10 1 1 0
1  30 0 0 0.002
0

0101000
+144 20 -116 20 *
Wi

0101100
+96 7 -148 7 -125 10 +99 18 *
Fa
0  1e-10 5 7

0101000
+95 0 *
Ed
 1e-10 1 1 0
1  31 0 0 0.002
0

0101000
+145 20 -117 20 *
Wi

0101100
+93 0 -96 0 -143 37 +115 38 *
Fa
0  1e-10 6 0

0101000
+92 0 *
Ed
 1e-10 1 1 0
1  32 0 0 0.002
0

0101000
+142 20 -114 20 *
Wi

0101100
+90 7 -93 7 -141 10 +113 18 *
Fa
0  1e-10 7 7

0101000
+89 0 *
Ed
 1e-10 1 1 0
1  33 0 0 0.002
0

0101000
+140 40 -112 40 *
Wi

0101100
-139 10 -90 7 +111 18 +87 39 *
Fa
0  1e-10 8 7

0101000
+86 0 *
Ed
 1e-10 1 1 0
1  34 0 0 0.002
0

0101000
+138 40 -110 40 *
Wi

0101100
+84 39 -87 39 -137 25 +109 35 *
Fa
0  1e-10 9 39

0101000
+83 0 *
Ed
 1e-10 1 1 0
1  35 0 0 0.002
0

0101000
+136 40 -108 40 *
Wi

0101100
+81 0 -84 0 -135 41 +107 42 *
Fa
0  1e-10 10 0

0101000
+80 0 *
Ed
 1e-10 1 1 0
1  36 0 0 0.002
0

0101000
+134 40 -106 40 *
Wi

0101100
+78 39 -81 39 -133 25 +105 35 *
Fa
0  1e-10 11 39

0101000
+77 0 *
Ve
1e-07
-5e-05 -1.11022302462515e-20 0.000950000000000001
0 0

0101101
*
Ed
 1e-10 1 1 0
1  37 0 0 0.000950000000000001
0

0101000
+132 16 -75 16 *
Ve
1e-07
-5e-05 1.11022302462516e-20 0.00105
0 0

0101101
*
Ed
 1.0000000002313e-10 1 1 0
1  38 0 0.000950000000000001 0.00105
0

0101000
+75 16 -73 16 *
Ed
 1e-10 1 1 0
1  39 0 0.00105 0.002
0

0101000
+73 16 -104 16 *
Wi

0101100
-131 10 -78 39 +103 18 +74 15 +72 15 +71 15 *
Fa
0  1e-10 12 7

0101000
+70 0 *
Ed
 1e-10 1 1 0
1  40 0 0 0.002
0

0101000
+130 16 -102 16 *
Wi

0101100
+68 15 -74 15 -72 15 -71 15 -129 29 +101 32 *
Fa
0  1e-10 13 15

0101000
+67 0 *
Wi

0101100
+121 0 -68 0 -127 43 +100 44 *
Fa
0  1e-10 14 0

0101000
+65 0 *
Sh

0101100
-146 0 -123 0 -118 0 +97 0 -94 0 -91 7 -88 0 -85 0 -82 0 -79 39 
-76 0 -69 0 -66 0 -64 15 *
So

0100000
+63 0 *
Co

0100000
+62 0 *
Ve
1e-07
-0.00065 -0.0001 0
0 0

0101101
*
Ve
1e-07
-0.00065 -0.0001 0.002
0 0

0101101
*
Ed
 1e-10 1 1 0
1  41 0 0 0.002
0

0101000
+60 49 -59 49 *
Ve
1e-07
0.00065 -0.0001 0
0 0

0101101
*
Ed
 1e-10 1 1 0
1  42 0 0 0.0013
0

0101000
+60 53 -57 53 *
Ve
1e-07
0.00065 -0.0001 0.002
0 0

0101101
*
Ed
 1e-10 1 1 0
1  43 0 0 0.0013
0

0101000
+59 56 -55 56 *
Ed
 1e-10 1 1 0
1  44 0 0 0.002
0

0101000
+57 49 -55 49 *
Wi

0101100
+58 48 -56 52 +54 55 -53 48 *
Ve
1e-07
-0.00015 -0.0001 0.00105
0 0

0101101
*
Ve
1e-07
-0.00015 -0.0001 0.000950000000000001
0 0

0101101
*
Ed
 1.00000000013878e-10 1 1 0
1  45 0 0 0.0001
0

0101000
+51 63 -50 63 *
Ve
1e-07
-5e-05 -0.0001 0.00105
0 0

0101101
*
Ed
 1.00000000013878e-10 1 1 0
1  46 0 0 0.0001
0

0101000
+48 63 -51 63 *
Ve
1e-07
-5e-05 -0.0001 0.000950000000000001
0 0

0101101
*
Ed
 1.00000000013878e-10 1 1 0
1  47 0 0 0.0001
0

0101000
+46 63 -48 63 *
Ed
 1.00000000013878e-10 1 1 0
1  48 0 0 0.0001
0

0101000
+50 63 -46 63 *
Wi

0101100
+49 62 +47 62 +45 62 +44 62 *
Fa
0  1e-10 15 48

0101000
+52 0 +43 0 *
Ed
 1e-10 1 1 0
1  49 0 0 0.0001
0

0101000
+159 53 -60 53 *
Ed
 1e-10 1 1 0
1  50 0 0 0.0001
0

0101000
+150 56 -59 56 *
Wi

0101100
+148 7 -58 64 -41 65 +40 66 *
Fa
0  1e-10 16 64

0101000
+39 0 *
Ed
 1e-10 1 1 0
1  51 0 0 0.0001
0

0101000
+57 53 -142 53 *
Ed
 1e-10 1 1 0
1  52 0 0.0005 0.0006
0

0101000
+140 53 -134 53 *
Ed
 1e-10 1 1 0
1  53 0 0.0007 0.0008
0

0101000
+132 53 -158 53 *
Wi

0101100
+56 65 +37 65 -139 10 +36 65 -131 10 +35 65 -157 10 +41 65 *
Fa
0  1e-10 17 65

0101000
+34 0 *
Ed
 1e-10 1 1 0
1  54 0 0 0.0001
0

0101000
+55 56 -114 56 *
Ed
 1e-10 1 1 0
1  55 0 0.0005 0.0006
0

0101000
+112 56 -106 56 *
Ed
 1e-10 1 1 0
1  56 0 0.0007 0.0008
0

0101000
+104 56 -152 56 *
Wi

0101100
+54 66 +32 66 -111 18 +31 66 -103 18 +30 66 -149 18 +40 66 *
Fa
0  1e-10 18 66

0101000
+29 0 *
Wi

0101100
+53 64 -90 7 -37 65 +32 66 *
Fa
0  1e-10 19 64

0101000
+27 0 *
Ed
 1e-10 1 1 0
1  57 0 0 0.0001
0

0101000
+154 68 -51 68 *
Ed
 1e-10 1 1 0
1  58 0 0 0.0001
0

0101000
+156 68 -50 68 *
Wi

0101100
+25 67 -24 67 +153 15 +49 69 *
Fa
0  1e-10 20 67

0101000
+23 0 *
Ed
 1e-10 1 1 0
1  59 0 0 0.0001
0

0101000
+73 68 -48 68 *
Ed
 1.00000000013878e-10 1 1 0
1  60 0 0 0.0001
0

0101000
+73 71 -154 71 *
Wi

0101100
+21 67 -25 67 -20 70 +47 69 *
Fa
0  1e-10 21 67

0101000
+19 0 *
Ed
 1e-10 1 1 0
1  61 0 0 0.0001
0

0101000
+75 68 -46 68 *
Wi

0101100
+17 67 -21 67 -72 15 +45 69 *
Fa
0  1e-10 22 67

0101000
+16 0 *
Ed
 1.00000000013878e-10 1 1 0
1  62 0 0 0.0001
0

0101000
+156 71 -75 71 *
Wi

0101100
+24 67 -17 67 -14 70 +44 69 *
Fa
0  1e-10 23 67

0101000
+13 0 *
Wi

0101100
-36 65 -78 39 +31 66 +87 39 *
Fa
0  1e-10 24 64

0101000
+11 0 *
Wi

0101100
-35 65 -155 15 -14 70 +74 15 *
Fa
0  1e-10 25 64

0101000
+9 0 *
Wi

0101100
+71 15 -20 70 -151 15 +30 66 *
Fa
0  1e-10 26 64

0101000
+7 0 *
Sh

0101100
-42 45 -38 0 -33 0 +28 0 -26 0 +22 0 +18 0 +15 0 +12 0 +85 0 
-10 0 +69 0 -8 0 -6 0 +146 0 *
So

0100000
+5 0 *
Co

0100000
+4 0 *
Co

0100000
+61 0 +3 0 *
Co

1100000
+2 1 *

+1 0 