DBRep_DrawableShape

CASCADE Topology V1, (c) Matra-Datavision
Locations 23
1
              1               0               0               0 
              0               1               0               0 
              0               0               1               0 
1
              1               0               0               0 
              0               1               0               0 
              0               0               1             0.1 
1
              1              -0               0               0 
              0               1               0               0 
              0               0               1               0 
1
              1               0               0               0 
              0               1               0               0 
              0               0               1               0 
2  3 1 4 1 0
2  4 -1 3 -1 0
2  3 1 4 1 2 1 0
2  1 -1 0
2  3 1 4 1 1 1 0
2  1 -1 4 -1 3 -1 0
2  3 1 4 1 2 1 1 1 0
2  1 -1 2 -1 4 -1 3 -1 0
1
              1               0               0               0 
              0               1               0               0 
              0               0               1               0 
1
              1               0               0               0 
              0               1               0               0 
              0               0               1             0.1 
1
              1               0               0               0 
              0               1               0               0 
              0               0               1               0 
1
              1               0               0               0 
              0               1               0          0.0045 
              0               0               1               0 
2  15 1 16 1 13 1 0
2  13 -1 16 -1 15 -1 0
2  16 -1 15 -1 0
2  15 1 16 1 14 1 13 1 0
2  13 -1 14 -1 16 -1 15 -1 0
2  15 1 16 1 0
2  15 1 16 1 14 1 0
Curve2ds 7
1 -0.01 -0.0022499999999999998 1 0 
1 0.01 -0.0022499999999999998 0 1 
1 0.01 0.0022499999999999998 -1 0 
1 -0.01 0.0022499999999999998 0 -1 
1 0.01 -0.0022499999999999998 0 1 
1 0.01 0.0022499999999999998 -1 0 
1 -0.01 0.0022499999999999998 0 -1 
Curves 13
1 0 0 0 0 0 1 
1 0.02 0 0 0 0 1 
1 0 0 0 1 0 0 
1 0.02 0.0044999999999999997 0 0 0 1 
1 0.02 0 0 0 1 0 
1 0 0.0044999999999999997 0 0 0 1 
1 0.02 0.0044999999999999997 0 -1 0 0 
1 0 0.0044999999999999997 0 0 -1 0 
1 0.02 0.0089999999999999993 0 0 0 1 
1 0.02 0 0 0 1 0 
1 0 0.0089999999999999993 0 0 0 1 
1 0.02 0.0044999999999999997 0 -1 0 0 
1 0 0.0044999999999999997 0 0 -1 0 
Polygon3D 0
PolygonOnTriangulations 0
Surfaces 9
1 0 0 0 0 1 0 1 0 0 0 0 -1 
1 0.01 0.0022499999999999998 0 0 0 1 1 0 -0 -0 1 0 
1 0.02 0 0 -1 0 0 0 1 0 0 0 -1 
1 0.02 0.0044999999999999997 0 0 -1 0 -1 0 0 -0 -0 -1 
1 0 0.0044999999999999997 0 1 0 -0 0 -1 0 0 -0 -1 
1 0.02 0.0044999999999999997 0 -1 0 0 0 1 0 0 0 -1 
1 0.01 0.0022499999999999998 0 0 0 1 1 0 -0 -0 1 0 
1 0.02 0.0089999999999999993 0 0 -1 0 -1 0 0 -0 -0 -1 
1 0 0.0089999999999999993 0 1 0 -0 0 -1 0 0 -0 -1 
Triangulations 0

TShapes 54
Ve
1e-07
0 0 0
0 0

0101101
*
Ed
 1e-07 1 1 0
1  1 0 0 0.1
0

0101000
+54 0 -54 2 *
Ve
1e-07
0.02 0 0
0 0

0101101
*
Ed
 1e-07 1 1 0
1  2 0 0 0.1
0

0101000
+52 0 -52 2 *
Ed
 1e-07 1 1 0
1  3 0 0 0.02
2  1 2 0 0 0.02
0

0101000
+54 6 -52 6 *
Wi

0101100
+53 0 -51 0 -50 5 +50 7 *
Fa
0  1e-07 1 0

0111000
+49 0 *
Ve
1e-07
0.02 0.0045 0
0 0

0101101
*
Ve
1e-07
0.02 0.0045 0.1
0 0

0101101
*
Ed
 1e-07 1 1 0
1  4 0 0 0.1
0

0101000
+47 8 -46 8 *
Ed
 1e-07 1 1 0
1  5 0 0 0.0045
2  2 2 0 0 0.0045
0

0101000
+52 6 -47 10 *
Ed
 1e-07 1 1 0
1  5 0 0 0.0045
2  2 2 0 0 0.0045
0

0101000
+52 6 -46 12 *
Wi

0101100
+51 1 -45 1 -44 9 +43 11 *
Fa
0  1e-07 3 1

0101000
+42 0 *
Ve
1e-07
0 0.0045 0
0 0

0101101
*
Ve
1e-07
0 0.0045 0.1
0 0

0101101
*
Ed
 1e-07 1 1 0
1  6 0 0 0.1
0

0101000
+40 8 -39 8 *
Ed
 1e-07 1 1 0
1  7 0 0 0.02
2  3 2 0 0 0.02
0

0101000
+47 10 -40 10 *
Ed
 1e-07 1 1 0
1  7 0 0 0.02
2  3 2 0 0 0.02
0

0101000
+46 12 -39 12 *
Wi

0101100
+45 1 -38 1 -37 9 +36 11 *
Fa
0  1e-07 4 1

0101000
+35 0 *
Ed
 1e-07 1 1 0
1  8 0 0 0.0045
2  4 2 0 0 0.0045
0

0101000
+40 10 -54 6 *
Ed
 1e-07 1 1 0
1  8 0 0 0.0045
2  4 2 0 0 0.0045
0

0101000
+39 12 -54 6 *
Wi

0101100
+38 1 -53 1 -33 9 +32 11 *
Fa
0  1e-07 5 1

0101000
+31 0 *
Wi

0101100
+50 9 +44 9 +37 9 +33 9 *
Fa
0  1e-07 2 9

0101000
+29 0 *
Wi

0101100
+50 11 +43 11 +36 11 +32 11 *
Fa
0  1e-07 2 11

0101000
+27 0 *
Sh

0101100
+48 1 +41 0 +34 0 +30 0 +28 0 -26 0 *
So

0100000
-25 0 *
Ve
1e-07
0.02 0.009 0
0 0

0101101
*
Ed
 1e-07 1 1 0
1  9 0 0 0.1
0

0101000
+23 0 -23 14 *
Ed
 1e-07 1 1 0
1  10 0 0 0.0045
2  5 7 0 0 0.0045
0

0101000
+47 18 -23 19 *
Ed
 1e-07 1 1 0
1  10 0 0 0.0045
2  5 7 0 0 0.0045
0

0101000
+46 21 -23 19 *
Wi

0101100
+45 1 -22 13 -21 17 +20 20 *
Fa
0  1e-07 6 13

0101000
+19 0 *
Ve
1e-07
0 0.009 0
0 0

0101101
*
Ed
 1e-07 1 1 0
1  11 0 0 0.1
0

0101000
+17 0 -17 14 *
Ed
 1e-07 1 1 0
1  12 0 0 0.02
2  6 7 0 0 0.02
0

0101000
+23 19 -17 19 *
Wi

0101100
+22 0 -16 0 -15 22 +15 23 *
Fa
0  1e-07 8 0

0111000
+14 0 *
Ed
 1e-07 1 1 0
1  13 0 0 0.0045
2  7 7 0 0 0.0045
0

0101000
+17 19 -40 18 *
Ed
 1e-07 1 1 0
1  13 0 0 0.0045
2  7 7 0 0 0.0045
0

0101000
+17 19 -39 21 *
Wi

0101100
+16 13 -38 1 -12 17 +11 20 *
Fa
0  1e-07 9 13

0101000
+10 0 *
Wi

0101100
-37 9 +21 17 +15 17 +12 17 *
Fa
0  1e-07 7 17

0101000
+8 0 *
Wi

0101100
-36 11 +20 20 +15 20 +11 20 *
Fa
0  1e-07 7 20

0101000
+6 0 *
Sh

0101100
-34 0 +18 0 +13 13 +9 0 +7 0 -5 0 *
So

0100000
-4 0 *
Co

0100000
+24 0 +3 0 *
Co

1100000
+2 0 *

+1 0 