DBRep_DrawableShape

CASCADE Topology V1, (c) Matra-Datavision
Locations 30
1
              1               0               0               0 
              0               1               0               0 
              0               0               1               0 
1
              1               0               0               0 
              0               1               0               0 
              0               0               1               0 
1
              1               0               0               0 
              0               1               0               0 
              0               0               1               0 
1
              1               0               0          -11.43 
              0               1               0           -5.08 
              0               0               1               0 
2  3 1 4 1 2 1 0
2  2 -1 4 -1 3 -1 0
1
              1               0               0               0 
              0               1               0               0 
              0               0               1               0 
2  7 -1 2 -1 4 -1 3 -1 0
1
              1               0               0               0 
              0               1               0               0 
              0               0               1               0 
2  9 -1 0
2  7 -1 9 -1 0
1
              1               0               0               0 
              0               1               0               0 
              0               0               1             100 
2  3 1 4 1 12 1 2 1 0
2  2 -1 12 -1 4 -1 3 -1 0
2  7 -1 2 -1 12 -1 4 -1 3 -1 0
2  2 -1 0
2  7 -1 2 -1 0
2  4 -1 3 -1 0
1
              1               0               0               0 
              0               1               0               0 
              0               0               1               0 
1
-2.22044604925031e-16               1 8.65956056235493e-17              -1 
              1 2.22044604925031e-16 -8.65956056235493e-17           -5.08 
-8.65956056235493e-17 8.65956056235493e-17              -1               0 
2  19 1 20 1 9 1 0
2  9 -1 20 -1 19 -1 0
2  7 -1 9 -1 20 -1 19 -1 0
1
              1               0               0 -8.65956056235493e-15 
              0               1               0 8.65956056235493e-15 
              0               0               1             100 
2  19 1 20 1 24 1 9 1 0
2  9 -1 24 -1 20 -1 19 -1 0
2  7 -1 9 -1 24 -1 20 -1 19 -1 0
2  12 -1 4 -1 3 -1 0
2  3 1 4 1 0
2  3 1 4 1 12 1 0
Curve2ds 0
Curves 28
1 11.418569999999999 5.0749199999999997 0 1 0 0 
1 -0.0010000000000000005 -0.005080000000000002 0 -8.6595605623549304e-17 8.6595605623549304e-17 1 
1 11.418569999999999 5.0749199999999997 -99.900000000000006 1 0 0 
1 -0.011430000000000004 -0.005080000000000002 0 0 0 1 
1 11.418569999999999 5.0850799999999996 0 0 -1 0 
1 11.441429999999999 5.0850799999999996 0 -1 0 0 
1 5.0749199999999988 0.99900000000000089 -3.5295676087313695e-16 1 -7.4987989133092826e-33 0 
1 -0.0010000000000000026 0.0050800000000000038 -8.7981135313526166e-19 -8.6595605623549304e-17 8.6595605623549304e-17 1 
1 5.0749199999999988 0.99900000000000089 99.899999999999977 1 -7.4987989133092826e-33 0 
1 11.418569999999999 5.0850799999999996 -99.900000000000006 0 -1 0 
1 11.441429999999999 5.0850799999999996 -99.900000000000006 -1 0 0 
1 -0.011430000000000004 0.005080000000000002 0 0 0 1 
1 11.441429999999999 5.0850799999999996 0 -1 0 0 
1 11.441429999999999 5.0850799999999996 -99.900000000000006 -1 0 0 
1 0.00099999999999999872 0.0050800000000000038 -7.0662014188816292e-19 -8.6595605623549304e-17 8.6595605623549304e-17 1 
1 0.0010000000000000009 -0.005080000000000002 1.7319121124709869e-19 -8.6595605623549304e-17 8.6595605623549304e-17 1 
1 5.0850799999999987 1.0010000000000008 -3.5295676087313695e-16 -1 7.4987989133092826e-33 0 
1 5.0850799999999987 1.0010000000000008 99.899999999999977 -1 7.4987989133092826e-33 0 
1 11.418569999999999 5.0749199999999997 0 1 0 0 
1 11.418569999999999 5.0749199999999997 -99.900000000000006 1 0 0 
1 11.418569999999999 5.0749199999999997 0 1 0 0 
1 0.011430000000000004 -0.005080000000000002 0 0 0 1 
1 11.418569999999999 5.0749199999999997 -99.900000000000006 1 0 0 
1 11.441429999999999 5.0850799999999996 0 -1 0 0 
1 11.441429999999999 5.0749199999999997 0 0 1 0 
1 0.011430000000000004 0.005080000000000002 0 0 0 1 
1 11.441429999999999 5.0749199999999997 -99.900000000000006 0 1 0 
1 11.441429999999999 5.0850799999999996 -99.900000000000006 -1 0 0 
Polygon3D 0
PolygonOnTriangulations 64
2 1 2 
p 0.000221700000000003 1 0 0.01043 
2 2 3 
p 0.000221700000000003 1 0 0.01043 
2 2 4 
p 0.000221700000000003 1 0 0.1 
2 1 2 
p 0.000221700000000003 1 0 0.1 
2 1 3 
p 0.000221700000000003 1 0 0.1 
2 3 4 
p 0.000221700000000003 1 0 0.01043 
2 2 3 
p 0.000221700000000003 1 0 0.01043 
2 1 3 
p 0.000221700000000003 1 0 0.1 
2 4 3 
p 0.000221700000000003 1 0 0.1 
2 1 2 
p 0.000221700000000003 1 0 0.01016 
2 1 4 
p 0.000221700000000003 1 0 0.01016 
2 4 1 
p 0.000221700000000003 1 0.01243 0.02286 
2 1 2 
p 0.000221700000000003 1 0.01243 0.02286 
2 3 4 
p 0.000221700000000003 1 0 0.01016 
2 1 4 
p 0.000221700000000003 1 0 0.01016 
2 1 2 
p 0.000221700000000003 1 0 0.01016 
2 4 3 
p 0.000221700000000003 1 0 0.1 
2 1 3 
p 0.000221700000000003 1 0 0.1 
2 2 4 
p 0.000221700000000003 1 0 0.1 
2 2 3 
p 0.000221700000000003 1 0 0.01016 
2 3 4 
p 0.000221700000000003 1 0 0.01016 
2 1 2 
p 0.000221700000000003 1 0 0.01016 
2 1 2 
p 0.000221700000000003 1 0 0.01016 
2 2 3 
p 0.000221700000000003 1 0 0.01016 
2 4 1 
p 0.000221700000000003 1 0.01243 0.02286 
2 3 4 
p 0.000221700000000003 1 0.01243 0.02286 
2 1 2 
p 0.000221700000000003 1 0 0.1 
2 2 4 
p 0.000221700000000003 1 0 0.1 
2 1 2 
p 0.000221700000000003 1 0.01043 0.01243 
2 4 2 
p 0.000221700000000003 1 0.01043 0.01243 
2 3 4 
p 0.000221700000000003 1 0.01043 0.01243 
2 4 2 
p 0.000221700000000003 1 0.01043 0.01243 
2 1 3 
p 0.000221700000000003 1 0 0.1 
2 1 2 
p 0.000221700000000003 1 0 0.1 
2 2 4 
p 0.000221700000000003 1 0 0.1 
2 4 3 
p 0.000221700000000003 1 0 0.1 
2 2 4 
p 0.000221700000000003 1 0 0.1 
2 1 3 
p 0.000221700000000003 1 0 0.1 
2 1 4 
p 0.000221700000000003 1 0 0.01016 
2 4 3 
p 0.000221700000000003 1 0 0.01016 
2 1 2 
p 0.000221700000000003 1 0 0.01016 
2 2 3 
p 0.000221700000000003 1 0 0.01016 
2 4 3 
p 0.000221700000000003 1 0 0.01016 
2 1 2 
p 0.000221700000000003 1 0 0.01016 
2 1 2 
p 0.000221700000000003 1 0.01043 0.01243 
2 1 3 
p 0.000221700000000003 1 0.01043 0.01243 
2 3 4 
p 0.000221700000000003 1 0.01043 0.01243 
2 1 3 
p 0.000221700000000003 1 0.01043 0.01243 
2 1 2 
p 0.000221700000000003 1 0.01243 0.02286 
2 2 3 
p 0.000221700000000003 1 0.01243 0.02286 
2 2 4 
p 0.000221700000000003 1 0 0.1 
2 1 2 
p 0.000221700000000003 1 0 0.1 
2 3 4 
p 0.000221700000000003 1 0.01243 0.02286 
2 2 3 
p 0.000221700000000003 1 0.01243 0.02286 
2 4 1 
p 0.000221700000000003 1 0 0.01043 
2 1 2 
p 0.000221700000000003 1 0 0.01043 
2 3 4 
p 0.000221700000000003 1 0 0.01016 
2 1 4 
p 0.000221700000000003 1 0 0.01016 
2 4 3 
p 0.000221700000000003 1 0 0.1 
2 1 3 
p 0.000221700000000003 1 0 0.1 
2 2 3 
p 0.000221700000000003 1 0 0.01016 
2 3 4 
p 0.000221700000000003 1 0 0.01016 
2 4 1 
p 0.000221700000000003 1 0 0.01043 
2 3 4 
p 0.000221700000000003 1 0 0.01043 
Surfaces 16
1 -0.011430000000000004 -0.005080000000000002 0 0 1 0 1 0 0 0 0 -1 
1 11.43 5.0800000000000001 0 0 0 1 1 0 0 0 1 0 
1 -0.0010000000000000005 -0.005080000000000002 0 -1 -2.2204460492503126e-16 -8.6595605623549279e-17 -2.2204460492503126e-16 1 -8.6595605623549316e-17 8.6595605623549304e-17 -8.6595605623549292e-17 -1 
1 11.43 5.0800000000000001 -99.900000000000006 0 0 1 1 0 0 0 1 0 
1 -0.011430000000000004 0.005080000000000002 0 1 0 0 0 -1 0 0 0 -1 
1 0.011430000000000004 0.005080000000000002 0 0 -1 0 -1 0 0 -0 -0 -1 
1 0.011430000000000004 0.005080000000000002 0 0 -1 0 -1 0 0 -0 -0 -1 
1 0.00099999999999999872 0.0050800000000000038 -7.0662014188816292e-19 1 2.2204460492503126e-16 8.6595605623549279e-17 2.2204460492503126e-16 -1 8.6595605623549316e-17 8.6595605623549304e-17 -8.6595605623549292e-17 -1 
1 -0.011430000000000004 -0.005080000000000002 0 0 1 0 1 0 0 0 0 -1 
1 11.43 5.0800000000000001 0 0 0 1 1 0 0 0 1 0 
1 11.43 5.0800000000000001 -99.900000000000006 0 0 1 1 0 0 0 1 0 
1 -0.011430000000000004 -0.005080000000000002 0 0 1 0 1 0 0 0 0 -1 
1 11.43 5.0800000000000001 0 0 0 1 1 0 0 0 1 0 
1 0.011430000000000004 -0.005080000000000002 0 -1 0 0 0 1 0 0 0 -1 
1 11.43 5.0800000000000001 -99.900000000000006 0 0 1 1 0 0 0 1 0 
1 0.011430000000000004 0.005080000000000002 0 0 -1 0 -1 0 0 -0 -0 -1 
Triangulations 16
4 2 1 0.000221700000000003
-0.01143 -0.00508 0 -0.001 -0.00508 0 -0.01143 -0.00508 0.1 -0.00100000000000001 -0.00507999999999999 0.1 0 0 0.01043 0 -7.12971348626468e-16 -0.0999999999999943 0.01043 -0.1 2 1 3 2 3 4 
4 2 1 0.000221700000000003
-0.01143 0.00508 0 -0.01143 -0.00508 0 -0.001 -0.00508 0 -0.001 0.00508 -8.79811353135262e-19 -0.0114300000000011 0.00507999999999953 -0.0114300000000007 -0.00508000000000042 -0.000999999999999446 -0.00508000000000042 -0.00100000000000107 0.00507999999999953 4 1 2 4 2 3 
4 2 1 0.000221700000000003
-0.001 -0.00508 0 -0.00100000000000001 -0.00507999999999999 0.1 -0.00100000000000001 0.00508000000000001 0.1 -0.001 0.00508 -8.79811353135262e-19 -4.15466272496445e-16 0 -4.241258330588e-16 -0.0999999999999943 0.01016 -0.1 0.0101599999999996 0 4 1 2 4 2 3 
4 2 1 0.000221700000000003
-0.001 -0.00508 0 0.001 -0.00508 1.73191211247099e-19 -0.00100000000000001 -0.00507999999999999 0.1 0.000999999999999992 -0.00507999999999999 0.1 0.01043 0 0.01243 0 0.0104299999999993 -0.0999999999999943 0.01243 -0.1 2 1 3 2 3 4 
4 2 1 0.000221700000000003
-0.01143 0.00508 0.1 -0.01143 -0.00508 0.1 -0.00100000000000001 -0.00507999999999999 0.1 -0.00100000000000001 0.00508000000000001 0.1 -0.0114300000000011 0.00507999999999953 -0.0114300000000007 -0.00508000000000042 -0.000999999999999446 -0.00508000000000042 -0.00100000000000107 0.00507999999999953 4 1 2 4 2 3 
4 2 1 0.000221700000000003
-0.01143 0.00508 0 -0.01143 0.00508 0.1 -0.01143 -0.00508 0.1 -0.01143 -0.00508 0 4.7271214720368e-16 0 4.7271214720368e-16 -0.0999999999999943 0.01016 -0.1 0.0101600000000005 0 4 1 2 4 2 3 
4 2 1 0.000221700000000003
-0.001 0.00508 -8.79811353135262e-19 -0.01143 0.00508 0 -0.00100000000000001 0.00508000000000001 0.1 -0.01143 0.00508 0.1 0.01243 0 0.02286 0 0.0124300000000011 -0.0999999999999943 0.02286 -0.1 2 1 3 2 3 4 
4 2 1 0.000221700000000003
-0.001 -0.00508 0 -0.001 0.00508 -8.79811353135262e-19 0.001 -0.00508 1.73191211247099e-19 0.000999999999999999 0.00508 -7.06620141888163e-19 -0.00100000000000071 -0.00508000000000042 -0.00100000000000107 0.00507999999999953 0.000999999999999448 -0.00508000000000047 0.000999999999998934 0.00507999999999953 4 2 1 4 1 3 
4 2 1 0.000221700000000003
0.000999999999999999 0.00508 -7.06620141888163e-19 -0.001 0.00508 -8.79811353135262e-19 0.00099999999999999 0.00508000000000001 0.1 -0.00100000000000001 0.00508000000000001 0.1 0.01043 0 0.01243 0 0.0104300000000011 -0.0999999999999943 0.01243 -0.1 2 1 3 2 3 4 
4 2 1 0.000221700000000003
-0.00100000000000001 -0.00507999999999999 0.1 -0.00100000000000001 0.00508000000000001 0.1 0.000999999999999992 -0.00507999999999999 0.1 0.00099999999999999 0.00508000000000001 0.1 -0.00100000000000072 -0.00508000000000042 -0.00100000000000107 0.00507999999999953 0.000999999999999448 -0.00508000000000047 0.000999999999998925 0.00507999999999953 4 2 1 4 1 3 
4 2 1 0.000221700000000003
0.000999999999999999 0.00508 -7.06620141888163e-19 0.00099999999999999 0.00508000000000001 0.1 0.000999999999999992 -0.00507999999999999 0.1 0.001 -0.00508 1.73191211247099e-19 4.74446870679657e-16 0 4.83106431242011e-16 -0.0999999999999943 0.01016 -0.1 0.0101600000000005 0 4 1 2 4 2 3 
4 2 1 0.000221700000000003
0.01143 0.00508 0 0.000999999999999999 0.00508 -7.06620141888163e-19 0.01143 0.00508 0.1 0.00099999999999999 0.00508000000000001 0.1 0 0 0.01043 0 1.06338549077378e-15 -0.0999999999999943 0.01043 -0.1 2 1 3 2 3 4 
4 2 1 0.000221700000000003
0.001 -0.00508 1.73191211247099e-19 0.01143 -0.00508 0 0.000999999999999992 -0.00507999999999999 0.1 0.01143 -0.00508 0.1 0.01243 0 0.02286 0 0.0124299999999993 -0.0999999999999943 0.02286 -0.1 2 1 3 2 3 4 
4 2 1 0.000221700000000003
0.000999999999999999 0.00508 -7.06620141888163e-19 0.001 -0.00508 1.73191211247099e-19 0.01143 -0.00508 0 0.01143 0.00508 0 0.000999999999998934 0.00507999999999953 0.000999999999999288 -0.00508000000000042 0.0114299999999989 -0.00508000000000042 0.0114299999999989 0.00507999999999953 4 1 2 4 2 3 
4 2 1 0.000221700000000003
0.00099999999999999 0.00508000000000001 0.1 0.000999999999999992 -0.00507999999999999 0.1 0.01143 -0.00508 0.1 0.01143 0.00508 0.1 0.000999999999998925 0.00507999999999953 0.000999999999999279 -0.00508000000000042 0.0114299999999989 -0.00508000000000042 0.0114299999999989 0.00507999999999953 4 1 2 4 2 3 
4 2 1 0.000221700000000003
0.01143 -0.00508 0 0.01143 -0.00508 0.1 0.01143 0.00508 0.1 0.01143 0.00508 0 -4.15466272496445e-16 0 -4.15466272496445e-16 -0.0999999999999943 0.01016 -0.1 0.0101599999999996 0 4 1 2 4 2 3 

TShapes 84
Ve
1e-07
-0.01143 -0.00508 0
0 0

0101101
*
Ve
1e-07
-0.001 -0.00508 0
0 0

0101101
*
Ed
 1e-10 1 1 0
1  1 0 0 0.01043
6  1 1 6
6  2 2 6
0

0101000
+84 8 -83 8 *
Ve
1e-07
-0.00100000000000001 -0.00507999999999999 0.1
0 0

0101101
*
Ed
 1.00000007993606e-10 1 1 0
1  2 0 0 0.1
6  3 1 10
6  4 3 10
6  5 4 10
0

0101000
+83 11 -81 11 *
Ve
1e-07
-0.01143 -0.00508 0.1
0 0

0101101
*
Ed
 1e-10 1 1 0
1  3 0 0 0.01043
6  6 1 14
6  7 5 14
0

0101000
+79 15 -81 15 *
Ed
 1e-10 1 1 0
1  4 0 0 0.1
6  8 1 16
6  9 6 0
0

0101000
+84 17 -79 17 *
Wi

0101100
-82 5 -80 9 +78 13 +77 2 *
Fa
0  1e-10 1 2
2  1
0101000
+76 0 *
Ve
1e-07
-0.01143 0.00508 0
0 0

0101101
*
Ed
 1e-10 1 1 0
1  5 0 0 0.01016
6  10 2 6
6  11 6 18
0

0101000
+74 8 -84 8 *
Ve
1e-07
-0.001 0.00508 -8.79811353135262e-19
0 0

0101101
*
Ed
 1e-10 1 1 0
1  6 0 0.01243 0.02286
6  12 2 6
6  13 7 6
0

0101000
+72 8 -74 8 *
Ed
 1.00000000806494e-10 1 1 0
1  7 0 0 0.01016
6  14 2 22
6  15 3 22
6  16 8 22
0

0101000
+83 23 -72 23 *
Wi

0101100
+73 5 +71 5 +70 21 +82 5 *
Fa
0  1e-10 2 5
2  2
0101000
+69 0 *
Ve
1e-07
-0.00100000000000001 0.00508000000000001 0.1
0 0

0101101
*
Ed
 1.00000009769963e-10 1 1 0
1  8 0 0 0.1
6  17 3 10
6  18 7 10
6  19 9 10
0

0101000
+72 11 -67 11 *
Ed
 1e-10 1 1 0
1  9 0 0 0.01016
6  20 3 26
6  21 5 26
6  22 10 26
0

0101000
+81 27 -67 27 *
Wi

0101100
+80 9 -66 9 -70 21 +65 25 *
Fa
0  1e-10 3 9
2  3
0101000
+64 0 *
Ve
1e-07
-0.01143 0.00508 0.1
0 0

0101101
*
Ed
 1e-10 1 1 0
1  10 0 0 0.01016
6  23 5 14
6  24 6 28
0

0101000
+62 15 -79 15 *
Ed
 1e-10 1 1 0
1  11 0 0.01243 0.02286
6  25 5 14
6  26 7 14
0

0101000
+67 15 -62 15 *
Wi

0101100
+61 13 +60 13 +65 25 +78 13 *
Fa
0  1e-10 4 13
2  5
0101000
+59 0 *
Ed
 1e-10 1 1 0
1  12 0 0 0.1
6  27 6 0
6  28 7 16
0

0101000
+74 17 -62 17 *
Wi

0101100
+57 0 -77 0 -73 29 +61 30 *
Fa
0  1e-10 5 0
2  6
0101000
+56 0 *
Wi

0101100
-71 5 -57 2 +60 13 +66 9 *
Fa
0  1e-10 6 2
2  7
0101000
+54 0 *
Sh

0101100
-75 0 -68 0 -63 0 +58 0 -55 2 -53 0 *
So

0100000
+52 0 *
Ve
1e-07
0.000999999999999999 0.00508 -7.06620141888163e-19
0 0

0101101
*
Ed
 1.00000001975936e-10 1 1 0
1  13 0 0.01043 0.01243
6  29 9 6
6  30 8 6
0

0101000
+50 8 -72 8 *
Ve
1e-07
0.00099999999999999 0.00508000000000001 0.1
0 0

0101101
*
Ed
 1.00000010658141e-10 1 1 0
1  14 0 0.01043 0.01243
6  31 9 14
6  32 10 14
0

0101000
+48 15 -67 15 *
Ed
 1.00000009769963e-10 1 1 0
1  15 0 0 0.1
6  33 9 10
6  34 11 10
6  35 12 10
0

0101000
+50 11 -48 11 *
Wi

0101100
-49 5 -66 9 +47 13 +46 9 *
Fa
0  1e-10 7 2
2  9
0101000
+45 0 *
Ve
1e-07
0.001 -0.00508 1.73191211247099e-19
0 0

0101101
*
Ve
1e-07
0.000999999999999992 -0.00507999999999999 0.1
0 0

0101101
*
Ed
 1.00000007993606e-10 1 1 0
1  16 0 0 0.1
6  36 11 10
6  37 4 10
6  38 13 10
0

0101000
+43 11 -42 11 *
Ed
 1.00000000633303e-10 1 1 0
1  17 0 0 0.01016
6  39 11 22
6  40 8 22
6  41 14 22
0

0101000
+50 23 -43 23 *
Ed
 1e-10 1 1 0
1  18 0 0 0.01016
6  42 11 26
6  43 10 26
6  44 15 26
0

0101000
+48 27 -42 27 *
Wi

0101100
+46 9 -41 9 -40 21 +39 25 *
Fa
0  1e-10 8 9
2  11
0101000
+38 0 *
Ed
 1.00000000158759e-10 1 1 0
1  19 0 0.01043 0.01243
6  45 4 6
6  46 8 6
0

0101000
+83 8 -43 8 *
Ed
 1.00000008881784e-10 1 1 0
1  20 0 0.01043 0.01243
6  47 4 14
6  48 10 14
0

0101000
+81 15 -42 15 *
Wi

0101100
-36 5 -41 9 +35 13 +80 9 *
Fa
0  1e-10 9 2
2  4
0101000
+34 0 *
Wi

0101100
-70 21 +49 5 -40 21 +36 5 *
Fa
0  1e-10 10 5
2  8
0101000
+32 0 *
Wi

0101100
-65 25 +47 13 -39 25 +35 13 *
Fa
0  1e-10 11 13
2  10
0101000
+30 0 *
Sh

0101100
+63 0 -44 0 +37 0 -33 0 -31 0 +29 0 *
So

0100000
+28 0 *
Ve
1e-07
0.01143 -0.00508 0
0 0

0101101
*
Ed
 1e-10 1 1 0
1  21 0 0.01243 0.02286
6  49 13 6
6  50 14 6
0

0101000
+43 8 -26 8 *
Ve
1e-07
0.01143 -0.00508 0.1
0 0

0101101
*
Ed
 1e-10 1 1 0
1  22 0 0 0.1
6  51 13 16
6  52 16 0
0

0101000
+26 17 -24 17 *
Ed
 1e-10 1 1 0
1  23 0 0.01243 0.02286
6  53 13 14
6  54 15 14
0

0101000
+42 15 -24 15 *
Wi

0101100
-25 5 -23 2 +22 13 +41 9 *
Fa
0  1e-10 12 2
2  13
0101000
+21 0 *
Ve
1e-07
0.01143 0.00508 0
0 0

0101101
*
Ed
 1e-10 1 1 0
1  24 0 0 0.01043
6  55 14 6
6  56 12 6
0

0101000
+19 8 -50 8 *
Ed
 1e-10 1 1 0
1  25 0 0 0.01016
6  57 14 6
6  58 16 18
0

0101000
+26 8 -19 8 *
Wi

0101100
+40 21 +18 5 +17 5 +25 5 *
Fa
0  1e-10 13 5
2  14
0101000
+16 0 *
Ve
1e-07
0.01143 0.00508 0.1
0 0

0101101
*
Ed
 1e-10 1 1 0
1  26 0 0 0.1
6  59 16 0
6  60 12 16
0

0101000
+19 17 -14 17 *
Ed
 1e-10 1 1 0
1  27 0 0 0.01016
6  61 16 28
6  62 15 14
0

0101000
+24 15 -14 15 *
Wi

0101100
+23 0 -13 0 -17 29 +12 30 *
Fa
0  1e-10 14 0
2  16
0101000
+11 0 *
Ed
 1e-10 1 1 0
1  28 0 0 0.01043
6  63 15 14
6  64 12 14
0

0101000
+14 15 -48 15 *
Wi

0101100
+39 25 +9 13 +12 13 +22 13 *
Fa
0  1e-10 15 13
2  15
0101000
+8 0 *
Wi

0101100
-18 5 -46 9 +9 13 +13 2 *
Fa
0  1e-10 16 2
2  12
0101000
+6 0 *
Sh

0101100
-20 0 -15 0 -10 2 +7 0 -37 0 -5 0 *
So

0100000
+4 0 *
Co

0100000
+51 0 +27 0 +3 0 *
Co

1100000
+2 1 *

+1 0 