DBRep_DrawableShape

CASCADE Topology V1, (c) Matra-Datavision
Locations 28
1
              1               0               0               0 
              0               1               0               0 
              0               0               1               0 
1
              1               0               0               0 
              0               1               0               0 
              0               0               1               0 
1
              1               0               0               0 
              0               1               0               0 
              0               0               1               0 
2  3 -1 2 -1 0
1
              1               0               0               0 
              0               1               0               0 
              0               0               1               0 
1
              1               0               0          -11.43 
              0               1               0           -5.08 
              0               0               1               0 
2  5 1 6 1 2 1 0
2  3 -1 2 -1 6 -1 5 -1 0
1
              1               0               0               0 
              0               1               0               0 
              0               0               1              50 
2  5 1 6 1 9 1 2 1 0
2  3 -1 2 -1 9 -1 6 -1 5 -1 0
1
              1               0               0               0 
              0               1               0               0 
              0               0               1               0 
2  3 -1 12 -1 0
1
              1               0               0               0 
              0               1               0               0 
              0               0               1               0 
1
2.22044604925031e-16               1               0          -11.43 
              1 -2.22044604925031e-16               0           -6.08 
              0               0              -1               0 
2  14 1 15 1 12 1 0
2  3 -1 12 -1 15 -1 14 -1 0
1
              1               0               0               0 
              0               1               0               0 
              0               0               1             -25 
2  14 1 15 1 18 1 12 1 0
2  3 -1 12 -1 18 -1 15 -1 14 -1 0
2  14 1 15 1 0
2  14 1 15 1 18 1 0
1
              1               0               0               0 
              0               1               0               0 
              0               0               1             -75 
2  5 1 6 1 9 1 23 1 0
2  3 -1 23 -1 9 -1 6 -1 5 -1 0
2  3 -1 23 -1 0
2  5 1 6 1 23 1 0
2  3 -1 23 -1 6 -1 5 -1 0
Curve2ds 0
Curves 40
1 -0.011430000000000004 -0.005080000000000002 0 0 0 1 
1 0.011430000000000004 -0.005080000000000002 0 0 0 1 
1 11.418569999999999 5.0749199999999997 0 1 0 0 
1 11.418569999999999 5.0749199999999997 -49.950000000000003 1 0 0 
1 0.011430000000000004 0.005080000000000002 0 0 0 1 
1 11.441429999999999 5.0749199999999997 0 0 1 0 
1 11.441429999999999 5.0749199999999997 -49.950000000000003 0 1 0 
1 -0.011430000000000004 0.005080000000000002 0 0 0 1 
1 11.441429999999999 5.0850799999999996 0 -1 0 0 
1 11.441429999999999 5.0850799999999996 -49.950000000000003 -1 0 0 
1 11.418569999999999 5.0850799999999996 0 0 -1 0 
1 11.418569999999999 5.0850799999999996 -49.950000000000003 0 -1 0 
1 -0.011430000000000004 -0.0060800000000000029 0 0 0 -1 
1 -0.011430000000000001 0.0060800000000000029 0 0 0 -1 
1 6.0739200000000029 11.418569999999997 0 1 0 0 
1 6.0739200000000029 11.418569999999997 0 1 0 0 
1 6.0739200000000029 11.418569999999997 -24.975000000000001 1 0 0 
1 6.0739200000000029 11.418569999999997 -24.975000000000001 1 0 0 
1 6.0739200000000029 11.418569999999997 -24.975000000000001 1 0 0 
1 0.011430000000000008 0.0060799999999999977 0 0 0 -1 
1 6.0860800000000026 11.418569999999997 0 0 1 0 
1 6.0860800000000026 11.418569999999997 -24.975000000000001 0 1 0 
1 0.011430000000000004 -0.0060800000000000081 0 0 0 -1 
1 6.0860800000000026 11.441429999999997 0 -1 0 0 
1 6.0860800000000026 11.441429999999997 0 -1 0 0 
1 6.0860800000000026 11.441429999999997 -24.975000000000001 -1 0 0 
1 6.0860800000000026 11.441429999999997 -24.975000000000001 -1 0 0 
1 6.0860800000000026 11.441429999999997 -24.975000000000001 -1 0 0 
1 6.0739200000000029 11.441429999999997 0 0 -1 0 
1 6.0739200000000029 11.441429999999997 -24.975000000000001 0 -1 0 
1 11.418569999999999 5.0749199999999997 24.975000000000001 1 0 0 
1 11.441429999999999 5.0850799999999996 24.975000000000001 -1 0 0 
1 -0.011430000000000004 -0.005080000000000002 74.924999999999997 0 0 1 
1 0.011430000000000004 -0.005080000000000002 74.924999999999997 0 0 1 
1 11.418569999999999 5.0749199999999997 74.924999999999997 1 0 0 
1 0.011430000000000004 0.005080000000000002 74.924999999999997 0 0 1 
1 11.441429999999999 5.0749199999999997 74.924999999999997 0 1 0 
1 -0.011430000000000004 0.005080000000000002 74.924999999999997 0 0 1 
1 11.441429999999999 5.0850799999999996 74.924999999999997 -1 0 0 
1 11.418569999999999 5.0850799999999996 74.924999999999997 0 -1 0 
Polygon3D 0
PolygonOnTriangulations 0
Surfaces 20
1 -0.011430000000000004 -0.005080000000000002 0 0 1 0 1 0 0 0 0 -1 
1 0.011430000000000004 -0.005080000000000002 0 -1 0 0 0 1 0 0 0 -1 
1 0.011430000000000004 0.005080000000000002 0 0 -1 0 -1 0 0 -0 -0 -1 
1 -0.011430000000000004 0.005080000000000002 0 1 0 0 0 -1 0 0 0 -1 
1 11.43 5.0800000000000001 0 0 0 1 1 0 0 0 1 0 
1 11.43 5.0800000000000001 -49.950000000000003 0 0 1 1 0 0 0 1 0 
1 -0.011430000000000004 -0.0060800000000000029 0 1 -2.2204460492503131e-16 0 2.2204460492503131e-16 1 0 0 0 1 
1 -0.011430000000000001 0.0060800000000000029 0 -2.2204460492503131e-16 -1 -0 1 -2.2204460492503131e-16 0 0 0 1 
1 0.011430000000000008 0.0060799999999999977 0 -1 2.2204460492503131e-16 0 -2.2204460492503131e-16 -1 0 0 0 1 
1 0.011430000000000004 -0.0060800000000000081 0 2.2204460492503131e-16 1 0 -1 2.2204460492503131e-16 0 0 0 1 
1 6.0800000000000027 11.429999999999998 0 0 0 1 1 0 0 0 1 0 
1 6.0800000000000027 11.429999999999998 0 0 0 1 1 0 0 0 1 0 
1 6.0800000000000027 11.429999999999998 -24.975000000000001 0 0 1 1 0 0 0 1 0 
1 6.0800000000000027 11.429999999999998 -24.975000000000001 0 0 1 1 0 0 0 1 0 
1 6.0800000000000027 11.429999999999998 -24.975000000000001 0 0 1 1 0 0 0 1 0 
1 -0.011430000000000004 -0.005080000000000002 74.924999999999997 0 1 0 1 0 0 0 0 -1 
1 0.011430000000000004 -0.005080000000000002 74.924999999999997 -1 0 0 0 1 0 0 0 -1 
1 0.011430000000000004 0.005080000000000002 74.924999999999997 0 -1 0 -1 0 0 -0 -0 -1 
1 -0.011430000000000004 0.005080000000000002 74.924999999999997 1 0 0 0 -1 0 0 0 -1 
1 11.43 5.0800000000000001 74.924999999999997 0 0 1 1 0 0 0 1 0 
Triangulations 0

TShapes 112
Ve
1e-07
-0.01143 -0.00508 0
0 0

0101101
*
Ve
1e-07
-0.01143 -0.00508 0.05
0 0

0101101
*
Ed
 1e-10 1 1 0
1  1 0 0 0.05
0

0101000
+112 4 -111 4 *
Ve
1e-07
0.01143 -0.00508 0
0 0

0101101
*
Ve
1e-07
0.01143 -0.00508 0.05
0 0

0101101
*
Ed
 1e-10 1 1 0
1  2 0 0 0.05
0

0101000
+109 4 -108 4 *
Ed
 1e-10 1 1 0
1  3 0 0 0.02286
0

0101000
+112 8 -109 8 *
Ed
 1e-10 1 1 0
1  4 0 0 0.02286
0

0101000
+111 11 -108 11 *
Wi

0101100
+110 2 -107 2 -106 7 +105 10 *
Fa
0  1e-10 1 2

0101000
+104 0 *
Ve
1e-07
0.01143 0.00508 0
0 0

0101101
*
Ve
1e-07
0.01143 0.00508 0.05
0 0

0101101
*
Ed
 1e-10 1 1 0
1  5 0 0 0.05
0

0101000
+102 4 -101 4 *
Ed
 1.00000003552714e-10 1 1 0
1  6 0 0 0.01016
0

0101000
+109 8 -102 8 *
Ed
 1e-10 1 1 0
1  7 0 0 0.01016
0

0101000
+108 11 -101 11 *
Wi

0101100
+107 2 -100 2 -99 7 +98 10 *
Fa
0  1e-10 2 2

0101000
+97 0 *
Ve
1e-07
-0.01143 0.00508 0
0 0

0101101
*
Ve
1e-07
-0.01143 0.00508 0.05
0 0

0101101
*
Ed
 1e-10 1 1 0
1  8 0 0 0.05
0

0101000
+95 4 -94 4 *
Ed
 1e-10 1 1 0
1  9 0 0 0.02286
0

0101000
+102 8 -95 8 *
Ed
 1e-10 1 1 0
1  10 0 0 0.02286
0

0101000
+101 11 -94 11 *
Wi

0101100
+100 2 -93 2 -92 7 +91 10 *
Fa
0  1e-10 3 2

0101000
+90 0 *
Ed
 1.00000001986027e-10 1 1 0
1  11 0 0 0.01016
0

0101000
+95 8 -112 8 *
Ed
 1e-10 1 1 0
1  12 0 0 0.01016
0

0101000
+94 11 -111 11 *
Wi

0101100
+93 2 -110 2 -88 7 +87 10 *
Fa
0  1e-10 4 2

0101000
+86 0 *
Wi

0101100
+106 7 +99 7 +92 7 +88 7 *
Fa
0  1e-10 5 7

0101000
+84 0 *
Wi

0101100
+105 0 +98 0 +91 0 +87 0 *
Fa
0  1e-10 6 0

0101000
+82 0 *
Sh

0101100
+103 0 +96 0 +89 0 +85 0 +83 0 -81 10 *
So

0100000
-80 0 *
Ve
1e-07
-0.01143 -0.00608 0
0 0

0101101
*
Ve
1e-07
-0.01143 -0.00608 -0.025
0 0

0101101
*
Ed
 1e-10 1 1 0
1  13 0 0 0.025
0

0101000
+78 13 -77 13 *
Ve
1e-07
-0.01143 0.00608 0
0 0

0101101
*
Ve
1e-07
-0.01143 0.00608 -0.025
0 0

0101101
*
Ed
 1e-10 1 1 0
1  14 0 0 0.025
0

0101000
+75 13 -74 13 *
Ed
 1e-10 1 1 0
1  15 0 0 0.001
0

0101000
+78 17 -112 17 *
Ed
 1e-10 1 1 0
1  16 0 0.01116 0.01216
0

0101000
+95 17 -75 17 *
Ve
1e-07
-0.01143 -0.00508 -0.025
0 0

0101101
*
Ed
 1e-10 1 1 0
1  17 0 0 0.001
0

0101000
+77 20 -70 20 *
Ve
1e-07
-0.01143 0.00508 -0.025
0 0

0101101
*
Ed
 1.00000001776357e-10 1 1 0
1  18 0 0.001 0.01116
0

0101000
+70 20 -68 20 *
Ed
 1e-10 1 1 0
1  19 0 0.01116 0.01216
0

0101000
+68 20 -74 20 *
Wi

0101100
+76 12 -73 12 -72 16 +88 7 -71 16 +69 19 +67 19 +66 19 *
Fa
0  1e-10 7 12

0101000
+65 0 *
Ve
1e-07
0.01143 0.00608 0
0 0

0101101
*
Ve
1e-07
0.01143 0.00608 -0.025
0 0

0101101
*
Ed
 1e-10 1 1 0
1  20 0 0 0.025
0

0101000
+63 13 -62 13 *
Ed
 1e-10 1 1 0
1  21 0 0 0.02286
0

0101000
+75 17 -63 17 *
Ed
 1e-10 1 1 0
1  22 0 0 0.02286
0

0101000
+74 20 -62 20 *
Wi

0101100
+73 0 -61 0 -60 21 +59 22 *
Fa
0  1e-10 8 0

0101000
+58 0 *
Ve
1e-07
0.01143 -0.00608000000000001 0
0 0

0101101
*
Ve
1e-07
0.01143 -0.00608000000000001 -0.025
0 0

0101101
*
Ed
 1e-10 1 1 0
1  23 0 0 0.025
0

0101000
+56 13 -55 13 *
Ed
 1e-10 1 1 0
1  24 0 0 0.000999999999999995
0

0101000
+63 17 -102 17 *
Ed
 1e-10 1 1 0
1  25 0 0.01116 0.01216
0

0101000
+109 17 -56 17 *
Ve
1e-07
0.01143 0.00508 -0.025
0 0

0101101
*
Ed
 1e-10 1 1 0
1  26 0 0 0.000999999999999995
0

0101000
+62 20 -51 20 *
Ve
1e-07
0.01143 -0.00508 -0.025
0 0

0101101
*
Ed
 1.00000003662053e-10 1 1 0
1  27 0 0.000999999999999995 0.01116
0

0101000
+51 20 -49 20 *
Ed
 1e-10 1 1 0
1  28 0 0.01116 0.01216
0

0101000
+49 20 -55 20 *
Wi

0101100
+61 12 -54 12 -53 16 +99 7 -52 16 +50 19 +48 19 +47 19 *
Fa
0  1e-10 9 12

0101000
+46 0 *
Ed
 1e-10 1 1 0
1  29 0 0 0.02286
0

0101000
+56 17 -78 17 *
Ed
 1e-10 1 1 0
1  30 0 0 0.02286
0

0101000
+55 20 -77 20 *
Wi

0101100
+54 0 -76 0 -44 21 +43 22 *
Fa
0  1e-10 10 0

0101000
+42 0 *
Wi

0101100
+44 16 +52 16 +106 7 +72 16 *
Fa
0  1e-10 11 16

0101000
+40 0 *
Wi

0101100
+92 7 +53 16 +60 16 +71 16 *
Fa
0  1e-10 12 16

0101000
+38 0 *
Ed
 1e-10 1 1 0
1  31 0 0 0.02286
0

0101000
+70 25 -49 25 *
Wi

0101100
+43 19 +47 19 +36 24 +69 19 *
Fa
0  1e-10 13 19

0101000
+35 0 *
Ed
 1e-10 1 1 0
1  32 0 0 0.02286
0

0101000
+51 25 -68 25 *
Wi

0101100
-36 24 +48 19 -33 24 +67 19 *
Fa
0  1e-10 14 19

0101000
+32 0 *
Wi

0101100
+33 24 +50 19 +59 19 +66 19 *
Fa
0  1e-10 15 19

0101000
+30 0 *
Sh

0101100
+64 0 +57 12 +45 0 +41 12 +39 0 -83 0 +37 0 -34 0 -31 0 -29 0 
*
So

0100000
-28 0 *
Ve
1e-07
-0.01143 -0.00508 -0.075
0 0

0101101
*
Ed
 1e-10 1 1 0
1  33 0 0 0.05
0

0101000
+26 26 -70 26 *
Ve
1e-07
0.01143 -0.00508 -0.075
0 0

0101101
*
Ed
 1e-10 1 1 0
1  34 0 0 0.05
0

0101000
+24 26 -49 26 *
Ed
 1e-10 1 1 0
1  35 0 0 0.02286
0

0101000
+26 28 -24 28 *
Wi

0101100
+25 23 -23 23 -22 27 +36 24 *
Fa
0  1e-10 16 23

0101000
+21 0 *
Ve
1e-07
0.01143 0.00508 -0.075
0 0

0101101
*
Ed
 1e-10 1 1 0
1  36 0 0 0.05
0

0101000
+19 26 -51 26 *
Ed
 1e-10 1 1 0
1  37 0 0 0.01016
0

0101000
+24 28 -19 28 *
Wi

0101100
+23 23 -18 23 -17 27 -48 19 *
Fa
0  1e-10 17 23

0101000
+16 0 *
Ve
1e-07
-0.01143 0.00508 -0.075
0 0

0101101
*
Ed
 1e-10 1 1 0
1  38 0 0 0.05
0

0101000
+14 26 -68 26 *
Ed
 1e-10 1 1 0
1  39 0 0 0.02286
0

0101000
+19 28 -14 28 *
Wi

0101100
+18 23 -13 23 -12 27 +33 24 *
Fa
0  1e-10 18 23

0101000
+11 0 *
Ed
 1e-10 1 1 0
1  40 0 0 0.01016
0

0101000
+14 28 -26 28 *
Wi

0101100
+13 23 -25 23 -9 27 -67 19 *
Fa
0  1e-10 19 23

0101000
+8 0 *
Wi

0101100
+22 0 +17 0 +12 0 +9 0 *
Fa
0  1e-10 20 0

0101000
+6 0 *
Sh

0101100
+20 0 +15 0 +10 0 +7 0 +5 27 +31 0 *
So

0100000
-4 0 *
Co

0100000
+79 0 +27 0 +3 0 *
Co

1100000
+2 1 *

+1 0 