DBRep_DrawableShape

CASCADE Topology V1, (c) Matra-Datavision
Locations 101
1
              1               0               0               0 
              0               1               0               0 
              0               0               1               0 
1
              1               0               0               0 
              0               1               0               0 
              0               0               1               0 
2  2 -1 0
1
              1               0               0               0 
              0               1               0               0 
              0               0               1               0 
2  4 -1 2 -1 0
1
              1               0               0               0 
              0               1               0               0 
              0               0               1               0 
1
              1 -3.06161699786838e-17               0 -1.51535573828185 
3.06161699786838e-17               1               0 1.14484900355803 
              0               0               1 2.77555756156289e-17 
2  6 1 7 1 2 1 0
2  2 -1 7 -1 6 -1 0
2  4 -1 2 -1 7 -1 6 -1 0
1
              1               0               0               0 
              0               1               0               0 
              0               0               1             0.1 
2  6 1 7 1 11 1 2 1 0
2  2 -1 11 -1 7 -1 6 -1 0
2  4 -1 2 -1 11 -1 7 -1 6 -1 0
1
              1               0               0               0 
              0               1               0               0 
              0               0               1               0 
1
              1 -3.06161699786838e-17               0 -1.31535573828185 
3.06161699786838e-17               1               0 -0.17215099644197 
              0               0               1 2.77555756156289e-17 
1
              1               0               0               0 
              0               1               0               0 
              0               0               1               0 
1
              1               0               0               0 
              0               1               0               0 
              0               0               1             0.1 
1
              1               0               0               0 
              0               1               0               0 
              0               0               1               0 
2  15 1 16 1 17 1 18 1 19 1 0
2  19 -1 18 -1 17 -1 16 -1 15 -1 0
2  4 -1 19 -1 18 -1 17 -1 16 -1 15 -1 0
1
              1               0               0               0 
              0               1               0               0 
              0               0               1               0 
2  23 -1 0
2  4 -1 23 -1 0
1
              1               0               0               0 
              0               1               0               0 
              0               0               1               0 
1
              1 -3.06161699786838e-17               0 -1.51535573828185 
3.06161699786838e-17               1               0 -0.17215099644197 
              0               0               1 2.77555756156289e-17 
2  26 1 27 1 23 1 0
2  23 -1 27 -1 26 -1 0
2  4 -1 23 -1 27 -1 26 -1 0
1
              1               0               0               0 
              0               1               0               0 
              0               0               1             0.1 
2  26 1 27 1 31 1 23 1 0
2  23 -1 31 -1 27 -1 26 -1 0
2  4 -1 23 -1 31 -1 27 -1 26 -1 0
1
              1               0               0               0 
              0               1               0               0 
              0               0               1               0 
1
              1               0               0               0 
              0               1               0               0 
              0               0               1             0.1 
1
              1               0               0               0 
              0               1               0               0 
              0               0               1               0 
2  15 1 16 1 35 1 36 1 37 1 0
2  37 -1 36 -1 35 -1 16 -1 15 -1 0
2  4 -1 37 -1 36 -1 35 -1 16 -1 15 -1 0
1
              1               0               0               0 
              0               1               0               0 
              0               0               1               0 
1
              1               0               0               0 
              0               1               0               0 
              0               0               1               0 
2  41 1 42 1 37 1 0
2  35 1 36 1 37 1 0
2  37 -1 36 -1 35 -1 0
2  4 -1 37 -1 36 -1 35 -1 0
1
              1               0               0               0 
              0               1               0               0 
              0               0               1            0.02 
2  15 1 16 1 47 1 35 1 36 1 37 1 0
2  37 -1 36 -1 35 -1 47 -1 16 -1 15 -1 0
2  4 -1 37 -1 36 -1 35 -1 47 -1 16 -1 15 -1 0
2  37 -1 42 -1 41 -1 0
2  4 -1 37 -1 42 -1 41 -1 0
1
              1               0               0               0 
              0               1               0               0 
              0               0               1               0 
1
              1 -3.06161699786838e-17               0 -1.51535573828185 
3.06161699786838e-17               1               0 -0.17215099644197 
              0               0               1             0.1 
1
              1               0               0               0 
              0               1               0               0 
              0               0               1            0.22 
2  53 1 54 1 55 1 41 1 42 1 37 1 0
2  37 -1 42 -1 41 -1 55 -1 54 -1 53 -1 0
2  4 -1 37 -1 42 -1 41 -1 55 -1 54 -1 53 -1 0
2  37 -1 0
2  4 -1 37 -1 0
1
              1               0               0               0 
              0               1               0               0 
              0               0               1               0 
1
              1               0               0               0 
              0               1               0               0 
              0               0               1               0 
2  61 1 62 1 19 1 0
2  19 -1 0
2  4 -1 19 -1 0
2  19 -1 62 -1 61 -1 0
2  4 -1 19 -1 62 -1 61 -1 0
1
              1               0               0               0 
              0               1               0               0 
              0               0               1               0 
1
              1 -3.06161699786838e-17               0 -1.51535573828185 
3.06161699786838e-17               1               0 1.14484900355803 
              0               0               1             0.1 
1
              1               0               0               0 
              0               1               0               0 
              0               0               1            0.22 
2  68 1 69 1 70 1 61 1 62 1 19 1 0
2  19 -1 62 -1 61 -1 70 -1 69 -1 68 -1 0
2  4 -1 19 -1 62 -1 61 -1 70 -1 69 -1 68 -1 0
2  17 1 18 1 19 1 0
2  15 1 16 1 47 1 17 1 18 1 19 1 0
2  19 -1 18 -1 17 -1 47 -1 16 -1 15 -1 0
2  4 -1 19 -1 18 -1 17 -1 47 -1 16 -1 15 -1 0
2  19 -1 18 -1 17 -1 0
2  4 -1 19 -1 18 -1 17 -1 0
1
              1               0               0               0 
              0               1               0               0 
              0               0               1               0 
1
              1               0               0               0 
              0               1               0               0 
              0               0               1               0 
1
              1               0               0               0 
              0               1               0               0 
              0               0               1               0 
2  80 1 81 1 82 1 0
1
              1               0               0               0 
              0               1               0               0 
              0               0               1               0 
1
              1 -3.06161699786838e-17               0 -1.51535573828185 
3.06161699786838e-17               1               0 0.82784900355803 
              0               0               1 2.77555756156289e-17 
2  84 1 85 1 80 1 81 1 82 1 0
2  82 -1 81 -1 80 -1 85 -1 84 -1 0
2  4 -1 82 -1 81 -1 80 -1 85 -1 84 -1 0
1
              1               0               0               0 
              0               1               0               0 
              0               0               1            0.32 
2  84 1 85 1 89 1 80 1 81 1 82 1 0
2  82 -1 81 -1 80 -1 89 -1 85 -1 84 -1 0
2  4 -1 82 -1 81 -1 80 -1 89 -1 85 -1 84 -1 0
1
              1               0               0               0 
              0               1               0               0 
              0               0               1               0 
1
              1               0               0               0 
              0               1               0               0 
              0               0               1             0.1 
2  15 1 16 1 93 1 94 1 82 1 0
2  82 -1 94 -1 93 -1 16 -1 15 -1 0
2  4 -1 82 -1 94 -1 93 -1 16 -1 15 -1 0
2  93 1 94 1 82 1 0
2  15 1 16 1 47 1 93 1 94 1 82 1 0
2  82 -1 94 -1 93 -1 47 -1 16 -1 15 -1 0
2  4 -1 82 -1 94 -1 93 -1 47 -1 16 -1 15 -1 0
Curve2ds 0
Curves 76
1 -0.0015153557382818529 0.0011448490035580307 2.7755575615628926e-20 0 0 1 
1 -0.0010153557382818527 0.0011448490035580307 2.7755575615628926e-20 0 0 1 
1 1.5138403825435702 -1.1437041545544722 -2.7727820040013285e-17 1 0 0 
1 1.5138403825435702 -1.1437041545544722 -0.09990000000000003 1 0 0 
1 1.5138403825435702 -1.1437041545544722 -0.09990000000000003 1 0 0 
1 1.5138403825435702 -1.1437041545544722 -0.09990000000000003 1 0 0 
1 -0.0010153557382818527 0.0021448490035580309 2.7755575615628926e-20 0 0 1 
1 1.5143403825435702 -1.1437041545544722 -2.7727820040013285e-17 0 1 0 
1 1.5143403825435702 -1.1437041545544722 -0.09990000000000003 0 1 0 
1 -0.0015153557382818529 0.0021448490035580309 2.7755575615628926e-20 0 0 1 
1 1.5143403825435702 -1.1427041545544723 -2.7727820040013285e-17 -1 0 0 
1 1.5143403825435702 -1.1427041545544723 -0.09990000000000003 -1 0 0 
1 1.5143403825435702 -1.1427041545544723 -0.09990000000000003 -1 0 0 
1 1.5143403825435702 -1.1427041545544723 -0.09990000000000003 -1 0 0 
1 1.5138403825435702 -1.1427041545544723 -2.7727820040013285e-17 0 -1 0 
1 1.5138403825435702 -1.1427041545544723 -0.09990000000000003 0 -1 0 
1 1.3140403825435703 0.17429584544552804 -0.09990000000000003 0 -1 0 
1 1.3141403825435702 0.17197884544552802 -0.09990000000000003 0 1 0 
1 -0.0015153557382818529 -0.0001721509964419701 2.7755575615628926e-20 0 0 1 
1 -0.0010153557382818527 -0.00017215099644197007 2.7755575615628926e-20 0 0 1 
1 1.5138403825435702 0.17197884544552799 -2.7727820040013285e-17 1 0 0 
1 1.5138403825435702 0.17197884544552799 -0.09990000000000003 1 0 0 
1 1.5138403825435702 0.17197884544552799 -0.09990000000000003 1 0 0 
1 1.5138403825435702 0.17197884544552799 -0.09990000000000003 1 0 0 
1 -0.0010153557382818527 0.00082784900355803036 2.7755575615628926e-20 0 0 1 
1 1.5143403825435702 0.17197884544552799 -2.7727820040013285e-17 0 1 0 
1 1.5143403825435702 0.17197884544552799 -0.09990000000000003 0 1 0 
1 -0.0015153557382818529 0.00082784900355803036 2.7755575615628926e-20 0 0 1 
1 1.5143403825435702 0.172978845445528 -2.7727820040013285e-17 -1 0 0 
1 1.5143403825435702 0.172978845445528 -0.09990000000000003 -1 0 0 
1 1.5143403825435702 0.172978845445528 -0.09990000000000003 -1 0 0 
1 1.5143403825435702 0.172978845445528 -0.09990000000000003 -1 0 0 
1 1.5138403825435702 0.172978845445528 -2.7727820040013285e-17 0 -1 0 
1 1.5138403825435702 0.172978845445528 -0.09990000000000003 0 -1 0 
1 1.3140403825435703 0.17429584544552804 -0.09990000000000003 0 -1 0 
1 1.3141403825435702 0.17197884544552802 -0.09990000000000003 0 1 0 
1 -0.0013153557382818528 -0.0001721509964419701 -0.099900000000000003 0 0 1 
1 1.3140403825435703 0.17197884544552802 -0.11988000000000004 1 0 0 
1 -0.0012153557382818525 -0.0001721509964419701 -0.099900000000000003 0 0 1 
1 -0.0010153557382818527 -0.00017215099644197007 0.00010000000000000007 0 0 1 
1 1.5138403825435702 0.17197884544552799 -0.31968000000000008 1 0 0 
1 -0.0015153557382818529 -0.0001721509964419701 0.00010000000000000007 0 0 1 
1 1.3140403825435703 0.17429584544552804 -0.11988000000000004 0 -1 0 
1 -0.0013153557382818528 0.00082784900355803036 0.00010000000000000007 0 0 1 
1 -0.0011403557382818526 0.00082784900355803036 0.0001200000000000001 -1 -3.061616997868383e-17 0 
1 1.3141403825435702 0.17197884544552802 -0.11988000000000004 0 1 0 
1 -0.0012153557382818525 0.00082784900355803036 0.00010000000000000007 0 0 -1 
1 -0.0010153557382818527 0.00082784900355803036 0.00010000000000000007 0 0 1 
1 1.5143403825435702 0.17197884544552799 -0.31968000000000008 0 1 0 
1 1.5143403825435702 0.172978845445528 -0.31968000000000008 -1 0 0 
1 1.5138403825435702 0.172978845445528 -0.31968000000000008 0 -1 0 
1 -0.0015153557382818529 0.00082784900355803036 0.00010000000000000007 0 0 1 
1 -0.0013153557382818528 0.0011448490035580307 0.00010000000000000007 0 0 -1 
1 -0.0013903557382818528 0.0011448490035580307 0.0001200000000000001 1 3.061616997868383e-17 0 
1 -0.0012153557382818525 0.0011448490035580307 0.00010000000000000007 0 0 1 
1 -0.0010153557382818527 0.0011448490035580307 0.00010000000000000007 0 0 1 
1 1.5138403825435702 -1.1437041545544722 -0.31968000000000008 1 0 0 
1 -0.0015153557382818529 0.0011448490035580307 0.00010000000000000007 0 0 1 
1 1.3140403825435703 0.17429584544552804 -0.11988000000000004 0 -1 0 
1 -0.0013153557382818528 0.0021448490035580309 -0.099900000000000003 0 0 1 
1 1.3141403825435702 0.17429584544552804 -0.11988000000000004 -1 0 0 
1 1.3141403825435702 0.17197884544552802 -0.11988000000000004 0 1 0 
1 -0.0012153557382818527 0.0021448490035580309 -0.099900000000000003 0 0 1 
1 -0.0010153557382818527 0.0021448490035580309 0.00010000000000000007 0 0 1 
1 1.5143403825435702 -1.1437041545544722 -0.31968000000000008 0 1 0 
1 1.5143403825435702 -1.1427041545544723 -0.31968000000000008 -1 0 0 
1 1.5138403825435702 -1.1427041545544723 -0.31968000000000008 0 -1 0 
1 -0.0015153557382818529 0.0021448490035580309 0.00010000000000000007 0 0 1 
1 1.5138403825435702 -0.82670415455447188 -2.7727820040013285e-17 0 -1 0 
1 1.5138403825435702 -0.82670415455447188 -0.31968000000000008 0 -1 0 
1 1.5143403825435702 -0.82702115455447189 -2.7727820040013285e-17 0 1 0 
1 1.5143403825435702 -0.82702115455447189 -0.31968000000000008 0 1 0 
1 1.3140403825435703 0.17429584544552804 -0.09990000000000003 0 -1 0 
1 1.3141403825435702 0.17197884544552802 -0.09990000000000003 0 1 0 
1 1.3140403825435703 0.17429584544552804 -0.11988000000000004 0 -1 0 
1 1.3141403825435702 0.17197884544552802 -0.11988000000000004 0 1 0 
Polygon3D 0
PolygonOnTriangulations 188
2 1 2 
p 5.22833333333349e-06 1 0 0.0001 
2 4 3 
p 5.22833333333349e-06 1 0 0.0001 
2 1 2 
p 5.22833333333349e-06 1 0 0.0001 
2 6 5 
p 5.22833333333349e-06 1 0 0.0001 
2 1 2 
p 5.22833333333349e-06 1 0 0.0001 
2 6 5 
p 5.22833333333349e-06 1 0 0.0001 
2 1 6 
p 5.22833333333349e-06 1 0 0.0005 
2 1 2 
p 5.22833333333349e-06 1 0 0.0005 
2 4 3 
p 5.22833333333349e-06 1 0 0.0005 
2 2 3 
p 5.22833333333349e-06 1 0 0.0002 
2 2 3 
p 5.22833333333349e-06 1 0 0.0002 
2 1 2 
p 5.22833333333349e-06 1 0 0.0002 
2 3 4 
p 5.22833333333349e-06 1 0.0002 0.0003 
2 2 3 
p 5.22833333333349e-06 1 0.0002 0.0003 
2 1 4 
p 5.22833333333349e-06 1 0.0002 0.0003 
2 4 5 
p 5.22833333333349e-06 1 0.0003 0.0005 
2 1 3 
p 5.22833333333349e-06 1 0.0003 0.0005 
2 6 5 
p 5.22833333333349e-06 1 0.0003 0.0005 
2 4 3 
p 5.22833333333349e-06 1 0 0.0001 
2 1 2 
p 5.22833333333349e-06 1 0 0.0001 
2 1 4 
p 5.22833333333349e-06 1 0 0.001 
2 2 3 
p 5.22833333333349e-06 1 0 0.001 
2 2 3 
p 5.22833333333349e-06 1 0 0.001 
2 3 4 
p 5.22833333333349e-06 1 0 0.001 
2 1 4 
p 5.22833333333349e-06 1 0 0.001 
2 6 5 
p 5.22833333333349e-06 1 0 0.0001 
2 1 2 
p 5.22833333333349e-06 1 0 0.0001 
2 1 6 
p 5.22833333333349e-06 1 0 0.0005 
2 3 4 
p 5.22833333333349e-06 1 0 0.0005 
2 2 3 
p 5.22833333333349e-06 1 0 0.0002 
2 4 2 
p 5.22833333333349e-06 1 0 0.0002 
2 1 2 
p 5.22833333333349e-06 1 0 0.0002 
2 3 4 
p 5.22833333333349e-06 1 0.0002 0.0003 
2 4 1 
p 5.22833333333349e-06 1 0.0002 0.0003 
2 4 5 
p 5.22833333333349e-06 1 0.0003 0.0005 
2 4 1 
p 5.22833333333349e-06 1 0.0003 0.0005 
2 6 5 
p 5.22833333333349e-06 1 0.0003 0.0005 
2 1 4 
p 5.22833333333349e-06 1 0 0.001 
2 4 1 
p 5.22833333333349e-06 1 0 0.001 
2 2 3 
p 5.22833333333349e-06 1 0 0.001 
2 1 2 
p 5.22833333333349e-06 1 0 0.001 
2 1 4 
p 5.22833333333349e-06 1 0 0.001 
2 4 3 
p 5.22833333333349e-06 1 0 0.001 
2 1 2 
p 5.22833333333349e-06 1 0 0.001 
2 1 2 
p 5.22833333333349e-06 1 0 0.001 
2 3 4 
p 5.22833333333349e-06 1 0.001317 0.002317 
2 1 2 
p 5.22833333333349e-06 1 0.001317 0.002317 
2 1 2 
p 5.22833333333349e-06 1 0.001317 0.002317 
2 1 2 
p 5.22833333333349e-06 1 0 0.0001 
2 4 3 
p 5.22833333333349e-06 1 0 0.0001 
2 6 5 
p 5.22833333333349e-06 1 0 0.0001 
2 1 2 
p 5.22833333333349e-06 1 0 0.0001 
2 1 6 
p 5.22833333333349e-06 1 0 0.0005 
2 1 2 
p 5.22833333333349e-06 1 0 0.0005 
2 2 3 
p 5.22833333333349e-06 1 0 0.0002 
2 2 3 
p 5.22833333333349e-06 1 0 0.0002 
2 1 2 
p 5.22833333333349e-06 1 0 0.0002 
2 3 4 
p 5.22833333333349e-06 1 0.0002 0.0003 
2 2 3 
p 5.22833333333349e-06 1 0.0002 0.0003 
2 4 5 
p 5.22833333333349e-06 1 0.0003 0.0005 
2 1 3 
p 5.22833333333349e-06 1 0.0003 0.0005 
2 6 5 
p 5.22833333333349e-06 1 0.0003 0.0005 
2 4 3 
p 5.22833333333349e-06 1 0 0.0001 
2 1 2 
p 5.22833333333349e-06 1 0 0.0001 
2 1 2 
p 5.22833333333349e-06 1 0 0.0001 
2 1 4 
p 5.22833333333349e-06 1 0 0.001 
2 2 3 
p 5.22833333333349e-06 1 0 0.001 
2 2 3 
p 5.22833333333349e-06 1 0 0.001 
2 3 4 
p 5.22833333333349e-06 1 0 0.001 
2 1 4 
p 5.22833333333349e-06 1 0 0.001 
2 6 5 
p 5.22833333333349e-06 1 0 0.0001 
2 1 2 
p 5.22833333333349e-06 1 0 0.0001 
2 6 5 
p 5.22833333333349e-06 1 0 0.0001 
2 1 6 
p 5.22833333333349e-06 1 0 0.0005 
2 3 4 
p 5.22833333333349e-06 1 0 0.0005 
2 1 2 
p 5.22833333333349e-06 1 0 0.0005 
2 2 3 
p 5.22833333333349e-06 1 0 0.0002 
2 4 2 
p 5.22833333333349e-06 1 0 0.0002 
2 1 2 
p 5.22833333333349e-06 1 0 0.0002 
2 3 4 
p 5.22833333333349e-06 1 0.0002 0.0003 
2 4 1 
p 5.22833333333349e-06 1 0.0002 0.0003 
2 3 2 
p 5.22833333333349e-06 1 0.0002 0.0003 
2 4 5 
p 5.22833333333349e-06 1 0.0003 0.0005 
2 4 1 
p 5.22833333333349e-06 1 0.0003 0.0005 
2 6 5 
p 5.22833333333349e-06 1 0.0003 0.0005 
2 1 4 
p 5.22833333333349e-06 1 0 0.001 
2 4 1 
p 5.22833333333349e-06 1 0 0.001 
2 2 3 
p 5.22833333333349e-06 1 0 0.001 
2 1 2 
p 5.22833333333349e-06 1 0 0.001 
2 1 4 
p 5.22833333333349e-06 1 0 0.001 
2 4 3 
p 5.22833333333349e-06 1 0.001317 0.002317 
2 1 2 
p 5.22833333333349e-06 1 0.001317 0.002317 
2 1 2 
p 5.22833333333349e-06 1 0.001317 0.002317 
2 3 4 
p 5.22833333333349e-06 1 0 0.001 
2 1 2 
p 5.22833333333349e-06 1 0 0.001 
2 1 2 
p 5.22833333333349e-06 1 0 0.001 
2 2 8 
p 5.22833333333349e-06 1 0 2e-05 
2 2 4 
p 5.22833333333349e-06 1 0 2e-05 
2 8 7 
p 5.22833333333349e-06 1 0 0.0001 
2 2 3 
p 5.22833333333349e-06 1 0 0.0001 
2 6 7 
p 5.22833333333349e-06 1 0 2e-05 
2 1 3 
p 5.22833333333349e-06 1 0 2e-05 
2 5 4 
p 5.22833333333349e-06 1 0 0.00022 
2 1 2 
p 5.22833333333349e-06 1 0 0.00022 
2 3 4 
p 5.22833333333349e-06 1 0 0.0005 
2 1 2 
p 5.22833333333349e-06 1 0 0.0005 
2 1 3 
p 5.22833333333349e-06 1 0 0.00022 
2 4 3 
p 5.22833333333349e-06 1 0 0.00022 
2 3 4 
p 5.22833333333349e-06 1 0.001317 0.002317 
2 1 2 
p 5.22833333333349e-06 1 0.001317 0.002317 
2 1 3 
p 5.22833333333349e-06 1 0 2e-05 
2 6 7 
p 5.22833333333349e-06 1 0 2e-05 
2 2 4 
p 5.22833333333349e-06 1 0 2e-05 
2 4 1 
p 5.22833333333349e-06 1 7.5e-05 0.000175 
2 8 7 
p 5.22833333333349e-06 1 7.5e-05 0.000175 
2 3 2 
p 5.22833333333349e-06 1 7.5e-05 0.000175 
2 3 4 
p 5.22833333333349e-06 1 0 0.001 
2 3 4 
p 5.22833333333349e-06 1 0 0.001 
2 4 2 
p 5.22833333333349e-06 1 -2e-05 0 
2 8 2 
p 5.22833333333349e-06 1 -2e-05 0 
2 3 1 
p 5.22833333333349e-06 1 -2e-05 0 
2 4 3 
p 5.22833333333349e-06 1 0 0.00022 
2 1 3 
p 5.22833333333349e-06 1 0 0.00022 
2 2 3 
p 5.22833333333349e-06 1 0 0.00022 
2 2 3 
p 5.22833333333349e-06 1 0 0.001 
2 2 3 
p 5.22833333333349e-06 1 0 0.001 
2 3 4 
p 5.22833333333349e-06 1 0 0.0005 
2 3 4 
p 5.22833333333349e-06 1 0 0.0005 
2 1 2 
p 5.22833333333349e-06 1 0 0.0005 
2 4 1 
p 5.22833333333349e-06 1 0 0.001 
2 2 3 
p 5.22833333333349e-06 1 0 0.001 
2 1 2 
p 5.22833333333349e-06 1 0 0.00022 
2 5 4 
p 5.22833333333349e-06 1 0 0.00022 
2 5 4 
p 5.22833333333349e-06 1 0 0.00022 
2 8 2 
p 5.22833333333349e-06 1 -2e-05 0 
2 4 2 
p 5.22833333333349e-06 1 -2e-05 0 
2 3 1 
p 5.22833333333349e-06 1 -2e-05 0 
2 8 7 
p 5.22833333333349e-06 1 7.5e-05 0.000175 
2 2 3 
p 5.22833333333349e-06 1 7.5e-05 0.000175 
2 1 4 
p 5.22833333333349e-06 1 7.5e-05 0.000175 
2 6 7 
p 5.22833333333349e-06 1 0 2e-05 
2 1 3 
p 5.22833333333349e-06 1 0 2e-05 
2 2 4 
p 5.22833333333349e-06 1 0 2e-05 
2 5 4 
p 5.22833333333349e-06 1 0 0.00022 
2 1 2 
p 5.22833333333349e-06 1 0 0.00022 
2 5 4 
p 5.22833333333349e-06 1 0 0.00022 
2 3 4 
p 5.22833333333349e-06 1 0 0.0005 
2 1 2 
p 5.22833333333349e-06 1 0 0.0005 
2 4 3 
p 5.22833333333349e-06 1 0 0.0005 
2 1 3 
p 5.22833333333349e-06 1 0 0.00022 
2 4 3 
p 5.22833333333349e-06 1 0 0.00022 
2 2 3 
p 5.22833333333349e-06 1 0 0.00022 
2 3 4 
p 5.22833333333349e-06 1 0 0.001 
2 1 2 
p 5.22833333333349e-06 1 0 0.001 
2 1 3 
p 5.22833333333349e-06 1 0 2e-05 
2 6 7 
p 5.22833333333349e-06 1 0 2e-05 
2 4 1 
p 5.22833333333349e-06 1 0 0.0001 
2 8 7 
p 5.22833333333349e-06 1 0 0.0001 
2 3 4 
p 5.22833333333349e-06 1 0.001317 0.002317 
2 3 4 
p 5.22833333333349e-06 1 0.001317 0.002317 
2 2 4 
p 5.22833333333349e-06 1 0 2e-05 
2 2 8 
p 5.22833333333349e-06 1 0 2e-05 
2 4 3 
p 5.22833333333349e-06 1 0 0.00022 
2 1 3 
p 5.22833333333349e-06 1 0 0.00022 
2 2 3 
p 5.22833333333349e-06 1 0 0.001 
2 2 3 
p 5.22833333333349e-06 1 0 0.001 
2 3 4 
p 5.22833333333349e-06 1 0 0.0005 
2 3 4 
p 5.22833333333349e-06 1 0 0.0005 
2 4 1 
p 5.22833333333349e-06 1 0 0.001 
2 2 3 
p 5.22833333333349e-06 1 0 0.001 
2 1 2 
p 5.22833333333349e-06 1 0 0.00022 
2 5 4 
p 5.22833333333349e-06 1 0 0.00022 
2 1 6 
p 5.22833333333349e-06 1 0 0.000317 
2 4 2 
p 5.22833333333349e-06 1 0 0.000317 
2 3 4 
p 5.22833333333349e-06 1 0 0.000317 
2 4 2 
p 5.22833333333349e-06 1 0 0.000317 
2 1 3 
p 5.22833333333349e-06 1 0 0.000317 
2 1 6 
p 5.22833333333349e-06 1 0 0.000317 
2 1 3 
p 5.22833333333349e-06 1 0 0.000317 
2 3 4 
p 5.22833333333349e-06 1 0 0.000317 
2 1 2 
p 5.22833333333349e-06 1 0.001 0.001317 
2 1 2 
p 5.22833333333349e-06 1 0.001 0.001317 
2 3 4 
p 5.22833333333349e-06 1 0.001 0.001317 
2 1 2 
p 5.22833333333349e-06 1 0.001 0.001317 
2 3 4 
p 5.22833333333349e-06 1 0.001 0.001317 
2 1 2 
p 5.22833333333349e-06 1 0.001 0.001317 
2 3 4 
p 5.22833333333349e-06 1 0.001 0.001317 
2 3 4 
p 5.22833333333349e-06 1 0.001 0.001317 
Surfaces 40
1 -0.0015153557382818529 0.0011448490035580307 2.7755575615628926e-20 -3.061616997868383e-17 1 0 1 3.061616997868383e-17 0 0 0 -1 
1 -0.0010153557382818527 0.0011448490035580307 2.7755575615628926e-20 -1 -3.061616997868383e-17 0 -3.061616997868383e-17 1 0 0 0 -1 
1 -0.0010153557382818527 0.0021448490035580309 2.7755575615628926e-20 3.061616997868383e-17 -1 0 -1 -3.061616997868383e-17 0 0 0 -1 
1 -0.0015153557382818529 0.0021448490035580309 2.7755575615628926e-20 1 3.061616997868383e-17 0 3.061616997868383e-17 -1 0 0 0 -1 
1 1.5140903825435703 -1.1432041545544722 -2.7727820040013285e-17 0 0 1 1 0 0 0 1 0 
1 1.5140903825435703 -1.1432041545544722 -0.09990000000000003 0 0 1 1 0 0 0 1 0 
1 1.5140903825435703 -1.1432041545544722 -0.09990000000000003 0 0 1 1 0 0 0 1 0 
1 1.5140903825435703 -1.1432041545544722 -0.09990000000000003 0 0 1 1 0 0 0 1 0 
1 -0.0015153557382818529 -0.0001721509964419701 2.7755575615628926e-20 -3.061616997868383e-17 1 0 1 3.061616997868383e-17 0 0 0 -1 
1 -0.0010153557382818527 -0.00017215099644197007 2.7755575615628926e-20 -1 -3.061616997868383e-17 0 -3.061616997868383e-17 1 0 0 0 -1 
1 -0.0010153557382818527 0.00082784900355803036 2.7755575615628926e-20 3.061616997868383e-17 -1 0 -1 -3.061616997868383e-17 0 0 0 -1 
1 -0.0015153557382818529 0.00082784900355803036 2.7755575615628926e-20 1 3.061616997868383e-17 0 3.061616997868383e-17 -1 0 0 0 -1 
1 1.5140903825435703 0.172478845445528 -2.7727820040013285e-17 0 0 1 1 0 0 0 1 0 
1 1.5140903825435703 0.172478845445528 -0.09990000000000003 0 0 1 1 0 0 0 1 0 
1 1.5140903825435703 0.172478845445528 -0.09990000000000003 0 0 1 1 0 0 0 1 0 
1 1.5140903825435703 0.172478845445528 -0.09990000000000003 0 0 1 1 0 0 0 1 0 
1 -0.0015153557382818529 -0.0001721509964419701 0.00010000000000000007 -3.061616997868383e-17 1 0 1 3.061616997868383e-17 0 0 0 -1 
1 -0.0013153557382818528 0.0021448490035580309 -0.099900000000000003 1 3.061616997868383e-17 0 3.061616997868383e-17 -1 0 0 0 -1 
1 1.3140903825435704 0.17313734544552803 -0.11988000000000004 0 0 1 1 0 0 0 1 0 
1 -0.0012153557382818525 -0.0001721509964419701 -0.099900000000000003 -1 -3.061616997868383e-17 0 -3.061616997868383e-17 1 0 0 0 -1 
1 -0.0010153557382818527 -0.00017215099644197007 0.00010000000000000007 -1 -3.061616997868383e-17 0 -3.061616997868383e-17 1 0 0 0 -1 
1 1.5140903825435703 0.172478845445528 -0.31968000000000008 0 0 1 1 0 0 0 1 0 
1 -0.0015153557382818529 0.00082784900355803036 0.00010000000000000007 1 3.061616997868383e-17 0 3.061616997868383e-17 -1 0 0 0 -1 
1 -0.0010153557382818527 0.00082784900355803036 0.00010000000000000007 3.061616997868383e-17 -1 0 -1 -3.061616997868383e-17 0 0 0 -1 
1 -0.0015153557382818529 0.0011448490035580307 0.00010000000000000007 -3.061616997868383e-17 1 0 1 3.061616997868383e-17 0 0 0 -1 
1 -0.0013153557382818528 0.0021448490035580309 -0.099900000000000003 1 3.061616997868383e-17 0 3.061616997868383e-17 -1 0 0 0 -1 
1 1.3140903825435704 0.17313734544552803 -0.11988000000000004 0 0 1 1 0 0 0 1 0 
1 -0.0012153557382818525 -0.0001721509964419701 -0.099900000000000003 -1 -3.061616997868383e-17 0 -3.061616997868383e-17 1 0 0 0 -1 
1 -0.0010153557382818527 0.0011448490035580307 0.00010000000000000007 -1 -3.061616997868383e-17 0 -3.061616997868383e-17 1 0 0 0 -1 
1 1.5140903825435703 -1.1432041545544722 -0.31968000000000008 0 0 1 1 0 0 0 1 0 
1 -0.0015153557382818529 0.0021448490035580309 0.00010000000000000007 1 3.061616997868383e-17 0 3.061616997868383e-17 -1 0 0 0 -1 
1 -0.0010153557382818527 0.0021448490035580309 0.00010000000000000007 3.061616997868383e-17 -1 0 -1 -3.061616997868383e-17 0 0 0 -1 
1 -0.0015153557382818529 0.0011448490035580307 2.7755575615628926e-20 1 3.061616997868383e-17 0 3.061616997868383e-17 -1 0 0 0 -1 
1 1.5140903825435703 -0.82686265455447194 -2.7727820040013285e-17 0 0 1 1 0 0 0 1 0 
1 1.5140903825435703 -0.82686265455447194 -0.31968000000000008 0 0 1 1 0 0 0 1 0 
1 -0.0010153557382818527 0.00082784900355803036 2.7755575615628926e-20 -1 -3.061616997868383e-17 0 -3.061616997868383e-17 1 0 0 0 -1 
1 1.3140903825435704 0.17313734544552803 -0.09990000000000003 0 0 1 1 0 0 0 1 0 
1 -0.0013153557382818528 0.0021448490035580309 -0.099900000000000003 1 3.061616997868383e-17 0 3.061616997868383e-17 -1 0 0 0 -1 
1 1.3140903825435704 0.17313734544552803 -0.11988000000000004 0 0 1 1 0 0 0 1 0 
1 -0.0012153557382818525 -0.0001721509964419701 -0.099900000000000003 -1 -3.061616997868383e-17 0 -3.061616997868383e-17 1 0 0 0 -1 
Triangulations 40
6 4 1 5.22833333333349e-06
-0.00151535573828185 0.00114484900355803 2.77555756156289e-20 -0.00151535573828185 0.00114484900355803 0.0001 -0.00131535573828185 0.00114484900355803 0.0001 -0.00121535573828185 0.00114484900355803 0.0001 -0.00101535573828185 0.00114484900355803 0.0001 -0.00101535573828185 0.00114484900355803 2.77555756156289e-20 -2.32019264911898e-17 0 -2.32019264911898e-17 -0.000100000000000003 0.000199999999999977 -0.000100000000000003 0.000299999999999977 -0.000100000000000003 0.0005 -0.0001 0.000499999999999977 0 3 1 2 6 4 5 6 1 3 6 3 4 
4 2 1 5.22833333333349e-06
-0.00151535573828185 0.00214484900355803 2.77555756156289e-20 -0.00151535573828185 0.00214484900355803 0.0001 -0.00151535573828185 0.00114484900355803 0.0001 -0.00151535573828185 0.00114484900355803 2.77555756156289e-20 2.05998412772246e-16 0 2.05998412772246e-16 -0.000100000000000003 0.001 -0.0001 0.00100000000000021 0 4 1 2 4 2 3 
6 4 1 5.22833333333349e-06
-0.00151535573828185 0.00114484900355803 2.77555756156289e-20 -0.00151535573828185 0.00114484900355803 0.0001 -0.00151535573828185 0.00114484900355803 0.00032 -0.00151535573828185 0.00082784900355803 0.00032 -0.00151535573828185 0.00082784900355803 0.0001 -0.00151535573828185 0.00082784900355803 2.77555756156289e-20 -1.53956708492942e-17 0 0 -0.0001 -1.53956708492942e-17 -0.000319999999999987 0.000317 -0.00032 0.000317 -0.0001 0.000316999999999985 0 5 2 3 5 3 4 6 1 2 6 2 5 
4 2 1 5.22833333333349e-06
-0.00101535573828185 0.00114484900355803 2.77555756156289e-20 -0.00101535573828185 0.00114484900355803 0.0001 -0.00101535573828185 0.00214484900355803 0.0001 -0.00101535573828185 0.00214484900355803 2.77555756156289e-20 -9.56266316132215e-17 0 -9.56266316132215e-17 -0.000100000000000003 0.001 -0.0001 0.000999999999999905 0 4 1 2 4 2 3 
6 4 1 5.22833333333349e-06
-0.00101535573828185 0.00082784900355803 2.77555756156289e-20 -0.00101535573828185 0.00082784900355803 0.0001 -0.00101535573828185 0.00082784900355803 0.00032 -0.00101535573828185 0.00114484900355803 0.00032 -0.00101535573828185 0.00114484900355803 0.0001 -0.00101535573828185 0.00114484900355803 2.77555756156289e-20 4.01154803819637e-18 0 0 -0.0001 4.01154803819637e-18 -0.000319999999999987 0.000317 -0.00032 0.000317 -0.0001 0.000317000000000004 0 5 2 3 5 3 4 6 1 2 6 2 5 
4 2 1 5.22833333333349e-06
-0.00151535573828185 0.00114484900355803 2.77555756156289e-20 -0.00101535573828185 0.00114484900355803 2.77555756156289e-20 -0.00101535573828185 0.00214484900355803 2.77555756156289e-20 -0.00151535573828185 0.00214484900355803 2.77555756156289e-20 -0.000250000000000083 -0.000500000000000056 0.000249999999999861 -0.000499999999999945 0.000249999999999861 0.000499999999999945 -0.000250000000000083 0.000499999999999945 3 1 2 3 4 1 
4 2 1 5.22833333333349e-06
-0.00101535573828185 0.00082784900355803 2.77555756156289e-20 -0.00151535573828185 0.00082784900355803 2.77555756156289e-20 -0.00101535573828185 0.00114484900355803 2.77555756156289e-20 -0.00151535573828185 0.00114484900355803 2.77555756156289e-20 0.000249999999999861 -0.00015849999999995 -0.000250000000000083 -0.000158499999999939 0.000249999999999917 0.00015849999999995 -0.000250000000000083 0.000158500000000061 3 2 1 3 4 2 
4 2 1 5.22833333333349e-06
-0.00151535573828185 0.00214484900355803 0.0001 -0.00151535573828185 0.00114484900355803 0.0001 -0.00131535573828185 0.00114484900355803 0.0001 -0.00131535573828185 0.00214484900355803 0.0001 -0.000250000000000139 0.000499999999999945 -0.000250000000000083 -0.000499999999999945 -5.00000000001055e-05 -0.000499999999999833 -5.00000000001387e-05 0.000499999999999945 4 1 2 4 2 3 
8 6 1 5.22833333333349e-06
-0.00151535573828185 0.00114484900355803 0.0001 -0.00131535573828185 0.00114484900355803 0.0001 -0.00151535573828185 0.00114484900355803 0.00032 -0.00101535573828185 0.00114484900355803 0.00032 -0.00101535573828185 0.00114484900355803 0.0001 -0.00121535573828185 0.00114484900355803 0.0001 -0.00121535573828185 0.00114484900355803 0.00012 -0.00131535573828185 0.00114484900355803 0.00012 0 0 0.0002 0 -2.32019264911898e-17 -0.000219999999999987 0.0005 -0.00022 0.000499999999999977 -2.79182059415017e-18 0.0003 0 0.0003 -2e-05 0.0002 -2e-05 8 1 3 2 1 8 7 3 4 7 8 3 5 6 7 5 7 4 
4 2 1 5.22833333333349e-06
-0.00131535573828185 0.00214484900355803 0.0001 -0.00131535573828185 0.00114484900355803 0.0001 -0.00121535573828185 0.00114484900355803 0.0001 -0.00121535573828185 0.00214484900355803 0.0001 -5.00000000001387e-05 0.000499999999999945 -5.00000000000835e-05 -0.000499999999999945 4.99999999998835e-05 -0.000499999999999957 4.99999999998612e-05 0.000499999999999945 4 1 2 4 2 3 
4 2 1 5.22833333333349e-06
-0.00131535573828185 0.00114484900355803 0.0001 -0.00131535573828185 0.00082784900355803 0.0001 -0.00121535573828185 0.00082784900355803 0.0001 -0.00121535573828185 0.00114484900355803 0.0001 -5.00000000000835e-05 0.000158499999999978 -5.00000000001387e-05 -0.000158500000000006 4.99999999998835e-05 -0.000158500000000006 4.99999999999167e-05 0.000158499999999978 4 1 2 4 2 3 
4 2 1 5.22833333333349e-06
-0.00121535573828185 0.00114484900355803 0.0001 -0.00121535573828185 0.00214484900355803 0.0001 -0.00101535573828185 0.00114484900355803 0.0001 -0.00101535573828185 0.00214484900355803 0.0001 4.99999999999167e-05 -0.000499999999999945 4.99999999998612e-05 0.000499999999999945 0.000249999999999861 -0.000499999999999945 0.000249999999999861 0.000499999999999945 4 2 1 4 1 3 
6 4 1 5.22833333333349e-06
-0.00101535573828185 0.00214484900355803 2.77555756156289e-20 -0.00101535573828185 0.00214484900355803 0.0001 -0.00121535573828185 0.00214484900355803 0.0001 -0.00131535573828185 0.00214484900355803 0.0001 -0.00151535573828185 0.00214484900355803 0.0001 -0.00151535573828185 0.00214484900355803 2.77555756156289e-20 7.84962372879505e-17 0 7.84962372879505e-17 -0.000100000000000003 0.000200000000000079 -0.000100000000000003 0.000300000000000079 -0.000100000000000003 0.0005 -0.0001 0.000500000000000079 0 3 1 2 6 4 5 6 1 3 6 3 4 
4 2 1 5.22833333333349e-06
-0.00101535573828185 0.00114484900355803 0.0001 -0.00101535573828185 0.00114484900355803 0.00032 -0.00101535573828185 0.00214484900355803 0.00032 -0.00101535573828185 0.00214484900355803 0.0001 -9.56266316132215e-17 -2.79182059415017e-18 -9.56266316132215e-17 -0.000219999999999987 0.001 -0.00022 0.000999999999999905 -2.79182059415017e-18 4 1 2 4 2 3 
8 6 1 5.22833333333349e-06
-0.00101535573828185 0.00214484900355803 0.0001 -0.00121535573828185 0.00214484900355803 0.0001 -0.00101535573828185 0.00214484900355803 0.00032 -0.00151535573828185 0.00214484900355803 0.00032 -0.00151535573828185 0.00214484900355803 0.0001 -0.00131535573828185 0.00214484900355803 0.0001 -0.00131535573828185 0.00214484900355803 0.00012 -0.00121535573828185 0.00214484900355803 0.00012 0 0 0.0002 -2.79182059415017e-18 7.84962372879505e-17 -0.000219999999999987 0.0005 -0.00022 0.000500000000000079 -2.79182059415017e-18 0.0003 -2.79182059415017e-18 0.000300000000000057 -1.9999999999995e-05 0.0002 -2.00000000000028e-05 8 1 3 2 1 8 7 3 4 7 8 3 5 6 7 5 7 4 
4 2 1 5.22833333333349e-06
-0.00151535573828185 0.00214484900355803 0.0001 -0.00151535573828185 0.00214484900355803 0.00032 -0.00151535573828185 0.00114484900355803 0.00032 -0.00151535573828185 0.00114484900355803 0.0001 2.05998412772246e-16 -2.79182059415017e-18 2.05998412772246e-16 -0.000219999999999987 0.001 -0.00022 0.00100000000000021 -2.79182059415017e-18 4 1 2 4 2 3 
4 2 1 5.22833333333349e-06
-0.00131535573828185 0.00214484900355803 0.0001 -0.00131535573828185 0.00114484900355803 0.0001 -0.00131535573828185 0.00214484900355803 0.00012 -0.00131535573828185 0.00114484900355803 0.00012 0 0 0.001 0 -1.60461921527855e-17 -1.99999999999922e-05 0.001 -2e-05 2 1 3 2 3 4 
4 2 1 5.22833333333349e-06
-0.00121535573828185 0.00114484900355803 0.0001 -0.00121535573828185 0.00214484900355803 0.0001 -0.00121535573828185 0.00114484900355803 0.00012 -0.00121535573828185 0.00214484900355803 0.00012 0.001317 0 0.002317 0 0.001317 -1.99999999999922e-05 0.002317 -2e-05 2 1 3 2 3 4 
6 4 1 5.22833333333349e-06
-0.00151535573828185 -0.00017215099644197 2.77555756156289e-20 -0.00151535573828185 -0.00017215099644197 0.0001 -0.00131535573828185 -0.00017215099644197 0.0001 -0.00121535573828185 -0.00017215099644197 0.0001 -0.00101535573828185 -0.00017215099644197 0.0001 -0.00101535573828185 -0.00017215099644197 2.77555756156289e-20 -2.32019264911898e-17 0 -2.32019264911898e-17 -0.000100000000000003 0.000199999999999977 -0.000100000000000003 0.000299999999999977 -0.000100000000000003 0.0005 -0.0001 0.000499999999999977 0 3 1 2 6 4 5 6 1 3 6 3 4 
4 2 1 5.22833333333349e-06
-0.00151535573828185 0.00082784900355803 2.77555756156289e-20 -0.00151535573828185 0.00082784900355803 0.0001 -0.00151535573828185 -0.00017215099644197 0.0001 -0.00151535573828185 -0.00017215099644197 2.77555756156289e-20 -4.01154803819637e-18 0 -4.01154803819637e-18 -0.000100000000000003 0.001 -0.0001 0.000999999999999997 0 4 1 2 4 2 3 
4 2 1 5.22833333333349e-06
-0.00101535573828185 -0.00017215099644197 2.77555756156289e-20 -0.00101535573828185 -0.00017215099644197 0.0001 -0.00101535573828185 0.00082784900355803 0.0001 -0.00101535573828185 0.00082784900355803 2.77555756156289e-20 3.55076211489003e-18 0 3.55076211489003e-18 -0.000100000000000003 0.001 -0.0001 0.001 0 4 1 2 4 2 3 
4 2 1 5.22833333333349e-06
-0.00151535573828185 -0.00017215099644197 2.77555756156289e-20 -0.00101535573828185 -0.00017215099644197 2.77555756156289e-20 -0.00101535573828185 0.00082784900355803 2.77555756156289e-20 -0.00151535573828185 0.00082784900355803 2.77555756156289e-20 -0.000250000000000083 -0.0005 0.000249999999999861 -0.0005 0.000249999999999861 0.0005 -0.000250000000000083 0.0005 3 1 2 3 4 1 
4 2 1 5.22833333333349e-06
-0.00151535573828185 0.00082784900355803 0.0001 -0.00151535573828185 -0.00017215099644197 0.0001 -0.00131535573828185 -0.00017215099644197 0.0001 -0.00131535573828185 0.00082784900355803 0.0001 -0.000250000000000139 0.0005 -0.000250000000000083 -0.0005 -5.00000000001055e-05 -0.000499999999999988 -5.00000000001387e-05 0.0005 4 1 2 4 2 3 
8 6 1 5.22833333333349e-06
-0.00151535573828185 -0.00017215099644197 0.0001 -0.00131535573828185 -0.00017215099644197 0.0001 -0.00151535573828185 -0.00017215099644197 0.00032 -0.00101535573828185 -0.00017215099644197 0.00032 -0.00101535573828185 -0.00017215099644197 0.0001 -0.00121535573828185 -0.00017215099644197 0.0001 -0.00121535573828185 -0.00017215099644197 0.00012 -0.00131535573828185 -0.00017215099644197 0.00012 0 0 0.0002 -2.79182059415017e-18 -2.32019264911898e-17 -0.000219999999999987 0.0005 -0.00022 0.000499999999999977 -2.79182059415017e-18 0.0003 -2.79182059415017e-18 0.000299999999999955 -1.9999999999995e-05 0.0002 -2.00000000000028e-05 8 1 3 2 1 8 4 7 8 4 8 3 5 6 7 5 7 4 
4 2 1 5.22833333333349e-06
-0.00131535573828185 0.00082784900355803 0.0001 -0.00131535573828185 -0.00017215099644197 0.0001 -0.00121535573828185 -0.00017215099644197 0.0001 -0.00121535573828185 0.00082784900355803 0.0001 -5.00000000001387e-05 0.0005 -5.00000000000835e-05 -0.0005 4.99999999998835e-05 -0.0005 4.99999999998614e-05 0.0005 4 1 2 4 2 3 
4 2 1 5.22833333333349e-06
-0.00121535573828185 -0.00017215099644197 0.0001 -0.00121535573828185 0.00082784900355803 0.0001 -0.00101535573828185 -0.00017215099644197 0.0001 -0.00101535573828185 0.00082784900355803 0.0001 4.99999999999167e-05 -0.0005 4.99999999998614e-05 0.0005 0.000249999999999861 -0.0005 0.000249999999999861 0.0005 4 2 1 4 1 3 
6 4 1 5.22833333333349e-06
-0.00101535573828185 0.00082784900355803 2.77555756156289e-20 -0.00101535573828185 0.00082784900355803 0.0001 -0.00121535573828185 0.00082784900355803 0.0001 -0.00131535573828185 0.00082784900355803 0.0001 -0.00151535573828185 0.00082784900355803 0.0001 -0.00151535573828185 0.00082784900355803 2.77555756156289e-20 7.84962372879505e-17 0 7.84962372879505e-17 -0.000100000000000003 0.000200000000000079 -0.000100000000000003 0.000300000000000079 -0.000100000000000003 0.0005 -0.0001 0.000500000000000079 0 3 1 2 6 4 5 6 1 3 6 3 4 
4 2 1 5.22833333333349e-06
-0.00101535573828185 -0.00017215099644197 0.0001 -0.00101535573828185 -0.00017215099644197 0.00032 -0.00101535573828185 0.00082784900355803 0.00032 -0.00101535573828185 0.00082784900355803 0.0001 3.55076211489003e-18 -2.79182059415017e-18 3.55076211489003e-18 -0.000219999999999987 0.001 -0.00022 0.001 -2.79182059415017e-18 4 1 2 4 2 3 
8 6 1 5.22833333333349e-06
-0.00101535573828185 0.00082784900355803 0.0001 -0.00121535573828185 0.00082784900355803 0.0001 -0.00101535573828185 0.00082784900355803 0.00032 -0.00151535573828185 0.00082784900355803 0.00032 -0.00151535573828185 0.00082784900355803 0.0001 -0.00131535573828185 0.00082784900355803 0.0001 -0.00131535573828185 0.00082784900355803 0.00012 -0.00121535573828185 0.00082784900355803 0.00012 0 0 0.0002 0 7.84962372879505e-17 -0.000219999999999987 0.0005 -0.00022 0.000500000000000079 -2.79182059415017e-18 0.0003 0 0.0003 -2e-05 0.0002 -2e-05 8 1 3 2 1 8 4 7 8 4 8 3 5 6 7 5 7 4 
4 2 1 5.22833333333349e-06
-0.00151535573828185 0.00082784900355803 0.0001 -0.00151535573828185 0.00082784900355803 0.00032 -0.00151535573828185 -0.00017215099644197 0.00032 -0.00151535573828185 -0.00017215099644197 0.0001 -4.01154803819637e-18 -2.79182059415017e-18 -4.01154803819637e-18 -0.000219999999999987 0.001 -0.00022 0.000999999999999997 -2.79182059415017e-18 4 1 2 4 2 3 
4 2 1 5.22833333333349e-06
-0.00131535573828185 0.00082784900355803 0.0001 -0.00131535573828185 -0.00017215099644197 0.0001 -0.00131535573828185 0.00082784900355803 0.00012 -0.00131535573828185 -0.00017215099644197 0.00012 0.001317 0 0.002317 0 0.00131699999999998 -1.99999999999922e-05 0.002317 -2e-05 2 1 3 2 3 4 
4 2 1 5.22833333333349e-06
-0.00121535573828185 -0.00017215099644197 0.0001 -0.00121535573828185 0.00082784900355803 0.0001 -0.00121535573828185 -0.00017215099644197 0.00012 -0.00121535573828185 0.00082784900355803 0.00012 0 0 0.001 0 3.57786716920216e-18 -1.99999999999922e-05 0.001 -2e-05 2 1 3 2 3 4 
4 2 1 5.22833333333349e-06
-0.00131535573828185 0.00082784900355803 0.00012 -0.00131535573828185 -0.00017215099644197 0.00012 -0.00121535573828185 -0.00017215099644197 0.00012 -0.00121535573828185 0.00082784900355803 0.00012 -5.00000000000694e-05 -0.000158500000000006 -5.00000000001055e-05 -0.00115850000000001 4.99999999998835e-05 -0.00115850000000001 4.99999999999307e-05 -0.000158500000000006 4 1 2 4 2 3 
4 2 1 5.22833333333349e-06
-0.00151535573828185 -0.00017215099644197 0.00032 -0.00101535573828185 -0.00017215099644197 0.00032 -0.00101535573828185 0.00082784900355803 0.00032 -0.00151535573828185 0.00082784900355803 0.00032 -0.000250000000000083 -0.0005 0.000249999999999861 -0.0005 0.000249999999999861 0.0005 -0.000250000000000083 0.0005 3 1 2 3 4 1 
4 2 1 5.22833333333349e-06
-0.00131535573828185 0.00114484900355803 0.0001 -0.00131535573828185 0.00082784900355803 0.0001 -0.00131535573828185 0.00114484900355803 0.00012 -0.00131535573828185 0.00082784900355803 0.00012 0.001 0 0.001317 0 0.000999999999999984 -1.99999999999922e-05 0.001317 -2e-05 2 1 3 2 3 4 
4 2 1 5.22833333333349e-06
-0.00131535573828185 0.00114484900355803 0.00012 -0.00131535573828185 0.00082784900355803 0.00012 -0.00121535573828185 0.00082784900355803 0.00012 -0.00121535573828185 0.00114484900355803 0.00012 -5.00000000001527e-05 0.000158499999999978 -5.00000000000694e-05 -0.000158500000000006 4.99999999998835e-05 -0.000158500000000006 4.99999999998473e-05 0.000158499999999978 4 1 2 4 2 3 
4 2 1 5.22833333333349e-06
-0.00121535573828185 0.00082784900355803 0.0001 -0.00121535573828185 0.00114484900355803 0.0001 -0.00121535573828185 0.00082784900355803 0.00012 -0.00121535573828185 0.00114484900355803 0.00012 0.001 0 0.001317 0 0.001 -1.99999999999922e-05 0.001317 -2e-05 2 1 3 2 3 4 
4 2 1 5.22833333333349e-06
-0.00101535573828185 0.00082784900355803 0.00032 -0.00151535573828185 0.00082784900355803 0.00032 -0.00101535573828185 0.00114484900355803 0.00032 -0.00151535573828185 0.00114484900355803 0.00032 0.000249999999999861 -0.00015849999999995 -0.000250000000000083 -0.000158499999999939 0.000249999999999917 0.00015849999999995 -0.000250000000000083 0.000158500000000061 3 2 1 3 4 2 
4 2 1 5.22833333333349e-06
-0.00131535573828185 0.00214484900355803 0.00012 -0.00131535573828185 0.00114484900355803 0.00012 -0.00121535573828185 0.00114484900355803 0.00012 -0.00121535573828185 0.00214484900355803 0.00012 -5.00000000001166e-05 0.00115850000000001 -5.00000000001527e-05 0.000158499999999978 4.99999999998835e-05 0.000158499999999994 4.99999999998835e-05 0.00115850000000001 4 1 2 4 2 3 
4 2 1 5.22833333333349e-06
-0.00151535573828185 0.00114484900355803 0.00032 -0.00101535573828185 0.00114484900355803 0.00032 -0.00101535573828185 0.00214484900355803 0.00032 -0.00151535573828185 0.00214484900355803 0.00032 -0.000250000000000083 -0.000500000000000056 0.000249999999999861 -0.000499999999999945 0.000249999999999861 0.000499999999999945 -0.000250000000000083 0.000499999999999945 3 1 2 3 4 1 

TShapes 211
Ve
1e-07
-0.00151535573828185 0.00114484900355803 2.77555756156289e-20
0 0

0101101
*
Ve
1e-07
-0.00151535573828185 0.00114484900355803 0.0001
0 0

0101101
*
Ed
 1e-10 1 1 0
1  1 0 0 0.0001
6  1 1 3
6  2 2 3
6  3 3 3
0

0101000
+211 5 -210 5 *
Ve
1e-07
-0.00101535573828185 0.00114484900355803 2.77555756156289e-20
0 0

0101101
*
Ve
1e-07
-0.00101535573828185 0.00114484900355803 0.0001
0 0

0101101
*
Ed
 1e-10 1 1 0
1  2 0 0 0.0001
6  4 1 3
6  5 4 3
6  6 5 3
0

0101000
+208 5 -207 5 *
Ed
 1e-10 1 1 0
1  3 0 0 0.0005
6  7 1 9
6  8 6 9
6  9 7 9
0

0101000
+211 10 -208 10 *
Ve
1e-07
-0.00131535573828185 0.00114484900355803 0.0001
0 0

0101101
*
Ed
 1e-10 1 1 0
1  4 0 0 0.0002
6  10 1 13
6  11 8 13
6  12 9 13
0

0101000
+210 14 -204 14 *
Ve
1e-07
-0.00121535573828185 0.00114484900355803 0.0001
0 0

0101101
*
Ed
 1.5e-10 1 1 0
1  5 0 0.0002 0.0003
6  13 1 13
6  14 10 13
6  15 11 13
0

0101000
+204 14 -202 14 *
Ed
 1e-10 1 1 0
1  6 0 0.0003 0.0005
6  16 1 13
6  17 12 13
6  18 9 13
0

0101000
+202 14 -207 14 *
Wi

0101100
+209 2 -206 2 -205 8 +203 12 +201 12 +200 12 *
Fa
0  1e-10 1 2
2  1
0101000
+199 0 *
Ve
1e-07
-0.00101535573828185 0.00214484900355803 2.77555756156289e-20
0 0

0101101
*
Ve
1e-07
-0.00101535573828185 0.00214484900355803 0.0001
0 0

0101101
*
Ed
 1e-10 1 1 0
1  7 0 0 0.0001
6  19 4 3
6  20 13 3
0

0101000
+197 5 -196 5 *
Ed
 1e-10 1 1 0
1  8 0 0 0.001
6  21 4 9
6  22 6 9
0

0101000
+208 10 -197 10 *
Ed
 1e-10 1 1 0
1  9 0 0 0.001
6  23 4 13
6  24 12 13
6  25 14 13
0

0101000
+207 14 -196 14 *
Wi

0101100
+206 2 -195 2 -194 8 +193 12 *
Fa
0  1e-10 2 2
2  4
0101000
+192 0 *
Ve
1e-07
-0.00151535573828185 0.00214484900355803 2.77555756156289e-20
0 0

0101101
*
Ve
1e-07
-0.00151535573828185 0.00214484900355803 0.0001
0 0

0101101
*
Ed
 1e-10 1 1 0
1  10 0 0 0.0001
6  26 13 3
6  27 2 3
0

0101000
+190 5 -189 5 *
Ed
 1e-10 1 1 0
1  11 0 0 0.0005
6  28 13 9
6  29 6 9
0

0101000
+197 10 -190 10 *
Ve
1e-07
-0.00121535573828185 0.00214484900355803 0.0001
0 0

0101101
*
Ed
 1e-10 1 1 0
1  12 0 0 0.0002
6  30 13 13
6  31 12 13
6  32 15 13
0

0101000
+196 14 -186 14 *
Ve
1e-07
-0.00131535573828185 0.00214484900355803 0.0001
0 0

0101101
*
Ed
 1e-10 1 1 0
1  13 0 0.0002 0.0003
6  33 13 13
6  34 10 13
0

0101000
+186 14 -184 14 *
Ed
 1e-10 1 1 0
1  14 0 0.0003 0.0005
6  35 13 13
6  36 8 13
6  37 15 13
0

0101000
+184 14 -189 14 *
Wi

0101100
+195 2 -188 2 -187 8 +185 12 +183 12 +182 12 *
Fa
0  1e-10 3 2
2  13
0101000
+181 0 *
Ed
 1e-10 1 1 0
1  15 0 0 0.001
6  38 2 9
6  39 6 9
0

0101000
+190 10 -211 10 *
Ed
 1e-10 1 1 0
1  16 0 0 0.001
6  40 2 13
6  41 8 13
6  42 16 13
0

0101000
+189 14 -210 14 *
Wi

0101100
+188 2 -209 2 -179 8 +178 12 *
Fa
0  1e-10 4 2
2  2
0101000
+177 0 *
Wi

0101100
+205 8 +194 8 +187 8 +179 8 *
Fa
0  1e-10 5 8
2  6
0101000
+175 0 *
Ed
 1e-10 1 1 0
1  17 0 0 0.001
6  43 8 21
6  44 10 21
6  45 17 21
0

0101000
+184 22 -204 22 *
Wi

0101100
+178 12 +182 12 -173 20 +203 12 *
Fa
0  1e-10 6 12
2  8
0101000
+172 0 *
Ed
 1e-10 1 1 0
1  18 0 0.001317 0.002317
6  46 10 21
6  47 12 21
6  48 18 21
0

0101000
+202 22 -186 22 *
Wi

0101100
+173 20 +183 12 +170 20 +201 12 *
Fa
0  1e-10 7 12
2  10
0101000
+169 0 *
Wi

0101100
-170 20 +185 12 +193 12 +200 12 *
Fa
0  1e-10 8 12
2  12
0101000
+167 0 *
Sh

0101100
+198 0 +191 0 +180 0 +176 0 +174 0 -171 0 -168 0 -166 0 *
So

0100000
-165 0 *
Ve
1e-07
-0.00151535573828185 -0.00017215099644197 2.77555756156289e-20
0 0

0101101
*
Ve
1e-07
-0.00151535573828185 -0.00017215099644197 0.0001
0 0

0101101
*
Ed
 1e-10 1 1 0
1  19 0 0 0.0001
6  49 19 24
6  50 20 24
0

0101000
+163 25 -162 25 *
Ve
1e-07
-0.00101535573828185 -0.00017215099644197 2.77555756156289e-20
0 0

0101101
*
Ve
1e-07
-0.00101535573828185 -0.00017215099644197 0.0001
0 0

0101101
*
Ed
 1e-10 1 1 0
1  20 0 0 0.0001
6  51 19 24
6  52 21 24
0

0101000
+160 25 -159 25 *
Ed
 1e-10 1 1 0
1  21 0 0 0.0005
6  53 19 29
6  54 22 29
0

0101000
+163 30 -160 30 *
Ve
1e-07
-0.00131535573828185 -0.00017215099644197 0.0001
0 0

0101101
*
Ed
 1e-10 1 1 0
1  22 0 0 0.0002
6  55 19 33
6  56 23 33
6  57 24 33
0

0101000
+162 34 -156 34 *
Ve
1e-07
-0.00121535573828185 -0.00017215099644197 0.0001
0 0

0101101
*
Ed
 1e-10 1 1 0
1  23 0 0.0002 0.0003
6  58 19 33
6  59 25 33
0

0101000
+156 34 -154 34 *
Ed
 1e-10 1 1 0
1  24 0 0.0003 0.0005
6  60 19 33
6  61 26 33
6  62 24 33
0

0101000
+154 34 -159 34 *
Wi

0101100
+161 23 -158 23 -157 28 +155 32 +153 32 +152 32 *
Fa
0  1e-10 9 23
2  19
0101000
+151 0 *
Ve
1e-07
-0.00101535573828185 0.00082784900355803 2.77555756156289e-20
0 0

0101101
*
Ve
1e-07
-0.00101535573828185 0.00082784900355803 0.0001
0 0

0101101
*
Ed
 1e-10 1 1 0
1  25 0 0 0.0001
6  63 21 24
6  64 27 24
6  65 5 24
0

0101000
+149 25 -148 25 *
Ed
 1e-10 1 1 0
1  26 0 0 0.001
6  66 21 29
6  67 22 29
0

0101000
+160 30 -149 30 *
Ed
 1e-10 1 1 0
1  27 0 0 0.001
6  68 21 33
6  69 26 33
6  70 28 33
0

0101000
+159 34 -148 34 *
Wi

0101100
+158 23 -147 23 -146 28 +145 32 *
Fa
0  1e-10 10 23
2  21
0101000
+144 0 *
Ve
1e-07
-0.00151535573828185 0.00082784900355803 2.77555756156289e-20
0 0

0101101
*
Ve
1e-07
-0.00151535573828185 0.00082784900355803 0.0001
0 0

0101101
*
Ed
 1e-10 1 1 0
1  28 0 0 0.0001
6  71 27 24
6  72 20 24
6  73 3 24
0

0101000
+142 25 -141 25 *
Ed
 1e-10 1 1 0
1  29 0 0 0.0005
6  74 27 29
6  75 22 29
6  76 7 29
0

0101000
+149 30 -142 30 *
Ve
1e-07
-0.00121535573828185 0.00082784900355803 0.0001
0 0

0101101
*
Ed
 1e-10 1 1 0
1  30 0 0 0.0002
6  77 27 33
6  78 26 33
6  79 29 33
0

0101000
+148 34 -138 34 *
Ve
1e-07
-0.00131535573828185 0.00082784900355803 0.0001
0 0

0101101
*
Ed
 1.5e-10 1 1 0
1  31 0 0.0002 0.0003
6  80 27 33
6  81 25 33
6  82 11 33
0

0101000
+138 34 -136 34 *
Ed
 1e-10 1 1 0
1  32 0 0.0003 0.0005
6  83 27 33
6  84 23 33
6  85 29 33
0

0101000
+136 34 -141 34 *
Wi

0101100
+147 23 -140 23 -139 28 +137 32 +135 32 +134 32 *
Fa
0  1e-10 11 23
2  27
0101000
+133 0 *
Ed
 1e-10 1 1 0
1  33 0 0 0.001
6  86 20 29
6  87 22 29
0

0101000
+142 30 -163 30 *
Ed
 1e-10 1 1 0
1  34 0 0 0.001
6  88 20 33
6  89 23 33
6  90 30 33
0

0101000
+141 34 -162 34 *
Wi

0101100
+140 23 -161 23 -131 28 +130 32 *
Fa
0  1e-10 12 23
2  20
0101000
+129 0 *
Wi

0101100
+157 28 +146 28 +139 28 +131 28 *
Fa
0  1e-10 13 28
2  22
0101000
+127 0 *
Ed
 1e-10 1 1 0
1  35 0 0.001317 0.002317
6  91 23 39
6  92 25 39
6  93 31 39
0

0101000
+136 40 -156 40 *
Wi

0101100
+130 32 +134 32 -125 38 +155 32 *
Fa
0  1e-10 14 32
2  23
0101000
+124 0 *
Ed
 1e-10 1 1 0
1  36 0 0 0.001
6  94 25 39
6  95 26 39
6  96 32 39
0

0101000
+154 40 -138 40 *
Wi

0101100
+125 38 +135 32 +122 38 +153 32 *
Fa
0  1e-10 15 32
2  25
0101000
+121 0 *
Wi

0101100
-122 38 +137 32 +145 32 +152 32 *
Fa
0  1e-10 16 32
2  26
0101000
+119 0 *
Sh

0101100
+150 0 +143 0 +132 0 +128 0 +126 0 -123 0 -120 0 -118 0 *
So

0100000
-117 0 *
Ve
1e-07
-0.00131535573828185 -0.00017215099644197 0.00012
0 0

0101101
*
Ed
 1e-10 1 1 0
1  37 0 0 2e-05
6  97 24 45
6  98 31 45
0

0101000
+156 46 -115 46 *
Ve
1e-07
-0.00121535573828185 -0.00017215099644197 0.00012
0 0

0101101
*
Ed
 1e-10 1 1 0
1  38 0 0 0.0001
6  99 24 49
6  100 33 49
0

0101000
+115 50 -113 50 *
Ed
 1e-10 1 1 0
1  39 0 0 2e-05
6  101 24 45
6  102 32 45
0

0101000
+154 46 -113 46 *
Ve
1e-07
-0.00101535573828185 -0.00017215099644197 0.00032
0 0

0101101
*
Ed
 1e-10 1 1 0
1  40 0 0 0.00022
6  103 24 51
6  104 28 51
0

0101000
+159 52 -110 52 *
Ve
1e-07
-0.00151535573828185 -0.00017215099644197 0.00032
0 0

0101101
*
Ed
 1e-10 1 1 0
1  41 0 0 0.0005
6  105 24 57
6  106 34 57
0

0101000
+108 58 -110 58 *
Ed
 1e-10 1 1 0
1  42 0 0 0.00022
6  107 24 51
6  108 30 51
0

0101000
+162 52 -108 52 *
Wi

0101100
-155 32 -114 44 -112 48 +111 44 -152 32 -109 43 +107 56 +106 43 *
Fa
0  1e-10 17 43
2  24
0101000
+105 0 *
Ve
1e-07
-0.00131535573828185 0.00082784900355803 0.00012
0 0

0101101
*
Ed
 1e-10 1 1 0
1  43 0 0.001317 0.002317
6  109 31 49
6  110 33 49
0

0101000
+103 50 -115 50 *
Ed
 1.5e-10 1 1 0
1  44 0 0 2e-05
6  111 31 59
6  112 29 59
6  113 35 59
0

0101000
+136 60 -103 60 *
Wi

0101100
-125 38 -114 44 +102 48 +101 37 *
Fa
0  1e-10 18 44
2  31
0101000
+100 0 *
Ve
1e-07
-0.00121535573828185 0.00082784900355803 0.00012
0 0

0101101
*
Ed
 1.5e-10 1 1 0
1  45 0 7.5e-05 0.000175
6  114 33 59
6  115 29 59
6  116 36 59
0

0101000
+98 60 -103 60 *
Ed
 1e-10 1 1 0
1  46 0 0 0.001
6  117 33 49
6  118 32 49
0

0101000
+113 50 -98 50 *
Wi

0101100
+102 48 +97 37 +96 48 +112 48 *
Fa
0  1e-10 19 48
2  33
0101000
+95 0 *
Ed
 1.5e-10 1 1 0
1  47 0 -2e-05 0
6  119 32 59
6  120 29 59
6  121 37 59
0

0101000
+98 60 -138 60 *
Wi

0101100
-122 38 +93 37 +96 48 +111 44 *
Fa
0  1e-10 20 44
2  32
0101000
+92 0 *
Ve
1e-07
-0.00101535573828185 0.00082784900355803 0.00032
0 0

0101101
*
Ed
 1.00000000055511e-10 1 1 0
1  48 0 0 0.00022
6  122 28 51
6  123 29 51
6  124 5 51
0

0101000
+148 52 -90 52 *
Ed
 1e-10 1 1 0
1  49 0 0 0.001
6  125 28 57
6  126 34 57
0

0101000
+110 58 -90 58 *
Wi

0101100
+109 43 -89 43 -145 32 +88 56 *
Fa
0  1e-10 21 43
2  28
0101000
+87 0 *
Ve
1e-07
-0.00151535573828185 0.00082784900355803 0.00032
0 0

0101101
*
Ed
 1e-10 1 1 0
1  50 0 0 0.0005
6  127 34 57
6  128 29 57
6  129 38 57
0

0101000
+90 58 -85 58 *
Ed
 1e-10 1 1 0
1  51 0 0 0.001
6  130 34 57
6  131 30 57
0

0101000
+85 58 -108 58 *
Wi

0101100
+107 56 +88 56 +84 56 +83 56 *
Fa
0  1e-10 22 56
2  34
0101000
+82 0 *
Ed
 1.00000000055511e-10 1 1 0
1  52 0 0 0.00022
6  132 30 51
6  133 29 51
6  134 3 51
0

0101000
+141 52 -85 52 *
Wi

0101100
+80 43 -106 43 -130 32 +83 56 *
Fa
0  1e-10 23 43
2  30
0101000
+79 0 *
Wi

0101100
-137 32 +93 37 -97 37 +101 37 -134 32 -80 43 +84 56 +89 43 *
Fa
0  1e-10 24 43
2  29
0101000
+77 0 *
Sh

0101100
-104 0 -123 0 +99 0 -94 0 +91 0 -118 0 -86 0 +81 0 -78 0 -76 0 
*
So

0100000
+75 0 *
Co

0100000
+74 0 *
Ve
1e-07
-0.00131535573828185 0.00114484900355803 0.00012
0 0

0101101
*
Ed
 1.5e-10 1 1 0
1  53 0 -2e-05 0
6  135 9 64
6  136 17 64
6  137 35 64
0

0101000
+72 65 -204 65 *
Ve
1e-07
-0.00121535573828185 0.00114484900355803 0.00012
0 0

0101101
*
Ed
 1.5e-10 1 1 0
1  54 0 7.5e-05 0.000175
6  138 9 64
6  139 39 64
6  140 36 64
0

0101000
+72 65 -70 65 *
Ed
 1.5e-10 1 1 0
1  55 0 0 2e-05
6  141 9 64
6  142 18 64
6  143 37 64
0

0101000
+202 65 -70 65 *
Ve
1e-07
-0.00101535573828185 0.00114484900355803 0.00032
0 0

0101101
*
Ed
 1.00000000055511e-10 1 1 0
1  56 0 0 0.00022
6  144 9 66
6  145 14 66
6  146 5 66
0

0101000
+207 67 -67 67 *
Ve
1e-07
-0.00151535573828185 0.00114484900355803 0.00032
0 0

0101101
*
Ed
 1e-10 1 1 0
1  57 0 0 0.0005
6  147 9 72
6  148 40 72
6  149 38 72
0

0101000
+65 73 -67 73 *
Ed
 1.00000000055511e-10 1 1 0
1  58 0 0 0.00022
6  150 9 66
6  151 16 66
6  152 3 66
0

0101000
+210 67 -65 67 *
Wi

0101100
-203 12 +71 19 -69 19 +68 19 -200 12 -66 63 +64 71 +63 63 *
Fa
0  1e-10 25 63
2  9
0101000
+62 0 *
Ve
1e-07
-0.00131535573828185 0.00214484900355803 0.00012
0 0

0101101
*
Ed
 1e-10 1 1 0
1  59 0 0 0.001
6  153 17 76
6  154 39 76
0

0101000
+60 77 -72 77 *
Ed
 1e-10 1 1 0
1  60 0 0 2e-05
6  155 17 78
6  156 15 78
0

0101000
+184 79 -60 79 *
Wi

0101100
-173 20 +71 19 +59 75 +58 74 *
Fa
0  1e-10 26 74
2  17
0101000
+57 0 *
Ve
1e-07
-0.00121535573828185 0.00214484900355803 0.00012
0 0

0101101
*
Ed
 1e-10 1 1 0
1  61 0 0 0.0001
6  157 39 76
6  158 15 76
0

0101000
+55 77 -60 77 *
Ed
 1e-10 1 1 0
1  62 0 0.001317 0.002317
6  159 39 76
6  160 18 76
0

0101000
+70 77 -55 77 *
Wi

0101100
+59 75 +54 75 +53 75 +69 19 *
Fa
0  1e-10 27 75
2  39
0101000
+52 0 *
Ed
 1e-10 1 1 0
1  63 0 0 2e-05
6  161 18 78
6  162 15 78
0

0101000
+186 79 -55 79 *
Wi

0101100
-170 20 -50 74 +53 75 +68 19 *
Fa
0  1e-10 28 74
2  18
0101000
+49 0 *
Ve
1e-07
-0.00101535573828185 0.00214484900355803 0.00032
0 0

0101101
*
Ed
 1e-10 1 1 0
1  64 0 0 0.00022
6  163 14 66
6  164 15 66
0

0101000
+196 67 -47 67 *
Ed
 1e-10 1 1 0
1  65 0 0 0.001
6  165 14 72
6  166 40 72
0

0101000
+67 73 -47 73 *
Wi

0101100
+66 63 -46 63 -193 12 +45 71 *
Fa
0  1e-10 29 63
2  14
0101000
+44 0 *
Ve
1e-07
-0.00151535573828185 0.00214484900355803 0.00032
0 0

0101101
*
Ed
 1e-10 1 1 0
1  66 0 0 0.0005
6  167 40 72
6  168 15 72
0

0101000
+47 73 -42 73 *
Ed
 1e-10 1 1 0
1  67 0 0 0.001
6  169 40 72
6  170 16 72
0

0101000
+42 73 -65 73 *
Wi

0101100
+64 71 +45 71 +41 71 +40 71 *
Fa
0  1e-10 30 71
2  40
0101000
+39 0 *
Ed
 1e-10 1 1 0
1  68 0 0 0.00022
6  171 16 66
6  172 15 66
0

0101000
+189 67 -42 67 *
Wi

0101100
+37 63 -63 63 -178 12 +40 71 *
Fa
0  1e-10 31 63
2  16
0101000
+36 0 *
Wi

0101100
-185 12 -50 74 -54 75 +58 74 -182 12 -37 63 +41 71 +46 63 *
Fa
0  1e-10 32 63
2  15
0101000
+34 0 *
Sh

0101100
-61 0 -171 0 +56 0 -51 0 +48 0 -166 0 -43 0 +38 0 -35 0 -33 0 
*
So

0100000
+32 0 *
Co

0100000
+31 0 *
Ed
 1e-10 1 1 0
1  69 0 0 0.000317
6  173 3 87
6  174 7 87
0

0101000
+211 88 -142 88 *
Ed
 1e-10 1 1 0
1  70 0 0 0.000317
6  175 3 91
6  176 38 91
0

0101000
+65 92 -85 92 *
Wi

0101100
+209 2 +63 63 -140 23 -80 43 -29 86 +28 90 *
Fa
0  1e-10 33 83
2  3
0101000
+27 0 *
Ed
 1e-10 1 1 0
1  71 0 0 0.000317
6  177 7 87
6  178 5 87
0

0101000
+149 88 -208 88 *
Wi

0101100
-139 28 +25 86 -205 8 +29 86 *
Fa
0  1e-10 34 86
2  7
0101000
+24 0 *
Ed
 1e-10 1 1 0
1  72 0 0 0.000317
6  179 38 91
6  180 5 91
0

0101000
+90 92 -67 92 *
Wi

0101100
-84 56 +22 90 -64 71 +28 90 *
Fa
0  1e-10 35 90
2  38
0101000
+21 0 *
Wi

0101100
+147 23 +89 43 -206 2 -66 63 -25 86 +22 90 *
Fa
0  1e-10 36 83
2  5
0101000
+19 0 *
Ed
 1e-10 1 1 0
1  73 0 0.001 0.001317
6  181 11 96
6  182 35 96
0

0101000
+204 97 -136 97 *
Ed
 1e-10 1 1 0
1  74 0 0.001 0.001317
6  183 11 96
6  184 37 96
0

0101000
+138 97 -202 97 *
Wi

0101100
+17 95 -201 12 +16 95 -135 32 *
Fa
0  1e-10 37 95
2  11
0101000
+15 0 *
Ed
 1e-10 1 1 0
1  75 0 0.001 0.001317
6  185 35 100
6  186 36 100
0

0101000
+72 101 -103 101 *
Wi

0101100
-17 95 -101 37 +13 99 -71 19 *
Fa
0  1e-10 38 98
2  35
0101000
+12 0 *
Ed
 1e-10 1 1 0
1  76 0 0.001 0.001317
6  187 36 100
6  188 37 100
0

0101000
+98 101 -70 101 *
Wi

0101100
+13 99 -69 19 +10 99 -97 37 *
Fa
0  1e-10 39 99
2  36
0101000
+9 0 *
Wi

0101100
-16 95 -68 19 +10 99 -93 37 *
Fa
0  1e-10 40 98
2  37
0101000
+7 0 *
Sh

0101100
+132 0 +76 0 -26 0 -23 0 +20 0 -18 0 +14 0 +11 0 -8 0 +6 0 
+198 0 +61 0 *
So

0100000
+5 0 *
Co

0100000
+4 0 *
Co

0100000
+164 0 +116 0 +73 0 +30 0 +3 0 *
Co

1100000
+2 1 *

+1 0 