DBRep_DrawableShape

CASCADE Topology V1, (c) Matra-Datavision
Locations 30
1
              1               0               0               0 
              0               1               0               0 
              0               0               1               0 
1
              1               0               0               0 
              0               1               0               0 
              0               0               1               0 
2  2 -1 0
1
              1               0               0               0 
              0               1               0               0 
              0               0               1               0 
2  4 -1 2 -1 0
1
              1               0               0               0 
              0               1               0               0 
              0               0               1               0 
1
              1               0               0          -11.43 
              0               1               0           -5.08 
              0               0               1               0 
2  6 1 7 1 2 1 0
2  2 -1 7 -1 6 -1 0
2  4 -1 2 -1 7 -1 6 -1 0
1
              1               0               0               0 
              0               1               0               0 
              0               0               1              40 
2  6 1 7 1 11 1 2 1 0
2  2 -1 11 -1 7 -1 6 -1 0
2  4 -1 2 -1 11 -1 7 -1 6 -1 0
1
2.22044604925031e-16              -0              -1             150 
              0               1               0               0 
              1               0 2.22044604925031e-16           51.43 
2  15 -1 0
2  4 -1 15 -1 0
1
              1               0               0               0 
              0               1               0               0 
              0               0               1               0 
1
              1               0               0          -11.43 
              0               1               0           -5.08 
              0               0               1             100 
2  18 1 19 1 15 1 0
2  15 -1 19 -1 18 -1 0
2  4 -1 15 -1 19 -1 18 -1 0
1
              1               0               0               0 
              0               1               0               0 
              0               0               1             100 
2  18 1 19 1 23 1 15 1 0
2  15 -1 23 -1 19 -1 18 -1 0
2  4 -1 15 -1 23 -1 19 -1 18 -1 0
2  18 1 19 1 0
2  19 -1 18 -1 0
2  18 1 19 1 23 1 0
2  23 -1 19 -1 18 -1 0
Curve2ds 0
Curves 26
1 -0.011430000000000004 -0.005080000000000002 0 0 0 1 
1 0.011430000000000004 -0.005080000000000002 0 0 0 1 
1 11.418569999999999 5.0749199999999997 0 1 0 0 
1 11.418569999999999 5.0749199999999997 -39.960000000000001 1 0 0 
1 0.011430000000000004 0.005080000000000002 0 0 0 1 
1 11.441429999999999 5.0749199999999997 0 0 1 0 
1 11.441429999999999 5.0749199999999997 -39.960000000000001 0 1 0 
1 -0.011430000000000004 0.005080000000000002 0 0 0 1 
1 11.441429999999999 5.0850799999999996 0 -1 0 0 
1 11.441429999999999 5.0850799999999996 -39.960000000000001 -1 0 0 
1 11.418569999999999 5.0850799999999996 0 0 -1 0 
1 11.418569999999999 5.0850799999999996 -39.960000000000001 0 -1 0 
1 -51.389999999999993 -0.005080000000000002 149.94999999999999 0 0 1 
1 -51.389999999999993 -0.005080000000000002 149.94999999999999 0 0 1 
1 -51.367139999999999 -0.005080000000000002 149.94999999999999 0 0 1 
1 -39.960000000000001 5.0749199999999997 49.949999999999996 1 0 0 
1 -39.959999999999994 5.0749199999999997 -49.95000000000001 1 0 0 
1 -51.367139999999999 0.005080000000000002 149.94999999999999 0 0 1 
1 -39.937139999999999 5.0749199999999997 49.949999999999996 0 1 0 
1 -39.937139999999992 5.0749199999999997 -49.95000000000001 0 1 0 
1 -51.389999999999993 0.005080000000000002 149.94999999999999 0 0 1 
1 -51.389999999999993 0.005080000000000002 149.94999999999999 0 0 1 
1 -39.937139999999999 5.0850799999999996 49.949999999999996 -1 0 0 
1 -39.937139999999992 5.0850799999999996 -49.95000000000001 -1 0 0 
1 -39.960000000000001 5.0850799999999996 49.949999999999996 0 -1 0 
1 -39.959999999999994 5.0850799999999996 -49.95000000000001 0 -1 0 
Polygon3D 0
PolygonOnTriangulations 56
2 1 2 
p 0.000288366666666683 1 0 0.04 
2 4 3 
p 0.000288366666666683 1 0 0.04 
2 4 3 
p 0.000288366666666683 1 0 0.04 
2 1 2 
p 0.000288366666666683 1 0 0.04 
2 1 4 
p 0.000288366666666683 1 0 0.02286 
2 1 2 
p 0.000288366666666683 1 0 0.02286 
2 2 3 
p 0.000288366666666683 1 0 0.02286 
2 1 2 
p 0.000288366666666683 1 0 0.02286 
2 3 2 
p 0.000288366666666683 1 0 0.02286 
2 4 3 
p 0.000288366666666683 1 0 0.04 
2 1 2 
p 0.000288366666666683 1 0 0.04 
2 1 4 
p 0.000288366666666683 1 0 0.01016 
2 2 3 
p 0.000288366666666683 1 0 0.01016 
2 2 3 
p 0.000288366666666683 1 0 0.01016 
2 2 3 
p 0.000288366666666683 1 0 0.01016 
2 4 3 
p 0.000288366666666683 1 0 0.01016 
2 4 3 
p 0.000288366666666683 1 0 0.04 
2 1 2 
p 0.000288366666666683 1 0 0.04 
2 1 4 
p 0.000288366666666683 1 0 0.02286 
2 3 4 
p 0.000288366666666683 1 0 0.02286 
2 2 3 
p 0.000288366666666683 1 0 0.02286 
2 3 4 
p 0.000288366666666683 1 0 0.02286 
2 5 4 
p 0.000288366666666683 1 0 0.02286 
2 1 4 
p 0.000288366666666683 1 0 0.01016 
2 4 1 
p 0.000288366666666683 1 0 0.01016 
2 2 3 
p 0.000288366666666683 1 0 0.01016 
2 4 1 
p 0.000288366666666683 1 0 0.01016 
2 1 2 
p 0.000288366666666683 1 0 0.01016 
2 1 2 
p 0.000288366666666683 1 0 0.03857 
2 2 4 
p 0.000288366666666683 1 0 0.03857 
2 3 4 
p 0.000288366666666683 1 0.06143 0.1 
2 2 4 
p 0.000288366666666683 1 0.06143 0.1 
2 6 5 
p 0.000288366666666683 1 0 0.1 
2 1 2 
p 0.000288366666666683 1 0 0.1 
2 1 6 
p 0.000288366666666683 1 0 0.02286 
2 1 2 
p 0.000288366666666683 1 0 0.02286 
2 4 5 
p 0.000288366666666683 1 0 0.02286 
2 1 2 
p 0.000288366666666683 1 0 0.02286 
2 4 3 
p 0.000288366666666683 1 0 0.1 
2 1 2 
p 0.000288366666666683 1 0 0.1 
2 1 4 
p 0.000288366666666683 1 0 0.01016 
2 2 3 
p 0.000288366666666683 1 0 0.01016 
2 2 3 
p 0.000288366666666683 1 0 0.01016 
2 2 3 
p 0.000288366666666683 1 0 0.01016 
2 6 5 
p 0.000288366666666683 1 0 0.03857 
2 1 3 
p 0.000288366666666683 1 0 0.03857 
2 4 3 
p 0.000288366666666683 1 0.06143 0.1 
2 1 3 
p 0.000288366666666683 1 0.06143 0.1 
2 1 6 
p 0.000288366666666683 1 0 0.02286 
2 3 4 
p 0.000288366666666683 1 0 0.02286 
2 2 3 
p 0.000288366666666683 1 0 0.02286 
2 3 4 
p 0.000288366666666683 1 0 0.02286 
2 1 2 
p 0.000288366666666683 1 0 0.01016 
2 4 1 
p 0.000288366666666683 1 0 0.01016 
2 3 4 
p 0.000288366666666683 1 0 0.01016 
2 4 1 
p 0.000288366666666683 1 0 0.01016 
Surfaces 13
1 -0.011430000000000004 -0.005080000000000002 0 0 1 0 1 0 0 0 0 -1 
1 0.011430000000000004 -0.005080000000000002 0 -1 0 0 0 1 0 0 0 -1 
1 0.011430000000000004 0.005080000000000002 0 0 -1 0 -1 0 0 -0 -0 -1 
1 -0.011430000000000004 0.005080000000000002 0 1 0 0 0 -1 0 0 0 -1 
1 11.43 5.0800000000000001 0 0 0 1 1 0 0 0 1 0 
1 11.43 5.0800000000000001 -39.960000000000001 0 0 1 1 0 0 0 1 0 
1 -51.389999999999993 -0.005080000000000002 149.94999999999999 0 1 0 1 0 0 0 0 -1 
1 -51.367139999999999 -0.005080000000000002 149.94999999999999 -1 0 0 0 1 0 0 0 -1 
1 -51.367139999999999 0.005080000000000002 149.94999999999999 0 -1 0 -1 0 0 -0 -0 -1 
1 -51.389999999999993 0.005080000000000002 149.94999999999999 1 0 0 0 -1 0 0 0 -1 
1 -51.389999999999993 0.005080000000000002 149.94999999999999 1 0 0 0 -1 0 0 0 -1 
1 -39.948570000000004 5.0800000000000001 49.949999999999996 0 0 1 1 0 0 0 1 0 
1 -39.948569999999997 5.0800000000000001 -49.95000000000001 0 0 1 1 0 0 0 1 0 
Triangulations 13
4 2 1 0.000288366666666683
-0.01143 -0.00508 0 -0.01143 -0.00508 0.04 0.01143 -0.00508 0.04 0.01143 -0.00508 0 -7.12971348626468e-16 0 -7.12971348626468e-16 -0.0399999999999991 0.02286 -0.04 0.0228599999999993 0 4 1 2 4 2 3 
4 2 1 0.000288366666666683
-0.01143 0.00508 0 -0.01143 0.00508 0.04 -0.01143 -0.00508 0.04 -0.01143 -0.00508 0 4.7271214720368e-16 0 4.7271214720368e-16 -0.0399999999999991 0.01016 -0.04 0.0101600000000005 0 4 1 2 4 2 3 
4 2 1 0.000288366666666683
0.01143 -0.00508 0 0.01143 -0.00508 0.04 0.01143 0.00508 0.04 0.01143 0.00508 0 -4.15466272496445e-16 0 -4.15466272496445e-16 -0.0399999999999991 0.01016 -0.04 0.0101599999999996 0 4 1 2 4 2 3 
4 2 1 0.000288366666666683
11.41857 5.07492 0 11.44143 5.07492 0 11.44143 5.08508 0 11.41857 5.08508 0 -0.0114300000000007 -0.00508000000000047 0.0114299999999989 -0.00508000000000042 0.0114299999999989 0.00507999999999953 -0.0114300000000007 0.00507999999999953 3 1 2 3 4 1 
4 2 1 0.000288366666666683
-0.01143 -0.00508 0.04 0.01143 -0.00508 0.04 0.01143 0.00508 0.04 -0.01143 0.00508 0.04 -0.0114300000000007 -0.00508000000000047 0.0114299999999989 -0.00508000000000042 0.0114299999999989 0.00507999999999953 -0.0114300000000007 0.00507999999999953 3 1 2 3 4 1 
6 4 1 0.000288366666666683
0.05 -0.00508 0.04 0.01143 -0.00508 0.04 -0.01143 -0.00508 0.04 -0.05 -0.00508 0.04 -0.05 -0.00508 0.06286 0.05 -0.00508 0.06286 -7.105427357601e-15 0 -7.10035141793242e-15 -0.0385700000000014 0 -0.06143 0 -0.0999999999999943 0.0228599999999943 -0.1 0.0228599999999929 0 3 4 5 6 1 2 6 2 3 6 3 5 
4 2 1 0.000288366666666683
0.01143 0.00508 0 0.01143 0.00508 0.04 -0.01143 0.00508 0.04 -0.01143 0.00508 0 1.06338549077378e-15 0 1.06338549077378e-15 -0.0399999999999991 0.02286 -0.04 0.0228600000000011 0 4 1 2 4 2 3 
4 2 1 0.000288366666666683
0.05 0.00508 0.04 0.05 -0.00508 0.04 0.01143 0.00508 0.04 0.01143 -0.00508 0.04 0 0 0.01016 0 4.14598910758457e-16 -0.0385700000000213 0.01016 -0.03857 1 3 4 2 1 4 
6 4 1 0.000288366666666683
0.05 0.00508 0.06286 -0.05 0.00508 0.06286 -0.05 0.00508 0.04 -0.01143 0.00508 0.04 0.01143 0.00508 0.04 0.05 0.00508 0.04 0 0 -7.105427357601e-15 -0.0999999999999943 0.0228599999999943 -0.1 0.0228600000000014 -0.0614300000000213 0.0228599999999943 -0.03857 0.02286 0 4 2 3 5 2 4 1 2 5 6 1 5 
4 2 1 0.000288366666666683
-0.01143 0.00508 0.04 -0.01143 -0.00508 0.04 -0.05 0.00508 0.04 -0.05 -0.00508 0.04 0 -0.06143 0.01016 -0.06143 4.7271214720368e-16 -0.0999999999999943 0.01016 -0.1 2 1 3 2 3 4 
4 2 1 0.000288366666666683
-51.36714 -0.00508 149.95 -51.36714 -0.00508 150.05 -51.36714 0.00508 150.05 -51.36714 0.00508 149.95 -4.15466272496445e-16 0 -4.15466272496445e-16 -0.0999999999999943 0.01016 -0.1 0.0101599999999996 0 4 1 2 4 2 3 
4 2 1 0.000288366666666683
-39.96 5.07492 49.95 -39.93714 5.07492 49.95 -39.93714 5.08508 49.95 -39.96 5.08508 49.95 -0.0114299999999972 -0.00508000000000047 0.0114300000000043 -0.00508000000000042 0.0114300000000043 0.00507999999999953 -0.0114299999999972 0.00507999999999953 3 1 2 3 4 1 
4 2 1 0.000288366666666683
-39.96 5.07492 -49.95 -39.93714 5.07492 -49.95 -39.93714 5.08508 -49.95 -39.96 5.08508 -49.95 -0.0114299999999972 -0.00508000000000047 0.0114300000000043 -0.00508000000000042 0.0114300000000043 0.00507999999999953 -0.0114299999999972 0.00507999999999953 3 1 2 3 4 1 

TShapes 74
Ve
1e-07
-0.01143 -0.00508 0
0 0

0101101
*
Ve
1e-07
-0.01143 -0.00508 0.04
0 0

0101101
*
Ed
 1e-10 1 1 0
1  1 0 0 0.04
6  1 1 3
6  2 2 3
0

0101000
+74 5 -73 5 *
Ve
1e-07
0.01143 -0.00508 0
0 0

0101101
*
Ve
1e-07
0.01143 -0.00508 0.04
0 0

0101101
*
Ed
 1e-10 1 1 0
1  2 0 0 0.04
6  3 1 3
6  4 3 3
0

0101000
+71 5 -70 5 *
Ed
 1e-10 1 1 0
1  3 0 0 0.02286
6  5 1 9
6  6 4 0
0

0101000
+74 10 -71 10 *
Ed
 1.00000007944109e-10 1 1 0
1  4 0 0 0.02286
6  7 1 13
6  8 5 13
6  9 6 13
0

0101000
+73 14 -70 14 *
Wi

0101100
+72 2 -69 2 -68 8 +67 12 *
Fa
0  1e-10 1 2
2  1
0101000
+66 0 *
Ve
1e-07
0.01143 0.00508 0
0 0

0101101
*
Ve
1e-07
0.01143 0.00508 0.04
0 0

0101101
*
Ed
 1e-10 1 1 0
1  5 0 0 0.04
6  10 3 3
6  11 7 3
0

0101000
+64 5 -63 5 *
Ed
 1e-10 1 1 0
1  6 0 0 0.01016
6  12 3 9
6  13 4 0
0

0101000
+71 10 -64 10 *
Ed
 1.00000007105427e-10 1 1 0
1  7 0 0 0.01016
6  14 3 13
6  15 5 13
6  16 8 13
0

0101000
+70 14 -63 14 *
Wi

0101100
+69 2 -62 2 -61 8 +60 12 *
Fa
0  1e-10 2 2
2  3
0101000
+59 0 *
Ve
1e-07
-0.01143 0.00508 0
0 0

0101101
*
Ve
1e-07
-0.01143 0.00508 0.04
0 0

0101101
*
Ed
 1e-10 1 1 0
1  8 0 0 0.04
6  17 7 3
6  18 2 3
0

0101000
+57 5 -56 5 *
Ed
 1e-10 1 1 0
1  9 0 0 0.02286
6  19 7 9
6  20 4 0
0

0101000
+64 10 -57 10 *
Ed
 1.00000007944109e-10 1 1 0
1  10 0 0 0.02286
6  21 7 13
6  22 5 13
6  23 9 13
0

0101000
+63 14 -56 14 *
Wi

0101100
+62 2 -55 2 -54 8 +53 12 *
Fa
0  1e-10 3 2
2  7
0101000
+52 0 *
Ed
 1e-10 1 1 0
1  11 0 0 0.01016
6  24 2 9
6  25 4 0
0

0101000
+57 10 -74 10 *
Ed
 1e-10 1 1 0
1  12 0 0 0.01016
6  26 2 13
6  27 5 13
6  28 10 13
0

0101000
+56 14 -73 14 *
Wi

0101100
+55 2 -72 2 -50 8 +49 12 *
Fa
0  1e-10 4 2
2  2
0101000
+48 0 *
Wi

0101100
+68 0 +61 0 +54 0 +50 0 *
Fa
0  1e-10 5 0
2  4
0101000
+46 0 *
Wi

0101100
+67 12 +60 12 +53 12 +49 12 *
Fa
0  1e-10 6 12
2  5
0101000
+44 0 *
Sh

0101100
+65 0 +58 0 +51 0 +47 0 +45 8 -43 0 *
So

0100000
-42 0 *
Ve
1e-07
0.05 -0.00508 0.04
0 0

0101101
*
Ed
 1e-10 1 1 0
1  13 0 0 0.03857
6  29 6 16
6  30 8 16
0

0101000
+40 17 -70 17 *
Ve
1e-07
-0.05 -0.00508 0.04
0 0

0101101
*
Ed
 1e-10 1 1 0
1  14 0 0.06143 0.1
6  31 6 16
6  32 10 16
0

0101000
+73 17 -38 17 *
Ve
1e-07
0.05 -0.00508 0.06286
0 0

0101101
*
Ve
1e-07
-0.05 -0.00508 0.06286
0 0

0101101
*
Ed
 1e-10 1 1 0
1  15 0 0 0.1
6  33 6 16
6  34 11 0
0

0101000
+36 17 -35 17 *
Ed
 1e-10 1 1 0
1  16 0 0 0.02286
6  35 6 21
6  36 12 0
0

0101000
+40 22 -36 22 *
Ed
 1e-10 1 1 0
1  17 0 0 0.02286
6  37 6 25
6  38 13 0
0

0101000
+38 26 -35 26 *
Wi

0101100
+39 15 -67 12 +37 15 -34 15 -33 20 +32 24 *
Fa
0  1e-10 7 15
2  6
0101000
+31 0 *
Ve
1e-07
0.05 0.00508 0.06286
0 0

0101101
*
Ve
1e-07
-0.05 0.00508 0.06286
0 0

0101101
*
Ed
 1e-10 1 1 0
1  18 0 0 0.1
6  39 11 0
6  40 9 16
0

0101000
+29 17 -28 17 *
Ed
 1e-10 1 1 0
1  19 0 0 0.01016
6  41 11 28
6  42 12 0
0

0101000
+36 22 -29 22 *
Ed
 1e-10 1 1 0
1  20 0 0 0.01016
6  43 11 30
6  44 13 0
0

0101000
+35 26 -28 26 *
Wi

0101100
+34 0 -27 0 -26 27 +25 29 *
Fa
0  1e-10 8 0
2  11
0101000
+24 0 *
Ve
1e-07
0.05 0.00508 0.04
0 0

0101101
*
Ed
 1e-10 1 1 0
1  21 0 0 0.03857
6  45 9 16
6  46 8 16
0

0101000
+22 17 -63 17 *
Ve
1e-07
-0.05 0.00508 0.04
0 0

0101101
*
Ed
 1e-10 1 1 0
1  22 0 0.06143 0.1
6  47 9 16
6  48 10 16
0

0101000
+56 17 -20 17 *
Ed
 1e-10 1 1 0
1  23 0 0 0.02286
6  49 9 21
6  50 12 0
0

0101000
+29 22 -22 22 *
Ed
 1e-10 1 1 0
1  24 0 0 0.02286
6  51 9 25
6  52 13 0
0

0101000
+28 26 -20 26 *
Wi

0101100
+27 15 -21 15 -53 12 -19 15 -18 20 +17 24 *
Fa
0  1e-10 9 15
2  9
0101000
+16 0 *
Ed
 1e-10 1 1 0
1  25 0 0 0.01016
6  53 8 21
6  54 12 0
0

0101000
+22 22 -40 22 *
Wi

0101100
-14 20 -39 15 -60 12 +21 15 *
Fa
0  1e-10 10 15
2  8
0101000
+13 0 *
Ed
 1e-10 1 1 0
1  26 0 0 0.01016
6  55 10 25
6  56 13 0
0

0101000
+20 26 -38 26 *
Wi

0101100
-49 12 -37 15 +11 24 +19 15 *
Fa
0  1e-10 11 15
2  10
0101000
+10 0 *
Wi

0101100
+33 0 +26 0 +18 0 +14 0 *
Fa
0  1e-10 12 0
2  12
0101000
+8 0 *
Wi

0101100
+32 0 +25 0 +17 0 +11 0 *
Fa
0  1e-10 13 0
2  13
0101000
+6 0 *
Sh

0101100
+30 0 +23 15 +15 0 +12 0 +43 0 +9 0 +7 20 -5 24 *
So

0100000
-4 0 *
Co

0100000
+41 0 +3 0 *
Co

1100000
+2 1 *

+1 0 