DBRep_DrawableShape

CASCADE Topology V1, (c) Matra-Datavision
Locations 55
1
              1               0               0 -3.25260651745651e-19 
              0               1               0         -0.0999 
              0               0               1           4.995 
1
              1               0               0               0 
              0               1               0               0 
              0               0               1               0 
1
              1               0               0               0 
              0               1               0               0 
              0               0               1               0 
2  3 -1 2 -1 0
1
              1               0               0               0 
              0               1               0               0 
              0               0               1               0 
1
              1               0               0           -0.65 
              0               1               0            -0.1 
              0               0               1               0 
2  5 1 6 1 0
2  3 -1 2 -1 6 -1 5 -1 0
1
              1               0               0               0 
              0               1               0               0 
              0               0               1               2 
2  5 1 6 1 9 1 0
2  3 -1 2 -1 9 -1 6 -1 5 -1 0
2  5 1 6 1 2 1 0
2  5 1 6 1 9 1 2 1 0
1
              1               0               0               0 
              0               1               0               0 
              0               0               1               0 
1
              1               0               0               0 
              0               1               0               0 
              0               0               1               0 
1
              1               0               0               0 
              0               1               0               0 
              0               0               1               0 
2  14 1 15 1 16 1 0
2  3 -1 16 -1 15 -1 14 -1 0
1
              1               0               0               0 
              0               1               0               0 
              0               0               1               0 
1
              1               0               0               0 
              0               1               0               0 
              0               0               1               0 
1
              1               0               0               0 
              0               1               0               0 
              0               0               1               0 
1
              1               0               0               0 
              0               1               0               0 
              0               0               1               0 
2  19 1 20 1 21 1 22 1 16 1 0
2  3 -1 16 -1 22 -1 21 -1 20 -1 19 -1 0
1
              1               0               0               0 
              0               1               0               0 
              0               0               1               0 
1
              1               0               0           -0.65 
              0               1               0               0 
              0               0               1               0 
1
              1               0               0               0 
              0               1               0               0 
              0               0               1               0 
1
              1               0               0               0 
              0               1               0               0 
              0               0               1               0 
2  25 1 26 1 27 1 28 1 21 1 22 1 16 1 0
2  3 -1 16 -1 22 -1 21 -1 28 -1 27 -1 26 -1 25 -1 0
1
              1               0               0               0 
              0               1               0               0 
              0               0               1               0 
1
              1               0               0            0.05 
              0               1               0               0 
              0               0               1               0 
2  31 1 32 1 14 1 15 1 16 1 0
2  3 -1 16 -1 15 -1 14 -1 32 -1 31 -1 0
1
              1               0               0               0 
              0               1               0               0 
              0               0               1               0 
1
              1               0               0           -0.15 
              0               1               0               0 
              0               0               1               0 
2  35 1 36 1 19 1 20 1 21 1 22 1 16 1 0
2  3 -1 16 -1 22 -1 21 -1 20 -1 19 -1 36 -1 35 -1 0
1
              1               0               0               0 
              0               1               0               0 
              0               0               1               2 
2  35 1 36 1 39 1 19 1 20 1 21 1 22 1 16 1 0
2  3 -1 16 -1 22 -1 21 -1 20 -1 19 -1 39 -1 36 -1 35 -1 0
1
              1               0               0               0 
              0               1               0               0 
              0               0               1               2 
2  25 1 26 1 42 1 27 1 28 1 21 1 22 1 16 1 0
2  3 -1 16 -1 22 -1 21 -1 28 -1 27 -1 42 -1 26 -1 25 -1 0
1
              1               0               0               0 
              0               1               0               0 
              0               0               1               2 
2  31 1 32 1 45 1 14 1 15 1 16 1 0
2  3 -1 16 -1 15 -1 14 -1 45 -1 32 -1 31 -1 0
2  27 1 28 1 21 1 22 1 16 1 0
2  3 -1 16 -1 22 -1 21 -1 28 -1 27 -1 0
2  25 1 26 1 0
2  25 1 26 1 42 1 0
2  31 1 32 1 0
2  31 1 32 1 45 1 0
2  35 1 36 1 0
2  35 1 36 1 39 1 0
Curve2ds 0
Curves 48
1 -0.0006500000000000003 -0.00010000000000000005 0 0 0 1 
1 0.0006500000000000003 -0.00010000000000000005 0 0 0 1 
1 0.64934999999999998 0.099900000000000003 0 1 0 0 
1 0.64934999999999998 0.099900000000000003 -1.998 1 0 0 
1 0.0006500000000000003 0 0 0 0 1 
1 0.65064999999999995 0.099900000000000003 0 0 1 0 
1 0.65064999999999995 0.099900000000000003 -1.998 0 1 0 
1 0.65064999999999995 0.10000000000000001 0 -1 0 0 
1 0.0001500000000000001 0 0 0 0 1 
1 0.65064999999999995 0.10000000000000001 -1.998 -1 0 0 
1 0.65064999999999995 0.10000000000000001 0 -1 0 0 
1 5.0000000000000023e-05 0 0 0 0 1 
1 0.65064999999999995 0.10000000000000001 -1.998 -1 0 0 
1 0.65064999999999995 0.10000000000000001 0 -1 0 0 
1 -5.0000000000000009e-05 0 0 0 0 1 
1 0.65064999999999995 0.10000000000000001 -1.998 -1 0 0 
1 0.65064999999999995 0.10000000000000001 0 -1 0 0 
1 -0.00015000000000000007 0 0 0 0 1 
1 0.65064999999999995 0.10000000000000001 -1.998 -1 0 0 
1 0.65064999999999995 0.10000000000000001 0 -1 0 0 
1 -0.0006500000000000003 0 0 0 0 1 
1 0.65064999999999995 0.10000000000000001 -1.998 -1 0 0 
1 0.64934999999999998 0.10000000000000001 0 0 -1 0 
1 0.64934999999999998 0.10000000000000001 -1.998 0 -1 0 
1 0.65064999999999995 0.00010000000000000005 0 -1 0 0 
1 0.65064999999999995 0 0 0 1 0 
1 -0.049855459831449518 1.4999999999999997e-05 0 0.34203551801558418 -0.93968702471397947 0 
1 -0.04994454044648601 1.5000000000000005e-05 0 1 -9.9999999999999998e-17 0 
1 -0.049950000000000001 0 0 0.34202014332566949 0.93969262078590821 0 
1 0.14994454016855047 1.4999999999999997e-05 0 0.34203551801558418 -0.93968702471397947 0 
1 0.14985545955351398 1.5000000000000005e-05 0 1 -9.9999999999999998e-17 0 
1 0.14984999999999998 0 0 0.34202014332566949 0.93969262078590821 0 
1 0.64934999999999998 0.00010000000000000005 0 0 -1 0 
1 -0.00014454044648600707 1.5000000000000005e-05 0 0 0 1 
1 0.14984999999999998 0 -1.998 0.34202014332566949 0.93969262078590821 0 
1 0.65064999999999995 0.00010000000000000005 -1.998 -1 0 0 
1 0.65064999999999995 0 -1.998 0 1 0 
1 -0.049855459831449518 1.4999999999999997e-05 -1.998 0.34203551801558418 -0.93968702471397947 0 
1 -0.04994454044648601 1.5000000000000005e-05 -1.998 1 -9.9999999999999998e-17 0 
1 -0.049950000000000001 0 -1.998 0.34202014332566949 0.93969262078590821 0 
1 0.14994454016855047 1.4999999999999997e-05 -1.998 0.34203551801558418 -0.93968702471397947 0 
1 0.14985545955351398 1.5000000000000005e-05 -1.998 1 -9.9999999999999998e-17 0 
1 0.64934999999999998 0.00010000000000000005 -1.998 0 -1 0 
1 -0.0006500000000000003 0.00010000000000000005 0 0 0 1 
1 0.0006500000000000003 0.00010000000000000005 0 0 0 1 
1 0.00014454016855048609 1.5000000000000005e-05 0 0 0 1 
1 5.5459553513993028e-05 1.5000000000000005e-05 0 0 0 1 
1 -5.5459831449514021e-05 1.5000000000000005e-05 0 0 0 1 
Polygon3D 0
PolygonOnTriangulations 0
Surfaces 21
1 -0.0006500000000000003 -0.00010000000000000005 0 0 1 0 1 0 0 0 0 -1 
1 0.0006500000000000003 -0.00010000000000000005 0 -1 0 0 0 1 0 0 0 -1 
1 0.0006500000000000003 0 0 0 -1 0 -1 0 0 -0 -0 -1 
1 0.0006500000000000003 0 0 0 -1 0 -1 0 0 -0 -0 -1 
1 0.0006500000000000003 0 0 0 -1 0 -1 0 0 -0 -0 -1 
1 0.0006500000000000003 0 0 0 -1 0 -1 0 0 -0 -0 -1 
1 0.0006500000000000003 0 0 0 -1 0 -1 0 0 -0 -0 -1 
1 -0.0006500000000000003 0 0 1 0 0 0 -1 0 0 0 -1 
1 0.65000000000000002 0.099949999999999997 0 0 0 1 1 0 0 0 1 0 
1 0.65000000000000002 0.099949999999999997 -1.998 0 0 1 1 0 0 0 1 0 
1 0.65000000000000002 5.000000000000003e-05 0 0 0 1 1 0 0 0 1 0 
1 -0.00015000000000000007 0 0 -0.93969262078590821 0.34202014332566949 0 0.34202014332566949 0.93969262078590821 0 0 0 -1 
1 0.65000000000000002 5.000000000000003e-05 -1.998 0 0 1 1 0 0 0 1 0 
1 -0.0006500000000000003 0.00010000000000000005 0 1 0 0 0 -1 0 0 0 -1 
1 0.0006500000000000003 0.00010000000000000005 0 0 -1 0 -1 0 0 -0 -0 -1 
1 0.0006500000000000003 0 0 -1 0 0 0 1 0 0 0 -1 
1 0.0001445401685504859 1.4999999999999997e-05 0 0.93968702471397947 0.34203551801558418 0 0.34203551801558418 -0.93968702471397947 0 0 0 -1 
1 5.5459553513993075e-05 1.5000000000000005e-05 0 9.9999999999999998e-17 1 0 1 -9.9999999999999998e-17 0 0 0 -1 
1 5.0000000000000023e-05 0 0 -0.93969262078590821 0.34202014332566949 0 0.34202014332566949 0.93969262078590821 0 0 0 -1 
1 -5.545983144951417e-05 1.4999999999999997e-05 0 0.93968702471397947 0.34203551801558418 0 0.34203551801558418 -0.93968702471397947 0 0 0 -1 
1 -0.00014454044648600702 1.5000000000000005e-05 0 9.9999999999999998e-17 1 0 1 -9.9999999999999998e-17 0 0 0 -1 
Triangulations 0

TShapes 125
Ve
1e-07
-0.00065 -0.0001 0
0 0

0101101
*
Ve
1e-07
-0.00065 -0.0001 0.002
0 0

0101101
*
Ed
 1e-10 1 1 0
1  1 0 0 0.002
0

0101000
+125 4 -124 4 *
Ve
1e-07
0.00065 -0.0001 0
0 0

0101101
*
Ve
1e-07
0.00065 -0.0001 0.002
0 0

0101101
*
Ed
 1e-10 1 1 0
1  2 0 0 0.002
0

0101000
+122 4 -121 4 *
Ed
 1e-10 1 1 0
1  3 0 0 0.0013
0

0101000
+125 8 -122 8 *
Ed
 1e-10 1 1 0
1  4 0 0 0.0013
0

0101000
+124 11 -121 11 *
Wi

0101100
+123 0 -120 0 -119 7 +118 10 *
Fa
0  1e-10 1 0

0101000
+117 0 *
Ve
1e-07
0.00065 0 0
0 0

0101101
*
Ve
1e-07
0.00065 0 0.002
0 0

0101101
*
Ed
 1e-10 1 1 0
1  5 0 0 0.002
0

0101000
+115 4 -114 4 *
Ed
 1e-10 1 1 0
1  6 0 0 0.0001
0

0101000
+122 8 -115 8 *
Ed
 1e-10 1 1 0
1  7 0 0 0.0001
0

0101000
+121 11 -114 11 *
Wi

0101100
+120 2 -113 2 -112 12 +111 13 *
Fa
0  1e-10 2 2

0101000
+110 0 *
Ve
1e-07
0.00015 0 0
0 0

0101101
*
Ed
 1.00000000111022e-10 1 1 0
1  8 0 0 0.0005
0

0101000
+115 8 -108 8 *
Ve
1e-07
0.00015 0 0.002
0 0

0101101
*
Ed
 1e-10 1 1 0
1  9 0 0 0.002
0

0101000
+108 18 -106 18 *
Ed
 1.00000000111022e-10 1 1 0
1  10 0 0 0.0005
0

0101000
+114 11 -106 11 *
Wi

0101100
-107 12 -105 17 +104 13 +113 2 *
Fa
0  1e-10 3 2

0101000
+103 0 *
Ve
1e-07
5e-05 0 0
0 0

0101101
*
Ed
 1e-10 1 1 0
1  11 0 0.0005 0.0006
0

0101000
+108 8 -101 8 *
Ve
1e-07
5e-05 0 0.002
0 0

0101101
*
Ed
 1e-10 1 1 0
1  12 0 0 0.002
0

0101000
+101 18 -99 18 *
Ed
 1e-10 1 1 0
1  13 0 0.0005 0.0006
0

0101000
+106 11 -99 11 *
Wi

0101100
-100 12 -98 17 +97 13 +105 17 *
Fa
0  1e-10 4 2

0101000
+96 0 *
Ve
1e-07
-5e-05 0 0
0 0

0101101
*
Ed
 1e-10 1 1 0
1  14 0 0.0006 0.0007
0

0101000
+101 8 -94 8 *
Ve
1e-07
-5e-05 0 0.002
0 0

0101101
*
Ed
 1e-10 1 1 0
1  15 0 0 0.002
0

0101000
+94 24 -92 24 *
Ed
 1e-10 1 1 0
1  16 0 0.0006 0.0007
0

0101000
+99 11 -92 11 *
Wi

0101100
-93 12 -91 23 +90 13 +98 17 *
Fa
0  1e-10 5 2

0101000
+89 0 *
Ve
1e-07
-0.00015 0 0
0 0

0101101
*
Ed
 1e-10 1 1 0
1  17 0 0.0007 0.0008
0

0101000
+94 8 -87 8 *
Ve
1e-07
-0.00015 0 0.002
0 0

0101101
*
Ed
 1e-10 1 1 0
1  18 0 0 0.002
0

0101000
+87 24 -85 24 *
Ed
 1e-10 1 1 0
1  19 0 0.0007 0.0008
0

0101000
+92 11 -85 11 *
Wi

0101100
-86 12 -84 23 +83 13 +91 23 *
Fa
0  1e-10 6 2

0101000
+82 0 *
Ve
1e-07
-0.00065 0 0
0 0

0101101
*
Ed
 1e-10 1 1 0
1  20 0 0.0008 0.0013
0

0101000
+87 8 -80 8 *
Ve
1e-07
-0.00065 0 0.002
0 0

0101101
*
Ed
 1e-10 1 1 0
1  21 0 0 0.002
0

0101000
+80 4 -78 4 *
Ed
 1e-10 1 1 0
1  22 0 0.0008 0.0013
0

0101000
+85 11 -78 11 *
Wi

0101100
-79 12 -77 2 +76 13 +84 23 *
Fa
0  1e-10 7 2

0101000
+75 0 *
Ed
 1e-10 1 1 0
1  23 0 0 0.0001
0

0101000
+80 8 -125 8 *
Ed
 1e-10 1 1 0
1  24 0 0 0.0001
0

0101000
+78 11 -124 11 *
Wi

0101100
+77 2 -123 2 -73 12 +72 13 *
Fa
0  1e-10 8 2

0101000
+71 0 *
Wi

0101100
+119 12 +112 12 +107 12 +100 12 +93 12 +86 12 +79 12 +73 12 *
Fa
0  1e-10 9 12

0101000
+69 0 *
Wi

0101100
+118 13 +111 13 +104 13 +97 13 +90 13 +83 13 +76 13 +72 13 *
Fa
0  1e-10 10 13

0101000
+67 0 *
Sh

0101100
+116 2 +109 0 +102 0 +95 0 +88 0 +81 0 +74 0 +70 0 +68 0 -66 0 
*
So

0100000
-65 0 *
Ve
1e-07
0.00065 0.0001 0
0 0

0101101
*
Ve
1e-07
-0.00065 0.0001 0
0 0

0101101
*
Ed
 1e-10 1 1 0
1  25 0 0 0.0013
0

0101000
+63 30 -62 30 *
Ed
 1e-10 1 1 0
1  26 0 0 0.0001
0

0101000
+115 30 -63 30 *
Ve
1e-07
0.000144540168550486 1.5e-05 0
0 0

0101101
*
Ed
 1e-10 1 1 0
1  27 0 0 1.5962761648822e-05
0

0101000
+59 34 -108 34 *
Ve
1e-07
5.5459553513993e-05 1.5e-05 0
0 0

0101101
*
Ed
 1e-10 1 1 0
1  28 0 0 8.9080615036493e-05
0

0101000
+57 34 -59 34 *
Ed
 1e-10 1 1 0
1  29 0 0 1.5962666587139e-05
0

0101000
+101 34 -57 34 *
Ve
1e-07
-5.5459831449514e-05 1.5e-05 0
0 0

0101101
*
Ed
 1e-10 1 1 0
1  30 0 0 1.5962761648822e-05
0

0101000
+54 38 -94 38 *
Ve
1e-07
-0.000144540446486007 1.5e-05 0
0 0

0101101
*
Ed
 1e-10 1 1 0
1  31 0 0 8.9080615036493e-05
0

0101000
+52 38 -54 38 *
Ed
 1e-10 1 1 0
1  32 0 0 1.5962666587139e-05
0

0101000
+87 38 -52 38 *
Ed
 1e-10 1 1 0
1  33 0 0 0.0001
0

0101000
+62 30 -80 30 *
Wi

0101100
+61 29 +60 29 -107 12 +58 33 +56 33 +55 33 -93 12 +53 37 +51 37 +50 37 
-79 12 +49 29 *
Fa
0  1e-10 11 29

0101000
+48 0 *
Ve
1e-07
-0.000144540446486007 1.5e-05 0.002
0 0

0101101
*
Ed
 1e-10 1 1 0
1  34 0 0 0.002
0

0101000
+52 24 -46 24 *
Ed
 1e-10 1 1 0
1  35 0 0 1.5962666587139e-05
0

0101000
+85 41 -46 41 *
Wi

0101100
+84 23 -45 23 -50 37 +44 40 *
Fa
0  1e-10 12 23

0101000
+43 0 *
Ve
1e-07
0.00065 0.0001 0.002
0 0

0101101
*
Ve
1e-07
-0.00065 0.0001 0.002
0 0

0101101
*
Ed
 1e-10 1 1 0
1  36 0 0 0.0013
0

0101000
+41 44 -40 44 *
Ed
 1e-10 1 1 0
1  37 0 0 0.0001
0

0101000
+114 44 -41 44 *
Ve
1e-07
0.000144540168550486 1.5e-05 0.002
0 0

0101101
*
Ed
 1e-10 1 1 0
1  38 0 0 1.5962761648822e-05
0

0101000
+37 47 -106 47 *
Ve
1e-07
5.5459553513993e-05 1.5e-05 0.002
0 0

0101101
*
Ed
 1e-10 1 1 0
1  39 0 0 8.9080615036493e-05
0

0101000
+35 47 -37 47 *
Ed
 1e-10 1 1 0
1  40 0 0 1.5962666587139e-05
0

0101000
+99 47 -35 47 *
Ve
1e-07
-5.5459831449514e-05 1.5e-05 0.002
0 0

0101101
*
Ed
 1e-10 1 1 0
1  41 0 0 1.5962761648822e-05
0

0101000
+32 41 -92 41 *
Ed
 1e-10 1 1 0
1  42 0 0 8.9080615036493e-05
0

0101000
+46 41 -32 41 *
Ed
 1e-10 1 1 0
1  43 0 0 0.0001
0

0101000
+40 44 -78 44 *
Wi

0101100
+39 43 +38 43 -104 13 +36 46 +34 46 +33 46 -90 13 +31 40 +30 40 +44 40 
-76 13 +29 43 *
Fa
0  1e-10 13 43

0101000
+28 0 *
Ed
 1e-10 1 1 0
1  44 0 0 0.002
0

0101000
+62 49 -40 49 *
Wi

0101100
+26 48 -77 2 -49 29 +29 43 *
Fa
0  1e-10 14 48

0101000
+25 0 *
Ed
 1e-10 1 1 0
1  45 0 0 0.002
0

0101000
+63 49 -41 49 *
Wi

0101100
+23 0 -26 0 -61 50 +39 51 *
Fa
0  1e-10 15 0

0101000
+22 0 *
Wi

0101100
+113 2 -23 48 -60 29 +38 43 *
Fa
0  1e-10 16 48

0101000
+20 0 *
Ed
 1e-10 1 1 0
1  46 0 0 0.002
0

0101000
+59 18 -37 18 *
Wi

0101100
+18 17 -105 17 -58 33 +36 46 *
Fa
0  1e-10 17 17

0101000
+17 0 *
Ed
 1e-10 1 1 0
1  47 0 0 0.002
0

0101000
+57 18 -35 18 *
Wi

0101100
+15 0 -18 0 -56 52 +34 53 *
Fa
0  1e-10 18 0

0101000
+14 0 *
Wi

0101100
+98 17 -15 17 -55 33 +33 46 *
Fa
0  1e-10 19 17

0101000
+12 0 *
Ed
 1e-10 1 1 0
1  48 0 0 0.002
0

0101000
+54 24 -32 24 *
Wi

0101100
+10 23 -91 23 -53 37 +31 40 *
Fa
0  1e-10 20 23

0101000
+9 0 *
Wi

0101100
+45 0 -10 0 -51 54 +30 55 *
Fa
0  1e-10 21 0

0101000
+7 0 *
Sh

0101100
+74 0 -47 0 -42 0 +27 0 -24 0 -21 48 -19 0 +102 0 -16 0 -13 17 
-11 0 +88 0 -8 0 -6 23 *
So

0100000
+5 0 *
Co

0100000
+4 0 *
Co

0100000
+64 0 +3 0 *
Co

1100000
+2 1 *

+1 0 