DBRep_DrawableShape

CASCADE Topology V1, (c) Matra-Datavision
Locations 29
1
              1               0               0               0 
              0               1               0               0 
              0               0               1               0 
1
              1               0               0               0 
              0               1               0               0 
              0               0               1               0 
1
              1               0               0               0 
              0 2.22044604925031e-16              -1               0 
              0               1 2.22044604925031e-16           0.001 
2  3 -1 0
2  2 -1 0
1
              1               0               0               0 
              0               1               0               0 
              0               0               1               0 
1
              1               0               0               0 
              0 2.22044604925031e-16              -1           0.009 
              0               1 2.22044604925031e-16           0.001 
2  7 -1 0
2  6 -1 0
1
              0 -2.22044604925031e-16               1            0.02 
              1 2.22044604925031e-16 4.93038065763132e-32               0 
-2.22044604925031e-16               1 2.22044604925031e-16           0.001 
2  10 -1 0
1
              0 2.22044604925031e-16              -1               0 
             -1 2.22044604925031e-16 4.93038065763132e-32           0.009 
2.22044604925031e-16               1 2.22044604925031e-16           0.001 
2  12 -1 0
1
              1               0               0               0 
              0               1               0               0 
              0               0               1               0 
1
              1               0               0               0 
              0               1               0          0.0045 
              0               0               1               0 
2  14 1 15 1 6 1 0
2  6 -1 15 -1 14 -1 0
1
              1               0               0               0 
              0               1               0               0 
              0               0               1             0.1 
2  14 1 15 1 18 1 6 1 0
2  6 -1 18 -1 15 -1 14 -1 0
2  15 -1 14 -1 0
1
              1              -0               0               0 
              0               1               0               0 
              0               0               1               0 
1
              1               0               0               0 
              0               1               0               0 
              0               0               1               0 
2  22 1 23 1 2 1 0
2  23 -1 22 -1 0
1
              1               0               0               0 
              0               1               0               0 
              0               0               1             0.1 
2  22 1 23 1 26 1 2 1 0
2  2 -1 23 -1 22 -1 0
2  2 -1 26 -1 23 -1 22 -1 0
Curve2ds 7
1 -0.01 -0.0022499999999999998 1 0 
1 0.01 -0.0022499999999999998 0 1 
1 0.01 0.0022499999999999998 -1 0 
1 -0.01 0.0022499999999999998 0 -1 
1 -0.01 -0.0022499999999999998 1 0 
1 0.01 -0.0022499999999999998 0 1 
1 -0.01 0.0022499999999999998 0 -1 
Curves 21
1 0 0 0 1 0 0 
1 0.02 0 0 0 0 1 
1 0.02 0.098000000000000004 0 -1 0 0 
1 0 0 0 0 0 1 
1 0 0 0 1 0 0 
1 0 0.0089999999999999993 0 0 0 1 
1 0.02 0.098000000000000004 0 -1 0 0 
1 0.02 0.0089999999999999993 0 0 0 1 
1 0 0 0 1 0 0 
1 0.02 0.0044999999999999997 0 0 0 1 
1 0.0089999999999999993 0.098000000000000004 0 -1 0 0 
1 0 0 0 1 0 0 
1 0 0.0044999999999999997 0 0 0 1 
1 0.0089999999999999993 0.098000000000000004 0 -1 0 0 
1 0 0 0 1 0 0 
1 0.02 0 0 0 1 0 
1 0.02 0.0044999999999999997 0 -1 0 0 
1 0 0.0044999999999999997 0 0 -1 0 
1 0 0 0 1 0 0 
1 0.02 0 0 0 1 0 
1 0 0.0044999999999999997 0 0 -1 0 
Polygon3D 0
PolygonOnTriangulations 0
Surfaces 9
1 0 0 0 0 1 0 1 0 0 0 0 -1 
1 0.02 0.0089999999999999993 0 0 -1 0 -1 0 0 -0 -0 -1 
1 0.02 0 0 -1 0 0 0 1 0 0 0 -1 
1 0.02 0.0044999999999999997 0 -1 0 0 0 1 0 0 0 -1 
1 0 0.0089999999999999993 0 1 0 -0 0 -1 0 0 -0 -1 
1 0 0.0044999999999999997 0 1 0 -0 0 -1 0 0 -0 -1 
1 0 0.0044999999999999997 0 0 1 0 1 0 0 0 0 -1 
1 0.01 0.0022499999999999998 0 0 0 1 1 0 -0 -0 1 0 
1 0.01 0.0022499999999999998 0 0 0 1 1 0 -0 -0 1 0 
Triangulations 0

TShapes 114
Ve
1.00000000027881e-07
0 -5.78241158658936e-19 0.001
0 0

0101101
*
Ve
1.00000000026435e-07
0.02 0 0.001
0 0

0101101
*
Ed
 1e-07 1 1 0
1  1 0 0 0.02
0

0101000
+114 4 -113 4 *
Ve
1.00000000041951e-07
0.02 2.17603712826531e-17 0.099
0 0

0101101
*
Ed
 1.00000000026435e-07 1 1 0
1  2 0 0.001 0.099
0

0101000
+113 5 -111 5 *
Ve
1.00000000042673e-07
7.25345709421769e-18 2.14458080923426e-17 0.099
0 0

0101101
*
Ed
 1.0000000002176e-07 1 1 0
1  3 0 0 0.02
0

0101000
+111 4 -109 4 *
Ed
 1.00000000027011e-07 1 1 0
1  4 0 0.001 0.099
0

0101000
+114 5 -109 5 *
Wi

0101100
-112 3 -110 2 -108 3 +107 2 *
Fa
0  1e-07 1 2

0101000
+106 0 *
Ve
1.00000000028831e-07
0 0.009 0.001
0 0

0101101
*
Ve
1.0000000003009e-07
0.02 0.009 0.000999999999999999
0 0

0101101
*
Ed
 1e-07 1 1 0
1  5 0 0 0.02
0

0101000
+104 8 -103 8 *
Ve
1.0000000004449e-07
7.25345709421769e-18 0.00900000000000002 0.099
0 0

0101101
*
Ed
 1.00000000028831e-07 1 1 0
1  6 0 0.001 0.099
0

0101000
+104 9 -101 9 *
Ve
1.00000000044955e-07
0.02 0.00900000000000002 0.099
0 0

0101101
*
Ed
 1.00000000022551e-07 1 1 0
1  7 0 0 0.02
0

0101000
+99 8 -101 8 *
Ed
 1.00000000029439e-07 1 1 0
1  8 0 0.001 0.099
0

0101000
+103 9 -99 9 *
Wi

0101100
+102 7 -100 6 +98 7 +97 6 *
Fa
0  1e-07 2 6

0101000
+96 0 *
Ve
1.00000000020817e-07
0.02 0.0045 0.000999999999999999
0 0

0101101
*
Ed
 1e-07 1 1 0
1  9 0 0 0.0045
0

0101000
+113 11 -94 11 *
Ve
1.00000000020817e-07
0.02 0.0045 0.099
0 0

0101101
*
Ed
 1.00000000020817e-07 1 1 0
1  10 0 0.000999999999999999 0.099
0

0101000
+94 9 -92 9 *
Ed
 1.00000000020817e-07 1 1 0
1  11 0 0.00450000000000002 0.009
0

0101000
+92 11 -111 11 *
Wi

0101100
-93 10 -91 6 -90 10 +110 2 *
Fa
0  1e-07 3 2

0101000
+89 0 *
Ed
 1e-07 1 1 0
1  9 0 0.0045 0.009
0

0101000
+94 11 -103 11 *
Ed
 1.00000000020817e-07 1 1 0
1  11 0 0 0.00450000000000002
0

0101000
+99 11 -92 11 *
Wi

0101100
-87 10 -97 6 -86 10 +91 6 *
Fa
0  1e-07 4 6

0101000
+85 0 *
Ve
1.00000000019947e-07
0 0.0045 0.001
0 0

0101101
*
Ed
 1e-07 1 1 0
1  12 0 0 0.0045
0

0101000
+104 13 -83 13 *
Ve
1.0000000002176e-07
1.08801856413265e-17 0.0045 0.099
0 0

0101101
*
Ed
 1.00000000019947e-07 1 1 0
1  13 0 0.001 0.099
0

0101000
+83 9 -81 9 *
Ed
 1.0000000002176e-07 1 1 0
1  14 0 0.00449999999999998 0.009
0

0101000
+81 13 -101 13 *
Wi

0101100
-82 12 -80 6 -79 12 +100 6 *
Fa
0  1e-07 5 6

0101000
+78 0 *
Ed
 1e-07 1 1 0
1  12 0 0.0045 0.009
0

0101000
+83 13 -114 13 *
Ed
 1.0000000002176e-07 1 1 0
1  14 0 0 0.00449999999999998
0

0101000
+109 13 -81 13 *
Wi

0101100
-76 12 -107 2 -75 12 +80 6 *
Fa
0  1e-07 6 2

0101000
+74 0 *
Ve
1.00000000000867e-07
0 0.0045 0
0 0

0101101
*
Ed
 1e-07 1 1 0
1  13 0 0 0.001
0

0101000
+72 9 -83 9 *
Ve
1.00000000014745e-07
0 0.0045 0.1
0 0

0101101
*
Ed
 1e-07 1 1 0
1  13 0 0.099 0.1
0

0101000
+81 9 -70 9 *
Ve
1.00000000000867e-07
0.02 0.0045 0
0 0

0101101
*
Ed
 1e-07 1 1 0
1  10 0 0 0.000999999999999999
0

0101000
+68 9 -94 9 *
Ve
1.00000000014745e-07
0.02 0.0045 0.1
0 0

0101101
*
Ed
 1e-07 1 1 0
1  10 0 0.099 0.1
0

0101000
+92 9 -66 9 *
Ed
 1.00000000000867e-07 1 1 0
1  15 0 0 0.02
2  1 8 0 0 0.02
0

0101000
+72 17 -68 17 *
Ed
 1.00000000000867e-07 1 1 0
1  15 0 0 0.02
2  1 8 0 0 0.02
0

0101000
+70 20 -66 20 *
Wi

0101100
+71 6 +80 6 +69 6 -67 6 -91 6 -65 6 -64 16 +63 19 *
Fa
0  1e-07 7 6

0101000
+62 0 *
Ve
1e-07
0.02 0.009 0
0 0

0101101
*
Ed
 1e-07 1 1 0
1  16 0 0 0.0045
2  2 8 0 0 0.0045
0

0101000
+68 17 -60 21 *
Ed
 1e-07 1 1 0
1  8 0 0 0.001
0

0101000
+60 0 -103 9 *
Wi

0101100
-59 16 -58 6 +87 10 +67 6 *
Fa
0  1e-07 4 6

0101000
+57 0 *
Ed
 1e-07 1 1 0
1  8 0 0.099 0.1
0

0101000
+99 9 -60 18 *
Ed
 1e-07 1 1 0
1  16 0 0 0.0045
2  2 8 0 0 0.0045
0

0101000
+66 20 -60 21 *
Wi

0101100
+86 10 -55 6 +54 19 +65 6 *
Fa
0  1e-07 4 6

0101000
+53 0 *
Ve
1e-07
0 0.009 0
0 0

0101101
*
Ed
 1e-07 1 1 0
1  17 0 0 0.02
2  3 8 0 0 0.02
0

0101000
+60 21 -51 21 *
Ed
 1e-07 1 1 0
1  6 0 0 0.001
0

0101000
+51 0 -104 9 *
Wi

0101100
-50 16 -49 6 -102 7 +58 6 *
Fa
0  1e-07 2 6

0101000
+48 0 *
Ed
 1e-07 1 1 0
1  6 0 0.099 0.1
0

0101000
+101 9 -51 18 *
Wi

0101100
-98 7 -46 6 +50 19 +55 6 *
Fa
0  1e-07 2 6

0101000
+45 0 *
Ed
 1e-07 1 1 0
1  18 0 0 0.0045
2  4 8 0 0 0.0045
0

0101000
+51 21 -72 17 *
Wi

0101100
-43 16 -71 6 +82 12 +49 6 *
Fa
0  1e-07 5 6

0101000
+42 0 *
Ed
 1e-07 1 1 0
1  18 0 0 0.0045
2  4 8 0 0 0.0045
0

0101000
+51 21 -70 20 *
Wi

0101100
+79 12 -69 6 +40 19 +46 6 *
Fa
0  1e-07 5 6

0101000
+39 0 *
Wi

0101100
+64 16 +59 16 +50 16 +43 16 *
Fa
0  1e-07 8 16

0101000
+37 0 *
Wi

0101100
+63 19 +54 19 +50 19 +40 19 *
Fa
0  1e-07 8 19

0101000
+35 0 *
Sh

0101100
+61 0 +56 0 +84 0 +52 0 +47 0 +95 0 +44 0 +41 0 +77 0 +38 0 
+36 0 -34 0 *
So

0100000
-33 0 *
Ve
1e-07
0 0 0
0 0

0101101
*
Ve
1e-07
0.02 0 0
0 0

0101101
*
Ed
 1e-07 1 1 0
1  19 0 0 0.02
2  5 9 0 0 0.02
0

0101000
+31 25 -30 25 *
Ed
 1e-07 1 1 0
1  2 0 0 0.001
0

0101000
+30 0 -113 5 *
Ed
 1e-07 1 1 0
1  4 0 0 0.001
0

0101000
+31 0 -114 5 *
Wi

0101100
-29 24 -28 2 +112 3 +27 2 *
Fa
0  1e-07 1 2

0101000
+26 0 *
Ed
 1e-07 1 1 0
1  2 0 0.099 0.1
0

0101000
+111 5 -30 26 *
Ed
 1e-07 1 1 0
1  4 0 0.099 0.1
0

0101000
+109 5 -31 26 *
Wi

0101100
+108 3 -24 2 +29 27 +23 2 *
Fa
0  1e-07 1 2

0101000
+22 0 *
Ed
 1e-07 1 1 0
1  20 0 0 0.0045
2  6 9 0 0 0.0045
0

0101000
+30 25 -68 28 *
Wi

0101100
-20 24 -67 6 +93 10 +28 2 *
Fa
0  1e-07 3 2

0101000
+19 0 *
Ed
 1e-07 1 1 0
1  20 0 0 0.0045
2  6 9 0 0 0.0045
0

0101000
+30 25 -66 29 *
Wi

0101100
+90 10 -65 6 +17 27 +24 2 *
Fa
0  1e-07 3 2

0101000
+16 0 *
Ed
 1e-07 1 1 0
1  21 0 0 0.0045
2  7 9 0 0 0.0045
0

0101000
+72 28 -31 25 *
Wi

0101100
-14 24 -27 2 +76 12 +71 6 *
Fa
0  1e-07 6 2

0101000
+13 0 *
Ed
 1e-07 1 1 0
1  21 0 0 0.0045
2  7 9 0 0 0.0045
0

0101000
+70 29 -31 25 *
Wi

0101100
+75 12 -23 2 +11 27 +69 6 *
Fa
0  1e-07 6 2

0101000
+10 0 *
Wi

0101100
+29 24 +20 24 -64 16 +14 24 *
Fa
0  1e-07 9 24

0101000
+8 0 *
Wi

0101100
+29 27 +17 27 -63 19 +11 27 *
Fa
0  1e-07 9 27

0101000
+6 0 *
Sh

0101100
+25 0 +105 0 +21 0 +18 0 +88 0 +15 0 -61 0 +12 0 +73 0 +9 0 
+7 0 -5 0 *
So

0100000
-4 0 *
Co

0100000
-105 0 -95 0 -88 0 -84 0 -77 0 -73 0 +32 0 +3 0 *
Co

1100000
+2 1 *

+1 0 