DBRep_DrawableShape

CASCADE Topology V1, (c) Matra-Datavision
Locations 22
1
              1               0               0               0 
              0               1               0               0 
              0               0               1               0 
1
              1               0               0               0 
              0               1               0               0 
              0               0               1               0 
1
              1               0               0               0 
              0               1               0               0 
              0               0               1               0 
2  3 -1 2 -1 0
1
              1               0               0               0 
              0               1               0               0 
              0               0               1               0 
1
2.22044604925031e-16               1 8.65956056235493e-17          -11.43 
              1 -2.22044604925031e-16 -8.65956056235493e-17           -6.08 
-8.65956056235493e-17 8.65956056235493e-17              -1               0 
2  5 1 6 1 2 1 0
2  3 -1 2 -1 6 -1 5 -1 0
1
              1               0               0 4.32978028117747e-15 
              0               1               0 -4.32978028117747e-15 
              0               0               1             -50 
2  5 1 6 1 9 1 2 1 0
2  3 -1 2 -1 9 -1 6 -1 5 -1 0
2  5 1 6 1 0
2  5 1 6 1 9 1 0
1
              1               0               0               0 
              0               1               0               0 
              0               0               1               0 
1
              1               0               0          -11.43 
              0               1               0           -5.08 
              0               0               1               0 
1
              1               0               0               0 
              0               1               0               0 
              0               0               1               0 
2  14 1 15 1 16 1 0
2  3 -1 16 -1 15 -1 14 -1 0
2  3 -1 16 -1 0
1
              1               0               0               0 
              0               1               0               0 
              0               0               1              50 
2  14 1 15 1 20 1 16 1 0
2  3 -1 16 -1 20 -1 15 -1 14 -1 0
Curve2ds 0
Curves 26
1 -0.011430000000000004 -0.0060800000000000029 0 8.6595605623549304e-17 -8.6595605623549341e-17 -1 
1 -0.011430000000000001 0.0060800000000000029 -1.0530025643823601e-18 8.6595605623549304e-17 -8.6595605623549341e-17 -1 
1 6.0739200000000029 11.418569999999997 4.6282320359590274e-16 1 -7.498798913309288e-33 0 
1 6.0739200000000029 11.418569999999997 4.6282320359590274e-16 1 -7.498798913309288e-33 0 
1 6.0739200000000029 11.418569999999997 4.6282320359590274e-16 1 -7.498798913309288e-33 0 
1 6.0739200000000029 11.418569999999997 -49.950000000000003 1 -7.498798913309288e-33 0 
1 0.011430000000000008 0.0060799999999999977 9.2657298017197867e-19 8.6595605623549304e-17 -8.6595605623549341e-17 -1 
1 6.0860800000000026 11.418569999999997 4.6282320359590274e-16 -7.498798913309288e-33 1 0 
1 6.0860800000000026 11.418569999999997 -49.950000000000003 -7.498798913309288e-33 1 0 
1 0.011430000000000004 -0.0060800000000000081 1.9795755445543388e-18 8.6595605623549304e-17 -8.6595605623549341e-17 -1 
1 6.0860800000000026 11.441429999999997 4.6282320359590274e-16 -1 7.498798913309288e-33 0 
1 6.0860800000000026 11.441429999999997 4.6282320359590274e-16 -1 7.498798913309288e-33 0 
1 6.0860800000000026 11.441429999999997 4.6282320359590274e-16 -1 7.498798913309288e-33 0 
1 6.0860800000000026 11.441429999999997 -49.950000000000003 -1 7.498798913309288e-33 0 
1 6.0739200000000029 11.441429999999997 4.6282320359590274e-16 7.498798913309288e-33 -1 0 
1 6.0739200000000029 11.441429999999997 -49.950000000000003 7.498798913309288e-33 -1 0 
1 11.418569999999999 5.0749199999999997 0 1 0 0 
1 11.441429999999999 5.0850799999999996 0 -1 0 0 
1 -0.011430000000000004 -0.005080000000000002 0 0 0 1 
1 0.011430000000000004 -0.005080000000000002 0 0 0 1 
1 11.418569999999999 5.0749199999999997 -49.950000000000003 1 0 0 
1 0.011430000000000004 0.005080000000000002 0 0 0 1 
1 11.441429999999999 5.0749199999999997 -49.950000000000003 0 1 0 
1 -0.011430000000000004 0.005080000000000002 0 0 0 1 
1 11.441429999999999 5.0850799999999996 -49.950000000000003 -1 0 0 
1 11.418569999999999 5.0850799999999996 -49.950000000000003 0 -1 0 
Polygon3D 0
PolygonOnTriangulations 0
Surfaces 13
1 -0.011430000000000004 -0.0060800000000000029 0 1 -2.2204460492503131e-16 8.6595605623549329e-17 2.2204460492503131e-16 1 -8.6595605623549316e-17 -8.6595605623549304e-17 8.6595605623549341e-17 1 
1 -0.011430000000000001 0.0060800000000000029 -1.0530025643823601e-18 -2.2204460492503131e-16 -1 8.6595605623549316e-17 1 -2.2204460492503131e-16 8.6595605623549341e-17 -8.6595605623549316e-17 8.6595605623549341e-17 1 
1 0.011430000000000008 0.0060799999999999977 9.2657298017197867e-19 -1 2.2204460492503131e-16 -8.6595605623549329e-17 -2.2204460492503131e-16 -1 8.6595605623549316e-17 -8.6595605623549304e-17 8.6595605623549341e-17 1 
1 0.011430000000000004 -0.0060800000000000081 1.9795755445543388e-18 2.2204460492503131e-16 1 -8.6595605623549316e-17 -1 2.2204460492503131e-16 -8.6595605623549341e-17 -8.6595605623549316e-17 8.6595605623549341e-17 1 
1 6.0800000000000027 11.429999999999998 4.6282320359590274e-16 0 0 1 1 -7.498798913309288e-33 0 -7.498798913309288e-33 1 0 
1 6.0800000000000027 11.429999999999998 4.6282320359590274e-16 0 0 1 1 -7.498798913309288e-33 0 -7.498798913309288e-33 1 0 
1 6.0800000000000027 11.429999999999998 4.6282320359590274e-16 0 0 1 1 -7.498798913309288e-33 0 -7.498798913309288e-33 1 0 
1 6.0800000000000027 11.429999999999998 -49.950000000000003 0 0 1 1 -7.498798913309288e-33 0 -7.498798913309288e-33 1 0 
1 -0.011430000000000004 -0.005080000000000002 0 0 1 0 1 0 0 0 0 -1 
1 0.011430000000000004 -0.005080000000000002 0 -1 0 0 0 1 0 0 0 -1 
1 0.011430000000000004 0.005080000000000002 0 0 -1 0 -1 0 0 -0 -0 -1 
1 -0.011430000000000004 0.005080000000000002 0 1 0 0 0 -1 0 0 0 -1 
1 11.43 5.0800000000000001 -49.950000000000003 0 0 1 1 0 0 0 1 0 
Triangulations 0

TShapes 74
Ve
1e-07
-0.01143 -0.00608 0
0 0

0101101
*
Ve
1e-07
-0.01143 -0.00608000000000001 -0.05
0 0

0101101
*
Ed
 1e-10 1 1 0
1  1 0 0 0.05
0

0101000
+74 4 -73 4 *
Ve
1e-07
-0.01143 0.00608 -1.05300256438236e-18
0 0

0101101
*
Ve
1e-07
-0.01143 0.00608 -0.05
0 0

0101101
*
Ed
 1e-10 1 1 0
1  2 0 0 0.05
0

0101000
+71 4 -70 4 *
Ve
1e-07
-0.01143 -0.00508 0
0 0

0101101
*
Ed
 1e-10 1 1 0
1  3 0 0 0.001
0

0101000
+74 8 -68 8 *
Ve
1e-07
-0.01143 0.00508 0
0 0

0101101
*
Ed
 1.00000001988228e-10 1 1 0
1  4 0 0.001 0.01116
0

0101000
+68 8 -66 8 *
Ed
 1e-10 1 1 0
1  5 0 0.01116 0.01216
0

0101000
+66 8 -71 8 *
Ed
 1e-10 1 1 0
1  6 0 0 0.01216
0

0101000
+73 11 -70 11 *
Wi

0101100
+72 2 -69 2 -67 7 -65 7 -64 7 +63 10 *
Fa
0  1e-10 1 2

0101000
+62 0 *
Ve
1e-07
0.01143 0.00608 9.26572980171979e-19
0 0

0101101
*
Ve
1e-07
0.01143 0.00607999999999999 -0.05
0 0

0101101
*
Ed
 1e-10 1 1 0
1  7 0 0 0.05
0

0101000
+60 4 -59 4 *
Ed
 1e-10 1 1 0
1  8 0 0 0.02286
0

0101000
+71 8 -60 8 *
Ed
 1e-10 1 1 0
1  9 0 0 0.02286
0

0101000
+70 11 -59 11 *
Wi

0101100
+69 0 -58 0 -57 12 +56 13 *
Fa
0  1e-10 2 0

0101000
+55 0 *
Ve
1e-07
0.01143 -0.00608000000000001 1.97957554455434e-18
0 0

0101101
*
Ve
1e-07
0.01143 -0.00608000000000001 -0.05
0 0

0101101
*
Ed
 1e-10 1 1 0
1  10 0 0 0.05
0

0101000
+53 4 -52 4 *
Ve
1e-07
0.01143 0.00508 0
0 0

0101101
*
Ed
 1e-10 1 1 0
1  11 0 0 0.000999999999999995
0

0101000
+60 8 -50 8 *
Ve
1e-07
0.01143 -0.00508 0
0 0

0101101
*
Ed
 1.00000003819828e-10 1 1 0
1  12 0 0.000999999999999995 0.01116
0

0101000
+50 8 -48 8 *
Ed
 1e-10 1 1 0
1  13 0 0.01116 0.01216
0

0101000
+48 8 -53 8 *
Ed
 1e-10 1 1 0
1  14 0 0 0.01216
0

0101000
+59 11 -52 11 *
Wi

0101100
+58 2 -51 2 -49 7 -47 7 -46 7 +45 10 *
Fa
0  1e-10 3 2

0101000
+44 0 *
Ed
 1e-10 1 1 0
1  15 0 0 0.02286
0

0101000
+53 8 -74 8 *
Ed
 1e-10 1 1 0
1  16 0 0 0.02286
0

0101000
+52 11 -73 11 *
Wi

0101100
+51 0 -72 0 -42 12 +41 13 *
Fa
0  1e-10 4 0

0101000
+40 0 *
Ed
 1.00000001728015e-10 1 1 0
1  17 0 0 0.02286
0

0101000
+68 18 -48 18 *
Wi

0101100
+42 7 +46 7 +38 17 +67 7 *
Fa
0  1e-10 5 7

0101000
+37 0 *
Ed
 1.00000000848204e-10 1 1 0
1  18 0 0 0.02286
0

0101000
+50 18 -66 18 *
Wi

0101100
-38 17 +47 7 -35 17 +65 7 *
Fa
0  1e-10 6 7

0101000
+34 0 *
Wi

0101100
+35 17 +49 7 +57 7 +64 7 *
Fa
0  1e-10 7 7

0101000
+32 0 *
Wi

0101100
+63 0 +56 0 +45 0 +41 0 *
Fa
0  1e-10 8 0

0101000
+30 0 *
Sh

0101100
+61 0 +54 2 +43 0 +39 2 +36 0 +33 0 +31 0 -29 10 *
So

0100000
-28 0 *
Ve
1e-07
-0.01143 -0.00508 0.05
0 0

0101101
*
Ed
 1e-10 1 1 0
1  19 0 0 0.05
0

0101000
+68 19 -26 19 *
Ve
1e-07
0.01143 -0.00508 0.05
0 0

0101101
*
Ed
 1e-10 1 1 0
1  20 0 0 0.05
0

0101000
+48 19 -24 19 *
Ed
 1e-10 1 1 0
1  21 0 0 0.02286
0

0101000
+26 22 -24 22 *
Wi

0101100
+25 16 -23 16 -38 17 +22 21 *
Fa
0  1e-10 9 16

0101000
+21 0 *
Ve
1e-07
0.01143 0.00508 0.05
0 0

0101101
*
Ed
 1e-10 1 1 0
1  22 0 0 0.05
0

0101000
+50 19 -19 19 *
Ed
 1e-10 1 1 0
1  23 0 0 0.01016
0

0101000
+24 22 -19 22 *
Wi

0101100
+23 16 -18 16 +47 7 +17 21 *
Fa
0  1e-10 10 16

0101000
+16 0 *
Ve
1e-07
-0.01143 0.00508 0.05
0 0

0101101
*
Ed
 1e-10 1 1 0
1  24 0 0 0.05
0

0101000
+66 19 -14 19 *
Ed
 1e-10 1 1 0
1  25 0 0 0.02286
0

0101000
+19 22 -14 22 *
Wi

0101100
+18 16 -13 16 -35 17 +12 21 *
Fa
0  1e-10 11 16

0101000
+11 0 *
Ed
 1e-10 1 1 0
1  26 0 0 0.01016
0

0101000
+14 22 -26 22 *
Wi

0101100
+13 16 -25 16 +65 7 +9 21 *
Fa
0  1e-10 12 16

0101000
+8 0 *
Wi

0101100
+22 0 +17 0 +12 0 +9 0 *
Fa
0  1e-10 13 0

0101000
+6 0 *
Sh

0101100
+20 0 +15 0 +10 0 +7 0 -33 0 -5 21 *
So

0100000
-4 0 *
Co

0100000
+27 0 +3 0 *
Co

1100000
+2 1 *

+1 0 