DBRep_DrawableShape

CASCADE Topology V1, (c) Matra-Datavision
Locations 42
1
              1               0               0               0 
              0               1               0               0 
              0               0               1               0 
1
              1               0               0               0 
              0               1               0               0 
              0               0               1               0 
1
              1               0               0               0 
              0               1               0               0 
              0               0               1               0 
2  3 -1 2 -1 0
1
              1               0               0               0 
              0               1               0               0 
              0               0               1               0 
1
              1               0               0               0 
              0               1               0               0 
              0               0               1               0 
2  5 1 6 1 2 1 0
2  3 -1 2 -1 6 -1 5 -1 0
1
              1               0               0               0 
              0               1               0               0 
              0               0               1           0.254 
2  5 1 6 1 9 1 2 1 0
2  3 -1 2 -1 9 -1 6 -1 5 -1 0
1
              1               0               0               0 
              0               1               0               0 
              0               0               1               0 
1
              1               0               0           1.875 
              0               1               0               0 
              0               0               1           0.254 
1
              1               0               0               0 
              0               1               0               0 
              0               0               1               0 
1
              1               0               0               0 
              0               1               0               0 
              0               0               1               0 
1
              1               0               0               0 
              0               1               0               0 
              0               0               1               0 
2  12 1 13 1 14 1 15 1 16 1 0
2  3 -1 16 -1 15 -1 14 -1 13 -1 12 -1 0
1
              1               0               0               0 
              0               1               0               0 
              0               0               1               0 
2  3 -1 19 -1 0
1
              1               0               0               0 
              0               1               0               0 
              0               0               1               0 
1
              1               0               0               0 
              0               1               0               0 
              0               0               1               0 
1
              1               0               0              -0 
              0               1               0              -0 
              0               0               1          -3.429 
2  21 1 22 1 23 1 19 1 0
2  3 -1 19 -1 23 -1 22 -1 21 -1 0
1
              1               0               0               0 
              0               1               0               0 
              0               0               1               0 
1
              1               0               0               0 
              0               1               0               0 
              0               0               1           0.254 
2  26 1 27 1 16 1 0
1
              1               0               0               0 
              0               1               0               0 
              0               0               1          0.0125 
2  12 1 13 1 29 1 14 1 15 1 16 1 0
2  3 -1 16 -1 15 -1 14 -1 29 -1 13 -1 12 -1 0
2  14 1 15 1 16 1 0
2  3 -1 16 -1 15 -1 14 -1 0
2  3 -1 16 -1 27 -1 26 -1 0
1
              1               0               0               0 
              0               1               0               0 
              0               0               1               0 
1
              1               0               0               0 
              0               1               0               0 
              0               0               1               0 
1
              1               0               0               0 
              0               1               0               0 
              0               0               1           3.429 
2  35 1 36 1 37 1 26 1 27 1 16 1 0
2  3 -1 16 -1 27 -1 26 -1 37 -1 36 -1 35 -1 0
2  26 1 27 1 0
2  12 1 13 1 29 1 14 1 15 1 0
2  35 1 36 1 37 1 26 1 27 1 0
Curve2ds 0
Curves 43
1 0 0 0 0 0 1 
1 0.002 0 0 0 0 1 
1 0 0 0 1 0 0 
1 0 0 -0.25374600000000003 1 0 0 
1 0 0 -0.25374600000000003 1 0 0 
1 0.002 0.0017780000000000001 0 0 0 1 
1 0.002 0 0 0 1 0 
1 0.002 0 -0.25374600000000003 0 1 0 
1 0 0.0017780000000000001 0 0 0 1 
1 0.002 0.0017780000000000001 0 -1 0 0 
1 0.002 0.0017780000000000001 -0.25374600000000003 -1 0 0 
1 0.002 0.0017780000000000001 -0.25374600000000003 -1 0 0 
1 0 0.0017780000000000001 0 0 -1 0 
1 0 0.0017780000000000001 -0.25374600000000003 0 -1 0 
1 -1.8734249999999999 0.0017780000000000001 -0.25374600000000003 0 -1 0 
1 -1.8734249999999999 0.00088900000000000003 -0.25374600000000003 1 0 0 
1 -1.8731249999999999 0.00088900000000000003 -0.25374600000000003 0 -1 0 
1 0 0 0 -0 -0 -1 
1 0.002 0 0 -0 -0 -1 
1 0 0 3.4255709999999997 1 0 0 
1 0.002 0.0017780000000000001 0 -0 -0 -1 
1 0.002 0 3.4255709999999997 0 1 0 
1 0 0.0017780000000000001 0 -0 -0 -1 
1 0.002 0.0017780000000000001 3.4255709999999997 -1 0 0 
1 0 0.0017780000000000001 3.4255709999999997 0 -1 0 
1 -1.8731249999999999 0 -0.26623350000000001 -1 0 0 
1 0.0018749999999999999 0 0.00025399999999999999 0 0 1 
1 0.002 0 -0.25374600000000003 0 0 1 
1 0 0 -3.6793169999999997 1 0 0 
1 0 0 -0.25374600000000003 0 0 1 
1 -1.875 0 -0.26623350000000001 0 1 0 
1 -1.875 0.0017780000000000001 -0.26623350000000001 1 0 0 
1 -1.8734249999999999 0.0017780000000000001 -0.26623350000000001 0 -1 0 
1 -1.8734249999999999 0.00088900000000000003 -0.26623350000000001 1 0 0 
1 -1.8731249999999999 0.00088900000000000003 -0.26623350000000001 0 -1 0 
1 0.0018749999999999999 0.00088900000000000003 0.00025399999999999999 0 0 1 
1 0.002 0.0017780000000000001 -0.25374600000000003 0 0 1 
1 0.002 0 -3.6793169999999997 0 1 0 
1 0.002 0.0017780000000000001 -3.6793169999999997 -1 0 0 
1 0 0.0017780000000000001 -3.6793169999999997 0 -1 0 
1 0 0.0017780000000000001 -0.25374600000000003 0 0 1 
1 0.001575 0.0017780000000000001 0.00025399999999999999 0 0 1 
1 0.001575 0.00088900000000000003 0.00025399999999999999 0 0 1 
Polygon3D 0
PolygonOnTriangulations 0
Surfaces 21
1 0 0 0 0 1 0 1 0 0 0 0 -1 
1 0.002 0 0 -1 0 0 0 1 0 0 0 -1 
1 0.002 0.0017780000000000001 0 0 -1 0 -1 0 0 -0 -0 -1 
1 0 0.0017780000000000001 0 1 0 0 0 -1 0 0 0 -1 
1 0.001 0.00088900000000000003 0 0 0 1 1 0 -0 -0 1 0 
1 0.001 0.00088900000000000003 -0.25374600000000003 0 0 1 1 0 -0 -0 1 0 
1 0.001 0.00088900000000000003 -0.25374600000000003 0 0 1 1 0 -0 -0 1 0 
1 0 0 0 0 -1 0 1 0 0 -0 0 1 
1 0.002 0 0 1 0 0 -0 1 0 0 -0 1 
1 0.002 0.0017780000000000001 0 0 1 0 -1 0 0 0 -0 1 
1 0 0.0017780000000000001 0 -1 0 0 0 -1 0 0 0 1 
1 0.001 0.00088900000000000003 3.4255709999999997 0 0 1 1 0 -0 -0 1 0 
1 0 0 -0.25374600000000003 0 1 0 1 0 0 0 0 -1 
1 -1.8740990042430878 0.00085249575691212997 -0.26623350000000001 -0 -0 -1 -1 0 0 0 1 -0 
1 0.0018749999999999999 0.00088900000000000003 0.00025399999999999999 1 0 0 0 -1 0 0 0 -1 
1 0.002 0 -0.25374600000000003 -1 0 0 0 1 0 0 0 -1 
1 0.001 0.00088900000000000003 -3.6793169999999997 0 0 1 1 0 -0 -0 1 0 
1 0 0.0017780000000000001 -0.25374600000000003 1 0 0 0 -1 0 0 0 -1 
1 0.002 0.0017780000000000001 -0.25374600000000003 0 -1 0 -1 0 0 -0 -0 -1 
1 0.001575 0.0017780000000000001 0.00025399999999999999 1 0 0 0 -1 0 0 0 -1 
1 0.001575 0.00088900000000000003 0.00025399999999999999 0 1 0 1 0 0 0 0 -1 
Triangulations 0

TShapes 120
Ve
1e-07
0 0 0
0 0

0101101
*
Ve
1e-07
0 0 0.000254
0 0

0101101
*
Ed
 1e-10 1 1 0
1  1 0 0 0.000254
0

0101000
+120 4 -119 4 *
Ve
1e-07
0.002 0 0
0 0

0101101
*
Ve
1e-07
0.002 0 0.000254
0 0

0101101
*
Ed
 1e-10 1 1 0
1  2 0 0 0.000254
0

0101000
+117 4 -116 4 *
Ed
 1e-10 1 1 0
1  3 0 0 0.002
0

0101000
+120 8 -117 8 *
Ve
1e-07
0.001875 0 0.000254
0 0

0101101
*
Ed
 1e-10 1 1 0
1  4 0 0 0.001875
0

0101000
+119 11 -113 11 *
Ed
 1e-10 1 1 0
1  5 0 0.001875 0.002
0

0101000
+113 11 -116 11 *
Wi

0101100
+118 2 -115 2 -114 7 +112 10 +111 10 *
Fa
0  1e-10 1 2

0101000
+110 0 *
Ve
1e-07
0.002 0.001778 0
0 0

0101101
*
Ve
1e-07
0.002 0.001778 0.000254
0 0

0101101
*
Ed
 1e-10 1 1 0
1  6 0 0 0.000254
0

0101000
+108 4 -107 4 *
Ed
 1e-10 1 1 0
1  7 0 0 0.001778
0

0101000
+117 8 -108 8 *
Ed
 1e-10 1 1 0
1  8 0 0 0.001778
0

0101000
+116 11 -107 11 *
Wi

0101100
+115 2 -106 2 -105 7 +104 10 *
Fa
0  1e-10 2 2

0101000
+103 0 *
Ve
1e-07
0 0.001778 0
0 0

0101101
*
Ve
1e-07
0 0.001778 0.000254
0 0

0101101
*
Ed
 1e-10 1 1 0
1  9 0 0 0.000254
0

0101000
+101 4 -100 4 *
Ed
 1e-10 1 1 0
1  10 0 0 0.002
0

0101000
+108 8 -101 8 *
Ve
1e-07
0.001575 0.001778 0.000254
0 0

0101101
*
Ed
 1e-10 1 1 0
1  11 0 0 0.000425
0

0101000
+107 11 -97 11 *
Ed
 1e-10 1 1 0
1  12 0 0.000425 0.002
0

0101000
+97 11 -100 11 *
Wi

0101100
+106 2 -99 2 -98 7 +96 10 +95 10 *
Fa
0  1e-10 3 2

0101000
+94 0 *
Ed
 1e-10 1 1 0
1  13 0 0 0.001778
0

0101000
+101 8 -120 8 *
Ed
 1e-10 1 1 0
1  14 0 0 0.001778
0

0101000
+100 11 -119 11 *
Wi

0101100
+99 2 -118 2 -92 7 +91 10 *
Fa
0  1e-10 4 2

0101000
+90 0 *
Wi

0101100
+114 7 +105 7 +98 7 +92 7 *
Fa
0  1e-10 5 7

0101000
+88 0 *
Ve
1e-07
0.001575 0.000889 0.000254
0 0

0101101
*
Ed
 1e-10 1 1 0
1  15 0 0 0.000889
0

0101000
+97 18 -86 18 *
Ve
1e-07
0.001875 0.000889 0.000254
0 0

0101101
*
Ed
 1e-10 1 1 0
1  16 0 0 0.0003
0

0101000
+86 18 -84 18 *
Ed
 1e-10 1 1 0
1  17 0 0 0.000889
0

0101000
+84 18 -113 18 *
Wi

0101100
+91 10 +95 10 -85 17 -83 17 -82 17 +112 10 *
Fa
0  1e-10 6 10

0101000
+81 0 *
Wi

0101100
+82 17 +83 17 +85 17 +96 10 +104 10 +111 10 *
Fa
0  1e-10 7 10

0101000
+79 0 *
Sh

0101100
+109 0 +102 0 +93 0 +89 0 +87 0 -80 0 -78 0 *
So

0100000
-77 0 *
Ve
1e-07
0 0 -0.003429
0 0

0101101
*
Ed
 1e-10 1 1 0
1  18 0 0 0.003429
0

0101000
+120 20 -75 20 *
Ve
1e-07
0.002 0 -0.003429
0 0

0101101
*
Ed
 1e-10 1 1 0
1  19 0 0 0.003429
0

0101000
+117 20 -73 20 *
Ed
 1e-10 1 1 0
1  20 0 0 0.002
0

0101000
+75 25 -73 25 *
Wi

0101100
+74 19 -72 19 -114 7 +71 24 *
Fa
0  1e-10 8 19

0101000
+70 0 *
Ve
1e-07
0.002 0.001778 -0.003429
0 0

0101101
*
Ed
 1e-10 1 1 0
1  21 0 0 0.003429
0

0101000
+108 20 -68 20 *
Ed
 1e-10 1 1 0
1  22 0 0 0.001778
0

0101000
+73 25 -68 25 *
Wi

0101100
+72 19 -67 19 -105 7 +66 24 *
Fa
0  1e-10 9 19

0101000
+65 0 *
Ve
1e-07
0 0.001778 -0.003429
0 0

0101101
*
Ed
 1e-10 1 1 0
1  23 0 0 0.003429
0

0101000
+101 20 -63 20 *
Ed
 1e-10 1 1 0
1  24 0 0 0.002
0

0101000
+68 25 -63 25 *
Wi

0101100
+67 19 -62 19 -98 7 +61 24 *
Fa
0  1e-10 10 19

0101000
+60 0 *
Ed
 1e-10 1 1 0
1  25 0 0 0.001778
0

0101000
+63 25 -75 25 *
Wi

0101100
+62 19 -74 19 -92 7 +58 24 *
Fa
0  1e-10 11 19

0101000
+57 0 *
Wi

0101100
+71 0 +66 0 +61 0 +58 0 *
Fa
0  1e-10 12 0

0101000
+55 0 *
Sh

0101100
+69 0 +64 0 +59 0 +56 0 +87 0 -54 24 *
So

0100000
+53 0 *
Ve
1e-07
0.001875 0 0.0002665
0 0

0101101
*
Ve
1e-07
0 0 0.0002665
0 0

0101101
*
Ed
 1e-10 1 1 0
1  26 0 0 0.001875
0

0101000
+51 31 -50 31 *
Ed
 1e-10 1 1 0
1  27 0 0 1.25e-05
0

0101000
+113 33 -51 33 *
Ve
1e-07
0.002 0 0.003683
0 0

0101101
*
Ed
 1e-10 1 1 0
1  28 0 0 0.003429
0

0101000
+116 34 -47 34 *
Ve
1e-07
0 0 0.003683
0 0

0101101
*
Ed
 1e-10 1 1 0
1  29 0 0 0.002
0

0101000
+45 39 -47 39 *
Ed
 1e-10 1 1 0
1  30 0 1.25e-05 0.003429
0

0101000
+50 34 -45 34 *
Wi

0101100
+49 30 +48 32 -111 10 -46 28 +44 38 +43 28 *
Fa
0  1e-10 13 28

0101000
+42 0 *
Ve
1e-07
0 0.001778 0.0002665
0 0

0101101
*
Ed
 1e-10 1 1 0
1  31 0 0 0.001778
0

0101000
+50 31 -40 31 *
Ve
1e-07
0.001575 0.001778 0.0002665
0 0

0101101
*
Ed
 1e-10 1 1 0
1  32 0 0 0.001575
0

0101000
+40 31 -38 31 *
Ve
1e-07
0.001575 0.000889 0.0002665
0 0

0101101
*
Ed
 1e-10 1 1 0
1  33 0 0 0.000889
0

0101000
+38 31 -36 31 *
Ve
1e-07
0.001875 0.000889 0.0002665
0 0

0101101
*
Ed
 1e-10 1 1 0
1  34 0 0 0.0003
0

0101000
+36 31 -34 31 *
Ed
 1e-10 1 1 0
1  35 0 0 0.000889
0

0101000
+34 31 -51 31 *
Wi

0101100
+49 0 +39 0 +37 0 +35 0 +33 0 +32 0 *
Fa
0  1e-10 14 0

0101000
+31 0 *
Ed
 1e-10 1 1 0
1  36 0 0 1.25e-05
0

0101000
+84 33 -34 33 *
Wi

0101100
+29 32 -48 32 -82 17 +32 30 *
Fa
0  1e-10 15 32

0101000
+28 0 *
Ve
1e-07
0.002 0.001778 0.003683
0 0

0101101
*
Ed
 1e-10 1 1 0
1  37 0 0 0.003429
0

0101000
+107 34 -26 34 *
Ed
 1e-10 1 1 0
1  38 0 0 0.001778
0

0101000
+47 39 -26 39 *
Wi

0101100
+46 28 -25 28 -104 10 +24 38 *
Fa
0  1e-10 16 28

0101000
+23 0 *
Ve
1e-07
0 0.001778 0.003683
0 0

0101101
*
Ed
 1e-10 1 1 0
1  39 0 0 0.002
0

0101000
+26 39 -21 39 *
Ed
 1e-10 1 1 0
1  40 0 0 0.001778
0

0101000
+21 39 -45 39 *
Wi

0101100
+44 0 +24 0 +20 0 +19 0 *
Fa
0  1e-10 17 0

0101000
+18 0 *
Ed
 1e-10 1 1 0
1  41 0 1.25e-05 0.003429
0

0101000
+40 34 -21 34 *
Wi

0101100
+39 41 -43 40 +19 42 +16 40 *
Fa
0  1e-10 18 40

0101000
+15 0 *
Ed
 1e-10 1 1 0
1  42 0 0 1.25e-05
0

0101000
+97 33 -38 33 *
Wi

0101100
-96 10 -13 32 +37 30 -16 28 +20 38 +25 28 *
Fa
0  1e-10 19 28

0101000
+12 0 *
Ed
 1e-10 1 1 0
1  43 0 0 1.25e-05
0

0101000
+86 33 -36 33 *
Wi

0101100
+13 32 -10 32 -85 17 +35 30 *
Fa
0  1e-10 20 32

0101000
+9 0 *
Wi

0101100
+10 32 -29 32 -83 17 +33 30 *
Fa
0  1e-10 21 32

0101000
+7 0 *
Sh

0101100
-41 0 +30 30 -27 0 -78 0 -22 0 +17 38 -14 16 -11 0 -8 0 -6 0 
*
So

0100000
+5 0 *
Co

0100000
+4 0 *
Co

0100000
+76 0 +52 0 +3 0 *
Co

1100000
+2 1 *

+1 0 