DBRep_DrawableShape

CASCADE Topology V1, (c) Matra-Datavision
Locations 12
1
-0.279504460853482 -0.891006524188368 -0.357749395830053 -8.34566748435645e-05 
-0.733818908073044 0.438521148588309 -0.518853555827919 -0.00310101722872378 
0.619182579307178 0.117501387628206 -0.776406051874891 -0.000489693497177537 
1
              1               0               0               0 
              0               1               0               0 
              0               0               1               0 
2  2 -1 0
1
              1               0               0               0 
              0               1               0               0 
              0               0               1               0 
1
              1               0               0          -11.43 
              0               1               0           -5.08 
              0               0               1               0 
2  4 1 5 1 0
2  5 -1 4 -1 0
2  2 -1 5 -1 4 -1 0
1
              1               0               0               0 
              0               1               0               0 
              0               0               1             100 
2  4 1 5 1 9 1 0
2  9 -1 5 -1 4 -1 0
2  2 -1 9 -1 5 -1 4 -1 0
Curve2ds 0
Curves 12
1 -0.011430000000000004 -0.005080000000000002 0 0 0 1 
1 0.011430000000000004 -0.005080000000000002 0 0 0 1 
1 11.418569999999999 5.0749199999999997 0 1 0 0 
1 11.418569999999999 5.0749199999999997 -99.900000000000006 1 0 0 
1 0.011430000000000004 0.005080000000000002 0 0 0 1 
1 11.441429999999999 5.0749199999999997 0 0 1 0 
1 11.441429999999999 5.0749199999999997 -99.900000000000006 0 1 0 
1 -0.011430000000000004 0.005080000000000002 0 0 0 1 
1 11.441429999999999 5.0850799999999996 0 -1 0 0 
1 11.441429999999999 5.0850799999999996 -99.900000000000006 -1 0 0 
1 11.418569999999999 5.0850799999999996 0 0 -1 0 
1 11.418569999999999 5.0850799999999996 -99.900000000000006 0 -1 0 
Polygon3D 0
PolygonOnTriangulations 24
2 1 2 
p 0.000362203002639378 1 0 0.1 
2 4 3 
p 0.000362203002639378 1 0 0.1 
2 4 3 
p 0.000362203002639378 1 0 0.1 
2 1 2 
p 0.000362203002639378 1 0 0.1 
2 1 4 
p 0.000362203002639378 1 0 0.02286 
2 1 2 
p 0.000362203002639378 1 0 0.02286 
2 2 3 
p 0.000362203002639378 1 0 0.02286 
2 1 2 
p 0.000362203002639378 1 0 0.02286 
2 4 3 
p 0.000362203002639378 1 0 0.1 
2 1 2 
p 0.000362203002639378 1 0 0.1 
2 1 4 
p 0.000362203002639378 1 0 0.01016 
2 2 3 
p 0.000362203002639378 1 0 0.01016 
2 2 3 
p 0.000362203002639378 1 0 0.01016 
2 2 3 
p 0.000362203002639378 1 0 0.01016 
2 4 3 
p 0.000362203002639378 1 0 0.1 
2 1 2 
p 0.000362203002639378 1 0 0.1 
2 1 4 
p 0.000362203002639378 1 0 0.02286 
2 3 4 
p 0.000362203002639378 1 0 0.02286 
2 2 3 
p 0.000362203002639378 1 0 0.02286 
2 3 4 
p 0.000362203002639378 1 0 0.02286 
2 1 4 
p 0.000362203002639378 1 0 0.01016 
2 4 1 
p 0.000362203002639378 1 0 0.01016 
2 2 3 
p 0.000362203002639378 1 0 0.01016 
2 4 1 
p 0.000362203002639378 1 0 0.01016 
Surfaces 6
1 -0.011430000000000004 -0.005080000000000002 0 0 1 0 1 0 0 0 0 -1 
1 0.011430000000000004 -0.005080000000000002 0 -1 0 0 0 1 0 0 0 -1 
1 0.011430000000000004 0.005080000000000002 0 0 -1 0 -1 0 0 -0 -0 -1 
1 -0.011430000000000004 0.005080000000000002 0 1 0 0 0 -1 0 0 0 -1 
1 11.43 5.0800000000000001 0 0 0 1 1 0 0 0 1 0 
1 11.43 5.0800000000000001 -99.900000000000006 0 0 1 1 0 0 0 1 0 
Triangulations 6
4 2 1 0.000362203002639378
-0.01143 -0.00508 8.67361737988404e-19 -0.01143 -0.00508 0.1 0.01143 -0.00508 0.1 0.01143 -0.00508 -8.67361737988404e-19 -7.12971348626468e-16 0 -7.12971348626468e-16 -0.0999999999999943 0.02286 -0.1 0.0228599999999993 0 4 1 2 4 2 3 
4 2 1 0.000362203002639378
-0.01143 0.00508 1.30104260698261e-18 -0.01143 0.00508 0.1 -0.01143 -0.00508 0.1 -0.01143 -0.00508 8.67361737988404e-19 4.7271214720368e-16 0 4.7271214720368e-16 -0.0999999999999943 0.01016 -0.1 0.0101600000000005 0 4 1 2 4 2 3 
4 2 1 0.000362203002639378
0.01143 -0.00508 -8.67361737988404e-19 0.01143 -0.00508 0.1 0.01143 0.00508 0.1 0.01143 0.00508 -8.67361737988404e-19 -4.15466272496445e-16 0 -4.15466272496445e-16 -0.0999999999999943 0.01016 -0.1 0.0101599999999996 0 4 1 2 4 2 3 
4 2 1 0.000362203002639378
11.41857 5.07492 -1.0174153186604e-15 11.44143 5.07492 -1.01915004213637e-15 11.44143 5.08508 -1.01915004213637e-15 11.41857 5.08508 -1.0169816377914e-15 -0.0114300000000007 -0.00508000000000047 0.0114299999999989 -0.00508000000000042 0.0114299999999989 0.00507999999999953 -0.0114300000000007 0.00507999999999953 3 1 2 3 4 1 
4 2 1 0.000362203002639378
11.41857 5.07492000000001 -99.9 11.44143 5.07492000000001 -99.9 11.44143 5.08508000000001 -99.9 11.41857 5.08508000000001 -99.9 -0.0114300000000007 -0.00508000000000047 0.0114299999999989 -0.00508000000000042 0.0114299999999989 0.00507999999999953 -0.0114300000000007 0.00507999999999953 3 1 2 3 4 1 
4 2 1 0.000362203002639378
0.01143 0.00508 -8.67361737988404e-19 0.01143 0.00508 0.1 -0.01143 0.00508 0.1 -0.01143 0.00508 1.30104260698261e-18 1.06338549077378e-15 0 1.06338549077378e-15 -0.0999999999999943 0.02286 -0.1 0.0228600000000011 0 4 1 2 4 2 3 

TShapes 35
Ve
1e-07
-0.01143 -0.00508 0
0 0

0101101
*
Ve
1e-07
-0.01143 -0.00508 0.1
0 0

0101101
*
Ed
 1e-10 1 1 0
1  1 0 0 0.1
6  1 1 0
6  2 2 0
0

0101000
+35 3 -34 3 *
Ve
1e-07
0.01143 -0.00508 0
0 0

0101101
*
Ve
1e-07
0.01143 -0.00508 0.1
0 0

0101101
*
Ed
 1e-10 1 1 0
1  2 0 0 0.1
6  3 1 0
6  4 3 0
0

0101000
+32 3 -31 3 *
Ed
 1e-10 1 1 0
1  3 0 0 0.02286
6  5 1 7
6  6 4 0
0

0101000
+35 8 -32 8 *
Ed
 1e-10 1 1 0
1  4 0 0 0.02286
6  7 1 11
6  8 5 0
0

0101000
+34 12 -31 12 *
Wi

0101100
+33 0 -30 0 -29 6 +28 10 *
Fa
0  1e-10 1 0
2  1
0101000
+27 0 *
Ve
1e-07
0.01143 0.00508 0
0 0

0101101
*
Ve
1e-07
0.01143 0.00508 0.1
0 0

0101101
*
Ed
 1e-10 1 1 0
1  5 0 0 0.1
6  9 3 0
6  10 6 0
0

0101000
+25 3 -24 3 *
Ed
 1e-10 1 1 0
1  6 0 0 0.01016
6  11 3 7
6  12 4 0
0

0101000
+32 8 -25 8 *
Ed
 1e-10 1 1 0
1  7 0 0 0.01016
6  13 3 11
6  14 5 0
0

0101000
+31 12 -24 12 *
Wi

0101100
+30 0 -23 0 -22 6 +21 10 *
Fa
0  1e-10 2 0
2  3
0101000
+20 0 *
Ve
1e-07
-0.01143 0.00508 0
0 0

0101101
*
Ve
1e-07
-0.01143 0.00508 0.1
0 0

0101101
*
Ed
 1e-10 1 1 0
1  8 0 0 0.1
6  15 6 0
6  16 2 0
0

0101000
+18 3 -17 3 *
Ed
 1e-10 1 1 0
1  9 0 0 0.02286
6  17 6 7
6  18 4 0
0

0101000
+25 8 -18 8 *
Ed
 1e-10 1 1 0
1  10 0 0 0.02286
6  19 6 11
6  20 5 0
0

0101000
+24 12 -17 12 *
Wi

0101100
+23 0 -16 0 -15 6 +14 10 *
Fa
0  1e-10 3 0
2  6
0101000
+13 0 *
Ed
 1e-10 1 1 0
1  11 0 0 0.01016
6  21 2 7
6  22 4 0
0

0101000
+18 8 -35 8 *
Ed
 1e-10 1 1 0
1  12 0 0 0.01016
6  23 2 11
6  24 5 0
0

0101000
+17 12 -34 12 *
Wi

0101100
+16 0 -33 0 -11 6 +10 10 *
Fa
0  1e-10 4 0
2  2
0101000
+9 0 *
Wi

0101100
+29 0 +22 0 +15 0 +11 0 *
Fa
0  1e-10 5 0
2  4
0101000
+7 0 *
Wi

0101100
+28 0 +21 0 +14 0 +10 0 *
Fa
0  1e-10 6 0
2  5
0101000
+5 0 *
Sh

0101100
+26 0 +19 0 +12 0 +8 0 +6 6 -4 10 *
So

0100000
-3 0 *
Co

1100000
+2 1 *

+1 0 