DBRep_DrawableShape

CASCADE Topology V1, (c) Matra-Datavision
Locations 44
1
              1               0               0               0 
              0               1               0               0 
              0               0               1               0 
1
              1               0               0               0 
              0               1               0               0 
              0               0               1               0 
2  2 -1 0
1
              1               0               0               0 
              0               1               0               0 
              0               0               1               0 
2  4 -1 2 -1 0
1
              1               0               0               0 
              0               1               0               0 
              0               0               1               0 
1
              1               0               0 9.89994196950285 
              0               1               0           -5.08 
              0               0               1             100 
1
              1               0               0              -0 
              0               1               0              -0 
              0               0               1            -100 
2  6 1 7 1 8 1 2 1 0
2  2 -1 8 -1 7 -1 6 -1 0
2  4 -1 2 -1 8 -1 7 -1 6 -1 0
1
              1               0               0               0 
              0               1               0               0 
              0               0               1             100 
2  6 1 7 1 8 1 12 1 2 1 0
2  2 -1 12 -1 8 -1 7 -1 6 -1 0
2  4 -1 2 -1 12 -1 8 -1 7 -1 6 -1 0
1
              1               0               0               0 
              0               1               0               0 
              0               0               1               0 
2  16 -1 0
2  4 -1 16 -1 0
1
              1               0               0               0 
              0               1               0               0 
              0               0               1               0 
1
              1               0               0           10.43 
              0               1               0           -5.08 
              0               0               1             100 
1
              1               0               0              -0 
              0               1               0              -0 
              0               0               1            -100 
2  19 1 20 1 21 1 16 1 0
2  16 -1 21 -1 20 -1 19 -1 0
2  4 -1 16 -1 21 -1 20 -1 19 -1 0
1
              1               0               0               0 
              0               1               0               0 
              0               0               1             100 
2  19 1 20 1 21 1 25 1 16 1 0
2  16 -1 25 -1 21 -1 20 -1 19 -1 0
2  4 -1 16 -1 25 -1 21 -1 20 -1 19 -1 0
1
              1               0               0               0 
              0               1               0               0 
              0               0               1               0 
1
              1               0               0               0 
              0               1               0               0 
              0               0               1               0 
1
              1               0               0          -11.43 
              0               1               0           -5.08 
              0               0               1               0 
2  30 1 31 1 29 1 0
2  29 -1 31 -1 30 -1 0
2  4 -1 29 -1 31 -1 30 -1 0
1
              1               0               0               0 
              0               1               0               0 
              0               0               1             100 
2  30 1 31 1 35 1 29 1 0
2  29 -1 35 -1 31 -1 30 -1 0
2  4 -1 29 -1 35 -1 31 -1 30 -1 0
2  29 -1 0
2  4 -1 29 -1 0
2  31 -1 30 -1 0
2  35 -1 31 -1 30 -1 0
2  30 1 31 1 0
2  30 1 31 1 35 1 0
Curve2ds 0
Curves 31
1 0.0098999419695028554 -0.005080000000000002 0 0 0 1 
1 0.010430000000000005 -0.005080000000000002 0 0 0 1 
1 -9.8900420275333492 5.0749199999999997 0 1 0 0 
1 -9.8900420275333492 5.0749199999999997 -99.900000000000006 1 0 0 
1 0.010430000000000005 -0.0030800000000000016 0 0 0 1 
1 -9.8895119695028519 5.0749199999999997 0 0 1 0 
1 -9.8895119695028519 5.0749199999999997 -99.900000000000006 0 1 0 
1 0.0098999419695028554 -0.0030800000000000016 0 0 0 1 
1 -9.8895119695028519 5.0769199999999994 0 -1 0 0 
1 -9.8895119695028519 5.0769199999999994 -99.900000000000006 -1 0 0 
1 -9.8900420275333492 5.0769199999999994 0 0 -1 0 
1 -9.8900420275333492 5.0769199999999994 -99.900000000000006 0 -1 0 
1 0.011430000000000004 -0.005080000000000002 0 0 0 1 
1 -10.41957 5.0749199999999997 0 1 0 0 
1 -10.41957 5.0749199999999997 -99.900000000000006 1 0 0 
1 0.011430000000000004 0.005080000000000002 0 0 0 1 
1 -10.418570000000001 5.0749199999999997 0 0 1 0 
1 -10.418570000000001 5.0749199999999997 -99.900000000000006 0 1 0 
1 0.010430000000000005 0.005080000000000002 0 0 0 1 
1 -10.418570000000001 5.0850799999999996 0 -1 0 0 
1 -10.418570000000001 5.0850799999999996 -99.900000000000006 -1 0 0 
1 -10.41957 5.0850799999999996 0 0 -1 0 
1 -10.41957 5.0850799999999996 -99.900000000000006 0 -1 0 
1 11.418569999999999 5.0749199999999997 0 1 0 0 
1 11.418569999999999 5.0749199999999997 -99.900000000000006 1 0 0 
1 -0.011430000000000004 -0.005080000000000002 0 0 0 1 
1 11.418569999999999 5.0850799999999996 0 0 -1 0 
1 11.441429999999999 5.0850799999999996 0 -1 0 0 
1 11.418569999999999 5.0850799999999996 -99.900000000000006 0 -1 0 
1 11.441429999999999 5.0850799999999996 -99.900000000000006 -1 0 0 
1 -0.011430000000000004 0.005080000000000002 0 0 0 1 
Polygon3D 0
PolygonOnTriangulations 74
2 1 2 
p 0.000221700000000003 1 0 0.1 
2 4 3 
p 0.000221700000000003 1 0 0.1 
2 2 4 
p 0.000221700000000003 1 0 0.1 
2 4 3 
p 0.000221700000000003 1 0 0.1 
2 1 2 
p 0.000221700000000003 1 0 0.1 
2 1 2 
p 0.000221700000000003 1 0 0.1 
2 1 4 
p 0.000221700000000003 1 0 0.000530058030497149 
2 1 2 
p 0.000221700000000003 1 0 0.000530058030497149 
2 2 3 
p 0.000221700000000003 1 0 0.000530058030497149 
2 1 2 
p 0.000221700000000003 1 0 0.000530058030497149 
2 4 3 
p 0.000221700000000003 1 0 0.1 
2 1 2 
p 0.000221700000000003 1 0 0.1 
2 2 4 
p 0.000221700000000003 1 0 0.1 
2 1 4 
p 0.000221700000000003 1 0 0.002 
2 2 3 
p 0.000221700000000003 1 0 0.002 
2 1 5 
p 0.000221700000000003 1 0 0.002 
2 2 3 
p 0.000221700000000003 1 0 0.002 
2 2 3 
p 0.000221700000000003 1 0 0.002 
2 1 5 
p 0.000221700000000003 1 0 0.002 
2 4 3 
p 0.000221700000000003 1 0 0.1 
2 1 2 
p 0.000221700000000003 1 0 0.1 
2 1 4 
p 0.000221700000000003 1 0 0.000530058030497149 
2 3 4 
p 0.000221700000000003 1 0 0.000530058030497149 
2 5 4 
p 0.000221700000000003 1 0 0.000530058030497149 
2 2 3 
p 0.000221700000000003 1 0 0.000530058030497149 
2 3 4 
p 0.000221700000000003 1 0 0.000530058030497149 
2 5 4 
p 0.000221700000000003 1 0 0.000530058030497149 
2 1 4 
p 0.000221700000000003 1 0 0.002 
2 4 1 
p 0.000221700000000003 1 0 0.002 
2 4 3 
p 0.000221700000000003 1 0 0.002 
2 2 3 
p 0.000221700000000003 1 0 0.002 
2 4 1 
p 0.000221700000000003 1 0 0.002 
2 4 3 
p 0.000221700000000003 1 0 0.002 
2 4 3 
p 0.000221700000000003 1 0 0.1 
2 1 2 
p 0.000221700000000003 1 0 0.1 
2 1 4 
p 0.000221700000000003 1 0 0.001 
2 1 2 
p 0.000221700000000003 1 0 0.001 
2 2 3 
p 0.000221700000000003 1 0 0.001 
2 1 2 
p 0.000221700000000003 1 0 0.001 
2 4 3 
p 0.000221700000000003 1 0 0.1 
2 1 2 
p 0.000221700000000003 1 0 0.1 
2 1 4 
p 0.000221700000000003 1 0 0.01016 
2 2 3 
p 0.000221700000000003 1 0 0.01016 
2 2 3 
p 0.000221700000000003 1 0 0.01016 
2 2 3 
p 0.000221700000000003 1 0 0.01016 
2 4 3 
p 0.000221700000000003 1 0 0.1 
2 1 3 
p 0.000221700000000003 1 0 0.1 
2 1 3 
p 0.000221700000000003 1 0 0.1 
2 1 4 
p 0.000221700000000003 1 0 0.001 
2 3 4 
p 0.000221700000000003 1 0 0.001 
2 2 3 
p 0.000221700000000003 1 0 0.001 
2 3 4 
p 0.000221700000000003 1 0 0.001 
2 1 2 
p 0.000221700000000003 1 0 0.00816 
2 4 5 
p 0.000221700000000003 1 0 0.00816 
2 6 5 
p 0.000221700000000003 1 0 0.00816 
2 3 4 
p 0.000221700000000003 1 0 0.00816 
2 4 5 
p 0.000221700000000003 1 0 0.00816 
2 6 5 
p 0.000221700000000003 1 0 0.00816 
2 1 2 
p 0.000221700000000003 1 0 0.0213299419695029 
2 2 3 
p 0.000221700000000003 1 0 0.0213299419695029 
2 3 4 
p 0.000221700000000003 1 0 0.0213299419695029 
2 2 3 
p 0.000221700000000003 1 0 0.0213299419695029 
2 1 3 
p 0.000221700000000003 1 0 0.1 
2 4 3 
p 0.000221700000000003 1 0 0.1 
2 1 2 
p 0.000221700000000003 1 0 0.01016 
2 1 4 
p 0.000221700000000003 1 0 0.01016 
2 6 1 
p 0.000221700000000003 1 0.001 0.02286 
2 1 2 
p 0.000221700000000003 1 0.001 0.02286 
2 1 2 
p 0.000221700000000003 1 0 0.01016 
2 2 3 
p 0.000221700000000003 1 0 0.01016 
2 6 1 
p 0.000221700000000003 1 0.001 0.02286 
2 3 4 
p 0.000221700000000003 1 0.001 0.02286 
2 1 2 
p 0.000221700000000003 1 0 0.1 
2 2 4 
p 0.000221700000000003 1 0 0.1 
Surfaces 17
1 0.0098999419695028554 -0.005080000000000002 0 0 1 0 1 0 0 0 0 -1 
1 0.010430000000000005 -0.005080000000000002 0 -1 0 0 0 1 0 0 0 -1 
1 0.010430000000000005 -0.0030800000000000016 0 0 -1 0 -1 0 0 -0 -0 -1 
1 0.0098999419695028554 -0.0030800000000000016 0 1 0 0 0 -1 0 0 0 -1 
1 -9.8897769985181014 5.07592 0 0 0 1 1 0 0 0 1 0 
1 -9.8897769985181014 5.07592 -99.900000000000006 0 0 1 1 0 0 0 1 0 
1 0.010430000000000005 -0.005080000000000002 0 0 1 0 1 0 0 0 0 -1 
1 0.011430000000000004 -0.005080000000000002 0 -1 0 0 0 1 0 0 0 -1 
1 0.011430000000000004 0.005080000000000002 0 0 -1 0 -1 0 0 -0 -0 -1 
1 0.010430000000000005 0.005080000000000002 0 1 0 0 0 -1 0 0 0 -1 
1 -10.41907 5.0800000000000001 0 0 0 1 1 0 0 0 1 0 
1 -10.41907 5.0800000000000001 -99.900000000000006 0 0 1 1 0 0 0 1 0 
1 -0.011430000000000004 -0.005080000000000002 0 0 1 0 1 0 0 0 0 -1 
1 11.43 5.0800000000000001 0 0 0 1 1 0 0 0 1 0 
1 11.43 5.0800000000000001 -99.900000000000006 0 0 1 1 0 0 0 1 0 
1 -0.011430000000000004 0.005080000000000002 0 1 0 0 0 -1 0 0 0 -1 
1 0.011430000000000004 0.005080000000000002 0 0 -1 0 -1 0 0 -0 -0 -1 
Triangulations 17
4 2 1 0.000221700000000003
0.00989994196950286 -0.00508 0 0.00989994196950286 -0.00508 0.1 0.01043 -0.00508 0.1 0.01043 -0.00508 0 -5.759281940243e-16 0 -5.759281940243e-16 -0.0999999999999943 0.00053005803049715 -0.1 0.000530058030496573 0 4 1 2 4 2 3 
4 2 1 0.000221700000000003
0.00989994196950286 -0.00308 0 0.00989994196950286 -0.00308 0.1 0.00989994196950286 -0.00508 0.1 0.00989994196950286 -0.00508 0 6.36209834814494e-16 0 6.36209834814494e-16 -0.0999999999999943 0.002 -0.1 0.00200000000000064 0 4 1 2 4 2 3 
4 2 1 0.000221700000000003
-0.01143 -0.00508 0 0.00989994196950286 -0.00508 0 -0.01143 -0.00508 0.1 0.00989994196950286 -0.00508 0.1 0 0 0.0213299419695029 0 -7.12971348626468e-16 -0.0999999999999943 0.0213299419695029 -0.1 2 1 3 2 3 4 
4 2 1 0.000221700000000003
0.01043 -0.00508 0 0.01043 -0.00508 0.1 0.01043 -0.00308 0.1 0.01043 -0.00308 0 -4.15466272496445e-16 0 -4.15466272496445e-16 -0.0999999999999943 0.002 -0.1 0.00199999999999959 0 4 1 2 4 2 3 
4 2 1 0.000221700000000003
0.01043 -0.00508 0 0.01043 -0.00508 0.1 0.01143 -0.00508 0.1 0.01143 -0.00508 0 -5.10008701937181e-16 0 -5.10008701937181e-16 -0.0999999999999943 0.000999999999999999 -0.1 0.00099999999999949 0 4 1 2 4 2 3 
4 2 1 0.000221700000000003
0.00989994196950286 -0.00508 0 0.01043 -0.00508 0 0.01043 -0.00308 0 0.00989994196950286 -0.00308 0 -0.00026502901524772 -0.00100000000000056 0.000265029015249496 -0.00100000000000033 0.000265029015249496 0.000999999999999446 -0.00026502901524772 0.000999999999999446 3 1 2 3 4 1 
4 2 1 0.000221700000000003
0.00989994196950286 -0.00508 0.1 0.01043 -0.00508 0.1 0.01043 -0.00308 0.1 0.00989994196950286 -0.00308 0.1 -0.00026502901524772 -0.00100000000000056 0.000265029015249496 -0.00100000000000033 0.000265029015249496 0.000999999999999446 -0.00026502901524772 0.000999999999999446 3 1 2 3 4 1 
4 2 1 0.000221700000000003
0.01043 -0.00308 0 0.01043 -0.00308 0.1 0.00989994196950286 -0.00308 0.1 0.00989994196950286 -0.00308 0 5.10008701937181e-16 0 5.10008701937181e-16 -0.0999999999999943 0.00053005803049715 -0.1 0.000530058030497659 0 4 1 2 4 2 3 
4 2 1 0.000221700000000003
0.01043 0.00508 0 0.01043 -0.00308 0 0.01043 0.00508 0.1 0.01043 -0.00308 0.1 0 0 0.00816 0 4.7271214720368e-16 -0.0999999999999943 0.00816 -0.1 2 1 3 2 3 4 
5 3 1 0.000221700000000003
0.01043 -0.00508 0 0.01143 -0.00508 0 0.01143 0.00508 0 0.01043 0.00508 0 0.01043 -0.00308 0 -0.000500000000000611 -0.00508000000000042 0.000499999999998835 -0.00508000000000042 0.000499999999998835 0.00507999999999953 -0.000500000000000611 0.00507999999999953 -0.000500000000000611 -0.00308000000000042 5 1 2 3 4 5 2 3 5 
5 3 1 0.000221700000000003
0.01043 -0.00508 0.1 0.01143 -0.00508 0.1 0.01143 0.00508 0.1 0.01043 0.00508 0.1 0.01043 -0.00308 0.1 -0.000500000000000611 -0.00508000000000042 0.000499999999998835 -0.00508000000000042 0.000499999999998835 0.00507999999999953 -0.000500000000000611 0.00507999999999953 -0.000500000000000611 -0.00308000000000042 5 1 2 3 4 5 2 3 5 
6 4 1 0.000221700000000003
-0.01143 0.00508 0 -0.01143 -0.00508 0 0.00989994196950286 -0.00508 0 0.00989994196950286 -0.00308 0 0.01043 -0.00308 0 0.01043 0.00508 0 -0.0114300000000011 0.00507999999999953 -0.0114300000000007 -0.00508000000000042 0.00989994196950228 -0.00508000000000064 0.00989994196950235 -0.00308000000000064 0.0104299999999995 -0.00308000000000047 0.0104299999999989 0.00507999999999953 4 1 2 4 2 3 6 4 5 6 1 4 
6 4 1 0.000221700000000003
-0.01143 0.00508 0.1 -0.01143 -0.00508 0.1 0.00989994196950286 -0.00508 0.1 0.00989994196950286 -0.00308 0.1 0.01043 -0.00308 0.1 0.01043 0.00508 0.1 -0.0114300000000011 0.00507999999999953 -0.0114300000000007 -0.00508000000000042 0.00989994196950228 -0.00508000000000064 0.00989994196950235 -0.00308000000000064 0.0104299999999995 -0.00308000000000047 0.0104299999999989 0.00507999999999953 4 1 2 4 2 3 6 4 5 6 1 4 
4 2 1 0.000221700000000003
0.01143 -0.00508 0 0.01143 -0.00508 0.1 0.01143 0.00508 0.1 0.01143 0.00508 0 -4.15466272496445e-16 0 -4.15466272496445e-16 -0.0999999999999943 0.01016 -0.1 0.0101599999999996 0 4 1 2 4 2 3 
4 2 1 0.000221700000000003
0.01143 0.00508 0 0.01143 0.00508 0.1 0.01043 0.00508 0.1 0.01043 0.00508 0 1.06338549077378e-15 0 1.06338549077378e-15 -0.0999999999999943 0.000999999999999999 -0.1 0.00100000000000106 0 4 1 2 4 2 3 
4 2 1 0.000221700000000003
0.01043 0.00508 0 -0.01143 0.00508 0 0.01043 0.00508 0.1 -0.01143 0.00508 0.1 0.000999999999999999 0 0.02286 0 0.00100000000000106 -0.0999999999999943 0.02286 -0.1 2 1 3 2 3 4 
4 2 1 0.000221700000000003
-0.01143 0.00508 0 -0.01143 0.00508 0.1 -0.01143 -0.00508 0.1 -0.01143 -0.00508 0 4.7271214720368e-16 0 4.7271214720368e-16 -0.0999999999999943 0.01016 -0.1 0.0101600000000005 0 4 1 2 4 2 3 

TShapes 91
Ve
1e-07
0.00989994196950286 -0.00508 0
0 0

0101101
*
Ve
1e-07
0.00989994196950286 -0.00508 0.1
0 0

0101101
*
Ed
 1e-10 1 1 0
1  1 0 0 0.1
6  1 1 3
6  2 2 3
6  3 3 3
0

0101000
+91 5 -90 5 *
Ve
1e-07
0.01043 -0.00508 0
0 0

0101101
*
Ve
1e-07
0.01043 -0.00508 0.1
0 0

0101101
*
Ed
 1e-10 1 1 0
1  2 0 0 0.1
6  4 1 3
6  5 4 3
6  6 5 3
0

0101000
+88 5 -87 5 *
Ed
 1.00000001776357e-10 1 1 0
1  3 0 0 0.000530058030497149
6  7 1 10
6  8 6 10
0

0101000
+91 11 -88 11 *
Ed
 1.00000001776357e-10 1 1 0
1  4 0 0 0.000530058030497149
6  9 1 14
6  10 7 14
0

0101000
+90 15 -87 15 *
Wi

0101100
+89 2 -86 2 -85 9 +84 13 *
Fa
0  1e-10 1 2
2  1
0101000
+83 0 *
Ve
1e-07
0.01043 -0.00308 0
0 0

0101101
*
Ve
1e-07
0.01043 -0.00308 0.1
0 0

0101101
*
Ed
 1e-10 1 1 0
1  5 0 0 0.1
6  11 4 3
6  12 8 3
6  13 9 3
0

0101000
+81 5 -80 5 *
Ed
 1.00000000888178e-10 1 1 0
1  6 0 0 0.002
6  14 4 10
6  15 6 10
6  16 10 10
0

0101000
+88 11 -81 11 *
Ed
 1.00000000888178e-10 1 1 0
1  7 0 0 0.002
6  17 4 14
6  18 7 14
6  19 11 14
0

0101000
+87 15 -80 15 *
Wi

0101100
+86 2 -79 2 -78 9 +77 13 *
Fa
0  1e-10 2 2
2  4
0101000
+76 0 *
Ve
1e-07
0.00989994196950286 -0.00308 0
0 0

0101101
*
Ve
1e-07
0.00989994196950286 -0.00308 0.1
0 0

0101101
*
Ed
 1e-10 1 1 0
1  8 0 0 0.1
6  20 8 3
6  21 2 3
0

0101000
+74 5 -73 5 *
Ed
 1e-10 1 1 0
1  9 0 0 0.000530058030497149
6  22 8 10
6  23 6 10
6  24 12 10
0

0101000
+81 11 -74 11 *
Ed
 1e-10 1 1 0
1  10 0 0 0.000530058030497149
6  25 8 14
6  26 7 14
6  27 13 14
0

0101000
+80 15 -73 15 *
Wi

0101100
+79 2 -72 2 -71 9 +70 13 *
Fa
0  1e-10 3 2
2  8
0101000
+69 0 *
Ed
 1e-10 1 1 0
1  11 0 0 0.002
6  28 2 10
6  29 6 10
6  30 12 10
0

0101000
+74 11 -91 11 *
Ed
 1e-10 1 1 0
1  12 0 0 0.002
6  31 2 14
6  32 7 14
6  33 13 14
0

0101000
+73 15 -90 15 *
Wi

0101100
+72 2 -89 2 -67 9 +66 13 *
Fa
0  1e-10 4 2
2  2
0101000
+65 0 *
Wi

0101100
+85 9 +78 9 +71 9 +67 9 *
Fa
0  1e-10 5 9
2  6
0101000
+63 0 *
Wi

0101100
+84 13 +77 13 +70 13 +66 13 *
Fa
0  1e-10 6 13
2  7
0101000
+61 0 *
Sh

0101100
+82 0 +75 0 +68 0 +64 0 +62 0 -60 0 *
So

0100000
-59 0 *
Ve
1e-07
0.01143 -0.00508 0
0 0

0101101
*
Ve
1e-07
0.01143 -0.00508 0.1
0 0

0101101
*
Ed
 1e-10 1 1 0
1  13 0 0 0.1
6  34 5 17
6  35 14 17
0

0101000
+57 18 -56 18 *
Ed
 1.00000001776357e-10 1 1 0
1  14 0 0 0.001
6  36 5 23
6  37 10 23
0

0101000
+88 24 -57 24 *
Ed
 1.00000001776357e-10 1 1 0
1  15 0 0 0.001
6  38 5 27
6  39 11 27
0

0101000
+87 28 -56 28 *
Wi

0101100
+86 2 -55 16 -54 22 +53 26 *
Fa
0  1e-10 7 16
2  5
0101000
+52 0 *
Ve
1e-07
0.01143 0.00508 0
0 0

0101101
*
Ve
1e-07
0.01143 0.00508 0.1
0 0

0101101
*
Ed
 1e-10 1 1 0
1  16 0 0 0.1
6  40 14 17
6  41 15 17
0

0101000
+50 18 -49 18 *
Ed
 1e-10 1 1 0
1  17 0 0 0.01016
6  42 14 23
6  43 10 23
0

0101000
+57 24 -50 24 *
Ed
 1e-10 1 1 0
1  18 0 0 0.01016
6  44 14 27
6  45 11 27
0

0101000
+56 28 -49 28 *
Wi

0101100
+55 16 -48 16 -47 22 +46 26 *
Fa
0  1e-10 8 16
2  14
0101000
+45 0 *
Ve
1e-07
0.01043 0.00508 0
0 0

0101101
*
Ve
1e-07
0.01043 0.00508 0.1
0 0

0101101
*
Ed
 1e-10 1 1 0
1  19 0 0 0.1
6  46 15 17
6  47 9 17
6  48 16 17
0

0101000
+43 18 -42 18 *
Ed
 1e-10 1 1 0
1  20 0 0 0.001
6  49 15 23
6  50 10 23
0

0101000
+50 24 -43 24 *
Ed
 1e-10 1 1 0
1  21 0 0 0.001
6  51 15 27
6  52 11 27
0

0101000
+49 28 -42 28 *
Wi

0101100
+48 16 -41 16 -40 22 +39 26 *
Fa
0  1e-10 9 16
2  15
0101000
+38 0 *
Ed
 1e-10 1 1 0
1  22 0 0 0.00816
6  53 9 23
6  54 10 23
6  55 12 23
0

0101000
+43 24 -81 24 *
Ed
 1e-10 1 1 0
1  23 0 0 0.00816
6  56 9 27
6  57 11 27
6  58 13 27
0

0101000
+42 28 -80 28 *
Wi

0101100
-36 22 -79 2 +35 26 +41 16 *
Fa
0  1e-10 10 16
2  9
0101000
+34 0 *
Wi

0101100
+54 22 +47 22 +40 22 +36 22 -78 9 *
Fa
0  1e-10 11 22
2  10
0101000
+32 0 *
Wi

0101100
+53 26 +46 26 +39 26 +35 26 -77 13 *
Fa
0  1e-10 12 26
2  11
0101000
+30 0 *
Sh

0101100
+51 0 +44 0 +37 0 +33 0 -75 0 +31 0 -29 0 *
So

0100000
-28 0 *
Ve
1e-07
-0.01143 -0.00508 0
0 0

0101101
*
Ed
 1e-10 1 1 0
1  24 0 0 0.0213299419695029
6  59 3 33
6  60 12 33
0

0101000
+26 34 -91 34 *
Ve
1e-07
-0.01143 -0.00508 0.1
0 0

0101101
*
Ed
 1e-10 1 1 0
1  25 0 0 0.0213299419695029
6  61 3 37
6  62 13 37
0

0101000
+24 38 -90 38 *
Ed
 1e-10 1 1 0
1  26 0 0 0.1
6  63 3 39
6  64 17 0
0

0101000
+26 40 -24 40 *
Wi

0101100
-25 32 -89 2 +23 36 +22 29 *
Fa
0  1e-10 13 29
2  3
0101000
+21 0 *
Ve
1e-07
-0.01143 0.00508 0
0 0

0101101
*
Ed
 1e-10 1 1 0
1  27 0 0 0.01016
6  65 12 33
6  66 17 41
0

0101000
+19 34 -26 34 *
Ed
 1e-10 1 1 0
1  28 0 0.001 0.02286
6  67 12 33
6  68 16 33
0

0101000
+43 34 -19 34 *
Wi

0101100
+18 32 +17 32 -36 22 -71 9 -67 9 +25 32 *
Fa
0  1e-10 14 32
2  12
0101000
+16 0 *
Ve
1e-07
-0.01143 0.00508 0.1
0 0

0101101
*
Ed
 1e-10 1 1 0
1  29 0 0 0.01016
6  69 13 37
6  70 17 42
0

0101000
+14 38 -24 38 *
Ed
 1e-10 1 1 0
1  30 0 0.001 0.02286
6  71 13 37
6  72 16 37
0

0101000
+42 38 -14 38 *
Wi

0101100
+13 36 +12 36 -35 26 -70 13 -66 13 +23 36 *
Fa
0  1e-10 15 36
2  13
0101000
+11 0 *
Ed
 1e-10 1 1 0
1  31 0 0 0.1
6  73 17 0
6  74 16 39
0

0101000
+19 40 -14 40 *
Wi

0101100
+9 0 -22 0 -18 43 +13 44 *
Fa
0  1e-10 16 0
2  17
0101000
+8 0 *
Wi

0101100
-17 32 -9 29 +12 36 +41 16 *
Fa
0  1e-10 17 29
2  16
0101000
+6 0 *
Sh

0101100
-20 0 -15 0 +64 0 +10 0 -7 29 -5 0 +33 0 +68 0 *
So

0100000
+4 0 *
Co

0100000
+58 0 +27 0 +3 0 *
Co

1100000
+2 1 *

+1 0 