DBRep_DrawableShape

CASCADE Topology V1, (c) Matra-Datavision
Locations 30
1
              1               0               0               0 
              0               1               0               0 
              0               0               1               0 
1
              1               0               0               0 
              0               1               0               0 
              0               0               1               0 
1
              1               0               0        -0.01143 
              0               1               0        -0.00508 
              0               0               1             0.1 
2  2 1 3 1 1 1 0
2  3 -1 2 -1 0
2  1 -1 3 -1 2 -1 0
1
              1               0               0               0 
              0               1               0               0 
              0               0               1               0 
2  7 -1 0
1
              1               0               0              -0 
              0               1               0              -0 
              0               0               1            -0.1 
2  2 1 3 1 9 1 1 1 0
2  1 -1 9 -1 3 -1 2 -1 0
1
              1               0               0               0 
              0               1               0               0 
              0               0               1               0 
1
              1               0               0         0.00843 
              0               1               0        -0.00508 
              0               0               1             0.1 
1
              1               0               0               0 
              0               1               0               0 
              0               0               1               0 
2  12 1 13 1 14 1 0
2  14 -1 13 -1 12 -1 0
1
              1               0               0               0 
              0               1               0               0 
              0               0               1               0 
1
              1               0               0         0.00543 
              0               1               0        -0.00508 
              0               0               1             0.1 
2  17 1 18 1 7 1 0
2  7 -1 18 -1 17 -1 0
1
              1               0               0              -0 
              0               1               0              -0 
              0               0               1            -0.1 
2  17 1 18 1 21 1 7 1 0
2  7 -1 21 -1 18 -1 17 -1 0
1
              1               0               0              -0 
              0               1               0              -0 
              0               0               1            -0.1 
2  12 1 13 1 24 1 14 1 0
2  14 -1 24 -1 13 -1 12 -1 0
2  2 1 3 1 0
2  2 1 3 1 9 1 0
2  14 -1 0
2  1 -1 0
Curve2ds 7
1 -0.011429999999999997 -0.0050799999999999994 1 0 
1 -0.011429999999999997 0.0050800000000000012 0 -1 
1 0.011430000000000001 0.0050800000000000012 -1 0 
1 -0.0014999999999999998 0.0050800000000000012 0 -1 
1 0.0014999999999999998 0.0014999999999999998 -1 0 
1 -0.0015000000000000002 0.0014999999999999998 0 -1 
1 0.011430000000000001 -0.0050799999999999994 0 1 
Curves 16
1 0 0 0 1 0 0 
1 0.0054299999999999991 -0.0050800000000000003 0.10000000000000001 -0 -0 -1 
1 -0.011429999999999999 -0.0050800000000000003 0.10000000000000001 -0 -0 -1 
1 0 0.010160000000000001 0 0 -1 0 
1 0.022859999999999998 0.010160000000000001 0 -1 0 0 
1 0 0.010160000000000001 0 0 -1 0 
1 0.0030000000000000001 0.0030000000000000001 0 -1 0 0 
1 0 0.0030000000000000001 0 0 -1 0 
1 0.0054299999999999991 -0.0020800000000000003 0.10000000000000001 -0 -0 -1 
1 -0.011429999999999999 0.0050800000000000003 0.10000000000000001 -0 -0 -1 
1 0.0084299999999999983 0.0050800000000000003 0.10000000000000001 -0 -0 -1 
1 0.00843 -0.0020800000000000003 0.10000000000000001 -0 -0 -1 
1 0.0084299999999999983 -0.0050800000000000003 0.10000000000000001 -0 -0 -1 
1 0.011429999999999999 -0.0050800000000000003 0.10000000000000001 -0 -0 -1 
1 0.011429999999999999 0.0050800000000000003 0.10000000000000001 -0 -0 -1 
1 0.022859999999999998 0 0 0 1 0 
Polygon3D 0
PolygonOnTriangulations 0
Surfaces 10
1 -0.011429999999999999 -0.0050800000000000003 0.10000000000000001 0 -1 0 1 0 0 -0 0 1 
1 0.011429999999999997 0.0050799999999999994 0 0 0 1 1 0 -0 -0 1 0 
1 0.0014999999999999998 0.0050799999999999994 0 0 0 1 1 0 -0 -0 1 0 
1 0.0015000000000000002 0.0015000000000000002 0 0 0 1 1 0 -0 -0 1 0 
1 0.0054299999999999991 -0.0020800000000000003 0.10000000000000001 -1 0 0 0 -1 0 0 0 1 
1 -0.011429999999999999 0.0050800000000000003 0.10000000000000001 -1 0 0 0 -1 0 0 0 1 
1 0.011429999999999999 0.0050800000000000003 0.10000000000000001 0 1 -0 -1 0 0 0 0 1 
1 0.0084299999999999983 0.0050800000000000003 0.10000000000000001 -1 0 0 0 -1 0 0 0 1 
1 0.00843 -0.0020800000000000003 0.10000000000000001 0 1 -0 -1 0 0 0 0 1 
1 0.011429999999999999 -0.0050800000000000003 0.10000000000000001 1 0 0 -0 1 0 0 -0 1 
Triangulations 0

TShapes 88
Ve
1e-07
-0.01143 -0.00508 0.1
0 0

0101101
*
Ve
1.00000000001735e-07
0.00543 -0.00508 0.1
0 0

0101101
*
Ed
 1e-07 1 1 0
1  1 0 0 0.01686
2  1 2 0 0 0.01686
0

0101000
+88 5 -87 6 *
Ve
1.00000000001735e-07
0.00543 -0.00508 0
0 0

0101101
*
Ed
 1e-07 1 1 0
1  2 0 0 0.1
0

0101000
+87 8 -85 8 *
Ed
 1e-07 1 1 0
1  1 0 0 0.01686
2  1 2 0 0 0.01686
0

0101000
+88 5 -85 11 *
Ed
 1e-07 1 1 0
1  3 0 0 0.1
0

0101000
+88 0 -88 9 *
Wi

0101100
-86 4 -84 7 +83 10 +82 1 *
Fa
0  1e-07 1 1

0101000
+81 0 *
Ve
1e-07
-0.01143 0.00508 0.1
0 0

0101101
*
Ed
 1e-07 1 1 0
1  4 0 0 0.01016
2  2 2 0 0 0.01016
0

0101000
+79 5 -88 5 *
Ve
1e-07
0.00843 0.00508 0.1
0 0

0101101
*
Ed
 1e-07 1 1 0
1  5 0 0.003 0.02286
2  3 2 0 0.003 0.02286
0

0101000
+77 6 -79 5 *
Ve
1.00000000001735e-07
0.00843 -0.00208 0.1
0 0

0101101
*
Ed
 1e-07 1 1 0
1  6 0 0 0.00716
2  4 3 0 0 0.00716
0

0101000
+77 16 -75 16 *
Ve
1e-07
0.00543 -0.00208 0.1
0 0

0101101
*
Ed
 1e-07 1 1 0
1  7 0 0 0.003
2  5 4 0 0 0.003
0

0101000
+75 20 -73 20 *
Ed
 1e-07 1 1 0
1  8 0 0 0.003
2  6 4 0 0 0.003
0

0101000
+73 20 -87 20 *
Wi

0101100
+78 4 +76 4 -74 15 -72 19 -71 19 +86 4 *
Fa
0  1e-07 2 4

0101000
+70 0 *
Ve
1e-07
0.00543 -0.00208 0
0 0

0101101
*
Ed
 1e-07 1 1 0
1  9 0 0 0.1
0

0101000
+73 8 -68 8 *
Ed
 1e-07 1 1 0
1  8 0 0 0.003
2  6 4 0 0 0.003
0

0101000
+68 23 -85 23 *
Wi

0101100
+67 7 -84 7 -71 19 +66 22 *
Fa
0  1e-07 5 7

0101000
+65 0 *
Ve
1e-07
0.00843 0.00508 0
0 0

0101101
*
Ed
 1e-07 1 1 0
1  5 0 0.003 0.02286
2  3 2 0 0.003 0.02286
0

0101000
+63 11 -79 5 *
Ve
1.00000000001735e-07
0.00843 -0.00208 0
0 0

0101101
*
Ed
 1e-07 1 1 0
1  6 0 0 0.00716
2  4 3 0 0 0.00716
0

0101000
+63 26 -61 26 *
Ed
 1e-07 1 1 0
1  7 0 0 0.003
2  5 4 0 0 0.003
0

0101000
+61 23 -68 23 *
Wi

0101100
+78 10 +62 10 -60 25 -59 22 -66 22 +83 10 *
Fa
0  1e-07 2 10

0101000
+58 0 *
Ed
 1e-07 1 1 0
1  10 0 0 0.1
0

0101000
+79 0 -79 9 *
Wi

0101100
+56 0 -82 0 -78 27 +78 28 *
Fa
0  1e-07 6 0

0111000
+55 0 *
Ed
 1e-07 1 1 0
1  11 0 0 0.1
0

0101000
+77 29 -63 29 *
Wi

0101100
-76 4 -56 1 +62 10 +53 14 *
Fa
0  1e-07 7 1

0101000
+52 0 *
Ed
 1.00000000001735e-07 1 1 0
1  12 0 0 0.1
0

0101000
+75 8 -61 8 *
Wi

0101100
-74 15 -50 7 +60 25 +53 14 *
Fa
0  1e-07 8 14

0101000
+49 0 *
Wi

0101100
+50 7 -67 7 -72 19 +59 22 *
Fa
0  1e-07 9 7

0101000
+47 0 *
Sh

0101100
+80 0 +69 0 -64 0 -57 0 +54 1 +51 0 -48 0 -46 0 *
So

0100000
+45 0 *
Ve
1.00000000015613e-07
0.00843 -0.00508 0.1
0 0

0101101
*
Ed
 1e-07 1 1 0
1  1 0 0.01686 0.01986
2  1 2 0 0.01686 0.01986
0

0101000
+87 6 -43 6 *
Ve
1.00000000001735e-07
0.00843 -0.00508 0
0 0

0101101
*
Ed
 1.00000000001735e-07 1 1 0
1  13 0 0 0.1
0

0101000
+43 29 -41 29 *
Ed
 1e-07 1 1 0
1  1 0 0.01686 0.01986
2  1 2 0 0.01686 0.01986
0

0101000
+85 11 -41 11 *
Wi

0101100
-42 4 -40 14 +39 10 +84 7 *
Fa
0  1e-07 1 1

0101000
+38 0 *
Ed
 1.00000000001735e-07 1 1 0
1  6 0 0.00716 0.01016
2  4 3 0 0.00716 0.01016
0

0101000
+75 16 -43 16 *
Ed
 1.00000000001735e-07 1 1 0
1  6 0 0.00716 0.01016
2  4 3 0 0.00716 0.01016
0

0101000
+61 26 -41 26 *
Wi

0101100
-36 15 -40 14 +35 25 +50 7 *
Fa
0  1e-07 8 14

0101000
+34 0 *
Wi

0101100
+71 19 +72 19 -36 15 +42 4 *
Fa
0  1e-07 2 4

0101000
+32 0 *
Wi

0101100
+66 22 +59 22 -35 25 +39 10 *
Fa
0  1e-07 2 10

0101000
+30 0 *
Sh

0101100
+37 0 -33 0 +46 0 +64 0 +31 0 -29 0 *
So

0100000
+28 0 *
Ve
1e-07
0.01143 -0.00508 0.1
0 0

0101101
*
Ed
 1e-07 1 1 0
1  1 0 0.01986 0.02286
2  1 2 0 0.01986 0.02286
0

0101000
+43 6 -26 6 *
Ve
1e-07
0.01143 -0.00508 0
0 0

0101101
*
Ed
 1e-07 1 1 0
1  14 0 0 0.1
0

0101000
+26 30 -24 30 *
Ed
 1e-07 1 1 0
1  1 0 0.01986 0.02286
2  1 2 0 0.01986 0.02286
0

0101000
+41 11 -24 11 *
Wi

0101100
-25 4 -23 1 +22 10 +40 14 *
Fa
0  1e-07 1 1

0101000
+21 0 *
Ve
1e-07
0.01143 0.00508 0.1
0 0

0101101
*
Ve
1e-07
0.01143 0.00508 0
0 0

0101101
*
Ed
 1e-07 1 1 0
1  15 0 0 0.1
0

0101000
+19 30 -18 30 *
Ed
 1e-07 1 1 0
1  16 0 0 0.01016
2  7 2 0 0 0.01016
0

0101000
+26 6 -19 6 *
Ed
 1e-07 1 1 0
1  16 0 0 0.01016
2  7 2 0 0 0.01016
0

0101000
+24 11 -18 11 *
Wi

0101100
+23 1 -17 1 -16 4 +15 10 *
Fa
0  1e-07 10 1

0101000
+14 0 *
Ed
 1e-07 1 1 0
1  5 0 0 0.003
2  3 2 0 0 0.003
0

0101000
+19 6 -77 6 *
Ed
 1e-07 1 1 0
1  5 0 0 0.003
2  3 2 0 0 0.003
0

0101000
+18 11 -63 11 *
Wi

0101100
-12 4 -53 14 +11 10 +17 1 *
Fa
0  1e-07 7 1

0101000
+10 0 *
Wi

0101100
+36 15 +74 15 +12 4 +16 4 +25 4 *
Fa
0  1e-07 2 4

0101000
+8 0 *
Wi

0101100
+35 25 +60 25 +11 10 +15 10 +22 10 *
Fa
0  1e-07 2 10

0101000
+6 0 *
Sh

0101100
+20 0 +13 0 +9 0 +48 0 +33 0 +7 0 -5 0 *
So

0100000
+4 0 *
Co

0100000
+44 0 +27 0 +3 0 *
Co

1100000
+2 0 *

+1 0 